# Blender 5.1.1
# www.blender.org
mtllib Eisenkessel.mtl
o Eisenkessel
v 6.445532 0.252169 -4.342273
v 6.456587 0.292012 -4.342273
v 6.445534 0.252169 -4.606131
v 6.456589 0.292011 -4.606131
v 6.484515 0.241353 -4.348540
v 6.495570 0.281196 -4.348540
v 6.484546 0.241344 -4.600063
v 6.495601 0.281187 -4.600063
v 6.436581 0.254653 -4.544133
v 6.413808 0.260971 -4.475900
v 6.436284 0.254735 -4.404224
v 6.447339 0.294578 -4.404224
v 6.424863 0.300814 -4.475900
v 6.447636 0.294496 -4.544133
v 6.481538 0.242179 -4.368478
v 6.453256 0.250026 -4.476102
v 6.481306 0.242243 -4.577626
v 6.492361 0.282086 -4.577626
v 6.464311 0.289869 -4.476102
v 6.492593 0.282021 -4.368478
v 6.580017 0.257764 -4.586934
v 6.568962 0.217922 -4.586934
v 6.565722 0.218821 -4.564497
v 6.576945 0.258617 -4.382040
v 6.579922 0.257791 -4.362102
v 6.568867 0.217948 -4.362102
v 6.565890 0.218774 -4.382040
v 6.576777 0.258663 -4.564497
v 7.485286 0.252169 -4.342273
v 7.474231 0.292012 -4.342273
v 7.485283 0.252169 -4.606131
v 7.474228 0.292011 -4.606131
v 7.446302 0.241353 -4.348540
v 7.435247 0.281196 -4.348540
v 7.446271 0.241344 -4.600063
v 7.435216 0.281187 -4.600063
v 7.494236 0.254653 -4.544133
v 7.517009 0.260971 -4.475900
v 7.494534 0.254735 -4.404224
v 7.483479 0.294578 -4.404224
v 7.505954 0.300814 -4.475900
v 7.483181 0.294496 -4.544133
v 7.449279 0.242179 -4.368478
v 7.477561 0.250026 -4.476102
v 7.449511 0.242243 -4.577626
v 7.438456 0.282086 -4.577626
v 7.466506 0.289869 -4.476102
v 7.438224 0.282021 -4.368478
v 7.350801 0.257764 -4.586934
v 7.361856 0.217922 -4.586934
v 7.365096 0.218821 -4.564497
v 7.353872 0.258617 -4.382040
v 7.350896 0.257791 -4.362102
v 7.361951 0.217948 -4.362102
v 7.364927 0.218774 -4.382040
v 7.354041 0.258663 -4.564497
v 6.965409 0.000000 -4.474466
v 6.553056 0.000000 -4.474466
v 6.520105 0.010413 -4.474466
v 6.493744 0.035456 -4.474466
v 6.477928 0.077633 -4.474466
v 6.476610 0.129036 -4.474466
v 6.483991 0.169896 -4.474466
v 6.495853 0.218399 -4.474466
v 6.523796 0.288783 -4.474466
v 6.583388 0.383172 -4.474466
v 6.568890 0.389762 -4.474466
v 6.558346 0.401625 -4.474466
v 6.557027 0.421395 -4.474466
v 6.566254 0.437212 -4.474466
v 6.576798 0.445120 -4.474466
v 6.592615 0.446438 -4.474466
v 6.596323 0.443260 -4.474466
v 6.597382 0.439552 -4.474466
v 6.596852 0.436904 -4.474466
v 6.593144 0.434255 -4.474466
v 6.580961 0.433196 -4.474466
v 6.575135 0.430018 -4.474466
v 6.570368 0.423661 -4.474466
v 6.568779 0.416775 -4.474466
v 6.568779 0.406181 -4.474466
v 6.573016 0.400885 -4.474466
v 6.579372 0.395058 -4.474466
v 6.596852 0.383934 -4.474466
v 6.619625 0.229455 -4.474466
v 6.606788 0.167546 -4.474466
v 6.597681 0.132776 -4.474466
v 6.598095 0.085175 -4.474466
v 6.607202 0.059097 -4.474466
v 6.633693 0.034262 -4.474466
v 6.643213 0.031364 -4.474466
v 6.965445 0.031364 -4.474466
v 6.965409 0.000000 -4.474466
v 6.584445 0.000000 -4.316666
v 6.554002 0.010413 -4.304056
v 6.529647 0.035455 -4.293968
v 6.515035 0.077633 -4.287915
v 6.513817 0.129036 -4.287411
v 6.520637 0.169896 -4.290236
v 6.531596 0.218399 -4.294775
v 6.557411 0.288783 -4.305468
v 6.612468 0.383172 -4.328273
v 6.599073 0.389762 -4.322725
v 6.589332 0.401625 -4.318690
v 6.588114 0.421395 -4.318185
v 6.596638 0.437212 -4.321716
v 6.606380 0.445120 -4.325751
v 6.620992 0.446438 -4.331804
v 6.624417 0.443260 -4.333223
v 6.625396 0.439552 -4.333629
v 6.624907 0.436904 -4.333426
v 6.621481 0.434255 -4.332007
v 6.610226 0.433196 -4.327344
v 6.604843 0.430018 -4.325115
v 6.600439 0.423661 -4.323290
v 6.598970 0.416775 -4.322682
v 6.598970 0.406181 -4.322682
v 6.602885 0.400885 -4.324304
v 6.608757 0.395058 -4.326736
v 6.624907 0.383934 -4.333426
v 6.645946 0.229455 -4.342141
v 6.634086 0.167546 -4.337228
v 6.625673 0.132776 -4.333743
v 6.626055 0.085174 -4.333901
v 6.634468 0.059097 -4.337386
v 6.658943 0.034262 -4.347524
v 6.667738 0.031364 -4.351167
v 6.965442 0.031364 -4.474480
v 6.965409 0.000000 -4.474466
v 6.673831 0.000000 -4.182889
v 6.650531 0.010413 -4.159589
v 6.631892 0.035455 -4.140949
v 6.620708 0.077633 -4.129765
v 6.619776 0.129036 -4.128833
v 6.624995 0.169896 -4.134052
v 6.633383 0.218399 -4.142440
v 6.653141 0.288783 -4.162199
v 6.695280 0.383172 -4.204337
v 6.685028 0.389762 -4.194085
v 6.677572 0.401625 -4.186629
v 6.676640 0.421395 -4.185697
v 6.683164 0.437212 -4.192221
v 6.690619 0.445120 -4.199677
v 6.701804 0.446438 -4.210861
v 6.704425 0.443260 -4.213483
v 6.705174 0.439552 -4.214232
v 6.704800 0.436904 -4.213857
v 6.702178 0.434255 -4.211236
v 6.693563 0.433196 -4.202621
v 6.689444 0.430018 -4.198501
v 6.686072 0.423661 -4.195130
v 6.684949 0.416775 -4.194006
v 6.684949 0.406181 -4.194006
v 6.687945 0.400884 -4.197002
v 6.692440 0.395058 -4.201497
v 6.704800 0.383934 -4.213857
v 6.720903 0.229455 -4.229960
v 6.711825 0.167546 -4.220882
v 6.705386 0.132776 -4.214443
v 6.705679 0.085174 -4.214736
v 6.712118 0.059097 -4.221175
v 6.730850 0.034262 -4.239907
v 6.737582 0.031364 -4.246639
v 6.965435 0.031364 -4.474492
v 6.965409 0.000000 -4.474466
v 6.807608 0.000000 -4.093502
v 6.794999 0.010413 -4.063059
v 6.784911 0.035455 -4.038705
v 6.778858 0.077633 -4.024092
v 6.778354 0.129036 -4.022875
v 6.781178 0.169896 -4.029694
v 6.785717 0.218399 -4.040653
v 6.796411 0.288783 -4.066469
v 6.819216 0.383172 -4.121525
v 6.813668 0.389762 -4.108130
v 6.809632 0.401625 -4.098389
v 6.809128 0.421395 -4.097171
v 6.812659 0.437212 -4.105695
v 6.816694 0.445120 -4.115437
v 6.822747 0.446438 -4.130049
v 6.824166 0.443260 -4.133475
v 6.824571 0.439552 -4.134454
v 6.824368 0.436904 -4.133964
v 6.822949 0.434255 -4.130538
v 6.818287 0.433196 -4.119283
v 6.816058 0.430018 -4.113900
v 6.814233 0.423661 -4.109496
v 6.813625 0.416775 -4.108027
v 6.813625 0.406181 -4.108027
v 6.815247 0.400885 -4.111943
v 6.817679 0.395058 -4.117815
v 6.824368 0.383934 -4.133964
v 6.833083 0.229455 -4.155004
v 6.828170 0.167546 -4.143143
v 6.824686 0.132776 -4.134730
v 6.824844 0.085175 -4.135112
v 6.828329 0.059097 -4.143526
v 6.838467 0.034262 -4.168000
v 6.842110 0.031364 -4.176796
v 6.965423 0.031364 -4.474500
v 6.965409 0.000000 -4.474466
v 6.965409 0.000000 -4.062113
v 6.965409 0.010413 -4.029162
v 6.965409 0.035455 -4.002801
v 6.965409 0.077633 -3.986985
v 6.965409 0.129036 -3.985667
v 6.965409 0.169896 -3.993048
v 6.965409 0.218399 -4.004910
v 6.965409 0.288783 -4.032853
v 6.965409 0.383172 -4.092446
v 6.965409 0.389762 -4.077947
v 6.965409 0.401625 -4.067403
v 6.965409 0.421395 -4.066085
v 6.965409 0.437212 -4.075311
v 6.965409 0.445120 -4.085855
v 6.965409 0.446438 -4.101672
v 6.965409 0.443260 -4.105380
v 6.965409 0.439552 -4.106439
v 6.965409 0.436904 -4.105909
v 6.965409 0.434255 -4.102201
v 6.965409 0.433196 -4.090019
v 6.965409 0.430018 -4.084192
v 6.965409 0.423661 -4.079425
v 6.965409 0.416775 -4.077836
v 6.965409 0.406181 -4.077836
v 6.965409 0.400885 -4.082073
v 6.965409 0.395058 -4.088430
v 6.965409 0.383934 -4.105909
v 6.965409 0.229455 -4.128682
v 6.965409 0.167546 -4.115845
v 6.965409 0.132776 -4.106739
v 6.965409 0.085175 -4.107152
v 6.965409 0.059097 -4.116259
v 6.965409 0.034262 -4.142750
v 6.965409 0.031364 -4.152270
v 6.965409 0.031364 -4.474503
v 6.965409 0.000000 -4.474466
v 7.123209 0.000000 -4.093502
v 7.135819 0.010413 -4.063059
v 7.145907 0.035455 -4.038705
v 7.151960 0.077633 -4.024092
v 7.152464 0.129036 -4.022875
v 7.149640 0.169896 -4.029694
v 7.145100 0.218399 -4.040653
v 7.134407 0.288783 -4.066469
v 7.111602 0.383172 -4.121525
v 7.117150 0.389762 -4.108130
v 7.121185 0.401625 -4.098389
v 7.121690 0.421395 -4.097171
v 7.118159 0.437212 -4.105695
v 7.114124 0.445120 -4.115437
v 7.108071 0.446438 -4.130049
v 7.106652 0.443260 -4.133475
v 7.106247 0.439552 -4.134454
v 7.106450 0.436904 -4.133964
v 7.107869 0.434255 -4.130538
v 7.112531 0.433196 -4.119283
v 7.114760 0.430018 -4.113900
v 7.116585 0.423661 -4.109496
v 7.117193 0.416775 -4.108027
v 7.117193 0.406181 -4.108027
v 7.115571 0.400885 -4.111943
v 7.113139 0.395058 -4.117815
v 7.106450 0.383934 -4.133964
v 7.097735 0.229455 -4.155004
v 7.102647 0.167546 -4.143143
v 7.106133 0.132776 -4.134730
v 7.105974 0.085175 -4.135112
v 7.102489 0.059097 -4.143526
v 7.092351 0.034262 -4.168000
v 7.088708 0.031364 -4.176796
v 6.965395 0.031364 -4.474500
v 6.965409 0.000000 -4.474466
v 7.256987 0.000000 -4.182889
v 7.280286 0.010413 -4.159589
v 7.298926 0.035456 -4.140949
v 7.310110 0.077633 -4.129765
v 7.311042 0.129036 -4.128833
v 7.305823 0.169896 -4.134052
v 7.297435 0.218399 -4.142440
v 7.277677 0.288783 -4.162199
v 7.235538 0.383172 -4.204337
v 7.245790 0.389762 -4.194085
v 7.253246 0.401625 -4.186629
v 7.254178 0.421395 -4.185697
v 7.247654 0.437212 -4.192221
v 7.240198 0.445120 -4.199677
v 7.229014 0.446438 -4.210861
v 7.226392 0.443260 -4.213483
v 7.225643 0.439552 -4.214232
v 7.226018 0.436904 -4.213857
v 7.228640 0.434255 -4.211236
v 7.237254 0.433196 -4.202621
v 7.241374 0.430018 -4.198501
v 7.244745 0.423661 -4.195130
v 7.245869 0.416775 -4.194006
v 7.245869 0.406181 -4.194006
v 7.242873 0.400885 -4.197002
v 7.238378 0.395058 -4.201497
v 7.226018 0.383934 -4.213857
v 7.209915 0.229455 -4.229960
v 7.218993 0.167546 -4.220882
v 7.225432 0.132776 -4.214443
v 7.225139 0.085174 -4.214736
v 7.218700 0.059097 -4.221175
v 7.199968 0.034262 -4.239907
v 7.193236 0.031364 -4.246639
v 6.965384 0.031364 -4.474492
v 6.965409 0.000000 -4.474466
v 7.346374 0.000000 -4.316666
v 7.376816 0.010413 -4.304056
v 7.401170 0.035456 -4.293968
v 7.415783 0.077633 -4.287915
v 7.417001 0.129036 -4.287411
v 7.410182 0.169896 -4.290236
v 7.399222 0.218400 -4.294775
v 7.373406 0.288783 -4.305468
v 7.318350 0.383172 -4.328273
v 7.331745 0.389762 -4.322725
v 7.341486 0.401625 -4.318690
v 7.342704 0.421395 -4.318185
v 7.334180 0.437212 -4.321716
v 7.324439 0.445120 -4.325751
v 7.309826 0.446438 -4.331804
v 7.306400 0.443260 -4.333223
v 7.305422 0.439552 -4.333629
v 7.305911 0.436904 -4.333426
v 7.309337 0.434255 -4.332007
v 7.320592 0.433196 -4.327345
v 7.325975 0.430018 -4.325115
v 7.330379 0.423661 -4.323291
v 7.331848 0.416775 -4.322682
v 7.331848 0.406181 -4.322682
v 7.327933 0.400885 -4.324304
v 7.322060 0.395058 -4.326736
v 7.305911 0.383934 -4.333426
v 7.284872 0.229455 -4.342141
v 7.296732 0.167546 -4.337228
v 7.305145 0.132776 -4.333743
v 7.304763 0.085175 -4.333901
v 7.296350 0.059097 -4.337386
v 7.271875 0.034262 -4.347524
v 7.263079 0.031364 -4.351167
v 6.965375 0.031364 -4.474480
v 6.965409 0.000000 -4.474466
v 7.377762 0.000000 -4.474466
v 7.410713 0.010413 -4.474466
v 7.437074 0.035456 -4.474466
v 7.452890 0.077633 -4.474466
v 7.454208 0.129036 -4.474466
v 7.446827 0.169896 -4.474466
v 7.434965 0.218399 -4.474466
v 7.407022 0.288783 -4.474466
v 7.347429 0.383172 -4.474466
v 7.361928 0.389762 -4.474466
v 7.372472 0.401625 -4.474466
v 7.373790 0.421395 -4.474466
v 7.364564 0.437212 -4.474466
v 7.354020 0.445120 -4.474466
v 7.338203 0.446438 -4.474466
v 7.334496 0.443260 -4.474466
v 7.333436 0.439552 -4.474466
v 7.333966 0.436904 -4.474466
v 7.337674 0.434255 -4.474466
v 7.349856 0.433196 -4.474466
v 7.355683 0.430018 -4.474466
v 7.360450 0.423661 -4.474466
v 7.362039 0.416775 -4.474466
v 7.362040 0.406181 -4.474466
v 7.357802 0.400885 -4.474466
v 7.351446 0.395058 -4.474466
v 7.333966 0.383934 -4.474466
v 7.311193 0.229455 -4.474466
v 7.324030 0.167546 -4.474466
v 7.333137 0.132776 -4.474466
v 7.332723 0.085175 -4.474466
v 7.323617 0.059097 -4.474466
v 7.297125 0.034262 -4.474466
v 7.287605 0.031364 -4.474466
v 6.965373 0.031364 -4.474466
v 6.965409 0.000000 -4.474466
v 7.346374 0.000000 -4.632267
v 7.376816 0.010413 -4.644877
v 7.401170 0.035456 -4.654964
v 7.415783 0.077633 -4.661017
v 7.417001 0.129036 -4.661522
v 7.410182 0.169896 -4.658697
v 7.399222 0.218400 -4.654158
v 7.373406 0.288783 -4.643465
v 7.318350 0.383172 -4.620659
v 7.331745 0.389762 -4.626207
v 7.341486 0.401625 -4.630243
v 7.342704 0.421395 -4.630747
v 7.334180 0.437212 -4.627216
v 7.324439 0.445120 -4.623181
v 7.309826 0.446438 -4.617128
v 7.306400 0.443260 -4.615710
v 7.305422 0.439552 -4.615304
v 7.305911 0.436904 -4.615507
v 7.309337 0.434255 -4.616926
v 7.320592 0.433196 -4.621588
v 7.325975 0.430018 -4.623818
v 7.330379 0.423661 -4.625642
v 7.331848 0.416775 -4.626250
v 7.331848 0.406181 -4.626250
v 7.327933 0.400885 -4.624629
v 7.322060 0.395058 -4.622196
v 7.305911 0.383934 -4.615507
v 7.284872 0.229455 -4.606792
v 7.296732 0.167546 -4.611705
v 7.305145 0.132776 -4.615190
v 7.304763 0.085175 -4.615031
v 7.296350 0.059097 -4.611547
v 7.271875 0.034262 -4.601408
v 7.263079 0.031364 -4.597765
v 6.965375 0.031364 -4.474452
v 6.965409 0.000000 -4.474466
v 7.256987 0.000000 -4.766044
v 7.280286 0.010413 -4.789344
v 7.298926 0.035456 -4.807984
v 7.310110 0.077633 -4.819168
v 7.311042 0.129036 -4.820100
v 7.305823 0.169896 -4.814880
v 7.297435 0.218400 -4.806492
v 7.277677 0.288783 -4.786734
v 7.235538 0.383172 -4.744596
v 7.245790 0.389762 -4.754848
v 7.253246 0.401625 -4.762303
v 7.254178 0.421395 -4.763236
v 7.247654 0.437212 -4.756711
v 7.240198 0.445120 -4.749256
v 7.229014 0.446438 -4.738072
v 7.226392 0.443260 -4.735450
v 7.225643 0.439552 -4.734701
v 7.226018 0.436904 -4.735075
v 7.228640 0.434255 -4.737697
v 7.237254 0.433196 -4.746312
v 7.241374 0.430018 -4.750432
v 7.244745 0.423661 -4.753803
v 7.245869 0.416775 -4.754926
v 7.245869 0.406181 -4.754926
v 7.242873 0.400885 -4.751930
v 7.238378 0.395058 -4.747436
v 7.226018 0.383934 -4.735075
v 7.209915 0.229455 -4.718973
v 7.218993 0.167546 -4.728050
v 7.225432 0.132776 -4.734489
v 7.225139 0.085175 -4.734197
v 7.218700 0.059097 -4.727757
v 7.199968 0.034262 -4.709025
v 7.193236 0.031364 -4.702293
v 6.965384 0.031364 -4.474441
v 6.965409 0.000000 -4.474466
v 7.123209 0.000000 -4.855431
v 7.135819 0.010413 -4.885874
v 7.145907 0.035456 -4.910228
v 7.151960 0.077633 -4.924840
v 7.152464 0.129036 -4.926058
v 7.149640 0.169896 -4.919239
v 7.145100 0.218400 -4.908279
v 7.134407 0.288783 -4.882464
v 7.111602 0.383172 -4.827407
v 7.117150 0.389762 -4.840802
v 7.121185 0.401625 -4.850544
v 7.121690 0.421395 -4.851762
v 7.118159 0.437212 -4.843237
v 7.114124 0.445120 -4.833496
v 7.108071 0.446438 -4.818883
v 7.106652 0.443260 -4.815458
v 7.106246 0.439552 -4.814479
v 7.106450 0.436904 -4.814969
v 7.107868 0.434255 -4.818394
v 7.112531 0.433196 -4.829649
v 7.114760 0.430018 -4.835032
v 7.116585 0.423661 -4.839437
v 7.117193 0.416775 -4.840905
v 7.117193 0.406181 -4.840905
v 7.115571 0.400885 -4.836990
v 7.113139 0.395058 -4.831118
v 7.106450 0.383934 -4.814969
v 7.097734 0.229455 -4.793929
v 7.102647 0.167546 -4.805789
v 7.106132 0.132776 -4.814203
v 7.105974 0.085175 -4.813820
v 7.102489 0.059097 -4.805407
v 7.092351 0.034262 -4.780932
v 7.088708 0.031364 -4.772137
v 6.965395 0.031364 -4.474433
v 6.965409 0.000000 -4.474466
v 6.965409 0.000000 -4.886819
v 6.965409 0.010413 -4.919770
v 6.965409 0.035456 -4.946131
v 6.965409 0.077633 -4.961947
v 6.965409 0.129036 -4.963266
v 6.965409 0.169896 -4.955884
v 6.965409 0.218400 -4.944022
v 6.965409 0.288783 -4.916080
v 6.965409 0.383172 -4.856487
v 6.965409 0.389762 -4.870985
v 6.965409 0.401625 -4.881530
v 6.965409 0.421395 -4.882848
v 6.965409 0.437212 -4.873621
v 6.965409 0.445120 -4.863077
v 6.965409 0.446438 -4.847260
v 6.965409 0.443260 -4.843553
v 6.965409 0.439552 -4.842494
v 6.965409 0.436904 -4.843023
v 6.965409 0.434255 -4.846731
v 6.965409 0.433196 -4.858914
v 6.965409 0.430018 -4.864740
v 6.965409 0.423661 -4.869508
v 6.965409 0.416775 -4.871097
v 6.965409 0.406181 -4.871097
v 6.965409 0.400885 -4.866859
v 6.965409 0.395058 -4.860503
v 6.965409 0.383934 -4.843023
v 6.965409 0.229455 -4.820251
v 6.965409 0.167546 -4.833088
v 6.965409 0.132776 -4.842194
v 6.965409 0.085175 -4.841780
v 6.965409 0.059097 -4.832674
v 6.965409 0.034262 -4.806183
v 6.965409 0.031364 -4.796662
v 6.965409 0.031364 -4.474430
v 6.965409 0.000000 -4.474466
v 6.807608 0.000000 -4.855431
v 6.794998 0.010413 -4.885874
v 6.784911 0.035456 -4.910228
v 6.778858 0.077633 -4.924840
v 6.778354 0.129036 -4.926058
v 6.781178 0.169896 -4.919239
v 6.785717 0.218400 -4.908279
v 6.796411 0.288783 -4.882464
v 6.819216 0.383172 -4.827407
v 6.813668 0.389762 -4.840802
v 6.809632 0.401625 -4.850544
v 6.809128 0.421395 -4.851761
v 6.812659 0.437212 -4.843237
v 6.816694 0.445120 -4.833496
v 6.822747 0.446438 -4.818883
v 6.824165 0.443260 -4.815458
v 6.824571 0.439552 -4.814479
v 6.824368 0.436904 -4.814968
v 6.822949 0.434255 -4.818394
v 6.818287 0.433196 -4.829649
v 6.816057 0.430018 -4.835032
v 6.814233 0.423661 -4.839437
v 6.813625 0.416775 -4.840905
v 6.813625 0.406181 -4.840905
v 6.815247 0.400885 -4.836990
v 6.817679 0.395058 -4.831118
v 6.824368 0.383934 -4.814968
v 6.833083 0.229455 -4.793929
v 6.828170 0.167546 -4.805789
v 6.824686 0.132776 -4.814202
v 6.824844 0.085175 -4.813820
v 6.828329 0.059097 -4.805407
v 6.838467 0.034262 -4.780932
v 6.842110 0.031364 -4.772137
v 6.965423 0.031364 -4.474433
v 6.965409 0.000000 -4.474466
v 6.673831 0.000000 -4.766044
v 6.650531 0.010413 -4.789344
v 6.631891 0.035456 -4.807983
v 6.620708 0.077633 -4.819168
v 6.619775 0.129036 -4.820099
v 6.624995 0.169896 -4.814880
v 6.633383 0.218400 -4.806492
v 6.653141 0.288783 -4.786734
v 6.695280 0.383172 -4.744596
v 6.685028 0.389762 -4.754848
v 6.677572 0.401625 -4.762303
v 6.676640 0.421395 -4.763236
v 6.683164 0.437212 -4.756711
v 6.690619 0.445120 -4.749256
v 6.701804 0.446438 -4.738071
v 6.704425 0.443260 -4.735450
v 6.705174 0.439552 -4.734701
v 6.704800 0.436904 -4.735075
v 6.702178 0.434255 -4.737697
v 6.693563 0.433196 -4.746312
v 6.689444 0.430018 -4.750432
v 6.686072 0.423661 -4.753803
v 6.684949 0.416775 -4.754926
v 6.684949 0.406181 -4.754926
v 6.687945 0.400885 -4.751930
v 6.692440 0.395058 -4.747435
v 6.704800 0.383934 -4.735075
v 6.720902 0.229455 -4.718972
v 6.711825 0.167546 -4.728050
v 6.705386 0.132776 -4.734489
v 6.705678 0.085175 -4.734197
v 6.712118 0.059097 -4.727757
v 6.730850 0.034262 -4.709025
v 6.737582 0.031364 -4.702293
v 6.965435 0.031364 -4.474441
v 6.965409 0.000000 -4.474466
v 6.584445 0.000000 -4.632267
v 6.554002 0.010413 -4.644877
v 6.529647 0.035456 -4.654964
v 6.515035 0.077633 -4.661017
v 6.513817 0.129036 -4.661522
v 6.520637 0.169896 -4.658697
v 6.531596 0.218399 -4.654158
v 6.557411 0.288783 -4.643465
v 6.612468 0.383172 -4.620659
v 6.599073 0.389762 -4.626207
v 6.589332 0.401625 -4.630243
v 6.588114 0.421395 -4.630747
v 6.596638 0.437212 -4.627216
v 6.606380 0.445120 -4.623181
v 6.620992 0.446438 -4.617128
v 6.624417 0.443260 -4.615710
v 6.625396 0.439552 -4.615304
v 6.624907 0.436904 -4.615507
v 6.621481 0.434255 -4.616926
v 6.610226 0.433196 -4.621588
v 6.604843 0.430018 -4.623818
v 6.600439 0.423661 -4.625642
v 6.598970 0.416775 -4.626250
v 6.598970 0.406181 -4.626250
v 6.602885 0.400885 -4.624629
v 6.608757 0.395058 -4.622196
v 6.624907 0.383934 -4.615507
v 6.645946 0.229455 -4.606792
v 6.634086 0.167546 -4.611705
v 6.625673 0.132776 -4.615190
v 6.626055 0.085175 -4.615031
v 6.634468 0.059097 -4.611547
v 6.658943 0.034262 -4.601408
v 6.667738 0.031364 -4.597765
v 6.965442 0.031364 -4.474452
vn -0.9530 0.2644 -0.1482
vn 0.1428 -0.0396 -0.9890
vn -0.2674 -0.9636 -0.0000
vn 0.1475 -0.0409 0.9882
vn 0.2674 0.9636 -0.0000
vn 0.9263 -0.2570 0.2756
vn 0.9296 -0.2579 -0.2631
vn -0.9522 0.2642 0.1531
vn -0.9163 0.2542 0.3094
vn -0.9105 0.2526 -0.3273
vn 0.9522 -0.2642 -0.1531
vn 0.9530 -0.2644 0.1482
vn -0.1475 0.0409 -0.9882
vn -0.1428 0.0396 0.9890
vn 0.9530 0.2644 -0.1482
vn -0.1428 -0.0396 -0.9890
vn 0.2674 -0.9636 -0.0000
vn -0.1475 -0.0409 0.9882
vn -0.2674 0.9636 -0.0000
vn -0.9263 -0.2570 0.2756
vn -0.9296 -0.2579 -0.2631
vn 0.9522 0.2642 0.1531
vn 0.9163 0.2542 0.3094
vn 0.9105 0.2526 -0.3273
vn -0.9522 -0.2642 -0.1531
vn -0.9530 -0.2644 0.1482
vn 0.1475 0.0409 -0.9882
vn 0.1428 0.0396 0.9890
vn -0.0000 -1.0000 -0.0000
vn -0.1346 -0.9884 0.0696
vn -0.2328 -0.9725 -0.0000
vn -0.0726 -0.9932 0.0912
vn -0.0310 -0.9945 0.0997
vn 0.0001 -0.9948 0.1014
vn 0.0311 -0.9945 0.0997
vn 0.0727 -0.9932 0.0912
vn 0.1348 -0.9884 0.0696
vn 0.2330 -0.9725 -0.0000
vn 0.1348 -0.9884 -0.0696
vn 0.0727 -0.9932 -0.0912
vn 0.0311 -0.9945 -0.0997
vn 0.0001 -0.9948 -0.1014
vn -0.0310 -0.9945 -0.0997
vn -0.0726 -0.9932 -0.0912
vn -0.1346 -0.9884 -0.0696
vn -0.4430 -0.8825 0.1578
vn -0.5872 -0.8094 -0.0000
vn -0.3231 -0.8996 0.2939
vn -0.1817 -0.8996 0.3972
vn -0.0000 -0.8984 0.4391
vn 0.1818 -0.8995 0.3972
vn 0.3233 -0.8995 0.2938
vn 0.4431 -0.8825 0.1575
vn 0.5871 -0.8095 -0.0000
vn 0.4431 -0.8825 -0.1575
vn 0.3233 -0.8995 -0.2938
vn 0.1818 -0.8995 -0.3972
vn -0.0000 -0.8984 -0.4391
vn -0.1817 -0.8996 -0.3972
vn -0.3231 -0.8996 -0.2939
vn -0.4430 -0.8825 -0.1578
vn -0.7777 -0.5787 0.2456
vn -0.8634 -0.5046 -0.0000
vn -0.6050 -0.5853 0.5398
vn -0.3336 -0.5812 0.7423
vn -0.0000 -0.5794 0.8151
vn 0.3337 -0.5811 0.7423
vn 0.6052 -0.5852 0.5397
vn 0.7778 -0.5787 0.2453
vn 0.8629 -0.5054 -0.0000
vn 0.7778 -0.5787 -0.2453
vn 0.6052 -0.5852 -0.5397
vn 0.3337 -0.5811 -0.7423
vn -0.0000 -0.5794 -0.8151
vn -0.3336 -0.5812 -0.7423
vn -0.6050 -0.5853 -0.5398
vn -0.7777 -0.5787 -0.2456
vn -0.9356 -0.1977 0.2926
vn -0.9843 -0.1766 -0.0000
vn -0.7276 -0.1981 0.6568
vn -0.3968 -0.1967 0.8966
vn -0.0000 -0.1962 0.9806
vn 0.3968 -0.1966 0.8966
vn 0.7276 -0.1980 0.6568
vn 0.9356 -0.1976 0.2925
vn 0.9841 -0.1776 -0.0000
vn 0.9356 -0.1976 -0.2925
vn 0.7276 -0.1980 -0.6568
vn 0.3968 -0.1966 -0.8966
vn -0.0000 -0.1962 -0.9806
vn -0.3968 -0.1967 -0.8966
vn -0.7276 -0.1981 -0.6568
vn -0.9356 -0.1977 -0.2926
vn -0.9502 0.0776 0.3018
vn -0.9973 0.0731 -0.0000
vn -0.7365 0.0776 0.6720
vn -0.4005 0.0773 0.9130
vn -0.0000 0.0772 0.9970
vn 0.4005 0.0774 0.9130
vn 0.7365 0.0777 0.6720
vn 0.9502 0.0778 0.3018
vn 0.9974 0.0726 -0.0000
vn 0.9502 0.0778 -0.3018
vn 0.7365 0.0777 -0.6720
vn 0.4005 0.0774 -0.9130
vn -0.0000 0.0772 -0.9970
vn -0.4005 0.0773 -0.9130
vn -0.7365 0.0776 -0.6720
vn -0.9502 0.0776 -0.3018
vn -0.9304 0.2080 0.3019
vn -0.9788 0.2048 -0.0000
vn -0.7186 0.2082 0.6635
vn -0.3899 0.2080 0.8971
vn -0.0000 0.2079 0.9781
vn 0.3899 0.2080 0.8971
vn 0.7186 0.2083 0.6635
vn 0.9303 0.2081 0.3020
vn 0.9788 0.2047 -0.0000
vn 0.9303 0.2081 -0.3020
vn 0.7186 0.2083 -0.6635
vn 0.3899 0.2080 -0.8971
vn -0.0000 0.2079 -0.9781
vn -0.3899 0.2080 -0.8971
vn -0.7186 0.2082 -0.6635
vn -0.9304 0.2080 -0.3019
vn -0.9061 0.3065 0.2917
vn -0.9556 0.2946 -0.0000
vn -0.7014 0.3065 0.6435
vn -0.3813 0.3056 0.8725
vn -0.0000 0.3053 0.9522
vn 0.3813 0.3057 0.8725
vn 0.7014 0.3066 0.6435
vn 0.9060 0.3065 0.2919
vn 0.9557 0.2943 -0.0000
vn 0.9060 0.3065 -0.2919
vn 0.7014 0.3066 -0.6435
vn 0.3813 0.3057 -0.8725
vn -0.0000 0.3053 -0.9522
vn -0.3813 0.3056 -0.8725
vn -0.7014 0.3065 -0.6435
vn -0.9061 0.3065 -0.2917
vn -0.8456 0.4590 0.2726
vn -0.9001 0.4356 -0.0000
vn -0.6558 0.4593 0.5991
vn -0.3574 0.4576 0.8142
vn -0.0000 0.4570 0.8895
vn 0.3573 0.4576 0.8142
vn 0.6557 0.4594 0.5992
vn 0.8455 0.4591 0.2728
vn 0.9003 0.4353 -0.0000
vn 0.8455 0.4591 -0.2728
vn 0.6557 0.4594 -0.5992
vn 0.3573 0.4576 -0.8142
vn -0.0000 0.4570 -0.8895
vn -0.3574 0.4576 -0.8142
vn -0.6558 0.4593 -0.5991
vn -0.8456 0.4590 -0.2726
vn -0.7993 -0.4916 0.3457
vn -0.8698 -0.4934 -0.0000
vn -0.5545 -0.5618 0.6139
vn -0.2787 -0.5887 0.7588
vn -0.0000 -0.5989 0.8008
vn 0.2784 -0.5891 0.7586
vn 0.5539 -0.5626 0.6137
vn 0.7981 -0.4935 0.3457
vn 0.8692 -0.4945 -0.0000
vn 0.7981 -0.4935 -0.3457
vn 0.5539 -0.5626 -0.6137
vn 0.2784 -0.5891 -0.7586
vn -0.0000 -0.5989 -0.8008
vn -0.2787 -0.5887 -0.7588
vn -0.5545 -0.5618 -0.6139
vn -0.7993 -0.4916 -0.3457
vn -0.5324 -0.8268 0.1814
vn -0.6563 -0.7545 -0.0000
vn -0.4033 -0.8398 0.3634
vn -0.2259 -0.8378 0.4971
vn -0.0000 -0.8361 0.5485
vn 0.2260 -0.8377 0.4971
vn 0.4035 -0.8398 0.3633
vn 0.5324 -0.8269 0.1812
vn 0.6560 -0.7547 -0.0000
vn 0.5324 -0.8269 -0.1812
vn 0.4035 -0.8398 -0.3633
vn 0.2260 -0.8377 -0.4971
vn -0.0000 -0.8361 -0.5485
vn -0.2259 -0.8378 -0.4971
vn -0.4033 -0.8398 -0.3634
vn -0.5324 -0.8268 -0.1814
vn -0.8663 -0.4249 0.2626
vn -0.9415 -0.3370 -0.0000
vn -0.6767 -0.4353 0.5938
vn -0.3733 -0.4310 0.8215
vn -0.0000 -0.4290 0.9033
vn 0.3734 -0.4309 0.8216
vn 0.6769 -0.4351 0.5937
vn 0.8664 -0.4249 0.2623
vn 0.9409 -0.3387 -0.0000
vn 0.8664 -0.4249 -0.2623
vn 0.6769 -0.4351 -0.5937
vn 0.3734 -0.4309 -0.8216
vn -0.0000 -0.4290 -0.9033
vn -0.3733 -0.4310 -0.8215
vn -0.6767 -0.4353 -0.5938
vn -0.8663 -0.4249 -0.2626
vn -0.9270 0.2490 0.2805
vn -0.9793 0.2024 -0.0000
vn -0.7252 0.2528 0.6404
vn -0.3978 0.2502 0.8827
vn -0.0000 0.2492 0.9685
vn 0.3977 0.2503 0.8827
vn 0.7251 0.2531 0.6404
vn 0.9269 0.2491 0.2806
vn 0.9797 0.2005 -0.0000
vn 0.9269 0.2491 -0.2806
vn 0.7251 0.2531 -0.6404
vn 0.3977 0.2503 -0.8827
vn -0.0000 0.2492 -0.9685
vn -0.3978 0.2502 -0.8827
vn -0.7252 0.2528 -0.6404
vn -0.9270 0.2490 -0.2805
vn -0.6903 0.6882 0.2233
vn -0.7859 0.6183 -0.0000
vn -0.5350 0.6955 0.4795
vn -0.2961 0.6918 0.6586
vn -0.0000 0.6901 0.7237
vn 0.2960 0.6919 0.6585
vn 0.5349 0.6956 0.4796
vn 0.6902 0.6882 0.2236
vn 0.7863 0.6179 -0.0000
vn 0.6902 0.6882 -0.2236
vn 0.5349 0.6956 -0.4796
vn 0.2960 0.6919 -0.6585
vn -0.0000 0.6901 -0.7237
vn -0.2961 0.6918 -0.6585
vn -0.5350 0.6955 -0.4795
vn -0.6903 0.6882 -0.2233
vn -0.2824 0.9522 0.1166
vn -0.4727 0.8812 -0.0000
vn -0.1648 0.9724 0.1650
vn -0.0845 0.9769 0.1964
vn -0.0001 0.9777 0.2101
vn 0.0844 0.9769 0.1965
vn 0.1647 0.9724 0.1650
vn 0.2822 0.9522 0.1167
vn 0.4725 0.8813 -0.0000
vn 0.2822 0.9522 -0.1167
vn 0.1647 0.9724 -0.1651
vn 0.0844 0.9769 -0.1965
vn -0.0001 0.9777 -0.2101
vn -0.0845 0.9769 -0.1964
vn -0.1648 0.9724 -0.1650
vn -0.2824 0.9522 -0.1166
vn 0.2004 0.9789 -0.0388
vn 0.0928 0.9957 -0.0000
vn 0.1133 0.9911 -0.0699
vn 0.0522 0.9958 -0.0756
vn 0.0001 0.9970 -0.0776
vn -0.0521 0.9958 -0.0756
vn -0.1133 0.9911 -0.0700
vn -0.2010 0.9788 -0.0390
vn -0.0937 0.9956 -0.0000
vn -0.2010 0.9788 0.0390
vn -0.1133 0.9911 0.0700
vn -0.0521 0.9958 0.0756
vn 0.0001 0.9970 0.0776
vn 0.0522 0.9958 0.0756
vn 0.1133 0.9911 0.0699
vn 0.2004 0.9789 0.0388
vn 0.7820 0.5560 -0.2816
vn 0.7855 0.6189 -0.0000
vn 0.5842 0.5731 -0.5747
vn 0.3087 0.5829 -0.7516
vn -0.0000 0.5862 -0.8102
vn -0.3086 0.5830 -0.7515
vn -0.5840 0.5733 -0.5747
vn -0.7817 0.5564 -0.2817
vn -0.7859 0.6184 -0.0000
vn -0.7817 0.5564 0.2817
vn -0.5840 0.5733 0.5747
vn -0.3086 0.5830 0.7515
vn -0.0000 0.5862 0.8102
vn 0.3087 0.5829 0.7516
vn 0.5842 0.5731 0.5747
vn 0.7820 0.5560 0.2816
vn 0.9429 0.0405 -0.3306
vn 0.9989 0.0465 -0.0000
vn 0.7183 0.0418 -0.6944
vn 0.3864 0.0425 -0.9213
vn -0.0000 0.0428 -0.9991
vn -0.3864 0.0426 -0.9213
vn -0.7183 0.0421 -0.6944
vn -0.9429 0.0411 -0.3307
vn -0.9990 0.0457 -0.0000
vn -0.9429 0.0411 0.3307
vn -0.7183 0.0421 0.6944
vn -0.3864 0.0426 0.9213
vn -0.0000 0.0428 0.9991
vn 0.3864 0.0425 0.9213
vn 0.7183 0.0418 0.6944
vn 0.9429 0.0405 0.3306
vn 0.7647 -0.5792 -0.2824
vn 0.7611 -0.6487 -0.0000
vn 0.5628 -0.6045 -0.5638
vn 0.2943 -0.6175 -0.7294
vn -0.0000 -0.6218 -0.7832
vn -0.2944 -0.6174 -0.7295
vn -0.5632 -0.6042 -0.5637
vn -0.7651 -0.5787 -0.2823
vn -0.7606 -0.6492 -0.0000
vn -0.7651 -0.5787 0.2823
vn -0.5632 -0.6042 0.5637
vn -0.2944 -0.6174 0.7295
vn -0.0000 -0.6218 0.7832
vn 0.2943 -0.6175 0.7294
vn 0.5628 -0.6045 0.5638
vn 0.7647 -0.5792 0.2824
vn 0.2718 -0.9586 -0.0852
vn 0.2058 -0.9786 -0.0000
vn 0.1802 -0.9700 -0.1630
vn 0.0844 -0.9764 -0.1986
vn -0.0001 -0.9783 -0.2072
vn -0.0846 -0.9764 -0.1986
vn -0.1803 -0.9700 -0.1629
vn -0.2716 -0.9586 -0.0851
vn -0.2054 -0.9787 -0.0000
vn -0.2716 -0.9586 0.0851
vn -0.1803 -0.9700 0.1629
vn -0.0846 -0.9764 0.1986
vn -0.0001 -0.9783 0.2072
vn 0.0844 -0.9764 0.1986
vn 0.1802 -0.9700 0.1630
vn 0.2718 -0.9586 0.0852
vn 0.2432 -0.9643 -0.1047
vn 0.3850 -0.9229 -0.0000
vn 0.1493 -0.9769 -0.1531
vn 0.0774 -0.9798 -0.1846
vn 0.0001 -0.9802 -0.1980
vn -0.0773 -0.9798 -0.1847
vn -0.1493 -0.9769 -0.1531
vn -0.2430 -0.9643 -0.1048
vn -0.3849 -0.9230 -0.0000
vn -0.2430 -0.9643 0.1048
vn -0.1493 -0.9769 0.1531
vn -0.0773 -0.9798 0.1847
vn 0.0001 -0.9802 0.1980
vn 0.0774 -0.9798 0.1846
vn 0.1493 -0.9769 0.1531
vn 0.2432 -0.9643 0.1047
vn 0.5929 -0.7809 -0.1968
vn 0.7097 -0.7045 -0.0000
vn 0.4541 -0.7926 -0.4069
vn 0.2534 -0.7897 -0.5587
vn -0.0000 -0.7879 -0.6158
vn -0.2533 -0.7897 -0.5587
vn -0.4539 -0.7926 -0.4070
vn -0.5928 -0.7809 -0.1971
vn -0.7100 -0.7042 -0.0000
vn -0.5928 -0.7809 0.1971
vn -0.4539 -0.7926 0.4070
vn -0.2533 -0.7897 0.5587
vn -0.0000 -0.7879 0.6158
vn 0.2534 -0.7897 0.5587
vn 0.4541 -0.7926 0.4069
vn 0.5929 -0.7809 0.1968
vn 0.8567 -0.4410 -0.2677
vn 0.9223 -0.3865 -0.0000
vn 0.6676 -0.4440 -0.5977
vn 0.3660 -0.4406 -0.8197
vn -0.0000 -0.4393 -0.8983
vn -0.3659 -0.4407 -0.8197
vn -0.6674 -0.4442 -0.5977
vn -0.8566 -0.4410 -0.2679
vn -0.9227 -0.3856 -0.0000
vn -0.8566 -0.4410 0.2679
vn -0.6674 -0.4442 0.5977
vn -0.3659 -0.4407 0.8197
vn -0.0000 -0.4393 0.8983
vn 0.3660 -0.4406 0.8197
vn 0.6676 -0.4440 0.5977
vn 0.8567 -0.4410 0.2677
vn 0.9470 -0.1153 -0.2999
vn 0.9942 -0.1076 -0.0000
vn 0.7344 -0.1153 -0.6688
vn 0.3996 -0.1147 -0.9095
vn -0.0000 -0.1145 -0.9934
vn -0.3996 -0.1148 -0.9095
vn -0.7344 -0.1154 -0.6688
vn -0.9469 -0.1154 -0.3000
vn -0.9943 -0.1070 -0.0000
vn -0.9469 -0.1154 0.3000
vn -0.7344 -0.1154 0.6688
vn -0.3996 -0.1148 0.9095
vn -0.0000 -0.1145 0.9934
vn 0.3996 -0.1147 0.9095
vn 0.7344 -0.1153 0.6688
vn 0.9470 -0.1153 0.2999
vn 0.8909 0.3662 -0.2685
vn 0.9579 0.2872 -0.0000
vn 0.6970 0.3753 -0.6110
vn 0.3839 0.3714 -0.8454
vn -0.0000 0.3696 -0.9292
vn -0.3840 0.3712 -0.8454
vn -0.6971 0.3751 -0.6110
vn -0.8910 0.3662 -0.2682
vn -0.9573 0.2891 -0.0000
vn -0.8910 0.3662 0.2683
vn -0.6971 0.3751 0.6110
vn -0.3840 0.3712 0.8454
vn -0.0000 0.3696 0.9292
vn 0.3839 0.3714 0.8454
vn 0.6970 0.3753 0.6110
vn 0.8909 0.3662 0.2685
vn 0.6884 0.6881 -0.2291
vn 0.7482 0.6635 -0.0000
vn 0.5339 0.6892 -0.4898
vn 0.2920 0.6874 -0.6650
vn -0.0000 0.6866 -0.7270
vn -0.2920 0.6874 -0.6650
vn -0.5340 0.6892 -0.4898
vn -0.6885 0.6881 -0.2289
vn -0.7481 0.6636 -0.0000
vn -0.6885 0.6881 0.2289
vn -0.5340 0.6892 0.4898
vn -0.2920 0.6874 0.6650
vn -0.0000 0.6866 0.7270
vn 0.2920 0.6874 0.6650
vn 0.5339 0.6892 0.4898
vn 0.6884 0.6881 0.2291
vn 0.5687 0.7991 -0.1947
vn 0.6363 0.7714 -0.0000
vn 0.4403 0.8017 -0.4044
vn 0.2423 0.7998 -0.5492
vn -0.0000 0.7989 -0.6015
vn -0.2424 0.7998 -0.5492
vn -0.4403 0.8016 -0.4043
vn -0.5688 0.7991 -0.1945
vn -0.6362 0.7715 -0.0000
vn -0.5688 0.7991 0.1945
vn -0.4403 0.8016 0.4043
vn -0.2424 0.7998 0.5492
vn -0.0000 0.7989 0.6015
vn 0.2423 0.7998 0.5492
vn 0.4403 0.8017 0.4044
vn 0.5687 0.7991 0.1947
vn 0.7521 0.5959 -0.2816
vn 0.7444 0.6677 -0.0000
vn 0.5474 0.6272 -0.5540
vn 0.2840 0.6425 -0.7117
vn -0.0000 0.6477 -0.7619
vn -0.2838 0.6426 -0.7117
vn -0.5470 0.6275 -0.5541
vn -0.7516 0.5964 -0.2817
vn -0.7448 0.6672 -0.0000
vn -0.7516 0.5964 0.2817
vn -0.5470 0.6275 0.5541
vn -0.2838 0.6426 0.7117
vn -0.0000 0.6476 0.7619
vn 0.2840 0.6425 0.7117
vn 0.5474 0.6272 0.5540
vn 0.7521 0.5959 0.2816
vn 0.9452 -0.0292 -0.3252
vn 0.9995 -0.0316 -0.0000
vn 0.7225 -0.0296 -0.6908
vn 0.3894 -0.0299 -0.9206
vn -0.0000 -0.0300 -0.9996
vn -0.3894 -0.0298 -0.9206
vn -0.7225 -0.0294 -0.6908
vn -0.9452 -0.0288 -0.3252
vn -0.9995 -0.0322 -0.0000
vn -0.9452 -0.0288 0.3252
vn -0.7225 -0.0294 0.6908
vn -0.3894 -0.0298 0.9206
vn -0.0000 -0.0300 0.9996
vn 0.3894 -0.0299 0.9206
vn 0.7225 -0.0296 0.6908
vn 0.9452 -0.0292 0.3252
vn 0.9248 -0.2271 -0.3051
vn 0.9729 -0.2311 -0.0000
vn 0.7122 -0.2279 -0.6640
vn 0.3856 -0.2283 -0.8940
vn -0.0000 -0.2284 -0.9736
vn -0.3856 -0.2283 -0.8940
vn -0.7122 -0.2279 -0.6640
vn -0.9248 -0.2271 -0.3052
vn -0.9729 -0.2312 -0.0000
vn -0.9248 -0.2271 0.3052
vn -0.7122 -0.2279 0.6640
vn -0.3856 -0.2283 0.8940
vn -0.0000 -0.2284 0.9736
vn 0.3856 -0.2283 0.8940
vn 0.7122 -0.2279 0.6640
vn 0.9248 -0.2271 0.3051
vn 0.9461 -0.1264 -0.2981
vn 0.9932 -0.1164 -0.0000
vn 0.7345 -0.1264 -0.6668
vn 0.3999 -0.1257 -0.9079
vn -0.0000 -0.1255 -0.9921
vn -0.3999 -0.1258 -0.9079
vn -0.7344 -0.1265 -0.6668
vn -0.9461 -0.1265 -0.2982
vn -0.9933 -0.1157 -0.0000
vn -0.9461 -0.1265 0.2982
vn -0.7344 -0.1265 0.6668
vn -0.3999 -0.1258 0.9079
vn -0.0000 -0.1255 0.9921
vn 0.3999 -0.1257 0.9079
vn 0.7345 -0.1264 0.6668
vn 0.9461 -0.1264 0.2981
vn 0.9393 0.1774 -0.2938
vn 0.9873 0.1587 -0.0000
vn 0.7303 0.1777 -0.6596
vn 0.3982 0.1764 -0.9002
vn -0.0000 0.1759 -0.9844
vn -0.3982 0.1763 -0.9002
vn -0.7304 0.1775 -0.6596
vn -0.9393 0.1772 -0.2938
vn -0.9872 0.1596 -0.0000
vn -0.9393 0.1772 0.2938
vn -0.7304 0.1775 0.6596
vn -0.3982 0.1763 0.9002
vn -0.0000 0.1759 0.9844
vn 0.3982 0.1764 0.9002
vn 0.7303 0.1777 0.6596
vn 0.9393 0.1774 0.2938
vn 0.7808 0.5746 -0.2455
vn 0.8686 0.4956 -0.0000
vn 0.6074 0.5822 -0.5405
vn 0.3352 0.5779 -0.7441
vn -0.0000 0.5760 -0.8174
vn -0.3353 0.5778 -0.7441
vn -0.6076 0.5820 -0.5405
vn -0.7809 0.5746 -0.2452
vn -0.8681 0.4964 -0.0000
vn -0.7809 0.5746 0.2452
vn -0.6076 0.5820 0.5405
vn -0.3353 0.5778 0.7441
vn -0.0000 0.5760 0.8174
vn 0.3352 0.5779 0.7441
vn 0.6074 0.5822 0.5405
vn 0.7808 0.5746 0.2455
vn 0.4352 0.8868 -0.1557
vn 0.5813 0.8137 -0.0000
vn 0.3158 0.9042 -0.2877
vn 0.1775 0.9044 -0.3880
vn -0.0000 0.9033 -0.4289
vn -0.1777 0.9044 -0.3880
vn -0.3159 0.9042 -0.2876
vn -0.4352 0.8868 -0.1555
vn -0.5812 0.8137 -0.0000
vn -0.4352 0.8868 0.1555
vn -0.3159 0.9042 0.2876
vn -0.1777 0.9044 0.3880
vn -0.0000 0.9033 0.4289
vn 0.1775 0.9044 0.3880
vn 0.3158 0.9042 0.2877
vn 0.4352 0.8868 0.1557
vn 0.1308 0.9891 -0.0679
vn 0.2251 0.9743 -0.0000
vn 0.0709 0.9935 -0.0894
vn 0.0303 0.9947 -0.0980
vn -0.0001 0.9950 -0.0997
vn -0.0304 0.9947 -0.0980
vn -0.0710 0.9935 -0.0895
vn -0.1310 0.9891 -0.0679
vn -0.2253 0.9743 -0.0000
vn -0.1310 0.9891 0.0679
vn -0.0710 0.9935 0.0895
vn -0.0304 0.9947 0.0980
vn -0.0001 0.9950 0.0997
vn 0.0303 0.9947 0.0980
vn 0.0709 0.9935 0.0894
vn 0.1308 0.9891 0.0679
vn -0.0000 1.0000 -0.0000
vn 1.0000 -0.0012 -0.0000
vn 0.9505 -0.0011 -0.3108
vn 0.9503 -0.0011 -0.3112
vn 0.7332 -0.0012 -0.6800
vn 0.7329 -0.0012 -0.6803
vn 0.3974 -0.0012 -0.9177
vn 0.3968 -0.0012 -0.9179
vn -0.0000 -0.0012 -1.0000
vn -0.0006 -0.0012 -1.0000
vn -0.3974 -0.0012 -0.9176
vn -0.3981 -0.0012 -0.9174
vn -0.7332 -0.0012 -0.6800
vn -0.7336 -0.0012 -0.6795
vn -0.9505 -0.0011 -0.3108
vn -0.9507 -0.0011 -0.3102
vn -1.0000 -0.0012 -0.0000
vn -0.9505 -0.0011 0.3108
vn -0.9507 -0.0011 0.3102
vn -0.7332 -0.0012 0.6800
vn -0.7336 -0.0012 0.6795
vn -0.3974 -0.0012 0.9176
vn -0.3981 -0.0012 0.9174
vn -0.0000 -0.0012 1.0000
vn -0.0006 -0.0012 1.0000
vn 0.3974 -0.0012 0.9177
vn 0.3968 -0.0012 0.9179
vn 0.7332 -0.0012 0.6800
vn 0.7329 -0.0012 0.6803
vn 0.9505 -0.0011 0.3108
vn 0.9503 -0.0011 0.3112
vt 0.375000 0.187500
vt 0.625000 0.187500
vt 0.625000 0.250000
vt 0.375000 0.250000
vt 0.625000 0.500000
vt 0.375000 0.500000
vt 0.375000 0.750000
vt 0.375000 0.687500
vt 0.625000 0.750000
vt 0.625000 1.000000
vt 0.375000 1.000000
vt 0.125000 0.687500
vt 0.125000 0.750000
vt 0.625000 0.687500
vt 0.875000 0.687500
vt 0.875000 0.750000
vt 0.875000 0.500000
vt 0.875000 0.562500
vt 0.625000 0.562500
vt 0.875000 0.625000
vt 0.625000 0.625000
vt 0.125000 0.500000
vt 0.375000 0.562500
vt 0.125000 0.562500
vt 0.375000 0.625000
vt 0.125000 0.625000
vt 0.375000 0.000000
vt 0.625000 0.000000
vt 0.625000 0.062500
vt 0.375000 0.062500
vt 0.625000 0.125000
vt 0.375000 0.125000
vt 0.000000 0.000000
vt 0.062500 0.000000
vt 0.125000 0.000000
vt 0.187500 0.000000
vt 0.250000 0.000000
vt 0.312500 0.000000
vt 0.437500 0.000000
vt 0.500000 0.000000
vt 0.562500 0.000000
vt 0.687500 0.000000
vt 0.750000 0.000000
vt 0.812500 0.000000
vt 0.875000 0.000000
vt 0.937500 0.000000
vt 1.000000 0.000000
vt 0.062500 0.014520
vt 0.000000 0.014520
vt 0.125000 0.014520
vt 0.187500 0.014520
vt 0.250000 0.014520
vt 0.312500 0.014520
vt 0.375000 0.014520
vt 0.437500 0.014520
vt 0.500000 0.014520
vt 0.562500 0.014520
vt 0.625000 0.014520
vt 0.687500 0.014520
vt 0.750000 0.014520
vt 0.812500 0.014520
vt 0.875000 0.014520
vt 0.937500 0.014520
vt 1.000000 0.014520
vt 0.062500 0.049443
vt 0.000000 0.049443
vt 0.125000 0.049443
vt 0.187500 0.049443
vt 0.250000 0.049443
vt 0.312500 0.049443
vt 0.375000 0.049443
vt 0.437500 0.049443
vt 0.500000 0.049443
vt 0.562500 0.049443
vt 0.625000 0.049443
vt 0.687500 0.049443
vt 0.750000 0.049443
vt 0.812500 0.049443
vt 0.875000 0.049443
vt 0.937500 0.049443
vt 1.000000 0.049443
vt 0.062500 0.108259
vt 0.000000 0.108259
vt 0.125000 0.108259
vt 0.187500 0.108259
vt 0.250000 0.108259
vt 0.312500 0.108259
vt 0.375000 0.108259
vt 0.437500 0.108259
vt 0.500000 0.108259
vt 0.562500 0.108259
vt 0.625000 0.108259
vt 0.687500 0.108259
vt 0.750000 0.108259
vt 0.812500 0.108259
vt 0.875000 0.108259
vt 0.937500 0.108259
vt 1.000000 0.108259
vt 0.062500 0.179941
vt 0.000000 0.179941
vt 0.125000 0.179941
vt 0.187500 0.179941
vt 0.250000 0.179941
vt 0.312500 0.179941
vt 0.375000 0.179941
vt 0.437500 0.179941
vt 0.500000 0.179941
vt 0.562500 0.179941
vt 0.625000 0.179941
vt 0.687500 0.179941
vt 0.750000 0.179941
vt 0.812500 0.179941
vt 0.875000 0.179941
vt 0.937500 0.179941
vt 1.000000 0.179941
vt 0.062500 0.236920
vt 0.000000 0.236920
vt 0.125000 0.236920
vt 0.187500 0.236920
vt 0.250000 0.236920
vt 0.312500 0.236920
vt 0.375000 0.236920
vt 0.437500 0.236920
vt 0.500000 0.236920
vt 0.562500 0.236920
vt 0.625000 0.236920
vt 0.687500 0.236920
vt 0.750000 0.236920
vt 0.812500 0.236920
vt 0.875000 0.236920
vt 0.937500 0.236920
vt 1.000000 0.236920
vt 0.062500 0.304558
vt 0.000000 0.304558
vt 0.125000 0.304558
vt 0.187500 0.304558
vt 0.250000 0.304558
vt 0.312500 0.304558
vt 0.375000 0.304558
vt 0.437500 0.304558
vt 0.500000 0.304558
vt 0.562500 0.304558
vt 0.625000 0.304558
vt 0.687500 0.304558
vt 0.750000 0.304558
vt 0.812500 0.304558
vt 0.875000 0.304558
vt 0.937500 0.304558
vt 1.000000 0.304558
vt 0.062500 0.402708
vt 0.000000 0.402708
vt 0.125000 0.402708
vt 0.187500 0.402708
vt 0.250000 0.402708
vt 0.312500 0.402708
vt 0.375000 0.402708
vt 0.437500 0.402708
vt 0.500000 0.402708
vt 0.562500 0.402708
vt 0.625000 0.402708
vt 0.687500 0.402708
vt 0.750000 0.402708
vt 0.812500 0.402708
vt 0.875000 0.402708
vt 0.937500 0.402708
vt 1.000000 0.402708
vt 0.062500 0.534334
vt 0.000000 0.534334
vt 0.125000 0.534334
vt 0.187500 0.534334
vt 0.250000 0.534334
vt 0.312500 0.534334
vt 0.375000 0.534334
vt 0.437500 0.534334
vt 0.500000 0.534334
vt 0.562500 0.534334
vt 0.625000 0.534334
vt 0.687500 0.534334
vt 0.750000 0.534334
vt 0.812500 0.534334
vt 0.875000 0.534334
vt 0.937500 0.534334
vt 1.000000 0.534334
vt 0.062500 0.543524
vt 0.000000 0.543524
vt 0.125000 0.543524
vt 0.187500 0.543524
vt 0.250000 0.543524
vt 0.312500 0.543524
vt 0.375000 0.543524
vt 0.437500 0.543524
vt 0.500000 0.543524
vt 0.562500 0.543524
vt 0.625000 0.543524
vt 0.687500 0.543524
vt 0.750000 0.543524
vt 0.812500 0.543524
vt 0.875000 0.543524
vt 0.937500 0.543524
vt 1.000000 0.543524
vt 0.062500 0.560066
vt 0.000000 0.560066
vt 0.125000 0.560066
vt 0.187500 0.560066
vt 0.250000 0.560066
vt 0.312500 0.560066
vt 0.375000 0.560066
vt 0.437500 0.560066
vt 0.500000 0.560066
vt 0.562500 0.560066
vt 0.625000 0.560066
vt 0.687500 0.560066
vt 0.750000 0.560066
vt 0.812500 0.560066
vt 0.875000 0.560066
vt 0.937500 0.560066
vt 1.000000 0.560066
vt 0.062500 0.587636
vt 0.000000 0.587636
vt 0.125000 0.587636
vt 0.187500 0.587636
vt 0.250000 0.587636
vt 0.312500 0.587636
vt 0.375000 0.587636
vt 0.437500 0.587636
vt 0.500000 0.587636
vt 0.562500 0.587636
vt 0.625000 0.587636
vt 0.687500 0.587636
vt 0.750000 0.587636
vt 0.812500 0.587636
vt 0.875000 0.587636
vt 0.937500 0.587636
vt 1.000000 0.587636
vt 0.062500 0.609693
vt 0.000000 0.609693
vt 0.125000 0.609693
vt 0.187500 0.609693
vt 0.250000 0.609693
vt 0.312500 0.609693
vt 0.375000 0.609693
vt 0.437500 0.609693
vt 0.500000 0.609693
vt 0.562500 0.609693
vt 0.625000 0.609693
vt 0.687500 0.609693
vt 0.750000 0.609693
vt 0.812500 0.609693
vt 0.875000 0.609693
vt 0.937500 0.609693
vt 1.000000 0.609693
vt 0.062500 0.620721
vt 0.000000 0.620721
vt 0.125000 0.620721
vt 0.187500 0.620721
vt 0.250000 0.620721
vt 0.312500 0.620721
vt 0.375000 0.620721
vt 0.437500 0.620721
vt 0.500000 0.620721
vt 0.562500 0.620721
vt 0.625000 0.620721
vt 0.687500 0.620721
vt 0.750000 0.620721
vt 0.812500 0.620721
vt 0.875000 0.620721
vt 0.937500 0.620721
vt 1.000000 0.620721
vt 0.062500 0.622559
vt 0.000000 0.622559
vt 0.125000 0.622559
vt 0.187500 0.622559
vt 0.250000 0.622559
vt 0.312500 0.622559
vt 0.375000 0.622559
vt 0.437500 0.622559
vt 0.500000 0.622559
vt 0.562500 0.622559
vt 0.625000 0.622559
vt 0.687500 0.622559
vt 0.750000 0.622559
vt 0.812500 0.622559
vt 0.875000 0.622559
vt 0.937500 0.622559
vt 1.000000 0.622559
vt 0.062500 0.618127
vt 0.000000 0.618127
vt 0.125000 0.618127
vt 0.187500 0.618127
vt 0.250000 0.618127
vt 0.312500 0.618127
vt 0.375000 0.618127
vt 0.437500 0.618127
vt 0.500000 0.618127
vt 0.562500 0.618127
vt 0.625000 0.618127
vt 0.687500 0.618127
vt 0.750000 0.618127
vt 0.812500 0.618127
vt 0.875000 0.618127
vt 0.937500 0.618127
vt 1.000000 0.618127
vt 0.062500 0.612956
vt 0.000000 0.612956
vt 0.125000 0.612956
vt 0.187500 0.612956
vt 0.250000 0.612956
vt 0.312500 0.612956
vt 0.375000 0.612956
vt 0.437500 0.612956
vt 0.500000 0.612956
vt 0.562500 0.612956
vt 0.625000 0.612956
vt 0.687500 0.612956
vt 0.750000 0.612956
vt 0.812500 0.612956
vt 0.875000 0.612956
vt 0.937500 0.612956
vt 1.000000 0.612956
vt 0.062500 0.609263
vt 0.000000 0.609263
vt 0.125000 0.609263
vt 0.187500 0.609263
vt 0.250000 0.609263
vt 0.312500 0.609263
vt 0.375000 0.609263
vt 0.437500 0.609263
vt 0.500000 0.609263
vt 0.562500 0.609263
vt 0.625000 0.609263
vt 0.687500 0.609263
vt 0.750000 0.609263
vt 0.812500 0.609263
vt 0.875000 0.609263
vt 0.937500 0.609263
vt 1.000000 0.609263
vt 0.062500 0.605570
vt 0.000000 0.605570
vt 0.125000 0.605570
vt 0.187500 0.605570
vt 0.250000 0.605570
vt 0.312500 0.605570
vt 0.375000 0.605570
vt 0.437500 0.605570
vt 0.500000 0.605570
vt 0.562500 0.605570
vt 0.625000 0.605570
vt 0.687500 0.605570
vt 0.750000 0.605570
vt 0.812500 0.605570
vt 0.875000 0.605570
vt 0.937500 0.605570
vt 1.000000 0.605570
vt 0.062500 0.604092
vt 0.000000 0.604092
vt 0.125000 0.604092
vt 0.187500 0.604092
vt 0.250000 0.604092
vt 0.312500 0.604092
vt 0.375000 0.604092
vt 0.437500 0.604092
vt 0.500000 0.604092
vt 0.562500 0.604092
vt 0.625000 0.604092
vt 0.687500 0.604092
vt 0.750000 0.604092
vt 0.812500 0.604092
vt 0.875000 0.604092
vt 0.937500 0.604092
vt 1.000000 0.604092
vt 0.062500 0.599660
vt 0.000000 0.599660
vt 0.125000 0.599660
vt 0.187500 0.599660
vt 0.250000 0.599660
vt 0.312500 0.599660
vt 0.375000 0.599660
vt 0.437500 0.599660
vt 0.500000 0.599660
vt 0.562500 0.599660
vt 0.625000 0.599660
vt 0.687500 0.599660
vt 0.750000 0.599660
vt 0.812500 0.599660
vt 0.875000 0.599660
vt 0.937500 0.599660
vt 1.000000 0.599660
vt 0.062500 0.590796
vt 0.000000 0.590796
vt 0.125000 0.590796
vt 0.187500 0.590796
vt 0.250000 0.590796
vt 0.312500 0.590796
vt 0.375000 0.590796
vt 0.437500 0.590796
vt 0.500000 0.590796
vt 0.562500 0.590796
vt 0.625000 0.590796
vt 0.687500 0.590796
vt 0.750000 0.590796
vt 0.812500 0.590796
vt 0.875000 0.590796
vt 0.937500 0.590796
vt 1.000000 0.590796
vt 0.062500 0.581194
vt 0.000000 0.581194
vt 0.125000 0.581194
vt 0.187500 0.581194
vt 0.250000 0.581194
vt 0.312500 0.581194
vt 0.375000 0.581194
vt 0.437500 0.581194
vt 0.500000 0.581194
vt 0.562500 0.581194
vt 0.625000 0.581194
vt 0.687500 0.581194
vt 0.750000 0.581194
vt 0.812500 0.581194
vt 0.875000 0.581194
vt 0.937500 0.581194
vt 1.000000 0.581194
vt 0.062500 0.566421
vt 0.000000 0.566421
vt 0.125000 0.566421
vt 0.187500 0.566421
vt 0.250000 0.566421
vt 0.312500 0.566421
vt 0.375000 0.566421
vt 0.437500 0.566421
vt 0.500000 0.566421
vt 0.562500 0.566421
vt 0.625000 0.566421
vt 0.687500 0.566421
vt 0.750000 0.566421
vt 0.812500 0.566421
vt 0.875000 0.566421
vt 0.937500 0.566421
vt 1.000000 0.566421
vt 0.062500 0.559034
vt 0.000000 0.559034
vt 0.125000 0.559034
vt 0.187500 0.559034
vt 0.250000 0.559034
vt 0.312500 0.559034
vt 0.375000 0.559034
vt 0.437500 0.559034
vt 0.500000 0.559034
vt 0.562500 0.559034
vt 0.625000 0.559034
vt 0.687500 0.559034
vt 0.750000 0.559034
vt 0.812500 0.559034
vt 0.875000 0.559034
vt 0.937500 0.559034
vt 1.000000 0.559034
vt 0.062500 0.550909
vt 0.000000 0.550909
vt 0.125000 0.550909
vt 0.187500 0.550909
vt 0.250000 0.550909
vt 0.312500 0.550909
vt 0.375000 0.550909
vt 0.437500 0.550909
vt 0.500000 0.550909
vt 0.562500 0.550909
vt 0.625000 0.550909
vt 0.687500 0.550909
vt 0.750000 0.550909
vt 0.812500 0.550909
vt 0.875000 0.550909
vt 0.937500 0.550909
vt 1.000000 0.550909
vt 0.062500 0.535397
vt 0.000000 0.535397
vt 0.125000 0.535397
vt 0.187500 0.535397
vt 0.250000 0.535397
vt 0.312500 0.535397
vt 0.375000 0.535397
vt 0.437500 0.535397
vt 0.500000 0.535397
vt 0.562500 0.535397
vt 0.625000 0.535397
vt 0.687500 0.535397
vt 0.750000 0.535397
vt 0.812500 0.535397
vt 0.875000 0.535397
vt 0.937500 0.535397
vt 1.000000 0.535397
vt 0.062500 0.373771
vt 0.000000 0.373771
vt 0.125000 0.373771
vt 0.187500 0.373771
vt 0.250000 0.373771
vt 0.312500 0.373771
vt 0.375000 0.373771
vt 0.437500 0.373771
vt 0.500000 0.373771
vt 0.562500 0.373771
vt 0.625000 0.373771
vt 0.687500 0.373771
vt 0.750000 0.373771
vt 0.812500 0.373771
vt 0.875000 0.373771
vt 0.937500 0.373771
vt 1.000000 0.373771
vt 0.062500 0.263294
vt 0.000000 0.263294
vt 0.125000 0.263294
vt 0.187500 0.263294
vt 0.250000 0.263294
vt 0.312500 0.263294
vt 0.375000 0.263294
vt 0.437500 0.263294
vt 0.500000 0.263294
vt 0.562500 0.263294
vt 0.625000 0.263294
vt 0.687500 0.263294
vt 0.750000 0.263294
vt 0.812500 0.263294
vt 0.875000 0.263294
vt 0.937500 0.263294
vt 1.000000 0.263294
vt 0.062500 0.201247
vt 0.000000 0.201247
vt 0.125000 0.201247
vt 0.187500 0.201247
vt 0.250000 0.201247
vt 0.312500 0.201247
vt 0.375000 0.201247
vt 0.437500 0.201247
vt 0.500000 0.201247
vt 0.562500 0.201247
vt 0.625000 0.201247
vt 0.687500 0.201247
vt 0.750000 0.201247
vt 0.812500 0.201247
vt 0.875000 0.201247
vt 0.937500 0.201247
vt 1.000000 0.201247
vt 0.062500 0.116302
vt 0.000000 0.116302
vt 0.125000 0.116302
vt 0.187500 0.116302
vt 0.250000 0.116302
vt 0.312500 0.116302
vt 0.375000 0.116302
vt 0.437500 0.116302
vt 0.500000 0.116302
vt 0.562500 0.116302
vt 0.625000 0.116302
vt 0.687500 0.116302
vt 0.750000 0.116302
vt 0.812500 0.116302
vt 0.875000 0.116302
vt 0.937500 0.116302
vt 1.000000 0.116302
vt 0.062500 0.069766
vt 0.000000 0.069766
vt 0.125000 0.069766
vt 0.187500 0.069766
vt 0.250000 0.069766
vt 0.312500 0.069766
vt 0.375000 0.069766
vt 0.437500 0.069766
vt 0.500000 0.069766
vt 0.562500 0.069766
vt 0.625000 0.069766
vt 0.687500 0.069766
vt 0.750000 0.069766
vt 0.812500 0.069766
vt 0.875000 0.069766
vt 0.937500 0.069766
vt 1.000000 0.069766
vt 0.062500 0.025447
vt 0.000000 0.025447
vt 0.125000 0.025447
vt 0.187500 0.025447
vt 0.250000 0.025447
vt 0.312500 0.025447
vt 0.375000 0.025447
vt 0.437500 0.025447
vt 0.500000 0.025447
vt 0.562500 0.025447
vt 0.625000 0.025447
vt 0.687500 0.025447
vt 0.750000 0.025447
vt 0.812500 0.025447
vt 0.875000 0.025447
vt 0.937500 0.025447
vt 1.000000 0.025447
vt 0.062500 0.020277
vt 0.000000 0.020277
vt 0.125000 0.020277
vt 0.187500 0.020277
vt 0.250000 0.020277
vt 0.312500 0.020277
vt 0.375000 0.020277
vt 0.437500 0.020277
vt 0.500000 0.020277
vt 0.562500 0.020277
vt 0.625000 0.020277
vt 0.687500 0.020277
vt 0.750000 0.020277
vt 0.812500 0.020277
vt 0.875000 0.020277
vt 0.937500 0.020277
vt 1.000000 0.020277
s 0
usemtl Kessel_Metall_gold
f 9/1/1 14/2/1 4/3/1 3/4/1
f 3/4/2 4/3/2 8/5/2 7/6/2
f 5/7/3 15/8/3 27/8/3 26/7/3
f 5/7/4 6/9/4 2/10/4 1/11/4
f 11/12/3 15/8/3 5/7/3 1/13/3
f 20/14/5 12/15/5 2/16/5 6/9/5
f 8/5/5 4/17/5 14/18/5 18/19/5
f 18/19/5 14/18/5 13/20/5 19/21/5
f 19/21/5 13/20/5 12/15/5 20/14/5
f 3/22/3 7/6/3 17/23/3 9/24/3
f 9/24/3 17/23/3 16/25/3 10/26/3
f 10/26/3 16/25/3 15/8/3 11/12/3
f 6/9/4 5/7/4 26/7/4 25/9/4
f 17/23/6 18/19/6 19/21/6 16/25/6
f 16/25/7 19/21/7 20/14/7 15/8/7
f 1/27/8 2/28/8 12/29/8 11/30/8
f 11/30/9 12/29/9 13/31/9 10/32/9
f 10/32/10 13/31/10 14/2/10 9/1/10
f 27/8/11 24/14/11 25/9/11 26/7/11
f 22/6/12 21/5/12 28/19/12 23/23/12
f 17/23/3 7/6/3 22/6/3 23/23/3
f 15/8/13 20/14/13 24/14/13 27/8/13
f 8/5/5 18/19/5 28/19/5 21/5/5
f 18/19/14 17/23/14 23/23/14 28/19/14
f 20/14/5 6/9/5 25/9/5 24/14/5
f 7/6/2 8/5/2 21/5/2 22/6/2
f 37/1/15 31/4/15 32/3/15 42/2/15
f 31/4/16 35/6/16 36/5/16 32/3/16
f 33/7/17 54/7/17 55/8/17 43/8/17
f 33/7/18 29/11/18 30/10/18 34/9/18
f 39/12/17 29/13/17 33/7/17 43/8/17
f 48/14/19 34/9/19 30/16/19 40/15/19
f 36/5/19 46/19/19 42/18/19 32/17/19
f 46/19/19 47/21/19 41/20/19 42/18/19
f 47/21/19 48/14/19 40/15/19 41/20/19
f 31/22/17 37/24/17 45/23/17 35/6/17
f 37/24/17 38/26/17 44/25/17 45/23/17
f 38/26/17 39/12/17 43/8/17 44/25/17
f 34/9/18 53/9/18 54/7/18 33/7/18
f 45/23/20 44/25/20 47/21/20 46/19/20
f 44/25/21 43/8/21 48/14/21 47/21/21
f 29/27/22 39/30/22 40/29/22 30/28/22
f 39/30/23 38/32/23 41/31/23 40/29/23
f 38/32/24 37/1/24 42/2/24 41/31/24
f 55/8/25 54/7/25 53/9/25 52/14/25
f 50/6/26 51/23/26 56/19/26 49/5/26
f 45/23/17 51/23/17 50/6/17 35/6/17
f 43/8/27 55/8/27 52/14/27 48/14/27
f 36/5/19 49/5/19 56/19/19 46/19/19
f 46/19/28 56/19/28 51/23/28 45/23/28
f 48/14/19 52/14/19 53/9/19 34/9/19
f 35/6/16 50/6/16 49/5/16 36/5/16
s 1
usemtl Kessel_Metall_Eisen
f 57/33/29 93/34/29 94/34/30 58/33/31
f 93/34/29 129/35/29 130/35/32 94/34/30
f 129/35/29 165/36/29 166/36/33 130/35/32
f 165/36/29 201/37/29 202/37/34 166/36/33
f 201/37/29 237/38/29 238/38/35 202/37/34
f 237/38/29 273/27/29 274/27/36 238/38/35
f 273/27/29 309/39/29 310/39/37 274/27/36
f 309/39/29 345/40/29 346/40/38 310/39/37
f 345/40/29 381/41/29 382/41/39 346/40/38
f 381/41/29 417/28/29 418/28/40 382/41/39
f 417/28/29 453/42/29 454/42/41 418/28/40
f 453/42/29 489/43/29 490/43/42 454/42/41
f 489/43/29 525/44/29 526/44/43 490/43/42
f 525/44/29 561/45/29 562/45/44 526/44/43
f 561/45/29 597/46/29 598/46/45 562/45/44
f 597/46/29 57/47/29 58/47/31 598/46/45
f 58/33/31 94/34/30 95/48/46 59/49/47
f 94/34/30 130/35/32 131/50/48 95/48/46
f 130/35/32 166/36/33 167/51/49 131/50/48
f 166/36/33 202/37/34 203/52/50 167/51/49
f 202/37/34 238/38/35 239/53/51 203/52/50
f 238/38/35 274/27/36 275/54/52 239/53/51
f 274/27/36 310/39/37 311/55/53 275/54/52
f 310/39/37 346/40/38 347/56/54 311/55/53
f 346/40/38 382/41/39 383/57/55 347/56/54
f 382/41/39 418/28/40 419/58/56 383/57/55
f 418/28/40 454/42/41 455/59/57 419/58/56
f 454/42/41 490/43/42 491/60/58 455/59/57
f 490/43/42 526/44/43 527/61/59 491/60/58
f 526/44/43 562/45/44 563/62/60 527/61/59
f 562/45/44 598/46/45 599/63/61 563/62/60
f 598/46/45 58/47/31 59/64/47 599/63/61
f 59/49/47 95/48/46 96/65/62 60/66/63
f 95/48/46 131/50/48 132/67/64 96/65/62
f 131/50/48 167/51/49 168/68/65 132/67/64
f 167/51/49 203/52/50 204/69/66 168/68/65
f 203/52/50 239/53/51 240/70/67 204/69/66
f 239/53/51 275/54/52 276/71/68 240/70/67
f 275/54/52 311/55/53 312/72/69 276/71/68
f 311/55/53 347/56/54 348/73/70 312/72/69
f 347/56/54 383/57/55 384/74/71 348/73/70
f 383/57/55 419/58/56 420/75/72 384/74/71
f 419/58/56 455/59/57 456/76/73 420/75/72
f 455/59/57 491/60/58 492/77/74 456/76/73
f 491/60/58 527/61/59 528/78/75 492/77/74
f 527/61/59 563/62/60 564/79/76 528/78/75
f 563/62/60 599/63/61 600/80/77 564/79/76
f 599/63/61 59/64/47 60/81/63 600/80/77
f 60/66/63 96/65/62 97/82/78 61/83/79
f 96/65/62 132/67/64 133/84/80 97/82/78
f 132/67/64 168/68/65 169/85/81 133/84/80
f 168/68/65 204/69/66 205/86/82 169/85/81
f 204/69/66 240/70/67 241/87/83 205/86/82
f 240/70/67 276/71/68 277/88/84 241/87/83
f 276/71/68 312/72/69 313/89/85 277/88/84
f 312/72/69 348/73/70 349/90/86 313/89/85
f 348/73/70 384/74/71 385/91/87 349/90/86
f 384/74/71 420/75/72 421/92/88 385/91/87
f 420/75/72 456/76/73 457/93/89 421/92/88
f 456/76/73 492/77/74 493/94/90 457/93/89
f 492/77/74 528/78/75 529/95/91 493/94/90
f 528/78/75 564/79/76 565/96/92 529/95/91
f 564/79/76 600/80/77 601/97/93 565/96/92
f 600/80/77 60/81/63 61/98/79 601/97/93
f 61/83/79 97/82/78 98/99/94 62/100/95
f 97/82/78 133/84/80 134/101/96 98/99/94
f 133/84/80 169/85/81 170/102/97 134/101/96
f 169/85/81 205/86/82 206/103/98 170/102/97
f 205/86/82 241/87/83 242/104/99 206/103/98
f 241/87/83 277/88/84 278/105/100 242/104/99
f 277/88/84 313/89/85 314/106/101 278/105/100
f 313/89/85 349/90/86 350/107/102 314/106/101
f 349/90/86 385/91/87 386/108/103 350/107/102
f 385/91/87 421/92/88 422/109/104 386/108/103
f 421/92/88 457/93/89 458/110/105 422/109/104
f 457/93/89 493/94/90 494/111/106 458/110/105
f 493/94/90 529/95/91 530/112/107 494/111/106
f 529/95/91 565/96/92 566/113/108 530/112/107
f 565/96/92 601/97/93 602/114/109 566/113/108
f 601/97/93 61/98/79 62/115/95 602/114/109
f 62/100/95 98/99/94 99/116/110 63/117/111
f 98/99/94 134/101/96 135/118/112 99/116/110
f 134/101/96 170/102/97 171/119/113 135/118/112
f 170/102/97 206/103/98 207/120/114 171/119/113
f 206/103/98 242/104/99 243/121/115 207/120/114
f 242/104/99 278/105/100 279/122/116 243/121/115
f 278/105/100 314/106/101 315/123/117 279/122/116
f 314/106/101 350/107/102 351/124/118 315/123/117
f 350/107/102 386/108/103 387/125/119 351/124/118
f 386/108/103 422/109/104 423/126/120 387/125/119
f 422/109/104 458/110/105 459/127/121 423/126/120
f 458/110/105 494/111/106 495/128/122 459/127/121
f 494/111/106 530/112/107 531/129/123 495/128/122
f 530/112/107 566/113/108 567/130/124 531/129/123
f 566/113/108 602/114/109 603/131/125 567/130/124
f 602/114/109 62/115/95 63/132/111 603/131/125
f 63/117/111 99/116/110 100/133/126 64/134/127
f 99/116/110 135/118/112 136/135/128 100/133/126
f 135/118/112 171/119/113 172/136/129 136/135/128
f 171/119/113 207/120/114 208/137/130 172/136/129
f 207/120/114 243/121/115 244/138/131 208/137/130
f 243/121/115 279/122/116 280/139/132 244/138/131
f 279/122/116 315/123/117 316/140/133 280/139/132
f 315/123/117 351/124/118 352/141/134 316/140/133
f 351/124/118 387/125/119 388/142/135 352/141/134
f 387/125/119 423/126/120 424/143/136 388/142/135
f 423/126/120 459/127/121 460/144/137 424/143/136
f 459/127/121 495/128/122 496/145/138 460/144/137
f 495/128/122 531/129/123 532/146/139 496/145/138
f 531/129/123 567/130/124 568/147/140 532/146/139
f 567/130/124 603/131/125 604/148/141 568/147/140
f 603/131/125 63/132/111 64/149/127 604/148/141
f 64/134/127 100/133/126 101/150/142 65/151/143
f 100/133/126 136/135/128 137/152/144 101/150/142
f 136/135/128 172/136/129 173/153/145 137/152/144
f 172/136/129 208/137/130 209/154/146 173/153/145
f 208/137/130 244/138/131 245/155/147 209/154/146
f 244/138/131 280/139/132 281/156/148 245/155/147
f 280/139/132 316/140/133 317/157/149 281/156/148
f 316/140/133 352/141/134 353/158/150 317/157/149
f 352/141/134 388/142/135 389/159/151 353/158/150
f 388/142/135 424/143/136 425/160/152 389/159/151
f 424/143/136 460/144/137 461/161/153 425/160/152
f 460/144/137 496/145/138 497/162/154 461/161/153
f 496/145/138 532/146/139 533/163/155 497/162/154
f 532/146/139 568/147/140 569/164/156 533/163/155
f 568/147/140 604/148/141 605/165/157 569/164/156
f 604/148/141 64/149/127 65/166/143 605/165/157
f 65/151/143 101/150/142 102/167/158 66/168/159
f 101/150/142 137/152/144 138/169/160 102/167/158
f 137/152/144 173/153/145 174/170/161 138/169/160
f 173/153/145 209/154/146 210/171/162 174/170/161
f 209/154/146 245/155/147 246/172/163 210/171/162
f 245/155/147 281/156/148 282/173/164 246/172/163
f 281/156/148 317/157/149 318/174/165 282/173/164
f 317/157/149 353/158/150 354/175/166 318/174/165
f 353/158/150 389/159/151 390/176/167 354/175/166
f 389/159/151 425/160/152 426/177/168 390/176/167
f 425/160/152 461/161/153 462/178/169 426/177/168
f 461/161/153 497/162/154 498/179/170 462/178/169
f 497/162/154 533/163/155 534/180/171 498/179/170
f 533/163/155 569/164/156 570/181/172 534/180/171
f 569/164/156 605/165/157 606/182/173 570/181/172
f 605/165/157 65/166/143 66/183/159 606/182/173
f 66/168/159 102/167/158 103/184/174 67/185/175
f 102/167/158 138/169/160 139/186/176 103/184/174
f 138/169/160 174/170/161 175/187/177 139/186/176
f 174/170/161 210/171/162 211/188/178 175/187/177
f 210/171/162 246/172/163 247/189/179 211/188/178
f 246/172/163 282/173/164 283/190/180 247/189/179
f 282/173/164 318/174/165 319/191/181 283/190/180
f 318/174/165 354/175/166 355/192/182 319/191/181
f 354/175/166 390/176/167 391/193/183 355/192/182
f 390/176/167 426/177/168 427/194/184 391/193/183
f 426/177/168 462/178/169 463/195/185 427/194/184
f 462/178/169 498/179/170 499/196/186 463/195/185
f 498/179/170 534/180/171 535/197/187 499/196/186
f 534/180/171 570/181/172 571/198/188 535/197/187
f 570/181/172 606/182/173 607/199/189 571/198/188
f 606/182/173 66/183/159 67/200/175 607/199/189
f 67/185/175 103/184/174 104/201/190 68/202/191
f 103/184/174 139/186/176 140/203/192 104/201/190
f 139/186/176 175/187/177 176/204/193 140/203/192
f 175/187/177 211/188/178 212/205/194 176/204/193
f 211/188/178 247/189/179 248/206/195 212/205/194
f 247/189/179 283/190/180 284/207/196 248/206/195
f 283/190/180 319/191/181 320/208/197 284/207/196
f 319/191/181 355/192/182 356/209/198 320/208/197
f 355/192/182 391/193/183 392/210/199 356/209/198
f 391/193/183 427/194/184 428/211/200 392/210/199
f 427/194/184 463/195/185 464/212/201 428/211/200
f 463/195/185 499/196/186 500/213/202 464/212/201
f 499/196/186 535/197/187 536/214/203 500/213/202
f 535/197/187 571/198/188 572/215/204 536/214/203
f 571/198/188 607/199/189 608/216/205 572/215/204
f 607/199/189 67/200/175 68/217/191 608/216/205
f 68/202/191 104/201/190 105/218/206 69/219/207
f 104/201/190 140/203/192 141/220/208 105/218/206
f 140/203/192 176/204/193 177/221/209 141/220/208
f 176/204/193 212/205/194 213/222/210 177/221/209
f 212/205/194 248/206/195 249/223/211 213/222/210
f 248/206/195 284/207/196 285/224/212 249/223/211
f 284/207/196 320/208/197 321/225/213 285/224/212
f 320/208/197 356/209/198 357/226/214 321/225/213
f 356/209/198 392/210/199 393/227/215 357/226/214
f 392/210/199 428/211/200 429/228/216 393/227/215
f 428/211/200 464/212/201 465/229/217 429/228/216
f 464/212/201 500/213/202 501/230/218 465/229/217
f 500/213/202 536/214/203 537/231/219 501/230/218
f 536/214/203 572/215/204 573/232/220 537/231/219
f 572/215/204 608/216/205 609/233/221 573/232/220
f 608/216/205 68/217/191 69/234/207 609/233/221
f 69/219/207 105/218/206 106/235/222 70/236/223
f 105/218/206 141/220/208 142/237/224 106/235/222
f 141/220/208 177/221/209 178/238/225 142/237/224
f 177/221/209 213/222/210 214/239/226 178/238/225
f 213/222/210 249/223/211 250/240/227 214/239/226
f 249/223/211 285/224/212 286/241/228 250/240/227
f 285/224/212 321/225/213 322/242/229 286/241/228
f 321/225/213 357/226/214 358/243/230 322/242/229
f 357/226/214 393/227/215 394/244/231 358/243/230
f 393/227/215 429/228/216 430/245/232 394/244/231
f 429/228/216 465/229/217 466/246/233 430/245/232
f 465/229/217 501/230/218 502/247/234 466/246/233
f 501/230/218 537/231/219 538/248/235 502/247/234
f 537/231/219 573/232/220 574/249/236 538/248/235
f 573/232/220 609/233/221 610/250/237 574/249/236
f 609/233/221 69/234/207 70/251/223 610/250/237
f 70/236/223 106/235/222 107/252/238 71/253/239
f 106/235/222 142/237/224 143/254/240 107/252/238
f 142/237/224 178/238/225 179/255/241 143/254/240
f 178/238/225 214/239/226 215/256/242 179/255/241
f 214/239/226 250/240/227 251/257/243 215/256/242
f 250/240/227 286/241/228 287/258/244 251/257/243
f 286/241/228 322/242/229 323/259/245 287/258/244
f 322/242/229 358/243/230 359/260/246 323/259/245
f 358/243/230 394/244/231 395/261/247 359/260/246
f 394/244/231 430/245/232 431/262/248 395/261/247
f 430/245/232 466/246/233 467/263/249 431/262/248
f 466/246/233 502/247/234 503/264/250 467/263/249
f 502/247/234 538/248/235 539/265/251 503/264/250
f 538/248/235 574/249/236 575/266/252 539/265/251
f 574/249/236 610/250/237 611/267/253 575/266/252
f 610/250/237 70/251/223 71/268/239 611/267/253
f 71/253/239 107/252/238 108/269/254 72/270/255
f 107/252/238 143/254/240 144/271/256 108/269/254
f 143/254/240 179/255/241 180/272/257 144/271/256
f 179/255/241 215/256/242 216/273/258 180/272/257
f 215/256/242 251/257/243 252/274/259 216/273/258
f 251/257/243 287/258/244 288/275/260 252/274/259
f 287/258/244 323/259/245 324/276/261 288/275/260
f 323/259/245 359/260/246 360/277/262 324/276/261
f 359/260/246 395/261/247 396/278/263 360/277/262
f 395/261/247 431/262/248 432/279/264 396/278/263
f 431/262/248 467/263/249 468/280/265 432/279/264
f 467/263/249 503/264/250 504/281/266 468/280/265
f 503/264/250 539/265/251 540/282/267 504/281/266
f 539/265/251 575/266/252 576/283/268 540/282/267
f 575/266/252 611/267/253 612/284/269 576/283/268
f 611/267/253 71/268/239 72/285/255 612/284/269
f 72/270/255 108/269/254 109/286/270 73/287/271
f 108/269/254 144/271/256 145/288/272 109/286/270
f 144/271/256 180/272/257 181/289/273 145/288/272
f 180/272/257 216/273/258 217/290/274 181/289/273
f 216/273/258 252/274/259 253/291/275 217/290/274
f 252/274/259 288/275/260 289/292/276 253/291/275
f 288/275/260 324/276/261 325/293/277 289/292/276
f 324/276/261 360/277/262 361/294/278 325/293/277
f 360/277/262 396/278/263 397/295/279 361/294/278
f 396/278/263 432/279/264 433/296/280 397/295/279
f 432/279/264 468/280/265 469/297/281 433/296/280
f 468/280/265 504/281/266 505/298/282 469/297/281
f 504/281/266 540/282/267 541/299/283 505/298/282
f 540/282/267 576/283/268 577/300/284 541/299/283
f 576/283/268 612/284/269 613/301/285 577/300/284
f 612/284/269 72/285/255 73/302/271 613/301/285
f 73/287/271 109/286/270 110/303/286 74/304/287
f 109/286/270 145/288/272 146/305/288 110/303/286
f 145/288/272 181/289/273 182/306/289 146/305/288
f 181/289/273 217/290/274 218/307/290 182/306/289
f 217/290/274 253/291/275 254/308/291 218/307/290
f 253/291/275 289/292/276 290/309/292 254/308/291
f 289/292/276 325/293/277 326/310/293 290/309/292
f 325/293/277 361/294/278 362/311/294 326/310/293
f 361/294/278 397/295/279 398/312/295 362/311/294
f 397/295/279 433/296/280 434/313/296 398/312/295
f 433/296/280 469/297/281 470/314/297 434/313/296
f 469/297/281 505/298/282 506/315/298 470/314/297
f 505/298/282 541/299/283 542/316/299 506/315/298
f 541/299/283 577/300/284 578/317/300 542/316/299
f 577/300/284 613/301/285 614/318/301 578/317/300
f 613/301/285 73/302/271 74/319/287 614/318/301
f 74/304/287 110/303/286 111/320/302 75/321/303
f 110/303/286 146/305/288 147/322/304 111/320/302
f 146/305/288 182/306/289 183/323/305 147/322/304
f 182/306/289 218/307/290 219/324/306 183/323/305
f 218/307/290 254/308/291 255/325/307 219/324/306
f 254/308/291 290/309/292 291/326/308 255/325/307
f 290/309/292 326/310/293 327/327/309 291/326/308
f 326/310/293 362/311/294 363/328/310 327/327/309
f 362/311/294 398/312/295 399/329/311 363/328/310
f 398/312/295 434/313/296 435/330/312 399/329/311
f 434/313/296 470/314/297 471/331/313 435/330/312
f 470/314/297 506/315/298 507/332/314 471/331/313
f 506/315/298 542/316/299 543/333/315 507/332/314
f 542/316/299 578/317/300 579/334/316 543/333/315
f 578/317/300 614/318/301 615/335/317 579/334/316
f 614/318/301 74/319/287 75/336/303 615/335/317
f 75/321/303 111/320/302 112/337/318 76/338/319
f 111/320/302 147/322/304 148/339/320 112/337/318
f 147/322/304 183/323/305 184/340/321 148/339/320
f 183/323/305 219/324/306 220/341/322 184/340/321
f 219/324/306 255/325/307 256/342/323 220/341/322
f 255/325/307 291/326/308 292/343/324 256/342/323
f 291/326/308 327/327/309 328/344/325 292/343/324
f 327/327/309 363/328/310 364/345/326 328/344/325
f 363/328/310 399/329/311 400/346/327 364/345/326
f 399/329/311 435/330/312 436/347/328 400/346/327
f 435/330/312 471/331/313 472/348/329 436/347/328
f 471/331/313 507/332/314 508/349/330 472/348/329
f 507/332/314 543/333/315 544/350/331 508/349/330
f 543/333/315 579/334/316 580/351/332 544/350/331
f 579/334/316 615/335/317 616/352/333 580/351/332
f 615/335/317 75/336/303 76/353/319 616/352/333
f 76/338/319 112/337/318 113/354/334 77/355/335
f 112/337/318 148/339/320 149/356/336 113/354/334
f 148/339/320 184/340/321 185/357/337 149/356/336
f 184/340/321 220/341/322 221/358/338 185/357/337
f 220/341/322 256/342/323 257/359/339 221/358/338
f 256/342/323 292/343/324 293/360/340 257/359/339
f 292/343/324 328/344/325 329/361/341 293/360/340
f 328/344/325 364/345/326 365/362/342 329/361/341
f 364/345/326 400/346/327 401/363/343 365/362/342
f 400/346/327 436/347/328 437/364/344 401/363/343
f 436/347/328 472/348/329 473/365/345 437/364/344
f 472/348/329 508/349/330 509/366/346 473/365/345
f 508/349/330 544/350/331 545/367/347 509/366/346
f 544/350/331 580/351/332 581/368/348 545/367/347
f 580/351/332 616/352/333 617/369/349 581/368/348
f 616/352/333 76/353/319 77/370/335 617/369/349
f 77/355/335 113/354/334 114/371/350 78/372/351
f 113/354/334 149/356/336 150/373/352 114/371/350
f 149/356/336 185/357/337 186/374/353 150/373/352
f 185/357/337 221/358/338 222/375/354 186/374/353
f 221/358/338 257/359/339 258/376/355 222/375/354
f 257/359/339 293/360/340 294/377/356 258/376/355
f 293/360/340 329/361/341 330/378/357 294/377/356
f 329/361/341 365/362/342 366/379/358 330/378/357
f 365/362/342 401/363/343 402/380/359 366/379/358
f 401/363/343 437/364/344 438/381/360 402/380/359
f 437/364/344 473/365/345 474/382/361 438/381/360
f 473/365/345 509/366/346 510/383/362 474/382/361
f 509/366/346 545/367/347 546/384/363 510/383/362
f 545/367/347 581/368/348 582/385/364 546/384/363
f 581/368/348 617/369/349 618/386/365 582/385/364
f 617/369/349 77/370/335 78/387/351 618/386/365
f 78/372/351 114/371/350 115/388/366 79/389/367
f 114/371/350 150/373/352 151/390/368 115/388/366
f 150/373/352 186/374/353 187/391/369 151/390/368
f 186/374/353 222/375/354 223/392/370 187/391/369
f 222/375/354 258/376/355 259/393/371 223/392/370
f 258/376/355 294/377/356 295/394/372 259/393/371
f 294/377/356 330/378/357 331/395/373 295/394/372
f 330/378/357 366/379/358 367/396/374 331/395/373
f 366/379/358 402/380/359 403/397/375 367/396/374
f 402/380/359 438/381/360 439/398/376 403/397/375
f 438/381/360 474/382/361 475/399/377 439/398/376
f 474/382/361 510/383/362 511/400/378 475/399/377
f 510/383/362 546/384/363 547/401/379 511/400/378
f 546/384/363 582/385/364 583/402/380 547/401/379
f 582/385/364 618/386/365 619/403/381 583/402/380
f 618/386/365 78/387/351 79/404/367 619/403/381
f 79/389/367 115/388/366 116/405/382 80/406/383
f 115/388/366 151/390/368 152/407/384 116/405/382
f 151/390/368 187/391/369 188/408/385 152/407/384
f 187/391/369 223/392/370 224/409/386 188/408/385
f 223/392/370 259/393/371 260/410/387 224/409/386
f 259/393/371 295/394/372 296/411/388 260/410/387
f 295/394/372 331/395/373 332/412/389 296/411/388
f 331/395/373 367/396/374 368/413/390 332/412/389
f 367/396/374 403/397/375 404/414/391 368/413/390
f 403/397/375 439/398/376 440/415/392 404/414/391
f 439/398/376 475/399/377 476/416/393 440/415/392
f 475/399/377 511/400/378 512/417/394 476/416/393
f 511/400/378 547/401/379 548/418/395 512/417/394
f 547/401/379 583/402/380 584/419/396 548/418/395
f 583/402/380 619/403/381 620/420/397 584/419/396
f 619/403/381 79/404/367 80/421/383 620/420/397
f 80/406/383 116/405/382 117/422/398 81/423/399
f 116/405/382 152/407/384 153/424/400 117/422/398
f 152/407/384 188/408/385 189/425/401 153/424/400
f 188/408/385 224/409/386 225/426/402 189/425/401
f 224/409/386 260/410/387 261/427/403 225/426/402
f 260/410/387 296/411/388 297/428/404 261/427/403
f 296/411/388 332/412/389 333/429/405 297/428/404
f 332/412/389 368/413/390 369/430/406 333/429/405
f 368/413/390 404/414/391 405/431/407 369/430/406
f 404/414/391 440/415/392 441/432/408 405/431/407
f 440/415/392 476/416/393 477/433/409 441/432/408
f 476/416/393 512/417/394 513/434/410 477/433/409
f 512/417/394 548/418/395 549/435/411 513/434/410
f 548/418/395 584/419/396 585/436/412 549/435/411
f 584/419/396 620/420/397 621/437/413 585/436/412
f 620/420/397 80/421/383 81/438/399 621/437/413
f 81/423/399 117/422/398 118/439/414 82/440/415
f 117/422/398 153/424/400 154/441/416 118/439/414
f 153/424/400 189/425/401 190/442/417 154/441/416
f 189/425/401 225/426/402 226/443/418 190/442/417
f 225/426/402 261/427/403 262/444/419 226/443/418
f 261/427/403 297/428/404 298/445/420 262/444/419
f 297/428/404 333/429/405 334/446/421 298/445/420
f 333/429/405 369/430/406 370/447/422 334/446/421
f 369/430/406 405/431/407 406/448/423 370/447/422
f 405/431/407 441/432/408 442/449/424 406/448/423
f 441/432/408 477/433/409 478/450/425 442/449/424
f 477/433/409 513/434/410 514/451/426 478/450/425
f 513/434/410 549/435/411 550/452/427 514/451/426
f 549/435/411 585/436/412 586/453/428 550/452/427
f 585/436/412 621/437/413 622/454/429 586/453/428
f 621/437/413 81/438/399 82/455/415 622/454/429
f 82/440/415 118/439/414 119/456/430 83/457/431
f 118/439/414 154/441/416 155/458/432 119/456/430
f 154/441/416 190/442/417 191/459/433 155/458/432
f 190/442/417 226/443/418 227/460/434 191/459/433
f 226/443/418 262/444/419 263/461/435 227/460/434
f 262/444/419 298/445/420 299/462/436 263/461/435
f 298/445/420 334/446/421 335/463/437 299/462/436
f 334/446/421 370/447/422 371/464/438 335/463/437
f 370/447/422 406/448/423 407/465/439 371/464/438
f 406/448/423 442/449/424 443/466/440 407/465/439
f 442/449/424 478/450/425 479/467/441 443/466/440
f 478/450/425 514/451/426 515/468/442 479/467/441
f 514/451/426 550/452/427 551/469/443 515/468/442
f 550/452/427 586/453/428 587/470/444 551/469/443
f 586/453/428 622/454/429 623/471/445 587/470/444
f 622/454/429 82/455/415 83/472/431 623/471/445
f 83/457/431 119/456/430 120/473/446 84/474/447
f 119/456/430 155/458/432 156/475/448 120/473/446
f 155/458/432 191/459/433 192/476/449 156/475/448
f 191/459/433 227/460/434 228/477/450 192/476/449
f 227/460/434 263/461/435 264/478/451 228/477/450
f 263/461/435 299/462/436 300/479/452 264/478/451
f 299/462/436 335/463/437 336/480/453 300/479/452
f 335/463/437 371/464/438 372/481/454 336/480/453
f 371/464/438 407/465/439 408/482/455 372/481/454
f 407/465/439 443/466/440 444/483/456 408/482/455
f 443/466/440 479/467/441 480/484/457 444/483/456
f 479/467/441 515/468/442 516/485/458 480/484/457
f 515/468/442 551/469/443 552/486/459 516/485/458
f 551/469/443 587/470/444 588/487/460 552/486/459
f 587/470/444 623/471/445 624/488/461 588/487/460
f 623/471/445 83/472/431 84/489/447 624/488/461
f 84/474/447 120/473/446 121/490/462 85/491/463
f 120/473/446 156/475/448 157/492/464 121/490/462
f 156/475/448 192/476/449 193/493/465 157/492/464
f 192/476/449 228/477/450 229/494/466 193/493/465
f 228/477/450 264/478/451 265/495/467 229/494/466
f 264/478/451 300/479/452 301/496/468 265/495/467
f 300/479/452 336/480/453 337/497/469 301/496/468
f 336/480/453 372/481/454 373/498/470 337/497/469
f 372/481/454 408/482/455 409/499/471 373/498/470
f 408/482/455 444/483/456 445/500/472 409/499/471
f 444/483/456 480/484/457 481/501/473 445/500/472
f 480/484/457 516/485/458 517/502/474 481/501/473
f 516/485/458 552/486/459 553/503/475 517/502/474
f 552/486/459 588/487/460 589/504/476 553/503/475
f 588/487/460 624/488/461 625/505/477 589/504/476
f 624/488/461 84/489/447 85/506/463 625/505/477
f 85/491/463 121/490/462 122/507/478 86/508/479
f 121/490/462 157/492/464 158/509/480 122/507/478
f 157/492/464 193/493/465 194/510/481 158/509/480
f 193/493/465 229/494/466 230/511/482 194/510/481
f 229/494/466 265/495/467 266/512/483 230/511/482
f 265/495/467 301/496/468 302/513/484 266/512/483
f 301/496/468 337/497/469 338/514/485 302/513/484
f 337/497/469 373/498/470 374/515/486 338/514/485
f 373/498/470 409/499/471 410/516/487 374/515/486
f 409/499/471 445/500/472 446/517/488 410/516/487
f 445/500/472 481/501/473 482/518/489 446/517/488
f 481/501/473 517/502/474 518/519/490 482/518/489
f 517/502/474 553/503/475 554/520/491 518/519/490
f 553/503/475 589/504/476 590/521/492 554/520/491
f 589/504/476 625/505/477 626/522/493 590/521/492
f 625/505/477 85/506/463 86/523/479 626/522/493
f 86/508/479 122/507/478 123/524/494 87/525/495
f 122/507/478 158/509/480 159/526/496 123/524/494
f 158/509/480 194/510/481 195/527/497 159/526/496
f 194/510/481 230/511/482 231/528/498 195/527/497
f 230/511/482 266/512/483 267/529/499 231/528/498
f 266/512/483 302/513/484 303/530/500 267/529/499
f 302/513/484 338/514/485 339/531/501 303/530/500
f 338/514/485 374/515/486 375/532/502 339/531/501
f 374/515/486 410/516/487 411/533/503 375/532/502
f 410/516/487 446/517/488 447/534/504 411/533/503
f 446/517/488 482/518/489 483/535/505 447/534/504
f 482/518/489 518/519/490 519/536/506 483/535/505
f 518/519/490 554/520/491 555/537/507 519/536/506
f 554/520/491 590/521/492 591/538/508 555/537/507
f 590/521/492 626/522/493 627/539/509 591/538/508
f 626/522/493 86/523/479 87/540/495 627/539/509
f 87/525/495 123/524/494 124/541/510 88/542/511
f 123/524/494 159/526/496 160/543/512 124/541/510
f 159/526/496 195/527/497 196/544/513 160/543/512
f 195/527/497 231/528/498 232/545/514 196/544/513
f 231/528/498 267/529/499 268/546/515 232/545/514
f 267/529/499 303/530/500 304/547/516 268/546/515
f 303/530/500 339/531/501 340/548/517 304/547/516
f 339/531/501 375/532/502 376/549/518 340/548/517
f 375/532/502 411/533/503 412/550/519 376/549/518
f 411/533/503 447/534/504 448/551/520 412/550/519
f 447/534/504 483/535/505 484/552/521 448/551/520
f 483/535/505 519/536/506 520/553/522 484/552/521
f 519/536/506 555/537/507 556/554/523 520/553/522
f 555/537/507 591/538/508 592/555/524 556/554/523
f 591/538/508 627/539/509 628/556/525 592/555/524
f 627/539/509 87/540/495 88/557/511 628/556/525
f 88/542/511 124/541/510 125/558/526 89/559/527
f 124/541/510 160/543/512 161/560/528 125/558/526
f 160/543/512 196/544/513 197/561/529 161/560/528
f 196/544/513 232/545/514 233/562/530 197/561/529
f 232/545/514 268/546/515 269/563/531 233/562/530
f 268/546/515 304/547/516 305/564/532 269/563/531
f 304/547/516 340/548/517 341/565/533 305/564/532
f 340/548/517 376/549/518 377/566/534 341/565/533
f 376/549/518 412/550/519 413/567/535 377/566/534
f 412/550/519 448/551/520 449/568/536 413/567/535
f 448/551/520 484/552/521 485/569/537 449/568/536
f 484/552/521 520/553/522 521/570/538 485/569/537
f 520/553/522 556/554/523 557/571/539 521/570/538
f 556/554/523 592/555/524 593/572/540 557/571/539
f 592/555/524 628/556/525 629/573/541 593/572/540
f 628/556/525 88/557/511 89/574/527 629/573/541
f 89/559/527 125/558/526 126/575/542 90/576/543
f 125/558/526 161/560/528 162/577/544 126/575/542
f 161/560/528 197/561/529 198/578/545 162/577/544
f 197/561/529 233/562/530 234/579/546 198/578/545
f 233/562/530 269/563/531 270/580/547 234/579/546
f 269/563/531 305/564/532 306/581/548 270/580/547
f 305/564/532 341/565/533 342/582/549 306/581/548
f 341/565/533 377/566/534 378/583/550 342/582/549
f 377/566/534 413/567/535 414/584/551 378/583/550
f 413/567/535 449/568/536 450/585/552 414/584/551
f 449/568/536 485/569/537 486/586/553 450/585/552
f 485/569/537 521/570/538 522/587/554 486/586/553
f 521/570/538 557/571/539 558/588/555 522/587/554
f 557/571/539 593/572/540 594/589/556 558/588/555
f 593/572/540 629/573/541 630/590/557 594/589/556
f 629/573/541 89/574/527 90/591/543 630/590/557
f 90/576/543 126/575/542 127/592/558 91/593/559
f 126/575/542 162/577/544 163/594/560 127/592/558
f 162/577/544 198/578/545 199/595/561 163/594/560
f 198/578/545 234/579/546 235/596/562 199/595/561
f 234/579/546 270/580/547 271/597/563 235/596/562
f 270/580/547 306/581/548 307/598/564 271/597/563
f 306/581/548 342/582/549 343/599/565 307/598/564
f 342/582/549 378/583/550 379/600/566 343/599/565
f 378/583/550 414/584/551 415/601/567 379/600/566
f 414/584/551 450/585/552 451/602/568 415/601/567
f 450/585/552 486/586/553 487/603/569 451/602/568
f 486/586/553 522/587/554 523/604/570 487/603/569
f 522/587/554 558/588/555 559/605/571 523/604/570
f 558/588/555 594/589/556 595/606/572 559/605/571
f 594/589/556 630/590/557 631/607/573 595/606/572
f 630/590/557 90/591/543 91/608/559 631/607/573
f 91/593/559 127/592/558 128/592/574 92/593/574
f 127/592/558 163/594/560 164/594/574 128/592/574
f 163/594/560 199/595/561 200/595/574 164/594/574
f 199/595/561 235/596/562 236/596/574 200/595/574
f 235/596/562 271/597/563 272/597/574 236/596/574
f 271/597/563 307/598/564 308/598/574 272/597/574
f 307/598/564 343/599/565 344/599/574 308/598/574
f 343/599/565 379/600/566 380/600/574 344/599/574
f 379/600/566 415/601/567 416/601/574 380/600/574
f 415/601/567 451/602/568 452/602/574 416/601/574
f 451/602/568 487/603/569 488/603/574 452/602/574
f 487/603/569 523/604/570 524/604/574 488/603/574
f 523/604/570 559/605/571 560/605/574 524/604/574
f 559/605/571 595/606/572 596/606/574 560/605/574
f 595/606/572 631/607/573 632/607/574 596/606/574
f 631/607/573 91/608/559 92/608/574 632/607/574
f 57/33/575 93/34/576 128/592/577 92/593/575
f 93/34/576 129/35/578 164/594/579 128/592/577
f 129/35/578 165/36/580 200/595/581 164/594/579
f 165/36/580 201/37/582 236/596/583 200/595/581
f 201/37/582 237/38/584 272/597/585 236/596/583
f 237/38/584 273/27/586 308/598/587 272/597/585
f 273/27/586 309/39/588 344/599/589 308/598/587
f 309/39/588 345/40/590 380/600/590 344/599/589
f 345/40/590 381/41/591 416/601/592 380/600/590
f 381/41/591 417/28/593 452/602/594 416/601/592
f 417/28/593 453/42/595 488/603/596 452/602/594
f 453/42/595 489/43/597 524/604/598 488/603/596
f 489/43/597 525/44/599 560/605/600 524/604/598
f 525/44/599 561/45/601 596/606/602 560/605/600
f 561/45/601 597/46/603 632/607/604 596/606/602
f 597/46/603 57/47/575 92/608/575 632/607/604
