# Blender 5.1.1
# www.blender.org
mtllib Krug_var4.mtl
o Krug_3
v 5.526083 0.000000 -4.505642
v 5.468859 0.003399 -4.505642
v 5.421833 0.018130 -4.505642
v 5.378773 0.047026 -4.505642
v 5.344213 0.087253 -4.505642
v 5.326649 0.132012 -4.505642
v 5.323816 0.174505 -4.505642
v 5.337980 0.231729 -4.505642
v 5.369708 0.290087 -4.505642
v 5.405403 0.325214 -4.505642
v 5.439397 0.342778 -4.505642
v 5.450728 0.354676 -4.505642
v 5.451862 0.363175 -4.505642
v 5.450162 0.369974 -4.505642
v 5.444496 0.377906 -4.505642
v 5.438830 0.382438 -4.505642
v 5.422966 0.389804 -4.505642
v 5.412768 0.397169 -4.505642
v 5.408802 0.402268 -4.505642
v 5.410501 0.406801 -4.505642
v 5.415034 0.409067 -4.505642
v 5.422400 0.409634 -4.505642
v 5.428632 0.405668 -4.505642
v 5.437697 0.397736 -4.505642
v 5.455261 0.386971 -4.505642
v 5.464893 0.374506 -4.505642
v 5.467726 0.360342 -4.505642
v 5.461493 0.340512 -4.505642
v 5.441097 0.325781 -4.505642
v 5.406536 0.298585 -4.505642
v 5.374241 0.258925 -4.505642
v 5.353844 0.214165 -4.505642
v 5.346478 0.178471 -4.505642
v 5.348178 0.124080 -4.505642
v 5.373674 0.079320 -4.505642
v 5.397470 0.054958 -4.505642
v 5.430332 0.033428 -4.505642
v 5.468292 0.024363 -4.505642
v 5.493788 0.019830 -4.505642
v 5.514185 0.017564 -4.505642
v 5.525517 0.017054 -4.505642
v 5.526083 0.000000 -4.505642
v 5.473215 0.003399 -4.483743
v 5.429769 0.018130 -4.465747
v 5.389987 0.047026 -4.449269
v 5.358057 0.087253 -4.436043
v 5.341830 0.132012 -4.429322
v 5.339212 0.174505 -4.428237
v 5.352299 0.231729 -4.433658
v 5.381611 0.290087 -4.445800
v 5.414589 0.325214 -4.459459
v 5.445995 0.342778 -4.472469
v 5.456464 0.354676 -4.476805
v 5.457511 0.363175 -4.477239
v 5.455941 0.369974 -4.476588
v 5.450706 0.377906 -4.474420
v 5.445472 0.382438 -4.472252
v 5.430816 0.389804 -4.466181
v 5.421393 0.397169 -4.462278
v 5.417729 0.402268 -4.460761
v 5.419300 0.406801 -4.461411
v 5.423487 0.409067 -4.463145
v 5.430292 0.409634 -4.465964
v 5.436050 0.405668 -4.468349
v 5.444425 0.397736 -4.471818
v 5.460652 0.386971 -4.478539
v 5.469551 0.374506 -4.482225
v 5.472168 0.360342 -4.483310
v 5.466410 0.340512 -4.480925
v 5.447566 0.325781 -4.473119
v 5.415636 0.298585 -4.459893
v 5.385799 0.258925 -4.447535
v 5.366955 0.214165 -4.439729
v 5.360150 0.178471 -4.436910
v 5.361721 0.124080 -4.437561
v 5.385276 0.079320 -4.447318
v 5.407260 0.054958 -4.456424
v 5.437621 0.033428 -4.468999
v 5.472692 0.024363 -4.483526
v 5.496246 0.019830 -4.493283
v 5.515090 0.017564 -4.501089
v 5.525559 0.017054 -4.505425
v 5.526083 0.000000 -4.505642
v 5.485620 0.003399 -4.465178
v 5.452367 0.018130 -4.431926
v 5.421919 0.047026 -4.401478
v 5.397481 0.087253 -4.377040
v 5.385062 0.132012 -4.364621
v 5.383059 0.174505 -4.362617
v 5.393074 0.231729 -4.372633
v 5.415509 0.290087 -4.395068
v 5.440749 0.325214 -4.420308
v 5.464787 0.342778 -4.444345
v 5.472799 0.354676 -4.452358
v 5.473600 0.363175 -4.453159
v 5.472399 0.369974 -4.451958
v 5.468392 0.377906 -4.447951
v 5.464386 0.382438 -4.443945
v 5.453168 0.389804 -4.432727
v 5.445957 0.397169 -4.425516
v 5.443153 0.402268 -4.422712
v 5.444355 0.406801 -4.423913
v 5.447560 0.409067 -4.427119
v 5.452768 0.409634 -4.432327
v 5.457175 0.405668 -4.436734
v 5.463585 0.397736 -4.443144
v 5.476004 0.386971 -4.455563
v 5.482815 0.374506 -4.462374
v 5.484818 0.360342 -4.464377
v 5.480411 0.340512 -4.459970
v 5.465989 0.325781 -4.445548
v 5.441550 0.298585 -4.421109
v 5.418715 0.258925 -4.398273
v 5.404292 0.214165 -4.383851
v 5.399084 0.178471 -4.378643
v 5.400285 0.124080 -4.379844
v 5.418314 0.079320 -4.397873
v 5.435140 0.054958 -4.414699
v 5.458377 0.033428 -4.437936
v 5.485219 0.024363 -4.464778
v 5.503247 0.019830 -4.482806
v 5.517670 0.017564 -4.497229
v 5.525682 0.017054 -4.505241
v 5.526083 0.000000 -4.505642
v 5.504184 0.003399 -4.452774
v 5.486188 0.018130 -4.409328
v 5.469710 0.047026 -4.369545
v 5.456484 0.087253 -4.337615
v 5.449763 0.132012 -4.321389
v 5.448678 0.174505 -4.318771
v 5.454099 0.231729 -4.331858
v 5.466241 0.290087 -4.361170
v 5.479900 0.325214 -4.394148
v 5.492910 0.342778 -4.425554
v 5.497246 0.354676 -4.436023
v 5.497680 0.363175 -4.437070
v 5.497029 0.369974 -4.435500
v 5.494861 0.377906 -4.430265
v 5.492693 0.382438 -4.425031
v 5.486622 0.389804 -4.410375
v 5.482719 0.397169 -4.400952
v 5.481202 0.402268 -4.397288
v 5.481852 0.406801 -4.398859
v 5.483586 0.409067 -4.403046
v 5.486405 0.409634 -4.409851
v 5.488790 0.405668 -4.415609
v 5.492259 0.397736 -4.423984
v 5.498981 0.386971 -4.440211
v 5.502666 0.374506 -4.449110
v 5.503751 0.360342 -4.451727
v 5.501366 0.340512 -4.445969
v 5.493560 0.325781 -4.427125
v 5.480334 0.298585 -4.395195
v 5.467976 0.258925 -4.365358
v 5.460170 0.214165 -4.346514
v 5.457351 0.178471 -4.339709
v 5.458002 0.124080 -4.341280
v 5.467759 0.079320 -4.364835
v 5.476865 0.054958 -4.386819
v 5.489440 0.033428 -4.417180
v 5.503967 0.024363 -4.452250
v 5.513724 0.019830 -4.475805
v 5.521530 0.017564 -4.494649
v 5.525866 0.017054 -4.505118
v 5.526083 0.000000 -4.505642
v 5.526083 0.003399 -4.448418
v 5.526083 0.018130 -4.401392
v 5.526083 0.047026 -4.358332
v 5.526083 0.087253 -4.323771
v 5.526083 0.132012 -4.306208
v 5.526083 0.174505 -4.303375
v 5.526083 0.231729 -4.317539
v 5.526083 0.290087 -4.349267
v 5.526083 0.325214 -4.384962
v 5.526083 0.342778 -4.418956
v 5.526083 0.354676 -4.430287
v 5.526083 0.363175 -4.431421
v 5.526083 0.369974 -4.429721
v 5.526083 0.377906 -4.424055
v 5.526083 0.382438 -4.418389
v 5.526083 0.389804 -4.402525
v 5.526083 0.397169 -4.392327
v 5.526083 0.402268 -4.388361
v 5.526083 0.406801 -4.390060
v 5.526083 0.409067 -4.394593
v 5.526083 0.409634 -4.401958
v 5.526083 0.405668 -4.408191
v 5.526083 0.397736 -4.417256
v 5.526083 0.386971 -4.434820
v 5.526083 0.374506 -4.444452
v 5.526083 0.360342 -4.447285
v 5.526083 0.340512 -4.441052
v 5.526083 0.325781 -4.420656
v 5.526083 0.298585 -4.386095
v 5.526083 0.258925 -4.353800
v 5.526083 0.214165 -4.333403
v 5.526083 0.178471 -4.326037
v 5.526083 0.124080 -4.327737
v 5.526083 0.079320 -4.353233
v 5.526083 0.054958 -4.377029
v 5.526083 0.033428 -4.409891
v 5.526083 0.024363 -4.447851
v 5.526083 0.019830 -4.473347
v 5.526083 0.017564 -4.493744
v 5.526083 0.017054 -4.505075
v 5.526083 0.000000 -4.505642
v 5.547982 0.003399 -4.452774
v 5.565978 0.018130 -4.409328
v 5.582456 0.047026 -4.369545
v 5.595682 0.087253 -4.337615
v 5.602403 0.132012 -4.321389
v 5.603487 0.174505 -4.318771
v 5.598067 0.231729 -4.331858
v 5.585925 0.290087 -4.361170
v 5.572266 0.325214 -4.394148
v 5.559256 0.342778 -4.425554
v 5.554920 0.354676 -4.436023
v 5.554486 0.363175 -4.437070
v 5.555137 0.369974 -4.435500
v 5.557305 0.377906 -4.430265
v 5.559473 0.382438 -4.425031
v 5.565544 0.389804 -4.410375
v 5.569447 0.397169 -4.400952
v 5.570964 0.402268 -4.397288
v 5.570314 0.406801 -4.398859
v 5.568580 0.409067 -4.403046
v 5.565761 0.409634 -4.409851
v 5.563376 0.405668 -4.415609
v 5.559907 0.397736 -4.423984
v 5.553185 0.386971 -4.440211
v 5.549500 0.374506 -4.449110
v 5.548415 0.360342 -4.451727
v 5.550800 0.340512 -4.445969
v 5.558606 0.325781 -4.427125
v 5.571832 0.298585 -4.395195
v 5.584190 0.258925 -4.365358
v 5.591996 0.214165 -4.346514
v 5.594815 0.178471 -4.339709
v 5.594164 0.124080 -4.341280
v 5.584407 0.079320 -4.364835
v 5.575301 0.054958 -4.386819
v 5.562726 0.033428 -4.417180
v 5.548199 0.024363 -4.452250
v 5.538442 0.019830 -4.475805
v 5.530636 0.017564 -4.494649
v 5.526300 0.017054 -4.505118
v 5.526083 0.000000 -4.505642
v 5.566546 0.003399 -4.465178
v 5.599799 0.018130 -4.431926
v 5.630247 0.047026 -4.401478
v 5.654685 0.087253 -4.377040
v 5.667104 0.132012 -4.364621
v 5.669107 0.174505 -4.362617
v 5.659092 0.231729 -4.372633
v 5.636657 0.290087 -4.395068
v 5.611417 0.325214 -4.420308
v 5.587379 0.342778 -4.444345
v 5.579367 0.354676 -4.452358
v 5.578566 0.363175 -4.453159
v 5.579767 0.369974 -4.451958
v 5.583774 0.377906 -4.447951
v 5.587780 0.382438 -4.443945
v 5.598998 0.389804 -4.432727
v 5.606209 0.397169 -4.425516
v 5.609013 0.402268 -4.422712
v 5.607811 0.406801 -4.423913
v 5.604606 0.409067 -4.427119
v 5.599398 0.409634 -4.432327
v 5.594991 0.405668 -4.436734
v 5.588581 0.397736 -4.443144
v 5.576162 0.386971 -4.455563
v 5.569351 0.374506 -4.462374
v 5.567348 0.360342 -4.464377
v 5.571755 0.340512 -4.459970
v 5.586177 0.325781 -4.445548
v 5.610616 0.298585 -4.421109
v 5.633451 0.258925 -4.398273
v 5.647874 0.214165 -4.383851
v 5.653082 0.178471 -4.378643
v 5.651881 0.124080 -4.379844
v 5.633852 0.079320 -4.397873
v 5.617026 0.054958 -4.414699
v 5.593789 0.033428 -4.437936
v 5.566947 0.024363 -4.464778
v 5.548919 0.019830 -4.482806
v 5.534496 0.017564 -4.497229
v 5.526484 0.017054 -4.505241
v 5.526083 0.000000 -4.505642
v 5.578951 0.003399 -4.483743
v 5.622397 0.018130 -4.465747
v 5.662179 0.047026 -4.449269
v 5.694109 0.087253 -4.436043
v 5.710337 0.132012 -4.429322
v 5.712954 0.174505 -4.428237
v 5.699867 0.231729 -4.433658
v 5.670555 0.290087 -4.445800
v 5.637577 0.325214 -4.459459
v 5.606171 0.342778 -4.472469
v 5.595702 0.354676 -4.476805
v 5.594655 0.363175 -4.477239
v 5.596225 0.369974 -4.476588
v 5.601460 0.377906 -4.474420
v 5.606694 0.382438 -4.472252
v 5.621350 0.389804 -4.466181
v 5.630773 0.397169 -4.462278
v 5.634437 0.402268 -4.460761
v 5.632866 0.406801 -4.461411
v 5.628679 0.409067 -4.463145
v 5.621874 0.409634 -4.465964
v 5.616116 0.405668 -4.468349
v 5.607741 0.397736 -4.471818
v 5.591514 0.386971 -4.478539
v 5.582615 0.374506 -4.482225
v 5.579998 0.360342 -4.483310
v 5.585756 0.340512 -4.480925
v 5.604600 0.325781 -4.473119
v 5.636530 0.298585 -4.459893
v 5.666367 0.258925 -4.447535
v 5.685211 0.214165 -4.439729
v 5.692016 0.178471 -4.436910
v 5.690445 0.124080 -4.437561
v 5.666890 0.079320 -4.447318
v 5.644906 0.054958 -4.456424
v 5.614546 0.033428 -4.468999
v 5.579474 0.024363 -4.483526
v 5.555920 0.019830 -4.493283
v 5.537076 0.017564 -4.501089
v 5.526607 0.017054 -4.505425
v 5.526083 0.000000 -4.505642
v 5.583307 0.003399 -4.505642
v 5.630333 0.018130 -4.505642
v 5.673393 0.047026 -4.505642
v 5.707953 0.087253 -4.505642
v 5.725517 0.132012 -4.505642
v 5.728350 0.174505 -4.505642
v 5.714186 0.231729 -4.505642
v 5.682458 0.290087 -4.505642
v 5.646763 0.325214 -4.505642
v 5.612769 0.342778 -4.505642
v 5.601438 0.354676 -4.505642
v 5.600304 0.363175 -4.505642
v 5.602004 0.369974 -4.505642
v 5.607670 0.377906 -4.505642
v 5.613336 0.382438 -4.505642
v 5.629200 0.389804 -4.505642
v 5.639398 0.397169 -4.505642
v 5.643364 0.402268 -4.505642
v 5.641665 0.406801 -4.505642
v 5.637132 0.409067 -4.505642
v 5.629766 0.409634 -4.505642
v 5.623534 0.405668 -4.505642
v 5.614469 0.397736 -4.505642
v 5.596905 0.386971 -4.505642
v 5.587273 0.374506 -4.505642
v 5.584440 0.360342 -4.505642
v 5.590672 0.340512 -4.505642
v 5.611069 0.325781 -4.505642
v 5.645630 0.298585 -4.505642
v 5.677925 0.258925 -4.505642
v 5.698322 0.214165 -4.505642
v 5.705688 0.178471 -4.505642
v 5.703988 0.124080 -4.505642
v 5.678492 0.079320 -4.505642
v 5.654696 0.054958 -4.505642
v 5.621834 0.033428 -4.505642
v 5.583874 0.024363 -4.505642
v 5.558378 0.019830 -4.505642
v 5.537981 0.017564 -4.505642
v 5.526649 0.017054 -4.505642
v 5.526083 0.000000 -4.505642
v 5.578951 0.003399 -4.527541
v 5.622397 0.018130 -4.545537
v 5.662179 0.047026 -4.562015
v 5.694109 0.087253 -4.575241
v 5.710336 0.132012 -4.581962
v 5.712954 0.174505 -4.583046
v 5.699867 0.231729 -4.577626
v 5.670555 0.290087 -4.565484
v 5.637577 0.325214 -4.551825
v 5.606171 0.342778 -4.538815
v 5.595702 0.354676 -4.534479
v 5.594655 0.363175 -4.534045
v 5.596225 0.369974 -4.534696
v 5.601460 0.377906 -4.536864
v 5.606694 0.382438 -4.539032
v 5.621350 0.389804 -4.545103
v 5.630773 0.397169 -4.549006
v 5.634437 0.402268 -4.550523
v 5.632866 0.406801 -4.549873
v 5.628679 0.409067 -4.548139
v 5.621874 0.409634 -4.545320
v 5.616116 0.405668 -4.542935
v 5.607741 0.397736 -4.539466
v 5.591514 0.386971 -4.532744
v 5.582615 0.374506 -4.529058
v 5.579998 0.360342 -4.527974
v 5.585756 0.340512 -4.530359
v 5.604600 0.325781 -4.538165
v 5.636530 0.298585 -4.551391
v 5.666367 0.258925 -4.563749
v 5.685211 0.214165 -4.571555
v 5.692016 0.178471 -4.574374
v 5.690445 0.124080 -4.573723
v 5.666890 0.079320 -4.563966
v 5.644906 0.054958 -4.554860
v 5.614545 0.033428 -4.542284
v 5.579474 0.024363 -4.527758
v 5.555920 0.019830 -4.518001
v 5.537076 0.017564 -4.510195
v 5.526607 0.017054 -4.505859
v 5.526083 0.000000 -4.505642
v 5.566546 0.003399 -4.546105
v 5.599799 0.018130 -4.579358
v 5.630247 0.047026 -4.609806
v 5.654685 0.087253 -4.634244
v 5.667104 0.132012 -4.646664
v 5.669107 0.174505 -4.648666
v 5.659092 0.231729 -4.638651
v 5.636657 0.290087 -4.616216
v 5.611417 0.325214 -4.590976
v 5.587379 0.342778 -4.566938
v 5.579367 0.354676 -4.558926
v 5.578566 0.363175 -4.558125
v 5.579767 0.369974 -4.559326
v 5.583774 0.377906 -4.563333
v 5.587780 0.382438 -4.567339
v 5.598998 0.389804 -4.578557
v 5.606209 0.397169 -4.585768
v 5.609013 0.402268 -4.588572
v 5.607811 0.406801 -4.587370
v 5.604606 0.409067 -4.584165
v 5.599398 0.409634 -4.578957
v 5.594991 0.405668 -4.574550
v 5.588581 0.397736 -4.568140
v 5.576162 0.386971 -4.555721
v 5.569351 0.374506 -4.548910
v 5.567348 0.360342 -4.546907
v 5.571755 0.340512 -4.551314
v 5.586177 0.325781 -4.565736
v 5.610616 0.298585 -4.590175
v 5.633451 0.258925 -4.613010
v 5.647874 0.214165 -4.627433
v 5.653082 0.178471 -4.632641
v 5.651881 0.124080 -4.631440
v 5.633852 0.079320 -4.613411
v 5.617026 0.054958 -4.596585
v 5.593789 0.033428 -4.573348
v 5.566947 0.024363 -4.546506
v 5.548919 0.019830 -4.528478
v 5.534496 0.017564 -4.514055
v 5.526484 0.017054 -4.506042
v 5.526083 0.000000 -4.505642
v 5.547982 0.003399 -4.558510
v 5.565978 0.018130 -4.601956
v 5.582456 0.047026 -4.641738
v 5.595682 0.087253 -4.673668
v 5.602403 0.132012 -4.689896
v 5.603487 0.174505 -4.692513
v 5.598067 0.231729 -4.679426
v 5.585925 0.290087 -4.650114
v 5.572266 0.325214 -4.617136
v 5.559256 0.342778 -4.585730
v 5.554920 0.354676 -4.575261
v 5.554486 0.363175 -4.574214
v 5.555137 0.369974 -4.575784
v 5.557305 0.377906 -4.581018
v 5.559473 0.382438 -4.586253
v 5.565544 0.389804 -4.600909
v 5.569447 0.397169 -4.610332
v 5.570964 0.402268 -4.613996
v 5.570314 0.406801 -4.612425
v 5.568580 0.409067 -4.608238
v 5.565761 0.409634 -4.601433
v 5.563376 0.405668 -4.595675
v 5.559907 0.397736 -4.587300
v 5.553185 0.386971 -4.571073
v 5.549500 0.374506 -4.562174
v 5.548415 0.360342 -4.559557
v 5.550800 0.340512 -4.565315
v 5.558606 0.325781 -4.584159
v 5.571832 0.298585 -4.616089
v 5.584190 0.258925 -4.645926
v 5.591996 0.214165 -4.664770
v 5.594815 0.178471 -4.671575
v 5.594164 0.124080 -4.670004
v 5.584407 0.079320 -4.646449
v 5.575301 0.054958 -4.624465
v 5.562726 0.033428 -4.594105
v 5.548199 0.024363 -4.559033
v 5.538442 0.019830 -4.535479
v 5.530636 0.017564 -4.516634
v 5.526300 0.017054 -4.506166
v 5.526083 0.000000 -4.505642
v 5.526083 0.003399 -4.562866
v 5.526083 0.018130 -4.609892
v 5.526083 0.047026 -4.652952
v 5.526083 0.087253 -4.687512
v 5.526083 0.132012 -4.705076
v 5.526083 0.174505 -4.707909
v 5.526083 0.231729 -4.693745
v 5.526083 0.290087 -4.662017
v 5.526083 0.325214 -4.626322
v 5.526083 0.342778 -4.592328
v 5.526083 0.354676 -4.580997
v 5.526083 0.363175 -4.579863
v 5.526083 0.369974 -4.581563
v 5.526083 0.377906 -4.587229
v 5.526083 0.382438 -4.592895
v 5.526083 0.389804 -4.608758
v 5.526083 0.397169 -4.618957
v 5.526083 0.402268 -4.622923
v 5.526083 0.406801 -4.621223
v 5.526083 0.409067 -4.616691
v 5.526083 0.409634 -4.609325
v 5.526083 0.405668 -4.603093
v 5.526083 0.397736 -4.594028
v 5.526083 0.386971 -4.576464
v 5.526083 0.374506 -4.566832
v 5.526083 0.360342 -4.563999
v 5.526083 0.340512 -4.570231
v 5.526083 0.325781 -4.590628
v 5.526083 0.298585 -4.625189
v 5.526083 0.258925 -4.657484
v 5.526083 0.214165 -4.677881
v 5.526083 0.178471 -4.685246
v 5.526083 0.124080 -4.683547
v 5.526083 0.079320 -4.658051
v 5.526083 0.054958 -4.634254
v 5.526083 0.033428 -4.601393
v 5.526083 0.024363 -4.563433
v 5.526083 0.019830 -4.537937
v 5.526083 0.017564 -4.517540
v 5.526083 0.017054 -4.506208
v 5.526083 0.000000 -4.505642
v 5.504184 0.003399 -4.558510
v 5.486188 0.018130 -4.601956
v 5.469710 0.047026 -4.641738
v 5.456484 0.087253 -4.673668
v 5.449763 0.132012 -4.689895
v 5.448678 0.174505 -4.692513
v 5.454099 0.231729 -4.679426
v 5.466241 0.290087 -4.650113
v 5.479900 0.325214 -4.617136
v 5.492910 0.342778 -4.585729
v 5.497246 0.354676 -4.575260
v 5.497680 0.363175 -4.574214
v 5.497029 0.369974 -4.575784
v 5.494861 0.377906 -4.581018
v 5.492693 0.382438 -4.586253
v 5.486622 0.389804 -4.600909
v 5.482719 0.397169 -4.610332
v 5.481202 0.402268 -4.613996
v 5.481852 0.406801 -4.612425
v 5.483586 0.409067 -4.608238
v 5.486405 0.409634 -4.601433
v 5.488790 0.405668 -4.595675
v 5.492259 0.397736 -4.587300
v 5.498981 0.386971 -4.571073
v 5.502666 0.374506 -4.562174
v 5.503751 0.360342 -4.559557
v 5.501366 0.340512 -4.565315
v 5.493560 0.325781 -4.584159
v 5.480334 0.298585 -4.616089
v 5.467976 0.258925 -4.645926
v 5.460170 0.214165 -4.664770
v 5.457351 0.178471 -4.671575
v 5.458002 0.124080 -4.670004
v 5.467759 0.079320 -4.646449
v 5.476865 0.054958 -4.624465
v 5.489440 0.033428 -4.594104
v 5.503967 0.024363 -4.559033
v 5.513724 0.019830 -4.535479
v 5.521530 0.017564 -4.516634
v 5.525866 0.017054 -4.506166
v 5.526083 0.000000 -4.505642
v 5.485620 0.003399 -4.546105
v 5.452367 0.018130 -4.579358
v 5.421919 0.047026 -4.609806
v 5.397481 0.087253 -4.634244
v 5.385061 0.132012 -4.646663
v 5.383059 0.174505 -4.648666
v 5.393074 0.231729 -4.638651
v 5.415509 0.290087 -4.616216
v 5.440749 0.325214 -4.590976
v 5.464787 0.342778 -4.566938
v 5.472799 0.354676 -4.558926
v 5.473600 0.363175 -4.558125
v 5.472399 0.369974 -4.559326
v 5.468392 0.377906 -4.563333
v 5.464386 0.382438 -4.567339
v 5.453168 0.389804 -4.578557
v 5.445957 0.397169 -4.585768
v 5.443153 0.402268 -4.588572
v 5.444355 0.406801 -4.587370
v 5.447560 0.409067 -4.584165
v 5.452768 0.409634 -4.578957
v 5.457175 0.405668 -4.574550
v 5.463585 0.397736 -4.568140
v 5.476004 0.386971 -4.555720
v 5.482815 0.374506 -4.548910
v 5.484818 0.360342 -4.546907
v 5.480411 0.340512 -4.551313
v 5.465989 0.325781 -4.565736
v 5.441550 0.298585 -4.590175
v 5.418715 0.258925 -4.613010
v 5.404292 0.214165 -4.627433
v 5.399084 0.178471 -4.632641
v 5.400285 0.124080 -4.631440
v 5.418314 0.079320 -4.613411
v 5.435140 0.054958 -4.596585
v 5.458376 0.033428 -4.573348
v 5.485219 0.024363 -4.546506
v 5.503247 0.019830 -4.528478
v 5.517670 0.017564 -4.514055
v 5.525682 0.017054 -4.506042
v 5.526083 0.000000 -4.505642
v 5.473215 0.003399 -4.527541
v 5.429769 0.018130 -4.545537
v 5.389987 0.047026 -4.562015
v 5.358057 0.087253 -4.575241
v 5.341830 0.132012 -4.581962
v 5.339212 0.174505 -4.583046
v 5.352299 0.231729 -4.577626
v 5.381611 0.290087 -4.565484
v 5.414589 0.325214 -4.551825
v 5.445995 0.342778 -4.538815
v 5.456464 0.354676 -4.534479
v 5.457511 0.363175 -4.534045
v 5.455941 0.369974 -4.534696
v 5.450706 0.377906 -4.536864
v 5.445472 0.382438 -4.539032
v 5.430816 0.389804 -4.545103
v 5.421393 0.397169 -4.549006
v 5.417729 0.402268 -4.550523
v 5.419300 0.406801 -4.549873
v 5.423487 0.409067 -4.548139
v 5.430292 0.409634 -4.545320
v 5.436050 0.405668 -4.542935
v 5.444425 0.397736 -4.539466
v 5.460652 0.386971 -4.532744
v 5.469551 0.374506 -4.529058
v 5.472168 0.360342 -4.527974
v 5.466410 0.340512 -4.530359
v 5.447566 0.325781 -4.538165
v 5.415636 0.298585 -4.551391
v 5.385799 0.258925 -4.563749
v 5.366955 0.214165 -4.571555
v 5.360150 0.178471 -4.574374
v 5.361721 0.124080 -4.573723
v 5.385276 0.079320 -4.563966
v 5.407260 0.054958 -4.554860
v 5.437620 0.033428 -4.542284
v 5.472692 0.024363 -4.527758
v 5.496246 0.019830 -4.518001
v 5.515090 0.017564 -4.510195
v 5.525559 0.017054 -4.505859
vn -0.7101 -0.7041 -0.0000
vn -0.1951 -0.9808 -0.0000
vn -0.4468 -0.8946 -0.0000
vn -0.6731 -0.7396 -0.0000
vn -0.8621 -0.5068 -0.0000
vn -0.9767 -0.2145 -0.0000
vn -0.9963 0.0863 -0.0000
vn -0.9342 0.3567 -0.0000
vn -0.8051 0.5931 -0.0000
vn -0.5988 0.8009 -0.0000
vn -0.5863 0.8101 -0.0000
vn -0.8941 0.4478 -0.0000
vn -0.9983 -0.0575 -0.0000
vn -0.9036 -0.4283 -0.0000
vn -0.7178 -0.6962 -0.0000
vn -0.5157 -0.8568 -0.0000
vn -0.5143 -0.8576 -0.0000
vn -0.7033 -0.7108 -0.0000
vn -0.9898 -0.1423 -0.0000
vn -0.7623 0.6472 -0.0000
vn -0.2890 0.9573 -0.0000
vn 0.2047 0.9788 -0.0000
vn 0.5933 0.8050 -0.0000
vn 0.5994 0.8005 -0.0000
vn 0.6551 0.7556 -0.0000
vn 0.9048 0.4258 -0.0000
vn 0.9985 -0.0553 -0.0000
vn 0.7967 -0.6044 -0.0000
vn 0.6037 -0.7972 -0.0000
vn 0.7080 -0.7062 -0.0000
vn 0.8539 -0.5204 -0.0000
vn 0.9519 -0.3063 -0.0000
vn 0.9964 -0.0848 -0.0000
vn 0.9646 0.2636 -0.0000
vn 0.8043 0.5942 -0.0000
vn 0.6434 0.7656 -0.0000
vn 0.4138 0.9103 -0.0000
vn 0.2072 0.9783 -0.0000
vn 0.1468 0.9892 -0.0000
vn 0.0818 0.9966 -0.0000
vn -0.6469 0.7626 -0.0000
vn -0.6561 -0.7041 0.2717
vn -0.1803 -0.9808 0.0747
vn -0.4128 -0.8946 0.1710
vn -0.6218 -0.7396 0.2576
vn -0.7965 -0.5068 0.3299
vn -0.9024 -0.2145 0.3738
vn -0.9204 0.0863 0.3813
vn -0.8631 0.3567 0.3575
vn -0.7438 0.5931 0.3081
vn -0.5532 0.8009 0.2292
vn -0.5417 0.8101 0.2244
vn -0.8261 0.4478 0.3422
vn -0.9223 -0.0575 0.3820
vn -0.8348 -0.4283 0.3458
vn -0.6632 -0.6962 0.2747
vn -0.4765 -0.8568 0.1974
vn -0.4752 -0.8576 0.1968
vn -0.6498 -0.7108 0.2692
vn -0.9145 -0.1423 0.3788
vn -0.7043 0.6472 0.2917
vn -0.2670 0.9573 0.1106
vn 0.1891 0.9788 -0.0783
vn 0.5481 0.8050 -0.2270
vn 0.5538 0.8005 -0.2294
vn 0.6052 0.7556 -0.2507
vn 0.8359 0.4258 -0.3463
vn 0.9225 -0.0553 -0.3821
vn 0.7361 -0.6044 -0.3049
vn 0.5577 -0.7972 -0.2310
vn 0.6541 -0.7062 -0.2709
vn 0.7889 -0.5204 -0.3268
vn 0.8795 -0.3063 -0.3643
vn 0.9206 -0.0848 -0.3813
vn 0.8912 0.2636 -0.3692
vn 0.7431 0.5942 -0.3078
vn 0.5944 0.7656 -0.2462
vn 0.3823 0.9103 -0.1584
vn 0.1915 0.9783 -0.0793
vn 0.1356 0.9892 -0.0562
vn 0.0756 0.9966 -0.0313
vn -0.5976 0.7626 0.2475
vn -0.5021 -0.7041 0.5021
vn -0.1380 -0.9808 0.1380
vn -0.3160 -0.8946 0.3160
vn -0.4759 -0.7396 0.4759
vn -0.6096 -0.5068 0.6096
vn -0.6906 -0.2145 0.6906
vn -0.7045 0.0863 0.7045
vn -0.6606 0.3567 0.6606
vn -0.5693 0.5931 0.5693
vn -0.4234 0.8009 0.4234
vn -0.4146 0.8101 0.4146
vn -0.6323 0.4478 0.6323
vn -0.7059 -0.0575 0.7059
vn -0.6390 -0.4283 0.6390
vn -0.5076 -0.6962 0.5076
vn -0.3647 -0.8568 0.3647
vn -0.3637 -0.8576 0.3637
vn -0.4973 -0.7108 0.4973
vn -0.6999 -0.1423 0.6999
vn -0.5390 0.6472 0.5390
vn -0.2043 0.9573 0.2043
vn 0.1447 0.9788 -0.1447
vn 0.4195 0.8050 -0.4195
vn 0.4238 0.8005 -0.4238
vn 0.4632 0.7556 -0.4632
vn 0.6398 0.4258 -0.6398
vn 0.7060 -0.0553 -0.7060
vn 0.5634 -0.6044 -0.5634
vn 0.4269 -0.7972 -0.4269
vn 0.5006 -0.7062 -0.5006
vn 0.6038 -0.5204 -0.6038
vn 0.6731 -0.3063 -0.6731
vn 0.7046 -0.0848 -0.7046
vn 0.6821 0.2636 -0.6821
vn 0.5687 0.5942 -0.5687
vn 0.4549 0.7656 -0.4549
vn 0.2926 0.9103 -0.2926
vn 0.1465 0.9783 -0.1465
vn 0.1038 0.9892 -0.1038
vn 0.0578 0.9966 -0.0578
vn -0.4574 0.7626 0.4574
vn -0.2717 -0.7041 0.6561
vn -0.0747 -0.9808 0.1803
vn -0.1710 -0.8946 0.4128
vn -0.2576 -0.7396 0.6218
vn -0.3299 -0.5068 0.7965
vn -0.3738 -0.2145 0.9024
vn -0.3813 0.0863 0.9204
vn -0.3575 0.3567 0.8631
vn -0.3081 0.5931 0.7438
vn -0.2292 0.8009 0.5532
vn -0.2244 0.8101 0.5417
vn -0.3422 0.4478 0.8261
vn -0.3820 -0.0575 0.9223
vn -0.3458 -0.4283 0.8348
vn -0.2747 -0.6962 0.6632
vn -0.1974 -0.8568 0.4765
vn -0.1968 -0.8576 0.4752
vn -0.2692 -0.7108 0.6498
vn -0.3788 -0.1423 0.9145
vn -0.2917 0.6472 0.7043
vn -0.1106 0.9573 0.2670
vn 0.0783 0.9788 -0.1891
vn 0.2270 0.8050 -0.5481
vn 0.2294 0.8005 -0.5538
vn 0.2507 0.7556 -0.6052
vn 0.3463 0.4258 -0.8359
vn 0.3821 -0.0553 -0.9225
vn 0.3049 -0.6044 -0.7361
vn 0.2310 -0.7972 -0.5577
vn 0.2709 -0.7062 -0.6541
vn 0.3268 -0.5204 -0.7889
vn 0.3643 -0.3063 -0.8795
vn 0.3813 -0.0848 -0.9206
vn 0.3692 0.2636 -0.8912
vn 0.3078 0.5942 -0.7431
vn 0.2462 0.7656 -0.5944
vn 0.1584 0.9103 -0.3823
vn 0.0793 0.9783 -0.1915
vn 0.0562 0.9892 -0.1356
vn 0.0313 0.9966 -0.0756
vn -0.2475 0.7626 0.5976
vn -0.0000 -0.7041 0.7101
vn -0.0000 -0.9808 0.1951
vn -0.0000 -0.8946 0.4468
vn -0.0000 -0.7396 0.6731
vn -0.0000 -0.5068 0.8621
vn -0.0000 -0.2145 0.9767
vn -0.0000 0.0863 0.9963
vn -0.0000 0.3567 0.9342
vn -0.0000 0.5931 0.8051
vn -0.0000 0.8009 0.5988
vn -0.0000 0.8101 0.5863
vn -0.0000 0.4478 0.8941
vn -0.0000 -0.0575 0.9983
vn -0.0000 -0.4283 0.9036
vn -0.0000 -0.6962 0.7178
vn -0.0000 -0.8568 0.5157
vn -0.0000 -0.8576 0.5143
vn -0.0000 -0.7108 0.7033
vn -0.0000 -0.1423 0.9898
vn -0.0000 0.6472 0.7623
vn -0.0000 0.9573 0.2889
vn -0.0000 0.9788 -0.2047
vn -0.0000 0.8050 -0.5933
vn -0.0000 0.8005 -0.5994
vn -0.0000 0.7556 -0.6551
vn -0.0000 0.4258 -0.9048
vn -0.0000 -0.0553 -0.9985
vn -0.0000 -0.6044 -0.7967
vn -0.0000 -0.7972 -0.6037
vn -0.0000 -0.7062 -0.7080
vn -0.0000 -0.5204 -0.8539
vn -0.0000 -0.3063 -0.9519
vn -0.0000 -0.0848 -0.9964
vn -0.0000 0.2636 -0.9646
vn -0.0000 0.5942 -0.8043
vn -0.0000 0.7656 -0.6434
vn -0.0000 0.9103 -0.4138
vn -0.0000 0.9783 -0.2072
vn -0.0000 0.9892 -0.1468
vn -0.0000 0.9966 -0.0818
vn -0.0000 0.7626 0.6469
vn 0.2717 -0.7041 0.6561
vn 0.0747 -0.9808 0.1803
vn 0.1710 -0.8946 0.4128
vn 0.2576 -0.7396 0.6218
vn 0.3299 -0.5068 0.7965
vn 0.3738 -0.2145 0.9024
vn 0.3813 0.0863 0.9204
vn 0.3575 0.3567 0.8631
vn 0.3081 0.5931 0.7438
vn 0.2292 0.8009 0.5532
vn 0.2244 0.8101 0.5417
vn 0.3422 0.4478 0.8261
vn 0.3821 -0.0575 0.9223
vn 0.3458 -0.4283 0.8348
vn 0.2747 -0.6962 0.6632
vn 0.1974 -0.8568 0.4765
vn 0.1968 -0.8576 0.4752
vn 0.2692 -0.7108 0.6498
vn 0.3788 -0.1423 0.9145
vn 0.2917 0.6472 0.7043
vn 0.1106 0.9573 0.2670
vn -0.0783 0.9788 -0.1891
vn -0.2270 0.8050 -0.5481
vn -0.2294 0.8005 -0.5538
vn -0.2507 0.7556 -0.6052
vn -0.3463 0.4258 -0.8359
vn -0.3821 -0.0553 -0.9225
vn -0.3049 -0.6044 -0.7361
vn -0.2310 -0.7972 -0.5577
vn -0.2709 -0.7062 -0.6541
vn -0.3268 -0.5204 -0.7889
vn -0.3643 -0.3063 -0.8795
vn -0.3813 -0.0848 -0.9206
vn -0.3692 0.2636 -0.8912
vn -0.3078 0.5942 -0.7431
vn -0.2462 0.7656 -0.5944
vn -0.1584 0.9103 -0.3823
vn -0.0793 0.9783 -0.1915
vn -0.0562 0.9892 -0.1356
vn -0.0313 0.9966 -0.0756
vn 0.2475 0.7626 0.5976
vn 0.5021 -0.7041 0.5021
vn 0.1380 -0.9808 0.1380
vn 0.3160 -0.8946 0.3160
vn 0.4759 -0.7396 0.4759
vn 0.6096 -0.5068 0.6096
vn 0.6906 -0.2145 0.6906
vn 0.7045 0.0863 0.7045
vn 0.6606 0.3567 0.6606
vn 0.5693 0.5931 0.5693
vn 0.4234 0.8009 0.4234
vn 0.4146 0.8101 0.4146
vn 0.6323 0.4478 0.6323
vn 0.7059 -0.0575 0.7059
vn 0.6390 -0.4283 0.6390
vn 0.5076 -0.6962 0.5076
vn 0.3647 -0.8568 0.3647
vn 0.3637 -0.8576 0.3637
vn 0.4973 -0.7108 0.4973
vn 0.6999 -0.1423 0.6999
vn 0.5390 0.6472 0.5390
vn 0.2043 0.9573 0.2043
vn -0.1447 0.9788 -0.1447
vn -0.4195 0.8050 -0.4195
vn -0.4238 0.8005 -0.4238
vn -0.4632 0.7556 -0.4632
vn -0.6398 0.4258 -0.6398
vn -0.7060 -0.0553 -0.7060
vn -0.5634 -0.6044 -0.5634
vn -0.4269 -0.7972 -0.4269
vn -0.5006 -0.7062 -0.5006
vn -0.6038 -0.5204 -0.6038
vn -0.6731 -0.3063 -0.6731
vn -0.7046 -0.0848 -0.7046
vn -0.6821 0.2636 -0.6821
vn -0.5687 0.5942 -0.5687
vn -0.4549 0.7656 -0.4549
vn -0.2926 0.9103 -0.2926
vn -0.1465 0.9783 -0.1465
vn -0.1038 0.9892 -0.1038
vn -0.0578 0.9966 -0.0579
vn 0.4574 0.7626 0.4574
vn 0.6561 -0.7041 0.2717
vn 0.1803 -0.9808 0.0747
vn 0.4128 -0.8946 0.1710
vn 0.6218 -0.7396 0.2576
vn 0.7965 -0.5068 0.3299
vn 0.9024 -0.2145 0.3738
vn 0.9204 0.0863 0.3813
vn 0.8631 0.3567 0.3575
vn 0.7438 0.5931 0.3081
vn 0.5532 0.8009 0.2292
vn 0.5417 0.8101 0.2244
vn 0.8261 0.4478 0.3422
vn 0.9223 -0.0575 0.3820
vn 0.8348 -0.4283 0.3458
vn 0.6632 -0.6962 0.2747
vn 0.4765 -0.8568 0.1974
vn 0.4752 -0.8576 0.1968
vn 0.6498 -0.7108 0.2692
vn 0.9145 -0.1423 0.3788
vn 0.7043 0.6472 0.2917
vn 0.2670 0.9573 0.1106
vn -0.1891 0.9788 -0.0783
vn -0.5481 0.8050 -0.2270
vn -0.5538 0.8005 -0.2294
vn -0.6052 0.7556 -0.2507
vn -0.8359 0.4258 -0.3463
vn -0.9225 -0.0553 -0.3821
vn -0.7361 -0.6044 -0.3049
vn -0.5577 -0.7972 -0.2310
vn -0.6541 -0.7062 -0.2709
vn -0.7889 -0.5204 -0.3268
vn -0.8795 -0.3063 -0.3643
vn -0.9206 -0.0848 -0.3813
vn -0.8912 0.2636 -0.3692
vn -0.7431 0.5942 -0.3078
vn -0.5944 0.7656 -0.2462
vn -0.3823 0.9103 -0.1584
vn -0.1915 0.9783 -0.0793
vn -0.1356 0.9892 -0.0562
vn -0.0756 0.9966 -0.0313
vn 0.5976 0.7626 0.2475
vn 0.7101 -0.7041 -0.0000
vn 0.1951 -0.9808 -0.0000
vn 0.4468 -0.8946 -0.0000
vn 0.6731 -0.7396 -0.0000
vn 0.8621 -0.5068 -0.0000
vn 0.9767 -0.2145 -0.0000
vn 0.9963 0.0863 -0.0000
vn 0.9342 0.3567 -0.0000
vn 0.8051 0.5931 -0.0000
vn 0.5988 0.8009 -0.0000
vn 0.5863 0.8101 -0.0000
vn 0.8941 0.4478 -0.0000
vn 0.9983 -0.0575 -0.0000
vn 0.9036 -0.4283 -0.0000
vn 0.7178 -0.6962 -0.0000
vn 0.5157 -0.8568 -0.0000
vn 0.5143 -0.8576 -0.0000
vn 0.7033 -0.7108 -0.0000
vn 0.9898 -0.1423 -0.0000
vn 0.7623 0.6472 -0.0000
vn 0.2890 0.9573 -0.0000
vn -0.2047 0.9788 -0.0000
vn -0.5933 0.8050 -0.0000
vn -0.5994 0.8005 -0.0000
vn -0.6551 0.7556 -0.0000
vn -0.9048 0.4258 -0.0000
vn -0.9985 -0.0553 -0.0000
vn -0.7967 -0.6044 -0.0000
vn -0.6037 -0.7972 -0.0000
vn -0.7080 -0.7062 -0.0000
vn -0.8539 -0.5204 -0.0000
vn -0.9519 -0.3063 -0.0000
vn -0.9964 -0.0848 -0.0000
vn -0.9646 0.2636 -0.0000
vn -0.8043 0.5942 -0.0000
vn -0.6434 0.7656 -0.0000
vn -0.4138 0.9103 -0.0000
vn -0.2072 0.9783 -0.0000
vn -0.1468 0.9892 -0.0000
vn -0.0818 0.9966 -0.0000
vn 0.6469 0.7626 -0.0000
vn 0.6561 -0.7041 -0.2717
vn 0.1803 -0.9808 -0.0747
vn 0.4128 -0.8946 -0.1710
vn 0.6218 -0.7396 -0.2576
vn 0.7965 -0.5068 -0.3299
vn 0.9024 -0.2145 -0.3738
vn 0.9204 0.0863 -0.3813
vn 0.8631 0.3567 -0.3575
vn 0.7438 0.5931 -0.3081
vn 0.5532 0.8009 -0.2292
vn 0.5417 0.8101 -0.2244
vn 0.8261 0.4478 -0.3422
vn 0.9223 -0.0575 -0.3821
vn 0.8348 -0.4283 -0.3458
vn 0.6632 -0.6962 -0.2747
vn 0.4765 -0.8568 -0.1974
vn 0.4752 -0.8576 -0.1968
vn 0.6498 -0.7108 -0.2692
vn 0.9145 -0.1423 -0.3788
vn 0.7043 0.6472 -0.2917
vn 0.2670 0.9573 -0.1106
vn -0.1891 0.9788 0.0783
vn -0.5481 0.8050 0.2270
vn -0.5538 0.8005 0.2294
vn -0.6052 0.7556 0.2507
vn -0.8359 0.4258 0.3463
vn -0.9225 -0.0553 0.3821
vn -0.7361 -0.6044 0.3049
vn -0.5577 -0.7972 0.2310
vn -0.6541 -0.7062 0.2709
vn -0.7889 -0.5204 0.3268
vn -0.8795 -0.3063 0.3643
vn -0.9206 -0.0848 0.3813
vn -0.8912 0.2636 0.3692
vn -0.7431 0.5942 0.3078
vn -0.5944 0.7656 0.2462
vn -0.3823 0.9103 0.1584
vn -0.1915 0.9783 0.0793
vn -0.1356 0.9892 0.0562
vn -0.0756 0.9966 0.0313
vn 0.5976 0.7626 -0.2475
vn 0.5021 -0.7041 -0.5021
vn 0.1380 -0.9808 -0.1380
vn 0.3160 -0.8946 -0.3160
vn 0.4759 -0.7396 -0.4759
vn 0.6096 -0.5068 -0.6096
vn 0.6906 -0.2145 -0.6906
vn 0.7045 0.0863 -0.7045
vn 0.6606 0.3567 -0.6606
vn 0.5693 0.5931 -0.5693
vn 0.4234 0.8009 -0.4234
vn 0.4146 0.8101 -0.4146
vn 0.6323 0.4478 -0.6323
vn 0.7059 -0.0575 -0.7059
vn 0.6390 -0.4283 -0.6390
vn 0.5076 -0.6962 -0.5076
vn 0.3647 -0.8568 -0.3647
vn 0.3637 -0.8576 -0.3637
vn 0.4973 -0.7108 -0.4973
vn 0.6999 -0.1423 -0.6999
vn 0.5390 0.6472 -0.5390
vn 0.2043 0.9573 -0.2043
vn -0.1447 0.9788 0.1447
vn -0.4195 0.8050 0.4195
vn -0.4238 0.8005 0.4238
vn -0.4632 0.7556 0.4632
vn -0.6398 0.4258 0.6398
vn -0.7060 -0.0553 0.7060
vn -0.5634 -0.6044 0.5634
vn -0.4269 -0.7972 0.4269
vn -0.5006 -0.7062 0.5006
vn -0.6038 -0.5204 0.6038
vn -0.6731 -0.3063 0.6731
vn -0.7046 -0.0848 0.7046
vn -0.6821 0.2636 0.6821
vn -0.5687 0.5942 0.5687
vn -0.4549 0.7656 0.4549
vn -0.2926 0.9103 0.2926
vn -0.1465 0.9783 0.1465
vn -0.1038 0.9892 0.1038
vn -0.0578 0.9966 0.0579
vn 0.4574 0.7626 -0.4574
vn 0.2717 -0.7041 -0.6561
vn 0.0747 -0.9808 -0.1803
vn 0.1710 -0.8946 -0.4128
vn 0.2576 -0.7396 -0.6218
vn 0.3299 -0.5068 -0.7965
vn 0.3738 -0.2145 -0.9024
vn 0.3813 0.0863 -0.9204
vn 0.3575 0.3567 -0.8631
vn 0.3081 0.5931 -0.7438
vn 0.2292 0.8009 -0.5532
vn 0.2244 0.8101 -0.5417
vn 0.3422 0.4478 -0.8261
vn 0.3820 -0.0575 -0.9223
vn 0.3458 -0.4283 -0.8348
vn 0.2747 -0.6962 -0.6632
vn 0.1974 -0.8568 -0.4765
vn 0.1968 -0.8576 -0.4752
vn 0.2692 -0.7108 -0.6498
vn 0.3788 -0.1423 -0.9145
vn 0.2917 0.6472 -0.7043
vn 0.1106 0.9573 -0.2670
vn -0.0783 0.9788 0.1891
vn -0.2270 0.8050 0.5481
vn -0.2294 0.8005 0.5538
vn -0.2507 0.7556 0.6052
vn -0.3463 0.4258 0.8359
vn -0.3821 -0.0553 0.9225
vn -0.3049 -0.6044 0.7361
vn -0.2310 -0.7972 0.5577
vn -0.2709 -0.7062 0.6541
vn -0.3268 -0.5204 0.7889
vn -0.3643 -0.3063 0.8795
vn -0.3813 -0.0848 0.9206
vn -0.3692 0.2636 0.8912
vn -0.3078 0.5942 0.7431
vn -0.2462 0.7656 0.5944
vn -0.1584 0.9103 0.3823
vn -0.0793 0.9783 0.1915
vn -0.0562 0.9892 0.1356
vn -0.0313 0.9966 0.0756
vn 0.2475 0.7626 -0.5976
vn -0.0000 -0.7041 -0.7101
vn -0.0000 -0.9808 -0.1951
vn -0.0000 -0.8946 -0.4468
vn -0.0000 -0.7396 -0.6731
vn -0.0000 -0.5068 -0.8621
vn -0.0000 -0.2145 -0.9767
vn -0.0000 0.0863 -0.9963
vn -0.0000 0.3567 -0.9342
vn -0.0000 0.5931 -0.8051
vn -0.0000 0.8009 -0.5988
vn -0.0000 0.8101 -0.5863
vn -0.0000 0.4478 -0.8941
vn -0.0000 -0.0575 -0.9983
vn -0.0000 -0.4283 -0.9036
vn -0.0000 -0.6962 -0.7178
vn -0.0000 -0.8568 -0.5157
vn -0.0000 -0.8576 -0.5143
vn -0.0000 -0.7108 -0.7033
vn -0.0000 -0.1423 -0.9898
vn -0.0000 0.6472 -0.7623
vn -0.0000 0.9573 -0.2889
vn -0.0000 0.9788 0.2047
vn -0.0000 0.8050 0.5933
vn -0.0000 0.8005 0.5994
vn -0.0000 0.7556 0.6551
vn -0.0000 0.4258 0.9048
vn -0.0000 -0.0553 0.9985
vn -0.0000 -0.6044 0.7967
vn -0.0000 -0.7972 0.6037
vn -0.0000 -0.7062 0.7080
vn -0.0000 -0.5204 0.8539
vn -0.0000 -0.3063 0.9519
vn -0.0000 -0.0848 0.9964
vn -0.0000 0.2636 0.9646
vn -0.0000 0.5942 0.8043
vn -0.0000 0.7656 0.6434
vn -0.0000 0.9103 0.4138
vn -0.0000 0.9783 0.2072
vn -0.0000 0.9892 0.1468
vn -0.0000 0.9966 0.0818
vn -0.0000 0.7626 -0.6469
vn -0.2717 -0.7041 -0.6561
vn -0.0747 -0.9808 -0.1803
vn -0.1710 -0.8946 -0.4128
vn -0.2576 -0.7396 -0.6218
vn -0.3299 -0.5068 -0.7965
vn -0.3738 -0.2145 -0.9024
vn -0.3813 0.0863 -0.9204
vn -0.3575 0.3567 -0.8631
vn -0.3081 0.5931 -0.7438
vn -0.2292 0.8009 -0.5532
vn -0.2244 0.8101 -0.5417
vn -0.3422 0.4478 -0.8261
vn -0.3821 -0.0575 -0.9223
vn -0.3458 -0.4283 -0.8348
vn -0.2747 -0.6962 -0.6632
vn -0.1974 -0.8568 -0.4765
vn -0.1968 -0.8576 -0.4752
vn -0.2692 -0.7108 -0.6498
vn -0.3788 -0.1423 -0.9145
vn -0.2917 0.6472 -0.7043
vn -0.1106 0.9573 -0.2670
vn 0.0783 0.9788 0.1891
vn 0.2270 0.8050 0.5481
vn 0.2294 0.8005 0.5538
vn 0.2507 0.7556 0.6052
vn 0.3463 0.4258 0.8359
vn 0.3821 -0.0553 0.9225
vn 0.3049 -0.6044 0.7361
vn 0.2310 -0.7972 0.5577
vn 0.2709 -0.7062 0.6541
vn 0.3268 -0.5204 0.7889
vn 0.3643 -0.3063 0.8795
vn 0.3813 -0.0848 0.9206
vn 0.3692 0.2636 0.8912
vn 0.3078 0.5942 0.7431
vn 0.2462 0.7656 0.5944
vn 0.1584 0.9103 0.3823
vn 0.0793 0.9783 0.1915
vn 0.0562 0.9892 0.1356
vn 0.0313 0.9966 0.0756
vn -0.2475 0.7626 -0.5976
vn -0.5021 -0.7041 -0.5021
vn -0.1380 -0.9808 -0.1380
vn -0.3160 -0.8946 -0.3160
vn -0.4759 -0.7396 -0.4759
vn -0.6096 -0.5068 -0.6096
vn -0.6906 -0.2145 -0.6906
vn -0.7045 0.0863 -0.7045
vn -0.6606 0.3567 -0.6606
vn -0.5693 0.5931 -0.5693
vn -0.4234 0.8009 -0.4234
vn -0.4146 0.8101 -0.4146
vn -0.6323 0.4478 -0.6323
vn -0.7059 -0.0575 -0.7059
vn -0.6390 -0.4283 -0.6390
vn -0.5076 -0.6962 -0.5076
vn -0.3647 -0.8568 -0.3647
vn -0.3637 -0.8576 -0.3637
vn -0.4973 -0.7108 -0.4973
vn -0.6999 -0.1423 -0.6999
vn -0.5390 0.6472 -0.5390
vn -0.2043 0.9573 -0.2043
vn 0.1447 0.9788 0.1447
vn 0.4195 0.8050 0.4195
vn 0.4238 0.8005 0.4238
vn 0.4632 0.7556 0.4632
vn 0.6398 0.4258 0.6398
vn 0.7060 -0.0553 0.7060
vn 0.5634 -0.6044 0.5634
vn 0.4269 -0.7972 0.4269
vn 0.5006 -0.7062 0.5006
vn 0.6038 -0.5204 0.6038
vn 0.6731 -0.3063 0.6731
vn 0.7046 -0.0848 0.7046
vn 0.6821 0.2636 0.6821
vn 0.5687 0.5942 0.5687
vn 0.4549 0.7656 0.4549
vn 0.2926 0.9103 0.2926
vn 0.1465 0.9783 0.1465
vn 0.1038 0.9892 0.1038
vn 0.0578 0.9966 0.0579
vn -0.4574 0.7626 -0.4574
vn -0.6561 -0.7041 -0.2717
vn -0.1803 -0.9808 -0.0747
vn -0.4128 -0.8946 -0.1710
vn -0.6218 -0.7396 -0.2576
vn -0.7965 -0.5068 -0.3299
vn -0.9024 -0.2145 -0.3738
vn -0.9204 0.0863 -0.3813
vn -0.8631 0.3567 -0.3575
vn -0.7438 0.5931 -0.3081
vn -0.5532 0.8009 -0.2292
vn -0.5417 0.8101 -0.2244
vn -0.8261 0.4478 -0.3422
vn -0.9223 -0.0575 -0.3820
vn -0.8348 -0.4283 -0.3458
vn -0.6632 -0.6962 -0.2747
vn -0.4765 -0.8568 -0.1974
vn -0.4752 -0.8576 -0.1968
vn -0.6498 -0.7108 -0.2692
vn -0.9145 -0.1423 -0.3788
vn -0.7043 0.6472 -0.2917
vn -0.2670 0.9573 -0.1106
vn 0.1891 0.9788 0.0783
vn 0.5481 0.8050 0.2270
vn 0.5538 0.8005 0.2294
vn 0.6052 0.7556 0.2507
vn 0.8359 0.4258 0.3463
vn 0.9225 -0.0553 0.3821
vn 0.7361 -0.6044 0.3049
vn 0.5577 -0.7972 0.2310
vn 0.6541 -0.7062 0.2709
vn 0.7889 -0.5204 0.3268
vn 0.8795 -0.3063 0.3643
vn 0.9206 -0.0848 0.3813
vn 0.8912 0.2636 0.3692
vn 0.7431 0.5942 0.3078
vn 0.5944 0.7656 0.2462
vn 0.3823 0.9103 0.1584
vn 0.1915 0.9783 0.0793
vn 0.1356 0.9892 0.0562
vn 0.0756 0.9966 0.0313
vn -0.5976 0.7626 -0.2475
vt 0.000000 0.000000
vt 0.062500 0.000000
vt 0.062500 0.011028
vt 0.000000 0.011028
vt 0.125000 0.000000
vt 0.125000 0.011028
vt 0.187500 0.000000
vt 0.187500 0.011028
vt 0.250000 0.000000
vt 0.250000 0.011028
vt 0.312500 0.000000
vt 0.312500 0.011028
vt 0.375000 0.000000
vt 0.375000 0.011028
vt 0.437500 0.000000
vt 0.437500 0.011028
vt 0.500000 0.000000
vt 0.500000 0.011028
vt 0.562500 0.000000
vt 0.562500 0.011028
vt 0.625000 0.000000
vt 0.625000 0.011028
vt 0.687500 0.000000
vt 0.687500 0.011028
vt 0.750000 0.000000
vt 0.750000 0.011028
vt 0.812500 0.000000
vt 0.812500 0.011028
vt 0.875000 0.000000
vt 0.875000 0.011028
vt 0.937500 0.000000
vt 0.937500 0.011028
vt 1.000000 0.000000
vt 1.000000 0.011028
vt 0.062500 0.058816
vt 0.000000 0.058816
vt 0.125000 0.058816
vt 0.187500 0.058816
vt 0.250000 0.058816
vt 0.312500 0.058816
vt 0.375000 0.058816
vt 0.437500 0.058816
vt 0.500000 0.058816
vt 0.562500 0.058816
vt 0.625000 0.058816
vt 0.687500 0.058816
vt 0.750000 0.058816
vt 0.812500 0.058816
vt 0.875000 0.058816
vt 0.937500 0.058816
vt 1.000000 0.058816
vt 0.062500 0.152555
vt 0.000000 0.152555
vt 0.125000 0.152555
vt 0.187500 0.152555
vt 0.250000 0.152555
vt 0.312500 0.152555
vt 0.375000 0.152555
vt 0.437500 0.152555
vt 0.500000 0.152555
vt 0.562500 0.152555
vt 0.625000 0.152555
vt 0.687500 0.152555
vt 0.750000 0.152555
vt 0.812500 0.152555
vt 0.875000 0.152555
vt 0.937500 0.152555
vt 1.000000 0.152555
vt 0.062500 0.283054
vt 0.000000 0.283054
vt 0.125000 0.283054
vt 0.187500 0.283054
vt 0.250000 0.283054
vt 0.312500 0.283054
vt 0.375000 0.283054
vt 0.437500 0.283054
vt 0.500000 0.283054
vt 0.562500 0.283054
vt 0.625000 0.283054
vt 0.687500 0.283054
vt 0.750000 0.283054
vt 0.812500 0.283054
vt 0.875000 0.283054
vt 0.937500 0.283054
vt 1.000000 0.283054
vt 0.062500 0.428257
vt 0.000000 0.428257
vt 0.125000 0.428257
vt 0.187500 0.428257
vt 0.250000 0.428257
vt 0.312500 0.428257
vt 0.375000 0.428257
vt 0.437500 0.428257
vt 0.500000 0.428257
vt 0.562500 0.428257
vt 0.625000 0.428257
vt 0.687500 0.428257
vt 0.750000 0.428257
vt 0.812500 0.428257
vt 0.875000 0.428257
vt 0.937500 0.428257
vt 1.000000 0.428257
vt 0.062500 0.566107
vt 0.000000 0.566107
vt 0.125000 0.566107
vt 0.187500 0.566107
vt 0.250000 0.566107
vt 0.312500 0.566107
vt 0.375000 0.566107
vt 0.437500 0.566107
vt 0.500000 0.566107
vt 0.562500 0.566107
vt 0.625000 0.566107
vt 0.687500 0.566107
vt 0.750000 0.566107
vt 0.812500 0.566107
vt 0.875000 0.566107
vt 0.937500 0.566107
vt 1.000000 0.566107
vt 0.062500 0.751746
vt 0.000000 0.751746
vt 0.125000 0.751746
vt 0.187500 0.751746
vt 0.250000 0.751746
vt 0.312500 0.751746
vt 0.375000 0.751746
vt 0.437500 0.751746
vt 0.500000 0.751746
vt 0.562500 0.751746
vt 0.625000 0.751746
vt 0.687500 0.751746
vt 0.750000 0.751746
vt 0.812500 0.751746
vt 0.875000 0.751746
vt 0.937500 0.751746
vt 1.000000 0.751746
vt 0.062500 0.941061
vt 0.000000 0.941061
vt 0.125000 0.941061
vt 0.187500 0.941061
vt 0.250000 0.941061
vt 0.312500 0.941061
vt 0.375000 0.941061
vt 0.437500 0.941061
vt 0.500000 0.941061
vt 0.562500 0.941061
vt 0.625000 0.941061
vt 0.687500 0.941061
vt 0.750000 0.941061
vt 0.812500 0.941061
vt 0.875000 0.941061
vt 0.937500 0.941061
vt 1.000000 0.941061
vt 0.062500 1.055018
vt 0.000000 1.055018
vt 0.125000 1.055018
vt 0.187500 1.055018
vt 0.250000 1.055018
vt 0.312500 1.055018
vt 0.375000 1.055018
vt 0.437500 1.055018
vt 0.500000 1.055018
vt 0.562500 1.055018
vt 0.625000 1.055018
vt 0.687500 1.055018
vt 0.750000 1.055018
vt 0.812500 1.055018
vt 0.875000 1.055018
vt 0.937500 1.055018
vt 1.000000 1.055018
vt 0.062500 1.111996
vt 0.000000 1.111996
vt 0.125000 1.111996
vt 0.187500 1.111996
vt 0.250000 1.111996
vt 0.312500 1.111996
vt 0.375000 1.111996
vt 0.437500 1.111996
vt 0.500000 1.111996
vt 0.562500 1.111996
vt 0.625000 1.111996
vt 0.687500 1.111996
vt 0.750000 1.111996
vt 0.812500 1.111996
vt 0.875000 1.111996
vt 0.937500 1.111996
vt 1.000000 1.111996
vt 0.062500 1.150594
vt 0.000000 1.150594
vt 0.125000 1.150594
vt 0.187500 1.150594
vt 0.250000 1.150594
vt 0.312500 1.150594
vt 0.375000 1.150594
vt 0.437500 1.150594
vt 0.500000 1.150594
vt 0.562500 1.150594
vt 0.625000 1.150594
vt 0.687500 1.150594
vt 0.750000 1.150594
vt 0.812500 1.150594
vt 0.875000 1.150594
vt 0.937500 1.150594
vt 1.000000 1.150594
vt 0.062500 1.178165
vt 0.000000 1.178165
vt 0.125000 1.178165
vt 0.187500 1.178165
vt 0.250000 1.178165
vt 0.312500 1.178165
vt 0.375000 1.178165
vt 0.437500 1.178165
vt 0.500000 1.178165
vt 0.562500 1.178165
vt 0.625000 1.178165
vt 0.687500 1.178165
vt 0.750000 1.178165
vt 0.812500 1.178165
vt 0.875000 1.178165
vt 0.937500 1.178165
vt 1.000000 1.178165
vt 0.062500 1.200221
vt 0.000000 1.200221
vt 0.125000 1.200221
vt 0.187500 1.200221
vt 0.250000 1.200221
vt 0.312500 1.200221
vt 0.375000 1.200221
vt 0.437500 1.200221
vt 0.500000 1.200221
vt 0.562500 1.200221
vt 0.625000 1.200221
vt 0.687500 1.200221
vt 0.750000 1.200221
vt 0.812500 1.200221
vt 0.875000 1.200221
vt 0.937500 1.200221
vt 1.000000 1.200221
vt 0.062500 1.225953
vt 0.000000 1.225953
vt 0.125000 1.225953
vt 0.187500 1.225953
vt 0.250000 1.225953
vt 0.312500 1.225953
vt 0.375000 1.225953
vt 0.437500 1.225953
vt 0.500000 1.225953
vt 0.562500 1.225953
vt 0.625000 1.225953
vt 0.687500 1.225953
vt 0.750000 1.225953
vt 0.812500 1.225953
vt 0.875000 1.225953
vt 0.937500 1.225953
vt 1.000000 1.225953
vt 0.062500 1.240657
vt 0.000000 1.240657
vt 0.125000 1.240657
vt 0.187500 1.240657
vt 0.250000 1.240657
vt 0.312500 1.240657
vt 0.375000 1.240657
vt 0.437500 1.240657
vt 0.500000 1.240657
vt 0.562500 1.240657
vt 0.625000 1.240657
vt 0.687500 1.240657
vt 0.750000 1.240657
vt 0.812500 1.240657
vt 0.875000 1.240657
vt 0.937500 1.240657
vt 1.000000 1.240657
vt 0.062500 1.264551
vt 0.000000 1.264551
vt 0.125000 1.264551
vt 0.187500 1.264551
vt 0.250000 1.264551
vt 0.312500 1.264551
vt 0.375000 1.264551
vt 0.437500 1.264551
vt 0.500000 1.264551
vt 0.562500 1.264551
vt 0.625000 1.264551
vt 0.687500 1.264551
vt 0.750000 1.264551
vt 0.812500 1.264551
vt 0.875000 1.264551
vt 0.937500 1.264551
vt 1.000000 1.264551
vt 0.062500 1.288445
vt 0.000000 1.288445
vt 0.125000 1.288445
vt 0.187500 1.288445
vt 0.250000 1.288445
vt 0.312500 1.288445
vt 0.375000 1.288445
vt 0.437500 1.288445
vt 0.500000 1.288445
vt 0.562500 1.288445
vt 0.625000 1.288445
vt 0.687500 1.288445
vt 0.750000 1.288445
vt 0.812500 1.288445
vt 0.875000 1.288445
vt 0.937500 1.288445
vt 1.000000 1.288445
vt 0.062500 1.304987
vt 0.000000 1.304987
vt 0.125000 1.304987
vt 0.187500 1.304987
vt 0.250000 1.304987
vt 0.312500 1.304987
vt 0.375000 1.304987
vt 0.437500 1.304987
vt 0.500000 1.304987
vt 0.562500 1.304987
vt 0.625000 1.304987
vt 0.687500 1.304987
vt 0.750000 1.304987
vt 0.812500 1.304987
vt 0.875000 1.304987
vt 0.937500 1.304987
vt 1.000000 1.304987
vt 0.062500 1.319691
vt 0.000000 1.319691
vt 0.125000 1.319691
vt 0.187500 1.319691
vt 0.250000 1.319691
vt 0.312500 1.319691
vt 0.375000 1.319691
vt 0.437500 1.319691
vt 0.500000 1.319691
vt 0.562500 1.319691
vt 0.625000 1.319691
vt 0.687500 1.319691
vt 0.750000 1.319691
vt 0.812500 1.319691
vt 0.875000 1.319691
vt 0.937500 1.319691
vt 1.000000 1.319691
vt 0.062500 1.327043
vt 0.000000 1.327043
vt 0.125000 1.327043
vt 0.187500 1.327043
vt 0.250000 1.327043
vt 0.312500 1.327043
vt 0.375000 1.327043
vt 0.437500 1.327043
vt 0.500000 1.327043
vt 0.562500 1.327043
vt 0.625000 1.327043
vt 0.687500 1.327043
vt 0.750000 1.327043
vt 0.812500 1.327043
vt 0.875000 1.327043
vt 0.937500 1.327043
vt 1.000000 1.327043
vt 0.062500 1.328881
vt 0.000000 1.328881
vt 0.125000 1.328881
vt 0.187500 1.328881
vt 0.250000 1.328881
vt 0.312500 1.328881
vt 0.375000 1.328881
vt 0.437500 1.328881
vt 0.500000 1.328881
vt 0.562500 1.328881
vt 0.625000 1.328881
vt 0.687500 1.328881
vt 0.750000 1.328881
vt 0.812500 1.328881
vt 0.875000 1.328881
vt 0.937500 1.328881
vt 1.000000 1.328881
vt 0.062500 1.316015
vt 0.000000 1.316015
vt 0.125000 1.316015
vt 0.187500 1.316015
vt 0.250000 1.316015
vt 0.312500 1.316015
vt 0.375000 1.316015
vt 0.437500 1.316015
vt 0.500000 1.316015
vt 0.562500 1.316015
vt 0.625000 1.316015
vt 0.687500 1.316015
vt 0.750000 1.316015
vt 0.812500 1.316015
vt 0.875000 1.316015
vt 0.937500 1.316015
vt 1.000000 1.316015
vt 0.062500 1.290283
vt 0.000000 1.290283
vt 0.125000 1.290283
vt 0.187500 1.290283
vt 0.250000 1.290283
vt 0.312500 1.290283
vt 0.375000 1.290283
vt 0.437500 1.290283
vt 0.500000 1.290283
vt 0.562500 1.290283
vt 0.625000 1.290283
vt 0.687500 1.290283
vt 0.750000 1.290283
vt 0.812500 1.290283
vt 0.875000 1.290283
vt 0.937500 1.290283
vt 1.000000 1.290283
vt 0.062500 1.255361
vt 0.000000 1.255361
vt 0.125000 1.255361
vt 0.187500 1.255361
vt 0.250000 1.255361
vt 0.312500 1.255361
vt 0.375000 1.255361
vt 0.437500 1.255361
vt 0.500000 1.255361
vt 0.562500 1.255361
vt 0.625000 1.255361
vt 0.687500 1.255361
vt 0.750000 1.255361
vt 0.812500 1.255361
vt 0.875000 1.255361
vt 0.937500 1.255361
vt 1.000000 1.255361
vt 0.062500 1.214925
vt 0.000000 1.214925
vt 0.125000 1.214925
vt 0.187500 1.214925
vt 0.250000 1.214925
vt 0.312500 1.214925
vt 0.375000 1.214925
vt 0.437500 1.214925
vt 0.500000 1.214925
vt 0.562500 1.214925
vt 0.625000 1.214925
vt 0.687500 1.214925
vt 0.750000 1.214925
vt 0.812500 1.214925
vt 0.875000 1.214925
vt 0.937500 1.214925
vt 1.000000 1.214925
vt 0.062500 1.168975
vt 0.000000 1.168975
vt 0.125000 1.168975
vt 0.187500 1.168975
vt 0.250000 1.168975
vt 0.312500 1.168975
vt 0.375000 1.168975
vt 0.437500 1.168975
vt 0.500000 1.168975
vt 0.562500 1.168975
vt 0.625000 1.168975
vt 0.687500 1.168975
vt 0.750000 1.168975
vt 0.812500 1.168975
vt 0.875000 1.168975
vt 0.937500 1.168975
vt 1.000000 1.168975
vt 0.062500 1.104644
vt 0.000000 1.104644
vt 0.125000 1.104644
vt 0.187500 1.104644
vt 0.250000 1.104644
vt 0.312500 1.104644
vt 0.375000 1.104644
vt 0.437500 1.104644
vt 0.500000 1.104644
vt 0.562500 1.104644
vt 0.625000 1.104644
vt 0.687500 1.104644
vt 0.750000 1.104644
vt 0.812500 1.104644
vt 0.875000 1.104644
vt 0.937500 1.104644
vt 1.000000 1.104644
vt 0.062500 1.056856
vt 0.000000 1.056856
vt 0.125000 1.056856
vt 0.187500 1.056856
vt 0.250000 1.056856
vt 0.312500 1.056856
vt 0.375000 1.056856
vt 0.437500 1.056856
vt 0.500000 1.056856
vt 0.562500 1.056856
vt 0.625000 1.056856
vt 0.687500 1.056856
vt 0.750000 1.056856
vt 0.812500 1.056856
vt 0.875000 1.056856
vt 0.937500 1.056856
vt 1.000000 1.056856
vt 0.062500 0.968631
vt 0.000000 0.968631
vt 0.125000 0.968631
vt 0.187500 0.968631
vt 0.250000 0.968631
vt 0.312500 0.968631
vt 0.375000 0.968631
vt 0.437500 0.968631
vt 0.500000 0.968631
vt 0.562500 0.968631
vt 0.625000 0.968631
vt 0.687500 0.968631
vt 0.750000 0.968631
vt 0.812500 0.968631
vt 0.875000 0.968631
vt 0.937500 0.968631
vt 1.000000 0.968631
vt 0.062500 0.839971
vt 0.000000 0.839971
vt 0.125000 0.839971
vt 0.187500 0.839971
vt 0.250000 0.839971
vt 0.312500 0.839971
vt 0.375000 0.839971
vt 0.437500 0.839971
vt 0.500000 0.839971
vt 0.562500 0.839971
vt 0.625000 0.839971
vt 0.687500 0.839971
vt 0.750000 0.839971
vt 0.812500 0.839971
vt 0.875000 0.839971
vt 0.937500 0.839971
vt 1.000000 0.839971
vt 0.062500 0.694768
vt 0.000000 0.694768
vt 0.125000 0.694768
vt 0.187500 0.694768
vt 0.250000 0.694768
vt 0.312500 0.694768
vt 0.375000 0.694768
vt 0.437500 0.694768
vt 0.500000 0.694768
vt 0.562500 0.694768
vt 0.625000 0.694768
vt 0.687500 0.694768
vt 0.750000 0.694768
vt 0.812500 0.694768
vt 0.875000 0.694768
vt 0.937500 0.694768
vt 1.000000 0.694768
vt 0.062500 0.578973
vt 0.000000 0.578973
vt 0.125000 0.578973
vt 0.187500 0.578973
vt 0.250000 0.578973
vt 0.312500 0.578973
vt 0.375000 0.578973
vt 0.437500 0.578973
vt 0.500000 0.578973
vt 0.562500 0.578973
vt 0.625000 0.578973
vt 0.687500 0.578973
vt 0.750000 0.578973
vt 0.812500 0.578973
vt 0.875000 0.578973
vt 0.937500 0.578973
vt 1.000000 0.578973
vt 0.062500 0.402524
vt 0.000000 0.402524
vt 0.125000 0.402524
vt 0.187500 0.402524
vt 0.250000 0.402524
vt 0.312500 0.402524
vt 0.375000 0.402524
vt 0.437500 0.402524
vt 0.500000 0.402524
vt 0.562500 0.402524
vt 0.625000 0.402524
vt 0.687500 0.402524
vt 0.750000 0.402524
vt 0.812500 0.402524
vt 0.875000 0.402524
vt 0.937500 0.402524
vt 1.000000 0.402524
vt 0.062500 0.257321
vt 0.000000 0.257321
vt 0.125000 0.257321
vt 0.187500 0.257321
vt 0.250000 0.257321
vt 0.312500 0.257321
vt 0.375000 0.257321
vt 0.437500 0.257321
vt 0.500000 0.257321
vt 0.562500 0.257321
vt 0.625000 0.257321
vt 0.687500 0.257321
vt 0.750000 0.257321
vt 0.812500 0.257321
vt 0.875000 0.257321
vt 0.937500 0.257321
vt 1.000000 0.257321
vt 0.062500 0.178287
vt 0.000000 0.178287
vt 0.125000 0.178287
vt 0.187500 0.178287
vt 0.250000 0.178287
vt 0.312500 0.178287
vt 0.375000 0.178287
vt 0.437500 0.178287
vt 0.500000 0.178287
vt 0.562500 0.178287
vt 0.625000 0.178287
vt 0.687500 0.178287
vt 0.750000 0.178287
vt 0.812500 0.178287
vt 0.875000 0.178287
vt 0.937500 0.178287
vt 1.000000 0.178287
vt 0.062500 0.108442
vt 0.000000 0.108442
vt 0.125000 0.108442
vt 0.187500 0.108442
vt 0.250000 0.108442
vt 0.312500 0.108442
vt 0.375000 0.108442
vt 0.437500 0.108442
vt 0.500000 0.108442
vt 0.562500 0.108442
vt 0.625000 0.108442
vt 0.687500 0.108442
vt 0.750000 0.108442
vt 0.812500 0.108442
vt 0.875000 0.108442
vt 0.937500 0.108442
vt 1.000000 0.108442
vt 0.062500 0.079034
vt 0.000000 0.079034
vt 0.125000 0.079034
vt 0.187500 0.079034
vt 0.250000 0.079034
vt 0.312500 0.079034
vt 0.375000 0.079034
vt 0.437500 0.079034
vt 0.500000 0.079034
vt 0.562500 0.079034
vt 0.625000 0.079034
vt 0.687500 0.079034
vt 0.750000 0.079034
vt 0.812500 0.079034
vt 0.875000 0.079034
vt 0.937500 0.079034
vt 1.000000 0.079034
vt 0.062500 0.064330
vt 0.000000 0.064330
vt 0.125000 0.064330
vt 0.187500 0.064330
vt 0.250000 0.064330
vt 0.312500 0.064330
vt 0.375000 0.064330
vt 0.437500 0.064330
vt 0.500000 0.064330
vt 0.562500 0.064330
vt 0.625000 0.064330
vt 0.687500 0.064330
vt 0.750000 0.064330
vt 0.812500 0.064330
vt 0.875000 0.064330
vt 0.937500 0.064330
vt 1.000000 0.064330
vt 0.062500 0.056978
vt 0.000000 0.056978
vt 0.125000 0.056978
vt 0.187500 0.056978
vt 0.250000 0.056978
vt 0.312500 0.056978
vt 0.375000 0.056978
vt 0.437500 0.056978
vt 0.500000 0.056978
vt 0.562500 0.056978
vt 0.625000 0.056978
vt 0.687500 0.056978
vt 0.750000 0.056978
vt 0.812500 0.056978
vt 0.875000 0.056978
vt 0.937500 0.056978
vt 1.000000 0.056978
vt 0.062500 0.055324
vt 0.000000 0.055324
vt 0.125000 0.055324
vt 0.187500 0.055324
vt 0.250000 0.055324
vt 0.312500 0.055324
vt 0.375000 0.055324
vt 0.437500 0.055324
vt 0.500000 0.055324
vt 0.562500 0.055324
vt 0.625000 0.055324
vt 0.687500 0.055324
vt 0.750000 0.055324
vt 0.812500 0.055324
vt 0.875000 0.055324
vt 0.937500 0.055324
vt 1.000000 0.055324
s 1
usemtl Vase_grün
f 1/1/1 42/2/42 43/3/43 2/4/2
f 42/2/42 83/5/83 84/6/84 43/3/43
f 83/5/83 124/7/124 125/8/125 84/6/84
f 124/7/124 165/9/165 166/10/166 125/8/125
f 165/9/165 206/11/206 207/12/207 166/10/166
f 206/11/206 247/13/247 248/14/248 207/12/207
f 247/13/247 288/15/288 289/16/289 248/14/248
f 288/15/288 329/17/329 330/18/330 289/16/289
f 329/17/329 370/19/370 371/20/371 330/18/330
f 370/19/370 411/21/411 412/22/412 371/20/371
f 411/21/411 452/23/452 453/24/453 412/22/412
f 452/23/452 493/25/493 494/26/494 453/24/453
f 493/25/493 534/27/534 535/28/535 494/26/494
f 534/27/534 575/29/575 576/30/576 535/28/535
f 575/29/575 616/31/616 617/32/617 576/30/576
f 616/31/616 1/33/1 2/34/2 617/32/617
f 2/4/2 43/3/43 44/35/44 3/36/3
f 43/3/43 84/6/84 85/37/85 44/35/44
f 84/6/84 125/8/125 126/38/126 85/37/85
f 125/8/125 166/10/166 167/39/167 126/38/126
f 166/10/166 207/12/207 208/40/208 167/39/167
f 207/12/207 248/14/248 249/41/249 208/40/208
f 248/14/248 289/16/289 290/42/290 249/41/249
f 289/16/289 330/18/330 331/43/331 290/42/290
f 330/18/330 371/20/371 372/44/372 331/43/331
f 371/20/371 412/22/412 413/45/413 372/44/372
f 412/22/412 453/24/453 454/46/454 413/45/413
f 453/24/453 494/26/494 495/47/495 454/46/454
f 494/26/494 535/28/535 536/48/536 495/47/495
f 535/28/535 576/30/576 577/49/577 536/48/536
f 576/30/576 617/32/617 618/50/618 577/49/577
f 617/32/617 2/34/2 3/51/3 618/50/618
f 3/36/3 44/35/44 45/52/45 4/53/4
f 44/35/44 85/37/85 86/54/86 45/52/45
f 85/37/85 126/38/126 127/55/127 86/54/86
f 126/38/126 167/39/167 168/56/168 127/55/127
f 167/39/167 208/40/208 209/57/209 168/56/168
f 208/40/208 249/41/249 250/58/250 209/57/209
f 249/41/249 290/42/290 291/59/291 250/58/250
f 290/42/290 331/43/331 332/60/332 291/59/291
f 331/43/331 372/44/372 373/61/373 332/60/332
f 372/44/372 413/45/413 414/62/414 373/61/373
f 413/45/413 454/46/454 455/63/455 414/62/414
f 454/46/454 495/47/495 496/64/496 455/63/455
f 495/47/495 536/48/536 537/65/537 496/64/496
f 536/48/536 577/49/577 578/66/578 537/65/537
f 577/49/577 618/50/618 619/67/619 578/66/578
f 618/50/618 3/51/3 4/68/4 619/67/619
f 4/53/4 45/52/45 46/69/46 5/70/5
f 45/52/45 86/54/86 87/71/87 46/69/46
f 86/54/86 127/55/127 128/72/128 87/71/87
f 127/55/127 168/56/168 169/73/169 128/72/128
f 168/56/168 209/57/209 210/74/210 169/73/169
f 209/57/209 250/58/250 251/75/251 210/74/210
f 250/58/250 291/59/291 292/76/292 251/75/251
f 291/59/291 332/60/332 333/77/333 292/76/292
f 332/60/332 373/61/373 374/78/374 333/77/333
f 373/61/373 414/62/414 415/79/415 374/78/374
f 414/62/414 455/63/455 456/80/456 415/79/415
f 455/63/455 496/64/496 497/81/497 456/80/456
f 496/64/496 537/65/537 538/82/538 497/81/497
f 537/65/537 578/66/578 579/83/579 538/82/538
f 578/66/578 619/67/619 620/84/620 579/83/579
f 619/67/619 4/68/4 5/85/5 620/84/620
f 5/70/5 46/69/46 47/86/47 6/87/6
f 46/69/46 87/71/87 88/88/88 47/86/47
f 87/71/87 128/72/128 129/89/129 88/88/88
f 128/72/128 169/73/169 170/90/170 129/89/129
f 169/73/169 210/74/210 211/91/211 170/90/170
f 210/74/210 251/75/251 252/92/252 211/91/211
f 251/75/251 292/76/292 293/93/293 252/92/252
f 292/76/292 333/77/333 334/94/334 293/93/293
f 333/77/333 374/78/374 375/95/375 334/94/334
f 374/78/374 415/79/415 416/96/416 375/95/375
f 415/79/415 456/80/456 457/97/457 416/96/416
f 456/80/456 497/81/497 498/98/498 457/97/457
f 497/81/497 538/82/538 539/99/539 498/98/498
f 538/82/538 579/83/579 580/100/580 539/99/539
f 579/83/579 620/84/620 621/101/621 580/100/580
f 620/84/620 5/85/5 6/102/6 621/101/621
f 6/87/6 47/86/47 48/103/48 7/104/7
f 47/86/47 88/88/88 89/105/89 48/103/48
f 88/88/88 129/89/129 130/106/130 89/105/89
f 129/89/129 170/90/170 171/107/171 130/106/130
f 170/90/170 211/91/211 212/108/212 171/107/171
f 211/91/211 252/92/252 253/109/253 212/108/212
f 252/92/252 293/93/293 294/110/294 253/109/253
f 293/93/293 334/94/334 335/111/335 294/110/294
f 334/94/334 375/95/375 376/112/376 335/111/335
f 375/95/375 416/96/416 417/113/417 376/112/376
f 416/96/416 457/97/457 458/114/458 417/113/417
f 457/97/457 498/98/498 499/115/499 458/114/458
f 498/98/498 539/99/539 540/116/540 499/115/499
f 539/99/539 580/100/580 581/117/581 540/116/540
f 580/100/580 621/101/621 622/118/622 581/117/581
f 621/101/621 6/102/6 7/119/7 622/118/622
f 7/104/7 48/103/48 49/120/49 8/121/8
f 48/103/48 89/105/89 90/122/90 49/120/49
f 89/105/89 130/106/130 131/123/131 90/122/90
f 130/106/130 171/107/171 172/124/172 131/123/131
f 171/107/171 212/108/212 213/125/213 172/124/172
f 212/108/212 253/109/253 254/126/254 213/125/213
f 253/109/253 294/110/294 295/127/295 254/126/254
f 294/110/294 335/111/335 336/128/336 295/127/295
f 335/111/335 376/112/376 377/129/377 336/128/336
f 376/112/376 417/113/417 418/130/418 377/129/377
f 417/113/417 458/114/458 459/131/459 418/130/418
f 458/114/458 499/115/499 500/132/500 459/131/459
f 499/115/499 540/116/540 541/133/541 500/132/500
f 540/116/540 581/117/581 582/134/582 541/133/541
f 581/117/581 622/118/622 623/135/623 582/134/582
f 622/118/622 7/119/7 8/136/8 623/135/623
f 8/121/8 49/120/49 50/137/50 9/138/9
f 49/120/49 90/122/90 91/139/91 50/137/50
f 90/122/90 131/123/131 132/140/132 91/139/91
f 131/123/131 172/124/172 173/141/173 132/140/132
f 172/124/172 213/125/213 214/142/214 173/141/173
f 213/125/213 254/126/254 255/143/255 214/142/214
f 254/126/254 295/127/295 296/144/296 255/143/255
f 295/127/295 336/128/336 337/145/337 296/144/296
f 336/128/336 377/129/377 378/146/378 337/145/337
f 377/129/377 418/130/418 419/147/419 378/146/378
f 418/130/418 459/131/459 460/148/460 419/147/419
f 459/131/459 500/132/500 501/149/501 460/148/460
f 500/132/500 541/133/541 542/150/542 501/149/501
f 541/133/541 582/134/582 583/151/583 542/150/542
f 582/134/582 623/135/623 624/152/624 583/151/583
f 623/135/623 8/136/8 9/153/9 624/152/624
f 9/138/9 50/137/50 51/154/51 10/155/10
f 50/137/50 91/139/91 92/156/92 51/154/51
f 91/139/91 132/140/132 133/157/133 92/156/92
f 132/140/132 173/141/173 174/158/174 133/157/133
f 173/141/173 214/142/214 215/159/215 174/158/174
f 214/142/214 255/143/255 256/160/256 215/159/215
f 255/143/255 296/144/296 297/161/297 256/160/256
f 296/144/296 337/145/337 338/162/338 297/161/297
f 337/145/337 378/146/378 379/163/379 338/162/338
f 378/146/378 419/147/419 420/164/420 379/163/379
f 419/147/419 460/148/460 461/165/461 420/164/420
f 460/148/460 501/149/501 502/166/502 461/165/461
f 501/149/501 542/150/542 543/167/543 502/166/502
f 542/150/542 583/151/583 584/168/584 543/167/543
f 583/151/583 624/152/624 625/169/625 584/168/584
f 624/152/624 9/153/9 10/170/10 625/169/625
f 10/155/10 51/154/51 52/171/52 11/172/11
f 51/154/51 92/156/92 93/173/93 52/171/52
f 92/156/92 133/157/133 134/174/134 93/173/93
f 133/157/133 174/158/174 175/175/175 134/174/134
f 174/158/174 215/159/215 216/176/216 175/175/175
f 215/159/215 256/160/256 257/177/257 216/176/216
f 256/160/256 297/161/297 298/178/298 257/177/257
f 297/161/297 338/162/338 339/179/339 298/178/298
f 338/162/338 379/163/379 380/180/380 339/179/339
f 379/163/379 420/164/420 421/181/421 380/180/380
f 420/164/420 461/165/461 462/182/462 421/181/421
f 461/165/461 502/166/502 503/183/503 462/182/462
f 502/166/502 543/167/543 544/184/544 503/183/503
f 543/167/543 584/168/584 585/185/585 544/184/544
f 584/168/584 625/169/625 626/186/626 585/185/585
f 625/169/625 10/170/10 11/187/11 626/186/626
f 11/172/11 52/171/52 53/188/53 12/189/12
f 52/171/52 93/173/93 94/190/94 53/188/53
f 93/173/93 134/174/134 135/191/135 94/190/94
f 134/174/134 175/175/175 176/192/176 135/191/135
f 175/175/175 216/176/216 217/193/217 176/192/176
f 216/176/216 257/177/257 258/194/258 217/193/217
f 257/177/257 298/178/298 299/195/299 258/194/258
f 298/178/298 339/179/339 340/196/340 299/195/299
f 339/179/339 380/180/380 381/197/381 340/196/340
f 380/180/380 421/181/421 422/198/422 381/197/381
f 421/181/421 462/182/462 463/199/463 422/198/422
f 462/182/462 503/183/503 504/200/504 463/199/463
f 503/183/503 544/184/544 545/201/545 504/200/504
f 544/184/544 585/185/585 586/202/586 545/201/545
f 585/185/585 626/186/626 627/203/627 586/202/586
f 626/186/626 11/187/11 12/204/12 627/203/627
f 12/189/12 53/188/53 54/205/54 13/206/13
f 53/188/53 94/190/94 95/207/95 54/205/54
f 94/190/94 135/191/135 136/208/136 95/207/95
f 135/191/135 176/192/176 177/209/177 136/208/136
f 176/192/176 217/193/217 218/210/218 177/209/177
f 217/193/217 258/194/258 259/211/259 218/210/218
f 258/194/258 299/195/299 300/212/300 259/211/259
f 299/195/299 340/196/340 341/213/341 300/212/300
f 340/196/340 381/197/381 382/214/382 341/213/341
f 381/197/381 422/198/422 423/215/423 382/214/382
f 422/198/422 463/199/463 464/216/464 423/215/423
f 463/199/463 504/200/504 505/217/505 464/216/464
f 504/200/504 545/201/545 546/218/546 505/217/505
f 545/201/545 586/202/586 587/219/587 546/218/546
f 586/202/586 627/203/627 628/220/628 587/219/587
f 627/203/627 12/204/12 13/221/13 628/220/628
f 13/206/13 54/205/54 55/222/55 14/223/14
f 54/205/54 95/207/95 96/224/96 55/222/55
f 95/207/95 136/208/136 137/225/137 96/224/96
f 136/208/136 177/209/177 178/226/178 137/225/137
f 177/209/177 218/210/218 219/227/219 178/226/178
f 218/210/218 259/211/259 260/228/260 219/227/219
f 259/211/259 300/212/300 301/229/301 260/228/260
f 300/212/300 341/213/341 342/230/342 301/229/301
f 341/213/341 382/214/382 383/231/383 342/230/342
f 382/214/382 423/215/423 424/232/424 383/231/383
f 423/215/423 464/216/464 465/233/465 424/232/424
f 464/216/464 505/217/505 506/234/506 465/233/465
f 505/217/505 546/218/546 547/235/547 506/234/506
f 546/218/546 587/219/587 588/236/588 547/235/547
f 587/219/587 628/220/628 629/237/629 588/236/588
f 628/220/628 13/221/13 14/238/14 629/237/629
f 14/223/14 55/222/55 56/239/56 15/240/15
f 55/222/55 96/224/96 97/241/97 56/239/56
f 96/224/96 137/225/137 138/242/138 97/241/97
f 137/225/137 178/226/178 179/243/179 138/242/138
f 178/226/178 219/227/219 220/244/220 179/243/179
f 219/227/219 260/228/260 261/245/261 220/244/220
f 260/228/260 301/229/301 302/246/302 261/245/261
f 301/229/301 342/230/342 343/247/343 302/246/302
f 342/230/342 383/231/383 384/248/384 343/247/343
f 383/231/383 424/232/424 425/249/425 384/248/384
f 424/232/424 465/233/465 466/250/466 425/249/425
f 465/233/465 506/234/506 507/251/507 466/250/466
f 506/234/506 547/235/547 548/252/548 507/251/507
f 547/235/547 588/236/588 589/253/589 548/252/548
f 588/236/588 629/237/629 630/254/630 589/253/589
f 629/237/629 14/238/14 15/255/15 630/254/630
f 15/240/15 56/239/56 57/256/57 16/257/16
f 56/239/56 97/241/97 98/258/98 57/256/57
f 97/241/97 138/242/138 139/259/139 98/258/98
f 138/242/138 179/243/179 180/260/180 139/259/139
f 179/243/179 220/244/220 221/261/221 180/260/180
f 220/244/220 261/245/261 262/262/262 221/261/221
f 261/245/261 302/246/302 303/263/303 262/262/262
f 302/246/302 343/247/343 344/264/344 303/263/303
f 343/247/343 384/248/384 385/265/385 344/264/344
f 384/248/384 425/249/425 426/266/426 385/265/385
f 425/249/425 466/250/466 467/267/467 426/266/426
f 466/250/466 507/251/507 508/268/508 467/267/467
f 507/251/507 548/252/548 549/269/549 508/268/508
f 548/252/548 589/253/589 590/270/590 549/269/549
f 589/253/589 630/254/630 631/271/631 590/270/590
f 630/254/630 15/255/15 16/272/16 631/271/631
f 16/257/16 57/256/57 58/273/58 17/274/17
f 57/256/57 98/258/98 99/275/99 58/273/58
f 98/258/98 139/259/139 140/276/140 99/275/99
f 139/259/139 180/260/180 181/277/181 140/276/140
f 180/260/180 221/261/221 222/278/222 181/277/181
f 221/261/221 262/262/262 263/279/263 222/278/222
f 262/262/262 303/263/303 304/280/304 263/279/263
f 303/263/303 344/264/344 345/281/345 304/280/304
f 344/264/344 385/265/385 386/282/386 345/281/345
f 385/265/385 426/266/426 427/283/427 386/282/386
f 426/266/426 467/267/467 468/284/468 427/283/427
f 467/267/467 508/268/508 509/285/509 468/284/468
f 508/268/508 549/269/549 550/286/550 509/285/509
f 549/269/549 590/270/590 591/287/591 550/286/550
f 590/270/590 631/271/631 632/288/632 591/287/591
f 631/271/631 16/272/16 17/289/17 632/288/632
f 17/274/17 58/273/58 59/290/59 18/291/18
f 58/273/58 99/275/99 100/292/100 59/290/59
f 99/275/99 140/276/140 141/293/141 100/292/100
f 140/276/140 181/277/181 182/294/182 141/293/141
f 181/277/181 222/278/222 223/295/223 182/294/182
f 222/278/222 263/279/263 264/296/264 223/295/223
f 263/279/263 304/280/304 305/297/305 264/296/264
f 304/280/304 345/281/345 346/298/346 305/297/305
f 345/281/345 386/282/386 387/299/387 346/298/346
f 386/282/386 427/283/427 428/300/428 387/299/387
f 427/283/427 468/284/468 469/301/469 428/300/428
f 468/284/468 509/285/509 510/302/510 469/301/469
f 509/285/509 550/286/550 551/303/551 510/302/510
f 550/286/550 591/287/591 592/304/592 551/303/551
f 591/287/591 632/288/632 633/305/633 592/304/592
f 632/288/632 17/289/17 18/306/18 633/305/633
f 18/291/18 59/290/59 60/307/60 19/308/19
f 59/290/59 100/292/100 101/309/101 60/307/60
f 100/292/100 141/293/141 142/310/142 101/309/101
f 141/293/141 182/294/182 183/311/183 142/310/142
f 182/294/182 223/295/223 224/312/224 183/311/183
f 223/295/223 264/296/264 265/313/265 224/312/224
f 264/296/264 305/297/305 306/314/306 265/313/265
f 305/297/305 346/298/346 347/315/347 306/314/306
f 346/298/346 387/299/387 388/316/388 347/315/347
f 387/299/387 428/300/428 429/317/429 388/316/388
f 428/300/428 469/301/469 470/318/470 429/317/429
f 469/301/469 510/302/510 511/319/511 470/318/470
f 510/302/510 551/303/551 552/320/552 511/319/511
f 551/303/551 592/304/592 593/321/593 552/320/552
f 592/304/592 633/305/633 634/322/634 593/321/593
f 633/305/633 18/306/18 19/323/19 634/322/634
f 19/308/19 60/307/60 61/324/61 20/325/20
f 60/307/60 101/309/101 102/326/102 61/324/61
f 101/309/101 142/310/142 143/327/143 102/326/102
f 142/310/142 183/311/183 184/328/184 143/327/143
f 183/311/183 224/312/224 225/329/225 184/328/184
f 224/312/224 265/313/265 266/330/266 225/329/225
f 265/313/265 306/314/306 307/331/307 266/330/266
f 306/314/306 347/315/347 348/332/348 307/331/307
f 347/315/347 388/316/388 389/333/389 348/332/348
f 388/316/388 429/317/429 430/334/430 389/333/389
f 429/317/429 470/318/470 471/335/471 430/334/430
f 470/318/470 511/319/511 512/336/512 471/335/471
f 511/319/511 552/320/552 553/337/553 512/336/512
f 552/320/552 593/321/593 594/338/594 553/337/553
f 593/321/593 634/322/634 635/339/635 594/338/594
f 634/322/634 19/323/19 20/340/20 635/339/635
f 20/325/20 61/324/61 62/341/62 21/342/21
f 61/324/61 102/326/102 103/343/103 62/341/62
f 102/326/102 143/327/143 144/344/144 103/343/103
f 143/327/143 184/328/184 185/345/185 144/344/144
f 184/328/184 225/329/225 226/346/226 185/345/185
f 225/329/225 266/330/266 267/347/267 226/346/226
f 266/330/266 307/331/307 308/348/308 267/347/267
f 307/331/307 348/332/348 349/349/349 308/348/308
f 348/332/348 389/333/389 390/350/390 349/349/349
f 389/333/389 430/334/430 431/351/431 390/350/390
f 430/334/430 471/335/471 472/352/472 431/351/431
f 471/335/471 512/336/512 513/353/513 472/352/472
f 512/336/512 553/337/553 554/354/554 513/353/513
f 553/337/553 594/338/594 595/355/595 554/354/554
f 594/338/594 635/339/635 636/356/636 595/355/595
f 635/339/635 20/340/20 21/357/21 636/356/636
f 21/342/21 62/341/62 63/358/63 22/359/22
f 62/341/62 103/343/103 104/360/104 63/358/63
f 103/343/103 144/344/144 145/361/145 104/360/104
f 144/344/144 185/345/185 186/362/186 145/361/145
f 185/345/185 226/346/226 227/363/227 186/362/186
f 226/346/226 267/347/267 268/364/268 227/363/227
f 267/347/267 308/348/308 309/365/309 268/364/268
f 308/348/308 349/349/349 350/366/350 309/365/309
f 349/349/349 390/350/390 391/367/391 350/366/350
f 390/350/390 431/351/431 432/368/432 391/367/391
f 431/351/431 472/352/472 473/369/473 432/368/432
f 472/352/472 513/353/513 514/370/514 473/369/473
f 513/353/513 554/354/554 555/371/555 514/370/514
f 554/354/554 595/355/595 596/372/596 555/371/555
f 595/355/595 636/356/636 637/373/637 596/372/596
f 636/356/636 21/357/21 22/374/22 637/373/637
f 22/359/22 63/358/63 64/375/64 23/376/23
f 63/358/63 104/360/104 105/377/105 64/375/64
f 104/360/104 145/361/145 146/378/146 105/377/105
f 145/361/145 186/362/186 187/379/187 146/378/146
f 186/362/186 227/363/227 228/380/228 187/379/187
f 227/363/227 268/364/268 269/381/269 228/380/228
f 268/364/268 309/365/309 310/382/310 269/381/269
f 309/365/309 350/366/350 351/383/351 310/382/310
f 350/366/350 391/367/391 392/384/392 351/383/351
f 391/367/391 432/368/432 433/385/433 392/384/392
f 432/368/432 473/369/473 474/386/474 433/385/433
f 473/369/473 514/370/514 515/387/515 474/386/474
f 514/370/514 555/371/555 556/388/556 515/387/515
f 555/371/555 596/372/596 597/389/597 556/388/556
f 596/372/596 637/373/637 638/390/638 597/389/597
f 637/373/637 22/374/22 23/391/23 638/390/638
f 23/376/23 64/375/64 65/392/65 24/393/24
f 64/375/64 105/377/105 106/394/106 65/392/65
f 105/377/105 146/378/146 147/395/147 106/394/106
f 146/378/146 187/379/187 188/396/188 147/395/147
f 187/379/187 228/380/228 229/397/229 188/396/188
f 228/380/228 269/381/269 270/398/270 229/397/229
f 269/381/269 310/382/310 311/399/311 270/398/270
f 310/382/310 351/383/351 352/400/352 311/399/311
f 351/383/351 392/384/392 393/401/393 352/400/352
f 392/384/392 433/385/433 434/402/434 393/401/393
f 433/385/433 474/386/474 475/403/475 434/402/434
f 474/386/474 515/387/515 516/404/516 475/403/475
f 515/387/515 556/388/556 557/405/557 516/404/516
f 556/388/556 597/389/597 598/406/598 557/405/557
f 597/389/597 638/390/638 639/407/639 598/406/598
f 638/390/638 23/391/23 24/408/24 639/407/639
f 24/393/24 65/392/65 66/409/66 25/410/25
f 65/392/65 106/394/106 107/411/107 66/409/66
f 106/394/106 147/395/147 148/412/148 107/411/107
f 147/395/147 188/396/188 189/413/189 148/412/148
f 188/396/188 229/397/229 230/414/230 189/413/189
f 229/397/229 270/398/270 271/415/271 230/414/230
f 270/398/270 311/399/311 312/416/312 271/415/271
f 311/399/311 352/400/352 353/417/353 312/416/312
f 352/400/352 393/401/393 394/418/394 353/417/353
f 393/401/393 434/402/434 435/419/435 394/418/394
f 434/402/434 475/403/475 476/420/476 435/419/435
f 475/403/475 516/404/516 517/421/517 476/420/476
f 516/404/516 557/405/557 558/422/558 517/421/517
f 557/405/557 598/406/598 599/423/599 558/422/558
f 598/406/598 639/407/639 640/424/640 599/423/599
f 639/407/639 24/408/24 25/425/25 640/424/640
f 25/410/25 66/409/66 67/426/67 26/427/26
f 66/409/66 107/411/107 108/428/108 67/426/67
f 107/411/107 148/412/148 149/429/149 108/428/108
f 148/412/148 189/413/189 190/430/190 149/429/149
f 189/413/189 230/414/230 231/431/231 190/430/190
f 230/414/230 271/415/271 272/432/272 231/431/231
f 271/415/271 312/416/312 313/433/313 272/432/272
f 312/416/312 353/417/353 354/434/354 313/433/313
f 353/417/353 394/418/394 395/435/395 354/434/354
f 394/418/394 435/419/435 436/436/436 395/435/395
f 435/419/435 476/420/476 477/437/477 436/436/436
f 476/420/476 517/421/517 518/438/518 477/437/477
f 517/421/517 558/422/558 559/439/559 518/438/518
f 558/422/558 599/423/599 600/440/600 559/439/559
f 599/423/599 640/424/640 641/441/641 600/440/600
f 640/424/640 25/425/25 26/442/26 641/441/641
f 26/427/26 67/426/67 68/443/68 27/444/27
f 67/426/67 108/428/108 109/445/109 68/443/68
f 108/428/108 149/429/149 150/446/150 109/445/109
f 149/429/149 190/430/190 191/447/191 150/446/150
f 190/430/190 231/431/231 232/448/232 191/447/191
f 231/431/231 272/432/272 273/449/273 232/448/232
f 272/432/272 313/433/313 314/450/314 273/449/273
f 313/433/313 354/434/354 355/451/355 314/450/314
f 354/434/354 395/435/395 396/452/396 355/451/355
f 395/435/395 436/436/436 437/453/437 396/452/396
f 436/436/436 477/437/477 478/454/478 437/453/437
f 477/437/477 518/438/518 519/455/519 478/454/478
f 518/438/518 559/439/559 560/456/560 519/455/519
f 559/439/559 600/440/600 601/457/601 560/456/560
f 600/440/600 641/441/641 642/458/642 601/457/601
f 641/441/641 26/442/26 27/459/27 642/458/642
f 27/444/27 68/443/68 69/460/69 28/461/28
f 68/443/68 109/445/109 110/462/110 69/460/69
f 109/445/109 150/446/150 151/463/151 110/462/110
f 150/446/150 191/447/191 192/464/192 151/463/151
f 191/447/191 232/448/232 233/465/233 192/464/192
f 232/448/232 273/449/273 274/466/274 233/465/233
f 273/449/273 314/450/314 315/467/315 274/466/274
f 314/450/314 355/451/355 356/468/356 315/467/315
f 355/451/355 396/452/396 397/469/397 356/468/356
f 396/452/396 437/453/437 438/470/438 397/469/397
f 437/453/437 478/454/478 479/471/479 438/470/438
f 478/454/478 519/455/519 520/472/520 479/471/479
f 519/455/519 560/456/560 561/473/561 520/472/520
f 560/456/560 601/457/601 602/474/602 561/473/561
f 601/457/601 642/458/642 643/475/643 602/474/602
f 642/458/642 27/459/27 28/476/28 643/475/643
f 28/461/28 69/460/69 70/477/70 29/478/29
f 69/460/69 110/462/110 111/479/111 70/477/70
f 110/462/110 151/463/151 152/480/152 111/479/111
f 151/463/151 192/464/192 193/481/193 152/480/152
f 192/464/192 233/465/233 234/482/234 193/481/193
f 233/465/233 274/466/274 275/483/275 234/482/234
f 274/466/274 315/467/315 316/484/316 275/483/275
f 315/467/315 356/468/356 357/485/357 316/484/316
f 356/468/356 397/469/397 398/486/398 357/485/357
f 397/469/397 438/470/438 439/487/439 398/486/398
f 438/470/438 479/471/479 480/488/480 439/487/439
f 479/471/479 520/472/520 521/489/521 480/488/480
f 520/472/520 561/473/561 562/490/562 521/489/521
f 561/473/561 602/474/602 603/491/603 562/490/562
f 602/474/602 643/475/643 644/492/644 603/491/603
f 643/475/643 28/476/28 29/493/29 644/492/644
f 29/478/29 70/477/70 71/494/71 30/495/30
f 70/477/70 111/479/111 112/496/112 71/494/71
f 111/479/111 152/480/152 153/497/153 112/496/112
f 152/480/152 193/481/193 194/498/194 153/497/153
f 193/481/193 234/482/234 235/499/235 194/498/194
f 234/482/234 275/483/275 276/500/276 235/499/235
f 275/483/275 316/484/316 317/501/317 276/500/276
f 316/484/316 357/485/357 358/502/358 317/501/317
f 357/485/357 398/486/398 399/503/399 358/502/358
f 398/486/398 439/487/439 440/504/440 399/503/399
f 439/487/439 480/488/480 481/505/481 440/504/440
f 480/488/480 521/489/521 522/506/522 481/505/481
f 521/489/521 562/490/562 563/507/563 522/506/522
f 562/490/562 603/491/603 604/508/604 563/507/563
f 603/491/603 644/492/644 645/509/645 604/508/604
f 644/492/644 29/493/29 30/510/30 645/509/645
f 30/495/30 71/494/71 72/511/72 31/512/31
f 71/494/71 112/496/112 113/513/113 72/511/72
f 112/496/112 153/497/153 154/514/154 113/513/113
f 153/497/153 194/498/194 195/515/195 154/514/154
f 194/498/194 235/499/235 236/516/236 195/515/195
f 235/499/235 276/500/276 277/517/277 236/516/236
f 276/500/276 317/501/317 318/518/318 277/517/277
f 317/501/317 358/502/358 359/519/359 318/518/318
f 358/502/358 399/503/399 400/520/400 359/519/359
f 399/503/399 440/504/440 441/521/441 400/520/400
f 440/504/440 481/505/481 482/522/482 441/521/441
f 481/505/481 522/506/522 523/523/523 482/522/482
f 522/506/522 563/507/563 564/524/564 523/523/523
f 563/507/563 604/508/604 605/525/605 564/524/564
f 604/508/604 645/509/645 646/526/646 605/525/605
f 645/509/645 30/510/30 31/527/31 646/526/646
f 31/512/31 72/511/72 73/528/73 32/529/32
f 72/511/72 113/513/113 114/530/114 73/528/73
f 113/513/113 154/514/154 155/531/155 114/530/114
f 154/514/154 195/515/195 196/532/196 155/531/155
f 195/515/195 236/516/236 237/533/237 196/532/196
f 236/516/236 277/517/277 278/534/278 237/533/237
f 277/517/277 318/518/318 319/535/319 278/534/278
f 318/518/318 359/519/359 360/536/360 319/535/319
f 359/519/359 400/520/400 401/537/401 360/536/360
f 400/520/400 441/521/441 442/538/442 401/537/401
f 441/521/441 482/522/482 483/539/483 442/538/442
f 482/522/482 523/523/523 524/540/524 483/539/483
f 523/523/523 564/524/564 565/541/565 524/540/524
f 564/524/564 605/525/605 606/542/606 565/541/565
f 605/525/605 646/526/646 647/543/647 606/542/606
f 646/526/646 31/527/31 32/544/32 647/543/647
f 32/529/32 73/528/73 74/545/74 33/546/33
f 73/528/73 114/530/114 115/547/115 74/545/74
f 114/530/114 155/531/155 156/548/156 115/547/115
f 155/531/155 196/532/196 197/549/197 156/548/156
f 196/532/196 237/533/237 238/550/238 197/549/197
f 237/533/237 278/534/278 279/551/279 238/550/238
f 278/534/278 319/535/319 320/552/320 279/551/279
f 319/535/319 360/536/360 361/553/361 320/552/320
f 360/536/360 401/537/401 402/554/402 361/553/361
f 401/537/401 442/538/442 443/555/443 402/554/402
f 442/538/442 483/539/483 484/556/484 443/555/443
f 483/539/483 524/540/524 525/557/525 484/556/484
f 524/540/524 565/541/565 566/558/566 525/557/525
f 565/541/565 606/542/606 607/559/607 566/558/566
f 606/542/606 647/543/647 648/560/648 607/559/607
f 647/543/647 32/544/32 33/561/33 648/560/648
f 33/546/33 74/545/74 75/562/75 34/563/34
f 74/545/74 115/547/115 116/564/116 75/562/75
f 115/547/115 156/548/156 157/565/157 116/564/116
f 156/548/156 197/549/197 198/566/198 157/565/157
f 197/549/197 238/550/238 239/567/239 198/566/198
f 238/550/238 279/551/279 280/568/280 239/567/239
f 279/551/279 320/552/320 321/569/321 280/568/280
f 320/552/320 361/553/361 362/570/362 321/569/321
f 361/553/361 402/554/402 403/571/403 362/570/362
f 402/554/402 443/555/443 444/572/444 403/571/403
f 443/555/443 484/556/484 485/573/485 444/572/444
f 484/556/484 525/557/525 526/574/526 485/573/485
f 525/557/525 566/558/566 567/575/567 526/574/526
f 566/558/566 607/559/607 608/576/608 567/575/567
f 607/559/607 648/560/648 649/577/649 608/576/608
f 648/560/648 33/561/33 34/578/34 649/577/649
f 34/563/34 75/562/75 76/579/76 35/580/35
f 75/562/75 116/564/116 117/581/117 76/579/76
f 116/564/116 157/565/157 158/582/158 117/581/117
f 157/565/157 198/566/198 199/583/199 158/582/158
f 198/566/198 239/567/239 240/584/240 199/583/199
f 239/567/239 280/568/280 281/585/281 240/584/240
f 280/568/280 321/569/321 322/586/322 281/585/281
f 321/569/321 362/570/362 363/587/363 322/586/322
f 362/570/362 403/571/403 404/588/404 363/587/363
f 403/571/403 444/572/444 445/589/445 404/588/404
f 444/572/444 485/573/485 486/590/486 445/589/445
f 485/573/485 526/574/526 527/591/527 486/590/486
f 526/574/526 567/575/567 568/592/568 527/591/527
f 567/575/567 608/576/608 609/593/609 568/592/568
f 608/576/608 649/577/649 650/594/650 609/593/609
f 649/577/649 34/578/34 35/595/35 650/594/650
f 35/580/35 76/579/76 77/596/77 36/597/36
f 76/579/76 117/581/117 118/598/118 77/596/77
f 117/581/117 158/582/158 159/599/159 118/598/118
f 158/582/158 199/583/199 200/600/200 159/599/159
f 199/583/199 240/584/240 241/601/241 200/600/200
f 240/584/240 281/585/281 282/602/282 241/601/241
f 281/585/281 322/586/322 323/603/323 282/602/282
f 322/586/322 363/587/363 364/604/364 323/603/323
f 363/587/363 404/588/404 405/605/405 364/604/364
f 404/588/404 445/589/445 446/606/446 405/605/405
f 445/589/445 486/590/486 487/607/487 446/606/446
f 486/590/486 527/591/527 528/608/528 487/607/487
f 527/591/527 568/592/568 569/609/569 528/608/528
f 568/592/568 609/593/609 610/610/610 569/609/569
f 609/593/609 650/594/650 651/611/651 610/610/610
f 650/594/650 35/595/35 36/612/36 651/611/651
f 36/597/36 77/596/77 78/613/78 37/614/37
f 77/596/77 118/598/118 119/615/119 78/613/78
f 118/598/118 159/599/159 160/616/160 119/615/119
f 159/599/159 200/600/200 201/617/201 160/616/160
f 200/600/200 241/601/241 242/618/242 201/617/201
f 241/601/241 282/602/282 283/619/283 242/618/242
f 282/602/282 323/603/323 324/620/324 283/619/283
f 323/603/323 364/604/364 365/621/365 324/620/324
f 364/604/364 405/605/405 406/622/406 365/621/365
f 405/605/405 446/606/446 447/623/447 406/622/406
f 446/606/446 487/607/487 488/624/488 447/623/447
f 487/607/487 528/608/528 529/625/529 488/624/488
f 528/608/528 569/609/569 570/626/570 529/625/529
f 569/609/569 610/610/610 611/627/611 570/626/570
f 610/610/610 651/611/651 652/628/652 611/627/611
f 651/611/651 36/612/36 37/629/37 652/628/652
f 37/614/37 78/613/78 79/630/79 38/631/38
f 78/613/78 119/615/119 120/632/120 79/630/79
f 119/615/119 160/616/160 161/633/161 120/632/120
f 160/616/160 201/617/201 202/634/202 161/633/161
f 201/617/201 242/618/242 243/635/243 202/634/202
f 242/618/242 283/619/283 284/636/284 243/635/243
f 283/619/283 324/620/324 325/637/325 284/636/284
f 324/620/324 365/621/365 366/638/366 325/637/325
f 365/621/365 406/622/406 407/639/407 366/638/366
f 406/622/406 447/623/447 448/640/448 407/639/407
f 447/623/447 488/624/488 489/641/489 448/640/448
f 488/624/488 529/625/529 530/642/530 489/641/489
f 529/625/529 570/626/570 571/643/571 530/642/530
f 570/626/570 611/627/611 612/644/612 571/643/571
f 611/627/611 652/628/652 653/645/653 612/644/612
f 652/628/652 37/629/37 38/646/38 653/645/653
f 38/631/38 79/630/79 80/647/80 39/648/39
f 79/630/79 120/632/120 121/649/121 80/647/80
f 120/632/120 161/633/161 162/650/162 121/649/121
f 161/633/161 202/634/202 203/651/203 162/650/162
f 202/634/202 243/635/243 244/652/244 203/651/203
f 243/635/243 284/636/284 285/653/285 244/652/244
f 284/636/284 325/637/325 326/654/326 285/653/285
f 325/637/325 366/638/366 367/655/367 326/654/326
f 366/638/366 407/639/407 408/656/408 367/655/367
f 407/639/407 448/640/448 449/657/449 408/656/408
f 448/640/448 489/641/489 490/658/490 449/657/449
f 489/641/489 530/642/530 531/659/531 490/658/490
f 530/642/530 571/643/571 572/660/572 531/659/531
f 571/643/571 612/644/612 613/661/613 572/660/572
f 612/644/612 653/645/653 654/662/654 613/661/613
f 653/645/653 38/646/38 39/663/39 654/662/654
f 39/648/39 80/647/80 81/664/81 40/665/40
f 80/647/80 121/649/121 122/666/122 81/664/81
f 121/649/121 162/650/162 163/667/163 122/666/122
f 162/650/162 203/651/203 204/668/204 163/667/163
f 203/651/203 244/652/244 245/669/245 204/668/204
f 244/652/244 285/653/285 286/670/286 245/669/245
f 285/653/285 326/654/326 327/671/327 286/670/286
f 326/654/326 367/655/367 368/672/368 327/671/327
f 367/655/367 408/656/408 409/673/409 368/672/368
f 408/656/408 449/657/449 450/674/450 409/673/409
f 449/657/449 490/658/490 491/675/491 450/674/450
f 490/658/490 531/659/531 532/676/532 491/675/491
f 531/659/531 572/660/572 573/677/573 532/676/532
f 572/660/572 613/661/613 614/678/614 573/677/573
f 613/661/613 654/662/654 655/679/655 614/678/614
f 654/662/654 39/663/39 40/680/40 655/679/655
f 40/665/40 81/664/81 82/681/82 41/682/41
f 81/664/81 122/666/122 123/683/123 82/681/82
f 122/666/122 163/667/163 164/684/164 123/683/123
f 163/667/163 204/668/204 205/685/205 164/684/164
f 204/668/204 245/669/245 246/686/246 205/685/205
f 245/669/245 286/670/286 287/687/287 246/686/246
f 286/670/286 327/671/327 328/688/328 287/687/287
f 327/671/327 368/672/368 369/689/369 328/688/328
f 368/672/368 409/673/409 410/690/410 369/689/369
f 409/673/409 450/674/450 451/691/451 410/690/410
f 450/674/450 491/675/491 492/692/492 451/691/451
f 491/675/491 532/676/532 533/693/533 492/692/492
f 532/676/532 573/677/573 574/694/574 533/693/533
f 573/677/573 614/678/614 615/695/615 574/694/574
f 614/678/614 655/679/655 656/696/656 615/695/615
f 655/679/655 40/680/40 41/697/41 656/696/656
f 1/1/1 42/2/42 82/681/82 41/682/41
f 42/2/42 83/5/83 123/683/123 82/681/82
f 83/5/83 124/7/124 164/684/164 123/683/123
f 124/7/124 165/9/165 205/685/205 164/684/164
f 165/9/165 206/11/206 246/686/246 205/685/205
f 206/11/206 247/13/247 287/687/287 246/686/246
f 247/13/247 288/15/288 328/688/328 287/687/287
f 288/15/288 329/17/329 369/689/369 328/688/328
f 329/17/329 370/19/370 410/690/410 369/689/369
f 370/19/370 411/21/411 451/691/451 410/690/410
f 411/21/411 452/23/452 492/692/492 451/691/451
f 452/23/452 493/25/493 533/693/533 492/692/492
f 493/25/493 534/27/534 574/694/574 533/693/533
f 534/27/534 575/29/575 615/695/615 574/694/574
f 575/29/575 616/31/616 656/696/656 615/695/615
f 616/31/616 1/33/1 41/697/41 656/696/656
