# Blender 5.1.1
# www.blender.org
mtllib Kupferkessel.mtl
o Kupferkessel
v 8.183345 0.000000 -4.474466
v 7.770991 0.000000 -4.474466
v 7.738040 0.010413 -4.474466
v 7.711680 0.035455 -4.474466
v 7.695863 0.077633 -4.474466
v 7.694545 0.129036 -4.474466
v 7.701926 0.169895 -4.474466
v 7.713789 0.218399 -4.474466
v 7.741731 0.288783 -4.474466
v 7.801324 0.383172 -4.474466
v 7.786826 0.389762 -4.474466
v 7.776281 0.401624 -4.474466
v 7.774963 0.421395 -4.474466
v 7.784189 0.437211 -4.474466
v 7.794734 0.445120 -4.474466
v 7.810550 0.446438 -4.474466
v 7.814258 0.443260 -4.474466
v 7.815318 0.439552 -4.474466
v 7.814788 0.436903 -4.474466
v 7.811080 0.434255 -4.474466
v 7.798897 0.433195 -4.474466
v 7.793070 0.430017 -4.474466
v 7.788303 0.423661 -4.474466
v 7.786714 0.416775 -4.474466
v 7.786714 0.406181 -4.474466
v 7.790952 0.400884 -4.474466
v 7.797308 0.395058 -4.474466
v 7.814788 0.383934 -4.474466
v 7.837561 0.229454 -4.474466
v 7.824723 0.167545 -4.474466
v 7.815617 0.132776 -4.474466
v 7.816031 0.085174 -4.474466
v 7.825137 0.059097 -4.474466
v 7.851628 0.034262 -4.474466
v 7.861148 0.031364 -4.474466
v 8.183381 0.031364 -4.474466
v 8.183345 0.000000 -4.474466
v 7.802380 -0.000000 -4.316666
v 7.771937 0.010413 -4.304056
v 7.747583 0.035455 -4.293968
v 7.732971 0.077633 -4.287915
v 7.731753 0.129036 -4.287411
v 7.738572 0.169895 -4.290236
v 7.749531 0.218399 -4.294775
v 7.775347 0.288783 -4.305468
v 7.830404 0.383172 -4.328273
v 7.817009 0.389762 -4.322725
v 7.807267 0.401624 -4.318690
v 7.806049 0.421395 -4.318185
v 7.814573 0.437211 -4.321716
v 7.824315 0.445120 -4.325751
v 7.838928 0.446438 -4.331804
v 7.842353 0.443260 -4.333223
v 7.843332 0.439552 -4.333628
v 7.842843 0.436903 -4.333426
v 7.839417 0.434255 -4.332006
v 7.828161 0.433195 -4.327344
v 7.822778 0.430017 -4.325115
v 7.818374 0.423661 -4.323290
v 7.816906 0.416775 -4.322682
v 7.816906 0.406181 -4.322682
v 7.820821 0.400884 -4.324304
v 7.826694 0.395058 -4.326736
v 7.842843 0.383934 -4.333426
v 7.863882 0.229454 -4.342140
v 7.852022 0.167545 -4.337228
v 7.843608 0.132776 -4.333743
v 7.843991 0.085174 -4.333901
v 7.852404 0.059097 -4.337386
v 7.876879 0.034262 -4.347524
v 7.885674 0.031364 -4.351167
v 8.183378 0.031364 -4.474480
v 8.183345 0.000000 -4.474466
v 7.891767 -0.000000 -4.182889
v 7.868467 0.010413 -4.159589
v 7.849827 0.035455 -4.140949
v 7.838643 0.077633 -4.129765
v 7.837711 0.129036 -4.128833
v 7.842930 0.169895 -4.134052
v 7.851318 0.218399 -4.142440
v 7.871077 0.288783 -4.162198
v 7.913215 0.383172 -4.204337
v 7.902963 0.389762 -4.194085
v 7.895507 0.401624 -4.186629
v 7.894575 0.421395 -4.185697
v 7.901099 0.437211 -4.192221
v 7.908555 0.445120 -4.199677
v 7.919739 0.446438 -4.210861
v 7.922361 0.443260 -4.213483
v 7.923110 0.439552 -4.214231
v 7.922736 0.436903 -4.213857
v 7.920114 0.434255 -4.211236
v 7.911499 0.433195 -4.202621
v 7.907379 0.430017 -4.198501
v 7.904008 0.423661 -4.195130
v 7.902884 0.416775 -4.194006
v 7.902884 0.406181 -4.194006
v 7.905881 0.400884 -4.197002
v 7.910376 0.395058 -4.201497
v 7.922736 0.383934 -4.213857
v 7.938838 0.229454 -4.229960
v 7.929761 0.167545 -4.220882
v 7.923322 0.132776 -4.214443
v 7.923615 0.085174 -4.214736
v 7.930054 0.059097 -4.221175
v 7.948786 0.034262 -4.239907
v 7.955518 0.031364 -4.246639
v 8.183370 0.031364 -4.474492
v 8.183345 0.000000 -4.474466
v 8.025544 -0.000000 -4.093502
v 8.012934 0.010413 -4.063059
v 8.002846 0.035455 -4.038705
v 7.996794 0.077633 -4.024092
v 7.996289 0.129036 -4.022874
v 7.999114 0.169895 -4.029694
v 8.003654 0.218399 -4.040653
v 8.014346 0.288783 -4.066469
v 8.037151 0.383172 -4.121525
v 8.031603 0.389762 -4.108130
v 8.027568 0.401624 -4.098389
v 8.027063 0.421395 -4.097171
v 8.030595 0.437211 -4.105695
v 8.034630 0.445120 -4.115437
v 8.040683 0.446438 -4.130049
v 8.042101 0.443260 -4.133475
v 8.042507 0.439552 -4.134453
v 8.042304 0.436903 -4.133964
v 8.040885 0.434255 -4.130538
v 8.036222 0.433195 -4.119283
v 8.033993 0.430017 -4.113900
v 8.032168 0.423661 -4.109496
v 8.031561 0.416775 -4.108027
v 8.031561 0.406181 -4.108027
v 8.033182 0.400884 -4.111942
v 8.035615 0.395058 -4.117815
v 8.042304 0.383934 -4.133964
v 8.051019 0.229454 -4.155004
v 8.046106 0.167545 -4.143143
v 8.042622 0.132776 -4.134730
v 8.042780 0.085174 -4.135112
v 8.046265 0.059097 -4.143526
v 8.056402 0.034262 -4.168000
v 8.060045 0.031364 -4.176796
v 8.183358 0.031364 -4.474500
v 8.183345 0.000000 -4.474466
v 8.183345 -0.000000 -4.062113
v 8.183345 0.010413 -4.029162
v 8.183345 0.035455 -4.002801
v 8.183345 0.077633 -3.986985
v 8.183345 0.129036 -3.985667
v 8.183345 0.169895 -3.993048
v 8.183345 0.218399 -4.004910
v 8.183345 0.288783 -4.032853
v 8.183345 0.383172 -4.092445
v 8.183345 0.389762 -4.077947
v 8.183345 0.401624 -4.067403
v 8.183345 0.421395 -4.066085
v 8.183345 0.437211 -4.075311
v 8.183345 0.445120 -4.085855
v 8.183345 0.446438 -4.101672
v 8.183345 0.443260 -4.105380
v 8.183345 0.439552 -4.106439
v 8.183345 0.436903 -4.105909
v 8.183345 0.434255 -4.102201
v 8.183345 0.433195 -4.090019
v 8.183345 0.430017 -4.084192
v 8.183345 0.423661 -4.079425
v 8.183345 0.416775 -4.077836
v 8.183345 0.406181 -4.077836
v 8.183345 0.400884 -4.082073
v 8.183345 0.395058 -4.088429
v 8.183345 0.383934 -4.105909
v 8.183345 0.229454 -4.128682
v 8.183345 0.167545 -4.115845
v 8.183345 0.132776 -4.106738
v 8.183345 0.085174 -4.107152
v 8.183345 0.059097 -4.116259
v 8.183345 0.034262 -4.142750
v 8.183345 0.031364 -4.152270
v 8.183345 0.031364 -4.474502
v 8.183345 0.000000 -4.474466
v 8.341146 -0.000000 -4.093502
v 8.353755 0.010413 -4.063059
v 8.363843 0.035455 -4.038705
v 8.369896 0.077633 -4.024092
v 8.370400 0.129036 -4.022874
v 8.367576 0.169895 -4.029694
v 8.363036 0.218399 -4.040653
v 8.352343 0.288783 -4.066469
v 8.329537 0.383172 -4.121525
v 8.335086 0.389762 -4.108130
v 8.339121 0.401624 -4.098389
v 8.339625 0.421395 -4.097171
v 8.336095 0.437211 -4.105695
v 8.332060 0.445120 -4.115437
v 8.326007 0.446438 -4.130049
v 8.324588 0.443260 -4.133475
v 8.324183 0.439552 -4.134453
v 8.324386 0.436903 -4.133964
v 8.325804 0.434255 -4.130538
v 8.330466 0.433195 -4.119283
v 8.332696 0.430017 -4.113900
v 8.334520 0.423661 -4.109496
v 8.335129 0.416775 -4.108027
v 8.335129 0.406181 -4.108027
v 8.333507 0.400884 -4.111942
v 8.331075 0.395058 -4.117815
v 8.324386 0.383934 -4.133964
v 8.315670 0.229454 -4.155004
v 8.320583 0.167545 -4.143143
v 8.324068 0.132776 -4.134730
v 8.323910 0.085174 -4.135112
v 8.320425 0.059097 -4.143526
v 8.310287 0.034262 -4.168000
v 8.306643 0.031364 -4.176796
v 8.183331 0.031364 -4.474500
v 8.183345 0.000000 -4.474466
v 8.474922 -0.000000 -4.182889
v 8.498222 0.010413 -4.159589
v 8.516862 0.035455 -4.140949
v 8.528046 0.077633 -4.129765
v 8.528978 0.129036 -4.128833
v 8.523759 0.169895 -4.134052
v 8.515370 0.218399 -4.142440
v 8.495612 0.288783 -4.162198
v 8.453474 0.383172 -4.204337
v 8.463726 0.389762 -4.194085
v 8.471182 0.401624 -4.186629
v 8.472114 0.421395 -4.185697
v 8.465590 0.437211 -4.192221
v 8.458134 0.445120 -4.199677
v 8.446950 0.446438 -4.210861
v 8.444328 0.443260 -4.213483
v 8.443579 0.439552 -4.214231
v 8.443954 0.436903 -4.213857
v 8.446575 0.434255 -4.211236
v 8.455190 0.433195 -4.202621
v 8.459311 0.430017 -4.198501
v 8.462681 0.423661 -4.195130
v 8.463804 0.416775 -4.194006
v 8.463804 0.406181 -4.194006
v 8.460808 0.400884 -4.197002
v 8.456314 0.395058 -4.201497
v 8.443954 0.383934 -4.213857
v 8.427851 0.229454 -4.229960
v 8.436928 0.167545 -4.220882
v 8.443367 0.132776 -4.214443
v 8.443075 0.085174 -4.214736
v 8.436636 0.059097 -4.221175
v 8.417904 0.034262 -4.239907
v 8.411172 0.031364 -4.246639
v 8.183319 0.031364 -4.474492
v 8.183345 0.000000 -4.474466
v 8.564309 -0.000000 -4.316666
v 8.594752 0.010413 -4.304056
v 8.619106 0.035455 -4.293968
v 8.633718 0.077633 -4.287915
v 8.634936 0.129036 -4.287411
v 8.628118 0.169895 -4.290236
v 8.617158 0.218399 -4.294775
v 8.591342 0.288783 -4.305468
v 8.536285 0.383172 -4.328273
v 8.549681 0.389762 -4.322725
v 8.559422 0.401624 -4.318690
v 8.560639 0.421395 -4.318185
v 8.552115 0.437211 -4.321716
v 8.542374 0.445120 -4.325751
v 8.527761 0.446438 -4.331804
v 8.524336 0.443260 -4.333223
v 8.523357 0.439552 -4.333628
v 8.523847 0.436903 -4.333426
v 8.527272 0.434255 -4.332007
v 8.538527 0.433195 -4.327344
v 8.543911 0.430017 -4.325115
v 8.548315 0.423661 -4.323290
v 8.549784 0.416775 -4.322682
v 8.549784 0.406181 -4.322682
v 8.545868 0.400884 -4.324304
v 8.539996 0.395058 -4.326736
v 8.523847 0.383934 -4.333426
v 8.502808 0.229454 -4.342140
v 8.514668 0.167545 -4.337228
v 8.523081 0.132776 -4.333743
v 8.522698 0.085174 -4.333901
v 8.514285 0.059097 -4.337386
v 8.489811 0.034262 -4.347524
v 8.481015 0.031364 -4.351167
v 8.183311 0.031364 -4.474480
v 8.183345 0.000000 -4.474466
v 8.595697 0.000000 -4.474466
v 8.628649 0.010413 -4.474466
v 8.655009 0.035455 -4.474466
v 8.670826 0.077633 -4.474466
v 8.672144 0.129036 -4.474466
v 8.664762 0.169895 -4.474466
v 8.652901 0.218399 -4.474466
v 8.624958 0.288783 -4.474466
v 8.565365 0.383172 -4.474466
v 8.579864 0.389762 -4.474466
v 8.590408 0.401624 -4.474466
v 8.591726 0.421395 -4.474466
v 8.582500 0.437211 -4.474466
v 8.571956 0.445120 -4.474466
v 8.556139 0.446438 -4.474466
v 8.552431 0.443260 -4.474466
v 8.551372 0.439552 -4.474466
v 8.551902 0.436903 -4.474466
v 8.555609 0.434255 -4.474466
v 8.567792 0.433195 -4.474466
v 8.573619 0.430017 -4.474466
v 8.578386 0.423661 -4.474466
v 8.579975 0.416775 -4.474466
v 8.579975 0.406181 -4.474466
v 8.575737 0.400884 -4.474466
v 8.569381 0.395058 -4.474466
v 8.551902 0.383934 -4.474466
v 8.529129 0.229454 -4.474466
v 8.541966 0.167545 -4.474466
v 8.551072 0.132776 -4.474466
v 8.550658 0.085174 -4.474466
v 8.541553 0.059097 -4.474466
v 8.515060 0.034262 -4.474466
v 8.505541 0.031364 -4.474466
v 8.183309 0.031364 -4.474466
v 8.183345 0.000000 -4.474466
v 8.564309 0.000000 -4.632267
v 8.594752 0.010413 -4.644876
v 8.619106 0.035455 -4.654964
v 8.633718 0.077633 -4.661017
v 8.634936 0.129036 -4.661521
v 8.628117 0.169895 -4.658697
v 8.617158 0.218399 -4.654158
v 8.591342 0.288783 -4.643464
v 8.536285 0.383172 -4.620659
v 8.549681 0.389762 -4.626207
v 8.559422 0.401624 -4.630242
v 8.560639 0.421395 -4.630747
v 8.552115 0.437211 -4.627216
v 8.542374 0.445120 -4.623181
v 8.527761 0.446438 -4.617128
v 8.524336 0.443260 -4.615709
v 8.523357 0.439552 -4.615304
v 8.523847 0.436903 -4.615507
v 8.527272 0.434255 -4.616926
v 8.538527 0.433195 -4.621588
v 8.543911 0.430017 -4.623817
v 8.548315 0.423661 -4.625642
v 8.549784 0.416775 -4.626250
v 8.549784 0.406181 -4.626250
v 8.545868 0.400884 -4.624629
v 8.539996 0.395058 -4.622196
v 8.523847 0.383934 -4.615507
v 8.502808 0.229454 -4.606792
v 8.514668 0.167545 -4.611705
v 8.523081 0.132776 -4.615190
v 8.522698 0.085174 -4.615031
v 8.514285 0.059097 -4.611547
v 8.489811 0.034262 -4.601408
v 8.481015 0.031364 -4.597765
v 8.183311 0.031364 -4.474452
v 8.183345 0.000000 -4.474466
v 8.474922 0.000000 -4.766044
v 8.498222 0.010413 -4.789344
v 8.516862 0.035455 -4.807984
v 8.528046 0.077633 -4.819168
v 8.528978 0.129036 -4.820100
v 8.523759 0.169895 -4.814880
v 8.515370 0.218399 -4.806492
v 8.495612 0.288783 -4.786734
v 8.453474 0.383172 -4.744596
v 8.463726 0.389762 -4.754848
v 8.471182 0.401624 -4.762303
v 8.472114 0.421395 -4.763236
v 8.465590 0.437211 -4.756711
v 8.458134 0.445120 -4.749256
v 8.446950 0.446438 -4.738071
v 8.444328 0.443260 -4.735450
v 8.443579 0.439552 -4.734701
v 8.443954 0.436903 -4.735075
v 8.446575 0.434255 -4.737697
v 8.455190 0.433195 -4.746312
v 8.459310 0.430017 -4.750432
v 8.462681 0.423661 -4.753803
v 8.463804 0.416775 -4.754926
v 8.463804 0.406181 -4.754926
v 8.460808 0.400884 -4.751930
v 8.456313 0.395058 -4.747435
v 8.443954 0.383934 -4.735075
v 8.427851 0.229454 -4.718972
v 8.436928 0.167545 -4.728050
v 8.443367 0.132776 -4.734489
v 8.443075 0.085174 -4.734196
v 8.436636 0.059097 -4.727757
v 8.417903 0.034262 -4.709025
v 8.411172 0.031364 -4.702293
v 8.183319 0.031364 -4.474441
v 8.183345 0.000000 -4.474466
v 8.341146 0.000000 -4.855431
v 8.353755 0.010413 -4.885873
v 8.363843 0.035455 -4.910228
v 8.369895 0.077633 -4.924840
v 8.370399 0.129036 -4.926058
v 8.367576 0.169895 -4.919239
v 8.363036 0.218399 -4.908279
v 8.352343 0.288783 -4.882464
v 8.329537 0.383172 -4.827407
v 8.335086 0.389762 -4.840802
v 8.339121 0.401624 -4.850543
v 8.339625 0.421395 -4.851761
v 8.336095 0.437211 -4.843237
v 8.332059 0.445120 -4.833496
v 8.326007 0.446438 -4.818883
v 8.324588 0.443260 -4.815458
v 8.324183 0.439552 -4.814479
v 8.324385 0.436903 -4.814968
v 8.325804 0.434255 -4.818394
v 8.330466 0.433196 -4.829649
v 8.332696 0.430017 -4.835032
v 8.334520 0.423661 -4.839437
v 8.335129 0.416775 -4.840905
v 8.335129 0.406181 -4.840905
v 8.333507 0.400884 -4.836990
v 8.331075 0.395058 -4.831118
v 8.324385 0.383934 -4.814968
v 8.315670 0.229454 -4.793929
v 8.320583 0.167545 -4.805789
v 8.324068 0.132776 -4.814202
v 8.323910 0.085174 -4.813820
v 8.320425 0.059097 -4.805407
v 8.310287 0.034262 -4.780932
v 8.306643 0.031364 -4.772137
v 8.183331 0.031364 -4.474433
v 8.183345 0.000000 -4.474466
v 8.183345 0.000000 -4.886819
v 8.183345 0.010413 -4.919770
v 8.183345 0.035455 -4.946131
v 8.183345 0.077633 -4.961947
v 8.183345 0.129036 -4.963265
v 8.183345 0.169895 -4.955884
v 8.183345 0.218399 -4.944022
v 8.183345 0.288783 -4.916080
v 8.183345 0.383172 -4.856487
v 8.183345 0.389762 -4.870985
v 8.183345 0.401624 -4.881529
v 8.183345 0.421395 -4.882848
v 8.183345 0.437211 -4.873621
v 8.183345 0.445120 -4.863077
v 8.183345 0.446438 -4.847260
v 8.183345 0.443260 -4.843553
v 8.183345 0.439552 -4.842493
v 8.183345 0.436903 -4.843023
v 8.183345 0.434255 -4.846731
v 8.183345 0.433196 -4.858914
v 8.183345 0.430017 -4.864740
v 8.183345 0.423661 -4.869507
v 8.183345 0.416775 -4.871097
v 8.183345 0.406181 -4.871097
v 8.183345 0.400884 -4.866859
v 8.183345 0.395058 -4.860503
v 8.183345 0.383934 -4.843023
v 8.183345 0.229454 -4.820250
v 8.183345 0.167545 -4.833088
v 8.183345 0.132776 -4.842194
v 8.183345 0.085174 -4.841780
v 8.183345 0.059097 -4.832674
v 8.183345 0.034262 -4.806182
v 8.183345 0.031364 -4.796662
v 8.183345 0.031364 -4.474430
v 8.183345 0.000000 -4.474466
v 8.025544 0.000000 -4.855431
v 8.012934 0.010413 -4.885873
v 8.002846 0.035455 -4.910228
v 7.996793 0.077633 -4.924840
v 7.996289 0.129036 -4.926058
v 7.999114 0.169895 -4.919239
v 8.003654 0.218399 -4.908279
v 8.014346 0.288783 -4.882464
v 8.037151 0.383172 -4.827407
v 8.031603 0.389762 -4.840802
v 8.027568 0.401624 -4.850543
v 8.027063 0.421395 -4.851761
v 8.030595 0.437211 -4.843237
v 8.034630 0.445120 -4.833496
v 8.040682 0.446438 -4.818883
v 8.042101 0.443260 -4.815457
v 8.042506 0.439552 -4.814479
v 8.042304 0.436903 -4.814968
v 8.040885 0.434255 -4.818394
v 8.036222 0.433196 -4.829649
v 8.033993 0.430017 -4.835032
v 8.032168 0.423661 -4.839437
v 8.031561 0.416775 -4.840905
v 8.031561 0.406181 -4.840905
v 8.033182 0.400884 -4.836990
v 8.035615 0.395058 -4.831118
v 8.042304 0.383934 -4.814968
v 8.051019 0.229454 -4.793929
v 8.046106 0.167545 -4.805789
v 8.042622 0.132776 -4.814202
v 8.042780 0.085174 -4.813820
v 8.046265 0.059097 -4.805407
v 8.056402 0.034262 -4.780932
v 8.060045 0.031364 -4.772137
v 8.183358 0.031364 -4.474433
v 8.183345 0.000000 -4.474466
v 7.891767 0.000000 -4.766044
v 7.868467 0.010413 -4.789344
v 7.849827 0.035455 -4.807983
v 7.838643 0.077633 -4.819168
v 7.837711 0.129036 -4.820099
v 7.842930 0.169895 -4.814880
v 7.851318 0.218399 -4.806492
v 7.871077 0.288783 -4.786734
v 7.913215 0.383172 -4.744596
v 7.902963 0.389762 -4.754848
v 7.895507 0.401624 -4.762303
v 7.894575 0.421395 -4.763235
v 7.901099 0.437211 -4.756711
v 7.908555 0.445120 -4.749255
v 7.919739 0.446438 -4.738071
v 7.922361 0.443260 -4.735450
v 7.923110 0.439552 -4.734701
v 7.922736 0.436903 -4.735075
v 7.920114 0.434255 -4.737697
v 7.911499 0.433195 -4.746312
v 7.907379 0.430017 -4.750432
v 7.904008 0.423661 -4.753802
v 7.902884 0.416775 -4.754926
v 7.902884 0.406181 -4.754926
v 7.905881 0.400884 -4.751930
v 7.910376 0.395058 -4.747435
v 7.922736 0.383934 -4.735075
v 7.938838 0.229454 -4.718972
v 7.929761 0.167545 -4.728050
v 7.923322 0.132776 -4.734489
v 7.923615 0.085174 -4.734196
v 7.930054 0.059097 -4.727757
v 7.948786 0.034262 -4.709025
v 7.955517 0.031364 -4.702293
v 8.183370 0.031364 -4.474441
v 8.183345 0.000000 -4.474466
v 7.802380 0.000000 -4.632267
v 7.771937 0.010413 -4.644876
v 7.747583 0.035455 -4.654964
v 7.732971 0.077633 -4.661017
v 7.731753 0.129036 -4.661521
v 7.738572 0.169895 -4.658697
v 7.749531 0.218399 -4.654158
v 7.775347 0.288783 -4.643464
v 7.830404 0.383172 -4.620659
v 7.817009 0.389762 -4.626207
v 7.807267 0.401624 -4.630242
v 7.806049 0.421395 -4.630747
v 7.814573 0.437211 -4.627216
v 7.824315 0.445120 -4.623181
v 7.838928 0.446438 -4.617128
v 7.842353 0.443260 -4.615709
v 7.843332 0.439552 -4.615304
v 7.842843 0.436903 -4.615507
v 7.839417 0.434255 -4.616926
v 7.828161 0.433195 -4.621588
v 7.822778 0.430017 -4.623817
v 7.818374 0.423661 -4.625642
v 7.816906 0.416775 -4.626250
v 7.816906 0.406181 -4.626250
v 7.820821 0.400884 -4.624629
v 7.826694 0.395058 -4.622196
v 7.842843 0.383934 -4.615507
v 7.863882 0.229454 -4.606792
v 7.852022 0.167545 -4.611705
v 7.843608 0.132776 -4.615190
v 7.843991 0.085174 -4.615031
v 7.852404 0.059097 -4.611547
v 7.876879 0.034262 -4.601408
v 7.885674 0.031364 -4.597765
v 8.183378 0.031364 -4.474452
v 7.663468 0.252169 -4.342272
v 7.674523 0.292012 -4.342272
v 7.663471 0.252168 -4.606130
v 7.674526 0.292011 -4.606130
v 7.702451 0.241353 -4.348540
v 7.713506 0.281195 -4.348540
v 7.702483 0.241344 -4.600062
v 7.713538 0.281187 -4.600062
v 7.654518 0.254653 -4.544132
v 7.631745 0.260971 -4.475900
v 7.654220 0.254735 -4.404223
v 7.665275 0.294578 -4.404223
v 7.642800 0.300814 -4.475900
v 7.665573 0.294495 -4.544132
v 7.699475 0.242178 -4.368478
v 7.671192 0.250026 -4.476102
v 7.699243 0.242243 -4.577625
v 7.710298 0.282086 -4.577625
v 7.682247 0.289869 -4.476102
v 7.710530 0.282021 -4.368478
v 7.797954 0.257764 -4.586933
v 7.786899 0.217921 -4.586933
v 7.783658 0.218820 -4.564496
v 7.794882 0.258616 -4.382040
v 7.797858 0.257791 -4.362102
v 7.786803 0.217948 -4.362102
v 7.783827 0.218774 -4.382040
v 7.794713 0.258663 -4.564496
v 8.703222 0.252169 -4.342272
v 8.692167 0.292012 -4.342272
v 8.703219 0.252168 -4.606130
v 8.692164 0.292011 -4.606130
v 8.664239 0.241353 -4.348540
v 8.653184 0.281195 -4.348540
v 8.664207 0.241344 -4.600062
v 8.653152 0.281187 -4.600062
v 8.712173 0.254653 -4.544132
v 8.734945 0.260971 -4.475900
v 8.712470 0.254735 -4.404223
v 8.701415 0.294578 -4.404223
v 8.723890 0.300814 -4.475900
v 8.701118 0.294495 -4.544132
v 8.667215 0.242178 -4.368478
v 8.695498 0.250026 -4.476102
v 8.667448 0.242243 -4.577625
v 8.656393 0.282086 -4.577625
v 8.684443 0.289869 -4.476102
v 8.656160 0.282021 -4.368478
v 8.568737 0.257764 -4.586933
v 8.579792 0.217921 -4.586933
v 8.583033 0.218820 -4.564496
v 8.571809 0.258616 -4.382040
v 8.568832 0.257791 -4.362102
v 8.579887 0.217948 -4.362102
v 8.582864 0.218774 -4.382040
v 8.571978 0.258663 -4.564496
vn -0.0000 -1.0000 -0.0000
vn -0.1579 -0.9853 0.0654
vn -0.1709 -0.9853 -0.0000
vn -0.1209 -0.9853 0.1209
vn -0.0654 -0.9853 0.1579
vn -0.0000 -0.9853 0.1709
vn 0.0654 -0.9853 0.1579
vn 0.1209 -0.9853 0.1209
vn 0.1579 -0.9853 0.0654
vn 0.1709 -0.9853 -0.0000
vn 0.1579 -0.9853 -0.0654
vn 0.1209 -0.9853 -0.1209
vn 0.0654 -0.9853 -0.1579
vn -0.0000 -0.9853 -0.1709
vn -0.0654 -0.9853 -0.1579
vn -0.1209 -0.9853 -0.1209
vn -0.1579 -0.9853 -0.0654
vn -0.4881 -0.8491 0.2022
vn -0.5283 -0.8491 -0.0000
vn -0.3736 -0.8491 0.3736
vn -0.2022 -0.8491 0.4881
vn -0.0000 -0.8491 0.5283
vn 0.2022 -0.8491 0.4881
vn 0.3736 -0.8491 0.3736
vn 0.4881 -0.8491 0.2022
vn 0.5283 -0.8491 -0.0000
vn 0.4881 -0.8491 -0.2022
vn 0.3736 -0.8491 -0.3736
vn 0.2022 -0.8491 -0.4881
vn -0.0000 -0.8491 -0.5283
vn -0.2022 -0.8491 -0.4881
vn -0.3736 -0.8491 -0.3736
vn -0.4881 -0.8491 -0.2022
vn -0.7778 -0.5396 0.3222
vn -0.8419 -0.5396 -0.0000
vn -0.5953 -0.5396 0.5953
vn -0.3222 -0.5396 0.7778
vn -0.0000 -0.5396 0.8419
vn 0.3222 -0.5396 0.7778
vn 0.5953 -0.5396 0.5953
vn 0.7778 -0.5396 0.3222
vn 0.8419 -0.5396 -0.0000
vn 0.7778 -0.5396 -0.3222
vn 0.5953 -0.5396 -0.5953
vn 0.3222 -0.5396 -0.7778
vn -0.0000 -0.5396 -0.8419
vn -0.3222 -0.5396 -0.7778
vn -0.5953 -0.5396 -0.5953
vn -0.7778 -0.5396 -0.3222
vn -0.9075 -0.1873 0.3759
vn -0.9823 -0.1873 -0.0000
vn -0.6946 -0.1873 0.6946
vn -0.3759 -0.1873 0.9075
vn -0.0000 -0.1873 0.9823
vn 0.3759 -0.1873 0.9075
vn 0.6946 -0.1873 0.6946
vn 0.9075 -0.1873 0.3759
vn 0.9823 -0.1873 -0.0000
vn 0.9075 -0.1873 -0.3759
vn 0.6946 -0.1873 -0.6946
vn 0.3759 -0.1873 -0.9075
vn -0.0000 -0.1873 -0.9823
vn -0.3759 -0.1873 -0.9075
vn -0.6946 -0.1873 -0.6946
vn -0.9075 -0.1873 -0.3759
vn -0.9212 0.0755 0.3816
vn -0.9971 0.0755 -0.0000
vn -0.7051 0.0755 0.7051
vn -0.3816 0.0755 0.9212
vn -0.0000 0.0755 0.9971
vn 0.3816 0.0755 0.9212
vn 0.7051 0.0755 0.7051
vn 0.9212 0.0755 0.3816
vn 0.9971 0.0755 -0.0000
vn 0.9212 0.0755 -0.3816
vn 0.7051 0.0755 -0.7051
vn 0.3816 0.0755 -0.9212
vn -0.0000 0.0755 -0.9971
vn -0.3816 0.0755 -0.9212
vn -0.7051 0.0755 -0.7051
vn -0.9212 0.0755 -0.3816
vn -0.9039 0.2070 0.3744
vn -0.9783 0.2070 -0.0000
vn -0.6918 0.2070 0.6918
vn -0.3744 0.2070 0.9039
vn -0.0000 0.2070 0.9783
vn 0.3744 0.2070 0.9039
vn 0.6918 0.2070 0.6918
vn 0.9039 0.2070 0.3744
vn 0.9783 0.2070 -0.0000
vn 0.9039 0.2070 -0.3744
vn 0.6918 0.2070 -0.6918
vn 0.3744 0.2070 -0.9039
vn -0.0000 0.2070 -0.9783
vn -0.3744 0.2070 -0.9039
vn -0.6918 0.2070 -0.6918
vn -0.9039 0.2070 -0.3744
vn -0.8809 0.3015 0.3649
vn -0.9535 0.3015 -0.0000
vn -0.6742 0.3015 0.6742
vn -0.3649 0.3015 0.8809
vn -0.0000 0.3015 0.9535
vn 0.3649 0.3015 0.8809
vn 0.6742 0.3015 0.6742
vn 0.8809 0.3015 0.3649
vn 0.9535 0.3015 -0.0000
vn 0.8809 0.3015 -0.3649
vn 0.6742 0.3015 -0.6742
vn 0.3649 0.3015 -0.8809
vn -0.0000 0.3015 -0.9535
vn -0.3649 0.3015 -0.8809
vn -0.6742 0.3015 -0.6742
vn -0.8809 0.3015 -0.3649
vn -0.8256 0.4488 0.3420
vn -0.8936 0.4488 -0.0000
vn -0.6319 0.4488 0.6319
vn -0.3420 0.4488 0.8256
vn -0.0000 0.4488 0.8936
vn 0.3420 0.4488 0.8256
vn 0.6319 0.4488 0.6319
vn 0.8256 0.4488 0.3420
vn 0.8936 0.4488 -0.0000
vn 0.8256 0.4488 -0.3420
vn 0.6319 0.4488 -0.6319
vn 0.3420 0.4488 -0.8256
vn -0.0000 0.4488 -0.8936
vn -0.3420 0.4488 -0.8256
vn -0.6319 0.4488 -0.6319
vn -0.8256 0.4488 -0.3420
vn -0.8766 -0.3159 0.3631
vn -0.9488 -0.3159 -0.0000
vn -0.6709 -0.3159 0.6709
vn -0.3631 -0.3159 0.8766
vn -0.0000 -0.3159 0.9488
vn 0.3631 -0.3159 0.8766
vn 0.6709 -0.3159 0.6709
vn 0.8766 -0.3159 0.3631
vn 0.9488 -0.3159 -0.0000
vn 0.8766 -0.3159 -0.3631
vn 0.6709 -0.3159 -0.6709
vn 0.3631 -0.3159 -0.8766
vn -0.0000 -0.3159 -0.9488
vn -0.3631 -0.3159 -0.8766
vn -0.6709 -0.3159 -0.6709
vn -0.8766 -0.3159 -0.3631
vn -0.5633 -0.7926 0.2333
vn -0.6097 -0.7926 -0.0000
vn -0.4311 -0.7926 0.4311
vn -0.2333 -0.7926 0.5633
vn -0.0000 -0.7926 0.6097
vn 0.2333 -0.7926 0.5633
vn 0.4311 -0.7926 0.4311
vn 0.5633 -0.7926 0.2333
vn 0.6097 -0.7926 -0.0000
vn 0.5633 -0.7926 -0.2333
vn 0.4311 -0.7926 -0.4311
vn 0.2333 -0.7926 -0.5633
vn -0.0000 -0.7926 -0.6097
vn -0.2333 -0.7926 -0.5633
vn -0.4311 -0.7926 -0.4311
vn -0.5633 -0.7926 -0.2333
vn -0.8573 -0.3726 0.3551
vn -0.9280 -0.3726 -0.0000
vn -0.6562 -0.3726 0.6562
vn -0.3551 -0.3726 0.8573
vn -0.0000 -0.3726 0.9280
vn 0.3551 -0.3726 0.8573
vn 0.6562 -0.3726 0.6562
vn 0.8573 -0.3726 0.3551
vn 0.9280 -0.3726 -0.0000
vn 0.8573 -0.3726 -0.3551
vn 0.6562 -0.3726 -0.6562
vn 0.3551 -0.3726 -0.8573
vn -0.0000 -0.3726 -0.9280
vn -0.3551 -0.3726 -0.8573
vn -0.6562 -0.3726 -0.6562
vn -0.8573 -0.3726 -0.3551
vn -0.9010 0.2210 0.3732
vn -0.9753 0.2210 -0.0000
vn -0.6896 0.2210 0.6896
vn -0.3732 0.2210 0.9010
vn -0.0000 0.2210 0.9753
vn 0.3732 0.2210 0.9010
vn 0.6896 0.2210 0.6896
vn 0.9010 0.2210 0.3732
vn 0.9753 0.2210 -0.0000
vn 0.9010 0.2210 -0.3732
vn 0.6896 0.2210 -0.6896
vn 0.3732 0.2210 -0.9010
vn -0.0000 0.2210 -0.9753
vn -0.3732 0.2210 -0.9010
vn -0.6896 0.2210 -0.6896
vn -0.9010 0.2210 -0.3732
vn -0.6996 0.6531 0.2898
vn -0.7573 0.6531 -0.0000
vn -0.5355 0.6531 0.5355
vn -0.2898 0.6531 0.6996
vn -0.0000 0.6531 0.7573
vn 0.2898 0.6531 0.6996
vn 0.5355 0.6531 0.5355
vn 0.6996 0.6531 0.2898
vn 0.7573 0.6531 -0.0000
vn 0.6996 0.6531 -0.2898
vn 0.5355 0.6531 -0.5355
vn 0.2898 0.6531 -0.6996
vn -0.0000 0.6531 -0.7573
vn -0.2898 0.6531 -0.6996
vn -0.5355 0.6531 -0.5355
vn -0.6996 0.6531 -0.2898
vn -0.3555 0.9230 0.1473
vn -0.3848 0.9230 -0.0000
vn -0.2721 0.9230 0.2721
vn -0.1473 0.9230 0.3555
vn -0.0000 0.9230 0.3848
vn 0.1473 0.9230 0.3555
vn 0.2721 0.9230 0.2721
vn 0.3555 0.9230 0.1473
vn 0.3848 0.9230 -0.0000
vn 0.3555 0.9230 -0.1473
vn 0.2721 0.9230 -0.2721
vn 0.1473 0.9230 -0.3555
vn -0.0000 0.9230 -0.3848
vn -0.1473 0.9230 -0.3555
vn -0.2721 0.9230 -0.2721
vn -0.3555 0.9230 -0.1473
vn 0.2428 0.9648 -0.1006
vn 0.2628 0.9648 -0.0000
vn 0.1859 0.9648 -0.1859
vn 0.1006 0.9648 -0.2428
vn -0.0000 0.9648 -0.2628
vn -0.1006 0.9648 -0.2428
vn -0.1859 0.9648 -0.1859
vn -0.2428 0.9648 -0.1006
vn -0.2628 0.9648 -0.0000
vn -0.2428 0.9648 0.1006
vn -0.1859 0.9648 0.1859
vn -0.1006 0.9648 0.2428
vn -0.0000 0.9648 0.2628
vn 0.1006 0.9648 0.2428
vn 0.1859 0.9648 0.1859
vn 0.2428 0.9648 0.1006
vn 0.7675 0.5567 -0.3179
vn 0.8307 0.5567 -0.0000
vn 0.5874 0.5567 -0.5874
vn 0.3179 0.5567 -0.7675
vn -0.0000 0.5567 -0.8307
vn -0.3179 0.5567 -0.7675
vn -0.5874 0.5567 -0.5874
vn -0.7675 0.5567 -0.3179
vn -0.8307 0.5567 -0.0000
vn -0.7675 0.5567 0.3179
vn -0.5874 0.5567 0.5874
vn -0.3179 0.5567 0.7675
vn -0.0000 0.5567 0.8307
vn 0.3179 0.5567 0.7675
vn 0.5874 0.5567 0.5874
vn 0.7675 0.5567 0.3179
vn 0.9231 0.0417 -0.3823
vn 0.9991 0.0417 -0.0000
vn 0.7065 0.0417 -0.7065
vn 0.3824 0.0417 -0.9231
vn -0.0000 0.0417 -0.9991
vn -0.3824 0.0417 -0.9231
vn -0.7065 0.0417 -0.7065
vn -0.9231 0.0417 -0.3824
vn -0.9991 0.0417 -0.0000
vn -0.9231 0.0417 0.3824
vn -0.7065 0.0417 0.7065
vn -0.3824 0.0417 0.9231
vn -0.0000 0.0417 0.9991
vn 0.3824 0.0417 0.9231
vn 0.7065 0.0417 0.7065
vn 0.9231 0.0417 0.3823
vn 0.7624 -0.5649 -0.3158
vn 0.8252 -0.5649 -0.0000
vn 0.5835 -0.5649 -0.5835
vn 0.3158 -0.5649 -0.7624
vn -0.0000 -0.5649 -0.8252
vn -0.3158 -0.5649 -0.7624
vn -0.5835 -0.5649 -0.5835
vn -0.7624 -0.5649 -0.3158
vn -0.8252 -0.5649 -0.0000
vn -0.7624 -0.5649 0.3158
vn -0.5835 -0.5649 0.5835
vn -0.3158 -0.5649 0.7624
vn -0.0000 -0.5649 0.8252
vn 0.3158 -0.5649 0.7624
vn 0.5835 -0.5649 0.5835
vn 0.7624 -0.5649 0.3158
vn 0.2925 -0.9486 -0.1211
vn 0.3166 -0.9486 -0.0000
vn 0.2238 -0.9486 -0.2238
vn 0.1211 -0.9486 -0.2925
vn -0.0000 -0.9486 -0.3166
vn -0.1211 -0.9486 -0.2925
vn -0.2238 -0.9486 -0.2238
vn -0.2925 -0.9486 -0.1211
vn -0.3166 -0.9486 -0.0000
vn -0.2925 -0.9486 0.1211
vn -0.2238 -0.9486 0.2238
vn -0.1211 -0.9486 0.2925
vn -0.0000 -0.9486 0.3166
vn 0.1211 -0.9486 0.2925
vn 0.2238 -0.9486 0.2238
vn 0.2925 -0.9486 0.1211
vn 0.2882 -0.9501 -0.1194
vn 0.3120 -0.9501 -0.0000
vn 0.2206 -0.9501 -0.2206
vn 0.1194 -0.9501 -0.2882
vn -0.0000 -0.9501 -0.3120
vn -0.1194 -0.9501 -0.2882
vn -0.2206 -0.9501 -0.2206
vn -0.2882 -0.9501 -0.1194
vn -0.3120 -0.9501 -0.0000
vn -0.2882 -0.9501 0.1194
vn -0.2206 -0.9501 0.2206
vn -0.1194 -0.9501 0.2882
vn -0.0000 -0.9501 0.3120
vn 0.1194 -0.9501 0.2882
vn 0.2206 -0.9501 0.2206
vn 0.2882 -0.9501 0.1194
vn 0.6181 -0.7433 -0.2560
vn 0.6690 -0.7433 -0.0000
vn 0.4730 -0.7433 -0.4730
vn 0.2560 -0.7433 -0.6181
vn -0.0000 -0.7433 -0.6690
vn -0.2560 -0.7433 -0.6181
vn -0.4730 -0.7433 -0.4730
vn -0.6181 -0.7433 -0.2560
vn -0.6690 -0.7433 -0.0000
vn -0.6181 -0.7433 0.2560
vn -0.4730 -0.7433 0.4730
vn -0.2560 -0.7433 0.6181
vn -0.0000 -0.7433 0.6690
vn 0.2560 -0.7433 0.6181
vn 0.4730 -0.7433 0.4730
vn 0.6181 -0.7433 0.2560
vn 0.8418 -0.4120 -0.3487
vn 0.9112 -0.4120 -0.0000
vn 0.6443 -0.4120 -0.6443
vn 0.3487 -0.4120 -0.8418
vn -0.0000 -0.4120 -0.9112
vn -0.3487 -0.4120 -0.8418
vn -0.6443 -0.4120 -0.6443
vn -0.8418 -0.4120 -0.3487
vn -0.9112 -0.4120 -0.0000
vn -0.8418 -0.4120 0.3487
vn -0.6443 -0.4120 0.6443
vn -0.3487 -0.4120 0.8418
vn -0.0000 -0.4120 0.9112
vn 0.3487 -0.4120 0.8418
vn 0.6443 -0.4120 0.6443
vn 0.8418 -0.4120 0.3487
vn 0.9181 -0.1116 -0.3803
vn 0.9938 -0.1116 -0.0000
vn 0.7027 -0.1116 -0.7027
vn 0.3803 -0.1116 -0.9181
vn -0.0000 -0.1116 -0.9938
vn -0.3803 -0.1116 -0.9181
vn -0.7027 -0.1116 -0.7027
vn -0.9181 -0.1116 -0.3803
vn -0.9938 -0.1116 -0.0000
vn -0.9181 -0.1116 0.3803
vn -0.7027 -0.1116 0.7027
vn -0.3803 -0.1116 0.9181
vn -0.0000 -0.1116 0.9938
vn 0.3803 -0.1116 0.9181
vn 0.7027 -0.1116 0.7027
vn 0.9181 -0.1116 0.3803
vn 0.8757 0.3188 -0.3627
vn 0.9478 0.3188 -0.0000
vn 0.6702 0.3188 -0.6702
vn 0.3627 0.3188 -0.8757
vn -0.0000 0.3188 -0.9478
vn -0.3627 0.3188 -0.8757
vn -0.6702 0.3188 -0.6702
vn -0.8757 0.3188 -0.3627
vn -0.9478 0.3188 -0.0000
vn -0.8757 0.3188 0.3627
vn -0.6702 0.3188 0.6702
vn -0.3627 0.3188 0.8757
vn -0.0000 0.3188 0.9478
vn 0.3627 0.3188 0.8757
vn 0.6702 0.3188 0.6702
vn 0.8757 0.3188 0.3627
vn 0.6789 0.6782 -0.2812
vn 0.7349 0.6782 -0.0000
vn 0.5196 0.6782 -0.5196
vn 0.2812 0.6782 -0.6789
vn -0.0000 0.6782 -0.7349
vn -0.2812 0.6782 -0.6789
vn -0.5196 0.6782 -0.5196
vn -0.6789 0.6782 -0.2812
vn -0.7349 0.6782 -0.0000
vn -0.6789 0.6782 0.2812
vn -0.5196 0.6782 0.5196
vn -0.2812 0.6782 0.6789
vn -0.0000 0.6782 0.7349
vn 0.2812 0.6782 0.6789
vn 0.5196 0.6782 0.5196
vn 0.6789 0.6782 0.2812
vn 0.5686 0.7882 -0.2355
vn 0.6154 0.7882 -0.0000
vn 0.4352 0.7882 -0.4352
vn 0.2355 0.7882 -0.5686
vn -0.0000 0.7882 -0.6154
vn -0.2355 0.7882 -0.5686
vn -0.4352 0.7882 -0.4352
vn -0.5686 0.7882 -0.2355
vn -0.6154 0.7882 -0.0000
vn -0.5686 0.7882 0.2355
vn -0.4352 0.7882 0.4352
vn -0.2355 0.7882 0.5686
vn -0.0000 0.7882 0.6154
vn 0.2355 0.7882 0.5686
vn 0.4352 0.7882 0.4352
vn 0.5686 0.7882 0.2355
vn 0.7598 0.5690 -0.3147
vn 0.8224 0.5690 -0.0000
vn 0.5815 0.5690 -0.5815
vn 0.3147 0.5690 -0.7598
vn -0.0000 0.5690 -0.8224
vn -0.3147 0.5690 -0.7598
vn -0.5815 0.5690 -0.5815
vn -0.7598 0.5690 -0.3147
vn -0.8224 0.5690 -0.0000
vn -0.7598 0.5690 0.3147
vn -0.5815 0.5690 0.5815
vn -0.3147 0.5690 0.7598
vn -0.0000 0.5690 0.8224
vn 0.3147 0.5690 0.7598
vn 0.5815 0.5690 0.5815
vn 0.7598 0.5690 0.3147
vn 0.9235 -0.0297 -0.3825
vn 0.9996 -0.0297 -0.0000
vn 0.7068 -0.0297 -0.7068
vn 0.3825 -0.0297 -0.9235
vn -0.0000 -0.0297 -0.9996
vn -0.3825 -0.0297 -0.9235
vn -0.7068 -0.0297 -0.7068
vn -0.9235 -0.0297 -0.3825
vn -0.9996 -0.0297 -0.0000
vn -0.9235 -0.0297 0.3825
vn -0.7068 -0.0297 0.7068
vn -0.3825 -0.0297 0.9235
vn -0.0000 -0.0297 0.9996
vn 0.3825 -0.0297 0.9235
vn 0.7068 -0.0297 0.7068
vn 0.9235 -0.0297 0.3825
vn 0.8993 -0.2290 -0.3725
vn 0.9734 -0.2290 -0.0000
vn 0.6883 -0.2290 -0.6883
vn 0.3725 -0.2290 -0.8993
vn -0.0000 -0.2290 -0.9734
vn -0.3725 -0.2290 -0.8993
vn -0.6883 -0.2290 -0.6883
vn -0.8993 -0.2290 -0.3725
vn -0.9734 -0.2290 -0.0000
vn -0.8993 -0.2290 0.3725
vn -0.6883 -0.2290 0.6883
vn -0.3725 -0.2290 0.8993
vn -0.0000 -0.2290 0.9734
vn 0.3725 -0.2290 0.8993
vn 0.6883 -0.2290 0.6883
vn 0.8993 -0.2290 0.3725
vn 0.9170 -0.1215 -0.3799
vn 0.9926 -0.1215 -0.0000
vn 0.7019 -0.1215 -0.7019
vn 0.3799 -0.1215 -0.9170
vn -0.0000 -0.1215 -0.9926
vn -0.3799 -0.1215 -0.9170
vn -0.7019 -0.1215 -0.7019
vn -0.9170 -0.1215 -0.3799
vn -0.9926 -0.1215 -0.0000
vn -0.9170 -0.1215 0.3799
vn -0.7019 -0.1215 0.7019
vn -0.3799 -0.1215 0.9170
vn -0.0000 -0.1215 0.9926
vn 0.3799 -0.1215 0.9170
vn 0.7019 -0.1215 0.7019
vn 0.9170 -0.1215 0.3799
vn 0.9107 0.1682 -0.3772
vn 0.9858 0.1682 -0.0000
vn 0.6970 0.1682 -0.6970
vn 0.3772 0.1682 -0.9107
vn -0.0000 0.1682 -0.9858
vn -0.3772 0.1682 -0.9107
vn -0.6970 0.1682 -0.6970
vn -0.9107 0.1682 -0.3772
vn -0.9858 0.1682 -0.0000
vn -0.9107 0.1682 0.3772
vn -0.6970 0.1682 0.6970
vn -0.3772 0.1682 0.9107
vn -0.0000 0.1682 0.9858
vn 0.3772 0.1682 0.9107
vn 0.6970 0.1682 0.6970
vn 0.9107 0.1682 0.3772
vn 0.7822 0.5322 -0.3240
vn 0.8466 0.5322 -0.0000
vn 0.5986 0.5322 -0.5986
vn 0.3240 0.5322 -0.7822
vn -0.0000 0.5322 -0.8466
vn -0.3240 0.5322 -0.7822
vn -0.5986 0.5322 -0.5986
vn -0.7822 0.5322 -0.3240
vn -0.8466 0.5322 -0.0000
vn -0.7822 0.5322 0.3240
vn -0.5986 0.5322 0.5986
vn -0.3240 0.5322 0.7822
vn -0.0000 0.5322 0.8466
vn 0.3240 0.5322 0.7822
vn 0.5986 0.5322 0.5986
vn 0.7822 0.5322 0.3240
vn 0.4816 0.8534 -0.1995
vn 0.5212 0.8534 -0.0000
vn 0.3686 0.8534 -0.3686
vn 0.1995 0.8534 -0.4816
vn -0.0000 0.8534 -0.5212
vn -0.1995 0.8534 -0.4816
vn -0.3686 0.8534 -0.3686
vn -0.4816 0.8534 -0.1995
vn -0.5212 0.8534 -0.0000
vn -0.4816 0.8534 0.1995
vn -0.3686 0.8534 0.3686
vn -0.1995 0.8534 0.4816
vn -0.0000 0.8534 0.5212
vn 0.1995 0.8534 0.4816
vn 0.3686 0.8534 0.3686
vn 0.4816 0.8534 0.1995
vn 0.1525 0.9863 -0.0632
vn 0.1651 0.9863 -0.0000
vn 0.1167 0.9863 -0.1167
vn 0.0632 0.9863 -0.1525
vn -0.0000 0.9863 -0.1651
vn -0.0632 0.9863 -0.1525
vn -0.1167 0.9863 -0.1167
vn -0.1525 0.9863 -0.0632
vn -0.1651 0.9863 -0.0000
vn -0.1525 0.9863 0.0632
vn -0.1167 0.9863 0.1167
vn -0.0632 0.9863 0.1525
vn -0.0000 0.9863 0.1651
vn 0.0632 0.9863 0.1525
vn 0.1167 0.9863 0.1167
vn 0.1525 0.9863 0.0632
vn -0.0000 1.0000 -0.0000
vn 1.0000 -0.0012 -0.0000
vn 0.9239 -0.0012 -0.3827
vn 0.7071 -0.0012 -0.7071
vn 0.3827 -0.0012 -0.9239
vn -0.0000 -0.0012 -1.0000
vn -0.3827 -0.0012 -0.9239
vn -0.7071 -0.0012 -0.7071
vn -0.9239 -0.0012 -0.3827
vn -1.0000 -0.0012 -0.0000
vn -0.9239 -0.0012 0.3827
vn -0.7071 -0.0012 0.7071
vn -0.3827 -0.0012 0.9239
vn -0.0000 -0.0012 1.0000
vn 0.3827 -0.0012 0.9239
vn 0.7071 -0.0012 0.7071
vn 0.9239 -0.0012 0.3827
vn -0.9530 0.2644 -0.1482
vn 0.1428 -0.0396 -0.9890
vn -0.2674 -0.9636 -0.0000
vn 0.1475 -0.0409 0.9882
vn 0.2674 0.9636 -0.0000
vn 0.9263 -0.2570 0.2756
vn 0.9296 -0.2579 -0.2631
vn -0.9522 0.2642 0.1531
vn -0.9163 0.2542 0.3094
vn -0.9105 0.2526 -0.3273
vn 0.9522 -0.2642 -0.1531
vn 0.9530 -0.2644 0.1482
vn -0.1475 0.0409 -0.9882
vn -0.1428 0.0396 0.9890
vn 0.9530 0.2644 -0.1482
vn -0.1428 -0.0396 -0.9890
vn 0.2674 -0.9636 -0.0000
vn -0.1475 -0.0409 0.9882
vn -0.2674 0.9636 -0.0000
vn -0.9263 -0.2570 0.2756
vn -0.9296 -0.2579 -0.2631
vn 0.9522 0.2642 0.1531
vn 0.9163 0.2542 0.3094
vn 0.9105 0.2526 -0.3273
vn -0.9522 -0.2642 -0.1531
vn -0.9530 -0.2644 0.1482
vn 0.1475 0.0409 -0.9882
vn 0.1428 0.0396 0.9890
vt 0.000000 0.000000
vt 0.062500 0.000000
vt 0.125000 0.000000
vt 0.187500 0.000000
vt 0.250000 0.000000
vt 0.312500 0.000000
vt 0.375000 0.000000
vt 0.437500 0.000000
vt 0.500000 0.000000
vt 0.562500 0.000000
vt 0.625000 0.000000
vt 0.687500 0.000000
vt 0.750000 0.000000
vt 0.812500 0.000000
vt 0.875000 0.000000
vt 0.937500 0.000000
vt 1.000000 0.000000
vt 0.062500 0.014520
vt 0.000000 0.014520
vt 0.125000 0.014520
vt 0.187500 0.014520
vt 0.250000 0.014520
vt 0.312500 0.014520
vt 0.375000 0.014520
vt 0.437500 0.014520
vt 0.500000 0.014520
vt 0.562500 0.014520
vt 0.625000 0.014520
vt 0.687500 0.014520
vt 0.750000 0.014520
vt 0.812500 0.014520
vt 0.875000 0.014520
vt 0.937500 0.014520
vt 1.000000 0.014520
vt 0.062500 0.049443
vt 0.000000 0.049443
vt 0.125000 0.049443
vt 0.187500 0.049443
vt 0.250000 0.049443
vt 0.312500 0.049443
vt 0.375000 0.049443
vt 0.437500 0.049443
vt 0.500000 0.049443
vt 0.562500 0.049443
vt 0.625000 0.049443
vt 0.687500 0.049443
vt 0.750000 0.049443
vt 0.812500 0.049443
vt 0.875000 0.049443
vt 0.937500 0.049443
vt 1.000000 0.049443
vt 0.062500 0.108259
vt 0.000000 0.108259
vt 0.125000 0.108259
vt 0.187500 0.108259
vt 0.250000 0.108259
vt 0.312500 0.108259
vt 0.375000 0.108259
vt 0.437500 0.108259
vt 0.500000 0.108259
vt 0.562500 0.108259
vt 0.625000 0.108259
vt 0.687500 0.108259
vt 0.750000 0.108259
vt 0.812500 0.108259
vt 0.875000 0.108259
vt 0.937500 0.108259
vt 1.000000 0.108259
vt 0.062500 0.179941
vt 0.000000 0.179941
vt 0.125000 0.179941
vt 0.187500 0.179941
vt 0.250000 0.179941
vt 0.312500 0.179941
vt 0.375000 0.179941
vt 0.437500 0.179941
vt 0.500000 0.179941
vt 0.562500 0.179941
vt 0.625000 0.179941
vt 0.687500 0.179941
vt 0.750000 0.179941
vt 0.812500 0.179941
vt 0.875000 0.179941
vt 0.937500 0.179941
vt 1.000000 0.179941
vt 0.062500 0.236920
vt 0.000000 0.236920
vt 0.125000 0.236920
vt 0.187500 0.236920
vt 0.250000 0.236920
vt 0.312500 0.236920
vt 0.375000 0.236920
vt 0.437500 0.236920
vt 0.500000 0.236920
vt 0.562500 0.236920
vt 0.625000 0.236920
vt 0.687500 0.236920
vt 0.750000 0.236920
vt 0.812500 0.236920
vt 0.875000 0.236920
vt 0.937500 0.236920
vt 1.000000 0.236920
vt 0.062500 0.304558
vt 0.000000 0.304558
vt 0.125000 0.304558
vt 0.187500 0.304558
vt 0.250000 0.304558
vt 0.312500 0.304558
vt 0.375000 0.304558
vt 0.437500 0.304558
vt 0.500000 0.304558
vt 0.562500 0.304558
vt 0.625000 0.304558
vt 0.687500 0.304558
vt 0.750000 0.304558
vt 0.812500 0.304558
vt 0.875000 0.304558
vt 0.937500 0.304558
vt 1.000000 0.304558
vt 0.062500 0.402708
vt 0.000000 0.402708
vt 0.125000 0.402708
vt 0.187500 0.402708
vt 0.250000 0.402708
vt 0.312500 0.402708
vt 0.375000 0.402708
vt 0.437500 0.402708
vt 0.500000 0.402708
vt 0.562500 0.402708
vt 0.625000 0.402708
vt 0.687500 0.402708
vt 0.750000 0.402708
vt 0.812500 0.402708
vt 0.875000 0.402708
vt 0.937500 0.402708
vt 1.000000 0.402708
vt 0.062500 0.534334
vt 0.000000 0.534334
vt 0.125000 0.534334
vt 0.187500 0.534334
vt 0.250000 0.534334
vt 0.312500 0.534334
vt 0.375000 0.534334
vt 0.437500 0.534334
vt 0.500000 0.534334
vt 0.562500 0.534334
vt 0.625000 0.534334
vt 0.687500 0.534334
vt 0.750000 0.534334
vt 0.812500 0.534334
vt 0.875000 0.534334
vt 0.937500 0.534334
vt 1.000000 0.534334
vt 0.062500 0.543524
vt 0.000000 0.543524
vt 0.125000 0.543524
vt 0.187500 0.543524
vt 0.250000 0.543524
vt 0.312500 0.543524
vt 0.375000 0.543524
vt 0.437500 0.543524
vt 0.500000 0.543524
vt 0.562500 0.543524
vt 0.625000 0.543524
vt 0.687500 0.543524
vt 0.750000 0.543524
vt 0.812500 0.543524
vt 0.875000 0.543524
vt 0.937500 0.543524
vt 1.000000 0.543524
vt 0.062500 0.560066
vt 0.000000 0.560066
vt 0.125000 0.560066
vt 0.187500 0.560066
vt 0.250000 0.560066
vt 0.312500 0.560066
vt 0.375000 0.560066
vt 0.437500 0.560066
vt 0.500000 0.560066
vt 0.562500 0.560066
vt 0.625000 0.560066
vt 0.687500 0.560066
vt 0.750000 0.560066
vt 0.812500 0.560066
vt 0.875000 0.560066
vt 0.937500 0.560066
vt 1.000000 0.560066
vt 0.062500 0.587636
vt 0.000000 0.587636
vt 0.125000 0.587636
vt 0.187500 0.587636
vt 0.250000 0.587636
vt 0.312500 0.587636
vt 0.375000 0.587636
vt 0.437500 0.587636
vt 0.500000 0.587636
vt 0.562500 0.587636
vt 0.625000 0.587636
vt 0.687500 0.587636
vt 0.750000 0.587636
vt 0.812500 0.587636
vt 0.875000 0.587636
vt 0.937500 0.587636
vt 1.000000 0.587636
vt 0.062500 0.609693
vt 0.000000 0.609693
vt 0.125000 0.609693
vt 0.187500 0.609693
vt 0.250000 0.609693
vt 0.312500 0.609693
vt 0.375000 0.609693
vt 0.437500 0.609693
vt 0.500000 0.609693
vt 0.562500 0.609693
vt 0.625000 0.609693
vt 0.687500 0.609693
vt 0.750000 0.609693
vt 0.812500 0.609693
vt 0.875000 0.609693
vt 0.937500 0.609693
vt 1.000000 0.609693
vt 0.062500 0.620721
vt 0.000000 0.620721
vt 0.125000 0.620721
vt 0.187500 0.620721
vt 0.250000 0.620721
vt 0.312500 0.620721
vt 0.375000 0.620721
vt 0.437500 0.620721
vt 0.500000 0.620721
vt 0.562500 0.620721
vt 0.625000 0.620721
vt 0.687500 0.620721
vt 0.750000 0.620721
vt 0.812500 0.620721
vt 0.875000 0.620721
vt 0.937500 0.620721
vt 1.000000 0.620721
vt 0.062500 0.622559
vt 0.000000 0.622559
vt 0.125000 0.622559
vt 0.187500 0.622559
vt 0.250000 0.622559
vt 0.312500 0.622559
vt 0.375000 0.622559
vt 0.437500 0.622559
vt 0.500000 0.622559
vt 0.562500 0.622559
vt 0.625000 0.622559
vt 0.687500 0.622559
vt 0.750000 0.622559
vt 0.812500 0.622559
vt 0.875000 0.622559
vt 0.937500 0.622559
vt 1.000000 0.622559
vt 0.062500 0.618127
vt 0.000000 0.618127
vt 0.125000 0.618127
vt 0.187500 0.618127
vt 0.250000 0.618127
vt 0.312500 0.618127
vt 0.375000 0.618127
vt 0.437500 0.618127
vt 0.500000 0.618127
vt 0.562500 0.618127
vt 0.625000 0.618127
vt 0.687500 0.618127
vt 0.750000 0.618127
vt 0.812500 0.618127
vt 0.875000 0.618127
vt 0.937500 0.618127
vt 1.000000 0.618127
vt 0.062500 0.612956
vt 0.000000 0.612956
vt 0.125000 0.612956
vt 0.187500 0.612956
vt 0.250000 0.612956
vt 0.312500 0.612956
vt 0.375000 0.612956
vt 0.437500 0.612956
vt 0.500000 0.612956
vt 0.562500 0.612956
vt 0.625000 0.612956
vt 0.687500 0.612956
vt 0.750000 0.612956
vt 0.812500 0.612956
vt 0.875000 0.612956
vt 0.937500 0.612956
vt 1.000000 0.612956
vt 0.062500 0.609263
vt 0.000000 0.609263
vt 0.125000 0.609263
vt 0.187500 0.609263
vt 0.250000 0.609263
vt 0.312500 0.609263
vt 0.375000 0.609263
vt 0.437500 0.609263
vt 0.500000 0.609263
vt 0.562500 0.609263
vt 0.625000 0.609263
vt 0.687500 0.609263
vt 0.750000 0.609263
vt 0.812500 0.609263
vt 0.875000 0.609263
vt 0.937500 0.609263
vt 1.000000 0.609263
vt 0.062500 0.605570
vt 0.000000 0.605570
vt 0.125000 0.605570
vt 0.187500 0.605570
vt 0.250000 0.605570
vt 0.312500 0.605570
vt 0.375000 0.605570
vt 0.437500 0.605570
vt 0.500000 0.605570
vt 0.562500 0.605570
vt 0.625000 0.605570
vt 0.687500 0.605570
vt 0.750000 0.605570
vt 0.812500 0.605570
vt 0.875000 0.605570
vt 0.937500 0.605570
vt 1.000000 0.605570
vt 0.062500 0.604092
vt 0.000000 0.604092
vt 0.125000 0.604092
vt 0.187500 0.604092
vt 0.250000 0.604092
vt 0.312500 0.604092
vt 0.375000 0.604092
vt 0.437500 0.604092
vt 0.500000 0.604092
vt 0.562500 0.604092
vt 0.625000 0.604092
vt 0.687500 0.604092
vt 0.750000 0.604092
vt 0.812500 0.604092
vt 0.875000 0.604092
vt 0.937500 0.604092
vt 1.000000 0.604092
vt 0.062500 0.599660
vt 0.000000 0.599660
vt 0.125000 0.599660
vt 0.187500 0.599660
vt 0.250000 0.599660
vt 0.312500 0.599660
vt 0.375000 0.599660
vt 0.437500 0.599660
vt 0.500000 0.599660
vt 0.562500 0.599660
vt 0.625000 0.599660
vt 0.687500 0.599660
vt 0.750000 0.599660
vt 0.812500 0.599660
vt 0.875000 0.599660
vt 0.937500 0.599660
vt 1.000000 0.599660
vt 0.062500 0.590796
vt 0.000000 0.590796
vt 0.125000 0.590796
vt 0.187500 0.590796
vt 0.250000 0.590796
vt 0.312500 0.590796
vt 0.375000 0.590796
vt 0.437500 0.590796
vt 0.500000 0.590796
vt 0.562500 0.590796
vt 0.625000 0.590796
vt 0.687500 0.590796
vt 0.750000 0.590796
vt 0.812500 0.590796
vt 0.875000 0.590796
vt 0.937500 0.590796
vt 1.000000 0.590796
vt 0.062500 0.581194
vt 0.000000 0.581194
vt 0.125000 0.581194
vt 0.187500 0.581194
vt 0.250000 0.581194
vt 0.312500 0.581194
vt 0.375000 0.581194
vt 0.437500 0.581194
vt 0.500000 0.581194
vt 0.562500 0.581194
vt 0.625000 0.581194
vt 0.687500 0.581194
vt 0.750000 0.581194
vt 0.812500 0.581194
vt 0.875000 0.581194
vt 0.937500 0.581194
vt 1.000000 0.581194
vt 0.062500 0.566421
vt 0.000000 0.566421
vt 0.125000 0.566421
vt 0.187500 0.566421
vt 0.250000 0.566421
vt 0.312500 0.566421
vt 0.375000 0.566421
vt 0.437500 0.566421
vt 0.500000 0.566421
vt 0.562500 0.566421
vt 0.625000 0.566421
vt 0.687500 0.566421
vt 0.750000 0.566421
vt 0.812500 0.566421
vt 0.875000 0.566421
vt 0.937500 0.566421
vt 1.000000 0.566421
vt 0.062500 0.559034
vt 0.000000 0.559034
vt 0.125000 0.559034
vt 0.187500 0.559034
vt 0.250000 0.559034
vt 0.312500 0.559034
vt 0.375000 0.559034
vt 0.437500 0.559034
vt 0.500000 0.559034
vt 0.562500 0.559034
vt 0.625000 0.559034
vt 0.687500 0.559034
vt 0.750000 0.559034
vt 0.812500 0.559034
vt 0.875000 0.559034
vt 0.937500 0.559034
vt 1.000000 0.559034
vt 0.062500 0.550909
vt 0.000000 0.550909
vt 0.125000 0.550909
vt 0.187500 0.550909
vt 0.250000 0.550909
vt 0.312500 0.550909
vt 0.375000 0.550909
vt 0.437500 0.550909
vt 0.500000 0.550909
vt 0.562500 0.550909
vt 0.625000 0.550909
vt 0.687500 0.550909
vt 0.750000 0.550909
vt 0.812500 0.550909
vt 0.875000 0.550909
vt 0.937500 0.550909
vt 1.000000 0.550909
vt 0.062500 0.535397
vt 0.000000 0.535397
vt 0.125000 0.535397
vt 0.187500 0.535397
vt 0.250000 0.535397
vt 0.312500 0.535397
vt 0.375000 0.535397
vt 0.437500 0.535397
vt 0.500000 0.535397
vt 0.562500 0.535397
vt 0.625000 0.535397
vt 0.687500 0.535397
vt 0.750000 0.535397
vt 0.812500 0.535397
vt 0.875000 0.535397
vt 0.937500 0.535397
vt 1.000000 0.535397
vt 0.062500 0.373771
vt 0.000000 0.373771
vt 0.125000 0.373771
vt 0.187500 0.373771
vt 0.250000 0.373771
vt 0.312500 0.373771
vt 0.375000 0.373771
vt 0.437500 0.373771
vt 0.500000 0.373771
vt 0.562500 0.373771
vt 0.625000 0.373771
vt 0.687500 0.373771
vt 0.750000 0.373771
vt 0.812500 0.373771
vt 0.875000 0.373771
vt 0.937500 0.373771
vt 1.000000 0.373771
vt 0.062500 0.263294
vt 0.000000 0.263294
vt 0.125000 0.263294
vt 0.187500 0.263294
vt 0.250000 0.263294
vt 0.312500 0.263294
vt 0.375000 0.263294
vt 0.437500 0.263294
vt 0.500000 0.263294
vt 0.562500 0.263294
vt 0.625000 0.263294
vt 0.687500 0.263294
vt 0.750000 0.263294
vt 0.812500 0.263294
vt 0.875000 0.263294
vt 0.937500 0.263294
vt 1.000000 0.263294
vt 0.062500 0.201247
vt 0.000000 0.201247
vt 0.125000 0.201247
vt 0.187500 0.201247
vt 0.250000 0.201247
vt 0.312500 0.201247
vt 0.375000 0.201247
vt 0.437500 0.201247
vt 0.500000 0.201247
vt 0.562500 0.201247
vt 0.625000 0.201247
vt 0.687500 0.201247
vt 0.750000 0.201247
vt 0.812500 0.201247
vt 0.875000 0.201247
vt 0.937500 0.201247
vt 1.000000 0.201247
vt 0.062500 0.116302
vt 0.000000 0.116302
vt 0.125000 0.116302
vt 0.187500 0.116302
vt 0.250000 0.116302
vt 0.312500 0.116302
vt 0.375000 0.116302
vt 0.437500 0.116302
vt 0.500000 0.116302
vt 0.562500 0.116302
vt 0.625000 0.116302
vt 0.687500 0.116302
vt 0.750000 0.116302
vt 0.812500 0.116302
vt 0.875000 0.116302
vt 0.937500 0.116302
vt 1.000000 0.116302
vt 0.062500 0.069766
vt 0.000000 0.069766
vt 0.125000 0.069766
vt 0.187500 0.069766
vt 0.250000 0.069766
vt 0.312500 0.069766
vt 0.375000 0.069766
vt 0.437500 0.069766
vt 0.500000 0.069766
vt 0.562500 0.069766
vt 0.625000 0.069766
vt 0.687500 0.069766
vt 0.750000 0.069766
vt 0.812500 0.069766
vt 0.875000 0.069766
vt 0.937500 0.069766
vt 1.000000 0.069766
vt 0.062500 0.025447
vt 0.000000 0.025447
vt 0.125000 0.025447
vt 0.187500 0.025447
vt 0.250000 0.025447
vt 0.312500 0.025447
vt 0.375000 0.025447
vt 0.437500 0.025447
vt 0.500000 0.025447
vt 0.562500 0.025447
vt 0.625000 0.025447
vt 0.687500 0.025447
vt 0.750000 0.025447
vt 0.812500 0.025447
vt 0.875000 0.025447
vt 0.937500 0.025447
vt 1.000000 0.025447
vt 0.062500 0.020277
vt 0.000000 0.020277
vt 0.125000 0.020277
vt 0.187500 0.020277
vt 0.250000 0.020277
vt 0.312500 0.020277
vt 0.375000 0.020277
vt 0.437500 0.020277
vt 0.500000 0.020277
vt 0.562500 0.020277
vt 0.625000 0.020277
vt 0.687500 0.020277
vt 0.750000 0.020277
vt 0.812500 0.020277
vt 0.875000 0.020277
vt 0.937500 0.020277
vt 1.000000 0.020277
vt 0.375000 0.187500
vt 0.625000 0.187500
vt 0.625000 0.250000
vt 0.375000 0.250000
vt 0.625000 0.500000
vt 0.375000 0.500000
vt 0.375000 0.750000
vt 0.375000 0.687500
vt 0.625000 0.750000
vt 0.625000 1.000000
vt 0.375000 1.000000
vt 0.125000 0.687500
vt 0.125000 0.750000
vt 0.625000 0.687500
vt 0.875000 0.687500
vt 0.875000 0.750000
vt 0.875000 0.500000
vt 0.875000 0.562500
vt 0.625000 0.562500
vt 0.875000 0.625000
vt 0.625000 0.625000
vt 0.125000 0.500000
vt 0.375000 0.562500
vt 0.125000 0.562500
vt 0.375000 0.625000
vt 0.125000 0.625000
vt 0.625000 0.062500
vt 0.375000 0.062500
vt 0.625000 0.125000
vt 0.375000 0.125000
s 1
usemtl Kessel_Metall_Kupfer
f 1/1/1 37/2/1 38/2/2 2/1/3
f 37/2/1 73/3/1 74/3/4 38/2/2
f 73/3/1 109/4/1 110/4/5 74/3/4
f 109/4/1 145/5/1 146/5/6 110/4/5
f 145/5/1 181/6/1 182/6/7 146/5/6
f 181/6/1 217/7/1 218/7/8 182/6/7
f 217/7/1 253/8/1 254/8/9 218/7/8
f 253/8/1 289/9/1 290/9/10 254/8/9
f 289/9/1 325/10/1 326/10/11 290/9/10
f 325/10/1 361/11/1 362/11/12 326/10/11
f 361/11/1 397/12/1 398/12/13 362/11/12
f 397/12/1 433/13/1 434/13/14 398/12/13
f 433/13/1 469/14/1 470/14/15 434/13/14
f 469/14/1 505/15/1 506/15/16 470/14/15
f 505/15/1 541/16/1 542/16/17 506/15/16
f 541/16/1 1/17/1 2/17/3 542/16/17
f 2/1/3 38/2/2 39/18/18 3/19/19
f 38/2/2 74/3/4 75/20/20 39/18/18
f 74/3/4 110/4/5 111/21/21 75/20/20
f 110/4/5 146/5/6 147/22/22 111/21/21
f 146/5/6 182/6/7 183/23/23 147/22/22
f 182/6/7 218/7/8 219/24/24 183/23/23
f 218/7/8 254/8/9 255/25/25 219/24/24
f 254/8/9 290/9/10 291/26/26 255/25/25
f 290/9/10 326/10/11 327/27/27 291/26/26
f 326/10/11 362/11/12 363/28/28 327/27/27
f 362/11/12 398/12/13 399/29/29 363/28/28
f 398/12/13 434/13/14 435/30/30 399/29/29
f 434/13/14 470/14/15 471/31/31 435/30/30
f 470/14/15 506/15/16 507/32/32 471/31/31
f 506/15/16 542/16/17 543/33/33 507/32/32
f 542/16/17 2/17/3 3/34/19 543/33/33
f 3/19/19 39/18/18 40/35/34 4/36/35
f 39/18/18 75/20/20 76/37/36 40/35/34
f 75/20/20 111/21/21 112/38/37 76/37/36
f 111/21/21 147/22/22 148/39/38 112/38/37
f 147/22/22 183/23/23 184/40/39 148/39/38
f 183/23/23 219/24/24 220/41/40 184/40/39
f 219/24/24 255/25/25 256/42/41 220/41/40
f 255/25/25 291/26/26 292/43/42 256/42/41
f 291/26/26 327/27/27 328/44/43 292/43/42
f 327/27/27 363/28/28 364/45/44 328/44/43
f 363/28/28 399/29/29 400/46/45 364/45/44
f 399/29/29 435/30/30 436/47/46 400/46/45
f 435/30/30 471/31/31 472/48/47 436/47/46
f 471/31/31 507/32/32 508/49/48 472/48/47
f 507/32/32 543/33/33 544/50/49 508/49/48
f 543/33/33 3/34/19 4/51/35 544/50/49
f 4/36/35 40/35/34 41/52/50 5/53/51
f 40/35/34 76/37/36 77/54/52 41/52/50
f 76/37/36 112/38/37 113/55/53 77/54/52
f 112/38/37 148/39/38 149/56/54 113/55/53
f 148/39/38 184/40/39 185/57/55 149/56/54
f 184/40/39 220/41/40 221/58/56 185/57/55
f 220/41/40 256/42/41 257/59/57 221/58/56
f 256/42/41 292/43/42 293/60/58 257/59/57
f 292/43/42 328/44/43 329/61/59 293/60/58
f 328/44/43 364/45/44 365/62/60 329/61/59
f 364/45/44 400/46/45 401/63/61 365/62/60
f 400/46/45 436/47/46 437/64/62 401/63/61
f 436/47/46 472/48/47 473/65/63 437/64/62
f 472/48/47 508/49/48 509/66/64 473/65/63
f 508/49/48 544/50/49 545/67/65 509/66/64
f 544/50/49 4/51/35 5/68/51 545/67/65
f 5/53/51 41/52/50 42/69/66 6/70/67
f 41/52/50 77/54/52 78/71/68 42/69/66
f 77/54/52 113/55/53 114/72/69 78/71/68
f 113/55/53 149/56/54 150/73/70 114/72/69
f 149/56/54 185/57/55 186/74/71 150/73/70
f 185/57/55 221/58/56 222/75/72 186/74/71
f 221/58/56 257/59/57 258/76/73 222/75/72
f 257/59/57 293/60/58 294/77/74 258/76/73
f 293/60/58 329/61/59 330/78/75 294/77/74
f 329/61/59 365/62/60 366/79/76 330/78/75
f 365/62/60 401/63/61 402/80/77 366/79/76
f 401/63/61 437/64/62 438/81/78 402/80/77
f 437/64/62 473/65/63 474/82/79 438/81/78
f 473/65/63 509/66/64 510/83/80 474/82/79
f 509/66/64 545/67/65 546/84/81 510/83/80
f 545/67/65 5/68/51 6/85/67 546/84/81
f 6/70/67 42/69/66 43/86/82 7/87/83
f 42/69/66 78/71/68 79/88/84 43/86/82
f 78/71/68 114/72/69 115/89/85 79/88/84
f 114/72/69 150/73/70 151/90/86 115/89/85
f 150/73/70 186/74/71 187/91/87 151/90/86
f 186/74/71 222/75/72 223/92/88 187/91/87
f 222/75/72 258/76/73 259/93/89 223/92/88
f 258/76/73 294/77/74 295/94/90 259/93/89
f 294/77/74 330/78/75 331/95/91 295/94/90
f 330/78/75 366/79/76 367/96/92 331/95/91
f 366/79/76 402/80/77 403/97/93 367/96/92
f 402/80/77 438/81/78 439/98/94 403/97/93
f 438/81/78 474/82/79 475/99/95 439/98/94
f 474/82/79 510/83/80 511/100/96 475/99/95
f 510/83/80 546/84/81 547/101/97 511/100/96
f 546/84/81 6/85/67 7/102/83 547/101/97
f 7/87/83 43/86/82 44/103/98 8/104/99
f 43/86/82 79/88/84 80/105/100 44/103/98
f 79/88/84 115/89/85 116/106/101 80/105/100
f 115/89/85 151/90/86 152/107/102 116/106/101
f 151/90/86 187/91/87 188/108/103 152/107/102
f 187/91/87 223/92/88 224/109/104 188/108/103
f 223/92/88 259/93/89 260/110/105 224/109/104
f 259/93/89 295/94/90 296/111/106 260/110/105
f 295/94/90 331/95/91 332/112/107 296/111/106
f 331/95/91 367/96/92 368/113/108 332/112/107
f 367/96/92 403/97/93 404/114/109 368/113/108
f 403/97/93 439/98/94 440/115/110 404/114/109
f 439/98/94 475/99/95 476/116/111 440/115/110
f 475/99/95 511/100/96 512/117/112 476/116/111
f 511/100/96 547/101/97 548/118/113 512/117/112
f 547/101/97 7/102/83 8/119/99 548/118/113
f 8/104/99 44/103/98 45/120/114 9/121/115
f 44/103/98 80/105/100 81/122/116 45/120/114
f 80/105/100 116/106/101 117/123/117 81/122/116
f 116/106/101 152/107/102 153/124/118 117/123/117
f 152/107/102 188/108/103 189/125/119 153/124/118
f 188/108/103 224/109/104 225/126/120 189/125/119
f 224/109/104 260/110/105 261/127/121 225/126/120
f 260/110/105 296/111/106 297/128/122 261/127/121
f 296/111/106 332/112/107 333/129/123 297/128/122
f 332/112/107 368/113/108 369/130/124 333/129/123
f 368/113/108 404/114/109 405/131/125 369/130/124
f 404/114/109 440/115/110 441/132/126 405/131/125
f 440/115/110 476/116/111 477/133/127 441/132/126
f 476/116/111 512/117/112 513/134/128 477/133/127
f 512/117/112 548/118/113 549/135/129 513/134/128
f 548/118/113 8/119/99 9/136/115 549/135/129
f 9/121/115 45/120/114 46/137/130 10/138/131
f 45/120/114 81/122/116 82/139/132 46/137/130
f 81/122/116 117/123/117 118/140/133 82/139/132
f 117/123/117 153/124/118 154/141/134 118/140/133
f 153/124/118 189/125/119 190/142/135 154/141/134
f 189/125/119 225/126/120 226/143/136 190/142/135
f 225/126/120 261/127/121 262/144/137 226/143/136
f 261/127/121 297/128/122 298/145/138 262/144/137
f 297/128/122 333/129/123 334/146/139 298/145/138
f 333/129/123 369/130/124 370/147/140 334/146/139
f 369/130/124 405/131/125 406/148/141 370/147/140
f 405/131/125 441/132/126 442/149/142 406/148/141
f 441/132/126 477/133/127 478/150/143 442/149/142
f 477/133/127 513/134/128 514/151/144 478/150/143
f 513/134/128 549/135/129 550/152/145 514/151/144
f 549/135/129 9/136/115 10/153/131 550/152/145
f 10/138/131 46/137/130 47/154/146 11/155/147
f 46/137/130 82/139/132 83/156/148 47/154/146
f 82/139/132 118/140/133 119/157/149 83/156/148
f 118/140/133 154/141/134 155/158/150 119/157/149
f 154/141/134 190/142/135 191/159/151 155/158/150
f 190/142/135 226/143/136 227/160/152 191/159/151
f 226/143/136 262/144/137 263/161/153 227/160/152
f 262/144/137 298/145/138 299/162/154 263/161/153
f 298/145/138 334/146/139 335/163/155 299/162/154
f 334/146/139 370/147/140 371/164/156 335/163/155
f 370/147/140 406/148/141 407/165/157 371/164/156
f 406/148/141 442/149/142 443/166/158 407/165/157
f 442/149/142 478/150/143 479/167/159 443/166/158
f 478/150/143 514/151/144 515/168/160 479/167/159
f 514/151/144 550/152/145 551/169/161 515/168/160
f 550/152/145 10/153/131 11/170/147 551/169/161
f 11/155/147 47/154/146 48/171/162 12/172/163
f 47/154/146 83/156/148 84/173/164 48/171/162
f 83/156/148 119/157/149 120/174/165 84/173/164
f 119/157/149 155/158/150 156/175/166 120/174/165
f 155/158/150 191/159/151 192/176/167 156/175/166
f 191/159/151 227/160/152 228/177/168 192/176/167
f 227/160/152 263/161/153 264/178/169 228/177/168
f 263/161/153 299/162/154 300/179/170 264/178/169
f 299/162/154 335/163/155 336/180/171 300/179/170
f 335/163/155 371/164/156 372/181/172 336/180/171
f 371/164/156 407/165/157 408/182/173 372/181/172
f 407/165/157 443/166/158 444/183/174 408/182/173
f 443/166/158 479/167/159 480/184/175 444/183/174
f 479/167/159 515/168/160 516/185/176 480/184/175
f 515/168/160 551/169/161 552/186/177 516/185/176
f 551/169/161 11/170/147 12/187/163 552/186/177
f 12/172/163 48/171/162 49/188/178 13/189/179
f 48/171/162 84/173/164 85/190/180 49/188/178
f 84/173/164 120/174/165 121/191/181 85/190/180
f 120/174/165 156/175/166 157/192/182 121/191/181
f 156/175/166 192/176/167 193/193/183 157/192/182
f 192/176/167 228/177/168 229/194/184 193/193/183
f 228/177/168 264/178/169 265/195/185 229/194/184
f 264/178/169 300/179/170 301/196/186 265/195/185
f 300/179/170 336/180/171 337/197/187 301/196/186
f 336/180/171 372/181/172 373/198/188 337/197/187
f 372/181/172 408/182/173 409/199/189 373/198/188
f 408/182/173 444/183/174 445/200/190 409/199/189
f 444/183/174 480/184/175 481/201/191 445/200/190
f 480/184/175 516/185/176 517/202/192 481/201/191
f 516/185/176 552/186/177 553/203/193 517/202/192
f 552/186/177 12/187/163 13/204/179 553/203/193
f 13/189/179 49/188/178 50/205/194 14/206/195
f 49/188/178 85/190/180 86/207/196 50/205/194
f 85/190/180 121/191/181 122/208/197 86/207/196
f 121/191/181 157/192/182 158/209/198 122/208/197
f 157/192/182 193/193/183 194/210/199 158/209/198
f 193/193/183 229/194/184 230/211/200 194/210/199
f 229/194/184 265/195/185 266/212/201 230/211/200
f 265/195/185 301/196/186 302/213/202 266/212/201
f 301/196/186 337/197/187 338/214/203 302/213/202
f 337/197/187 373/198/188 374/215/204 338/214/203
f 373/198/188 409/199/189 410/216/205 374/215/204
f 409/199/189 445/200/190 446/217/206 410/216/205
f 445/200/190 481/201/191 482/218/207 446/217/206
f 481/201/191 517/202/192 518/219/208 482/218/207
f 517/202/192 553/203/193 554/220/209 518/219/208
f 553/203/193 13/204/179 14/221/195 554/220/209
f 14/206/195 50/205/194 51/222/210 15/223/211
f 50/205/194 86/207/196 87/224/212 51/222/210
f 86/207/196 122/208/197 123/225/213 87/224/212
f 122/208/197 158/209/198 159/226/214 123/225/213
f 158/209/198 194/210/199 195/227/215 159/226/214
f 194/210/199 230/211/200 231/228/216 195/227/215
f 230/211/200 266/212/201 267/229/217 231/228/216
f 266/212/201 302/213/202 303/230/218 267/229/217
f 302/213/202 338/214/203 339/231/219 303/230/218
f 338/214/203 374/215/204 375/232/220 339/231/219
f 374/215/204 410/216/205 411/233/221 375/232/220
f 410/216/205 446/217/206 447/234/222 411/233/221
f 446/217/206 482/218/207 483/235/223 447/234/222
f 482/218/207 518/219/208 519/236/224 483/235/223
f 518/219/208 554/220/209 555/237/225 519/236/224
f 554/220/209 14/221/195 15/238/211 555/237/225
f 15/223/211 51/222/210 52/239/226 16/240/227
f 51/222/210 87/224/212 88/241/228 52/239/226
f 87/224/212 123/225/213 124/242/229 88/241/228
f 123/225/213 159/226/214 160/243/230 124/242/229
f 159/226/214 195/227/215 196/244/231 160/243/230
f 195/227/215 231/228/216 232/245/232 196/244/231
f 231/228/216 267/229/217 268/246/233 232/245/232
f 267/229/217 303/230/218 304/247/234 268/246/233
f 303/230/218 339/231/219 340/248/235 304/247/234
f 339/231/219 375/232/220 376/249/236 340/248/235
f 375/232/220 411/233/221 412/250/237 376/249/236
f 411/233/221 447/234/222 448/251/238 412/250/237
f 447/234/222 483/235/223 484/252/239 448/251/238
f 483/235/223 519/236/224 520/253/240 484/252/239
f 519/236/224 555/237/225 556/254/241 520/253/240
f 555/237/225 15/238/211 16/255/227 556/254/241
f 16/240/227 52/239/226 53/256/242 17/257/243
f 52/239/226 88/241/228 89/258/244 53/256/242
f 88/241/228 124/242/229 125/259/245 89/258/244
f 124/242/229 160/243/230 161/260/246 125/259/245
f 160/243/230 196/244/231 197/261/247 161/260/246
f 196/244/231 232/245/232 233/262/248 197/261/247
f 232/245/232 268/246/233 269/263/249 233/262/248
f 268/246/233 304/247/234 305/264/250 269/263/249
f 304/247/234 340/248/235 341/265/251 305/264/250
f 340/248/235 376/249/236 377/266/252 341/265/251
f 376/249/236 412/250/237 413/267/253 377/266/252
f 412/250/237 448/251/238 449/268/254 413/267/253
f 448/251/238 484/252/239 485/269/255 449/268/254
f 484/252/239 520/253/240 521/270/256 485/269/255
f 520/253/240 556/254/241 557/271/257 521/270/256
f 556/254/241 16/255/227 17/272/243 557/271/257
f 17/257/243 53/256/242 54/273/258 18/274/259
f 53/256/242 89/258/244 90/275/260 54/273/258
f 89/258/244 125/259/245 126/276/261 90/275/260
f 125/259/245 161/260/246 162/277/262 126/276/261
f 161/260/246 197/261/247 198/278/263 162/277/262
f 197/261/247 233/262/248 234/279/264 198/278/263
f 233/262/248 269/263/249 270/280/265 234/279/264
f 269/263/249 305/264/250 306/281/266 270/280/265
f 305/264/250 341/265/251 342/282/267 306/281/266
f 341/265/251 377/266/252 378/283/268 342/282/267
f 377/266/252 413/267/253 414/284/269 378/283/268
f 413/267/253 449/268/254 450/285/270 414/284/269
f 449/268/254 485/269/255 486/286/271 450/285/270
f 485/269/255 521/270/256 522/287/272 486/286/271
f 521/270/256 557/271/257 558/288/273 522/287/272
f 557/271/257 17/272/243 18/289/259 558/288/273
f 18/274/259 54/273/258 55/290/274 19/291/275
f 54/273/258 90/275/260 91/292/276 55/290/274
f 90/275/260 126/276/261 127/293/277 91/292/276
f 126/276/261 162/277/262 163/294/278 127/293/277
f 162/277/262 198/278/263 199/295/279 163/294/278
f 198/278/263 234/279/264 235/296/280 199/295/279
f 234/279/264 270/280/265 271/297/281 235/296/280
f 270/280/265 306/281/266 307/298/282 271/297/281
f 306/281/266 342/282/267 343/299/283 307/298/282
f 342/282/267 378/283/268 379/300/284 343/299/283
f 378/283/268 414/284/269 415/301/285 379/300/284
f 414/284/269 450/285/270 451/302/286 415/301/285
f 450/285/270 486/286/271 487/303/287 451/302/286
f 486/286/271 522/287/272 523/304/288 487/303/287
f 522/287/272 558/288/273 559/305/289 523/304/288
f 558/288/273 18/289/259 19/306/275 559/305/289
f 19/291/275 55/290/274 56/307/290 20/308/291
f 55/290/274 91/292/276 92/309/292 56/307/290
f 91/292/276 127/293/277 128/310/293 92/309/292
f 127/293/277 163/294/278 164/311/294 128/310/293
f 163/294/278 199/295/279 200/312/295 164/311/294
f 199/295/279 235/296/280 236/313/296 200/312/295
f 235/296/280 271/297/281 272/314/297 236/313/296
f 271/297/281 307/298/282 308/315/298 272/314/297
f 307/298/282 343/299/283 344/316/299 308/315/298
f 343/299/283 379/300/284 380/317/300 344/316/299
f 379/300/284 415/301/285 416/318/301 380/317/300
f 415/301/285 451/302/286 452/319/302 416/318/301
f 451/302/286 487/303/287 488/320/303 452/319/302
f 487/303/287 523/304/288 524/321/304 488/320/303
f 523/304/288 559/305/289 560/322/305 524/321/304
f 559/305/289 19/306/275 20/323/291 560/322/305
f 20/308/291 56/307/290 57/324/306 21/325/307
f 56/307/290 92/309/292 93/326/308 57/324/306
f 92/309/292 128/310/293 129/327/309 93/326/308
f 128/310/293 164/311/294 165/328/310 129/327/309
f 164/311/294 200/312/295 201/329/311 165/328/310
f 200/312/295 236/313/296 237/330/312 201/329/311
f 236/313/296 272/314/297 273/331/313 237/330/312
f 272/314/297 308/315/298 309/332/314 273/331/313
f 308/315/298 344/316/299 345/333/315 309/332/314
f 344/316/299 380/317/300 381/334/316 345/333/315
f 380/317/300 416/318/301 417/335/317 381/334/316
f 416/318/301 452/319/302 453/336/318 417/335/317
f 452/319/302 488/320/303 489/337/319 453/336/318
f 488/320/303 524/321/304 525/338/320 489/337/319
f 524/321/304 560/322/305 561/339/321 525/338/320
f 560/322/305 20/323/291 21/340/307 561/339/321
f 21/325/307 57/324/306 58/341/322 22/342/323
f 57/324/306 93/326/308 94/343/324 58/341/322
f 93/326/308 129/327/309 130/344/325 94/343/324
f 129/327/309 165/328/310 166/345/326 130/344/325
f 165/328/310 201/329/311 202/346/327 166/345/326
f 201/329/311 237/330/312 238/347/328 202/346/327
f 237/330/312 273/331/313 274/348/329 238/347/328
f 273/331/313 309/332/314 310/349/330 274/348/329
f 309/332/314 345/333/315 346/350/331 310/349/330
f 345/333/315 381/334/316 382/351/332 346/350/331
f 381/334/316 417/335/317 418/352/333 382/351/332
f 417/335/317 453/336/318 454/353/334 418/352/333
f 453/336/318 489/337/319 490/354/335 454/353/334
f 489/337/319 525/338/320 526/355/336 490/354/335
f 525/338/320 561/339/321 562/356/337 526/355/336
f 561/339/321 21/340/307 22/357/323 562/356/337
f 22/342/323 58/341/322 59/358/338 23/359/339
f 58/341/322 94/343/324 95/360/340 59/358/338
f 94/343/324 130/344/325 131/361/341 95/360/340
f 130/344/325 166/345/326 167/362/342 131/361/341
f 166/345/326 202/346/327 203/363/343 167/362/342
f 202/346/327 238/347/328 239/364/344 203/363/343
f 238/347/328 274/348/329 275/365/345 239/364/344
f 274/348/329 310/349/330 311/366/346 275/365/345
f 310/349/330 346/350/331 347/367/347 311/366/346
f 346/350/331 382/351/332 383/368/348 347/367/347
f 382/351/332 418/352/333 419/369/349 383/368/348
f 418/352/333 454/353/334 455/370/350 419/369/349
f 454/353/334 490/354/335 491/371/351 455/370/350
f 490/354/335 526/355/336 527/372/352 491/371/351
f 526/355/336 562/356/337 563/373/353 527/372/352
f 562/356/337 22/357/323 23/374/339 563/373/353
f 23/359/339 59/358/338 60/375/354 24/376/355
f 59/358/338 95/360/340 96/377/356 60/375/354
f 95/360/340 131/361/341 132/378/357 96/377/356
f 131/361/341 167/362/342 168/379/358 132/378/357
f 167/362/342 203/363/343 204/380/359 168/379/358
f 203/363/343 239/364/344 240/381/360 204/380/359
f 239/364/344 275/365/345 276/382/361 240/381/360
f 275/365/345 311/366/346 312/383/362 276/382/361
f 311/366/346 347/367/347 348/384/363 312/383/362
f 347/367/347 383/368/348 384/385/364 348/384/363
f 383/368/348 419/369/349 420/386/365 384/385/364
f 419/369/349 455/370/350 456/387/366 420/386/365
f 455/370/350 491/371/351 492/388/367 456/387/366
f 491/371/351 527/372/352 528/389/368 492/388/367
f 527/372/352 563/373/353 564/390/369 528/389/368
f 563/373/353 23/374/339 24/391/355 564/390/369
f 24/376/355 60/375/354 61/392/370 25/393/371
f 60/375/354 96/377/356 97/394/372 61/392/370
f 96/377/356 132/378/357 133/395/373 97/394/372
f 132/378/357 168/379/358 169/396/374 133/395/373
f 168/379/358 204/380/359 205/397/375 169/396/374
f 204/380/359 240/381/360 241/398/376 205/397/375
f 240/381/360 276/382/361 277/399/377 241/398/376
f 276/382/361 312/383/362 313/400/378 277/399/377
f 312/383/362 348/384/363 349/401/379 313/400/378
f 348/384/363 384/385/364 385/402/380 349/401/379
f 384/385/364 420/386/365 421/403/381 385/402/380
f 420/386/365 456/387/366 457/404/382 421/403/381
f 456/387/366 492/388/367 493/405/383 457/404/382
f 492/388/367 528/389/368 529/406/384 493/405/383
f 528/389/368 564/390/369 565/407/385 529/406/384
f 564/390/369 24/391/355 25/408/371 565/407/385
f 25/393/371 61/392/370 62/409/386 26/410/387
f 61/392/370 97/394/372 98/411/388 62/409/386
f 97/394/372 133/395/373 134/412/389 98/411/388
f 133/395/373 169/396/374 170/413/390 134/412/389
f 169/396/374 205/397/375 206/414/391 170/413/390
f 205/397/375 241/398/376 242/415/392 206/414/391
f 241/398/376 277/399/377 278/416/393 242/415/392
f 277/399/377 313/400/378 314/417/394 278/416/393
f 313/400/378 349/401/379 350/418/395 314/417/394
f 349/401/379 385/402/380 386/419/396 350/418/395
f 385/402/380 421/403/381 422/420/397 386/419/396
f 421/403/381 457/404/382 458/421/398 422/420/397
f 457/404/382 493/405/383 494/422/399 458/421/398
f 493/405/383 529/406/384 530/423/400 494/422/399
f 529/406/384 565/407/385 566/424/401 530/423/400
f 565/407/385 25/408/371 26/425/387 566/424/401
f 26/410/387 62/409/386 63/426/402 27/427/403
f 62/409/386 98/411/388 99/428/404 63/426/402
f 98/411/388 134/412/389 135/429/405 99/428/404
f 134/412/389 170/413/390 171/430/406 135/429/405
f 170/413/390 206/414/391 207/431/407 171/430/406
f 206/414/391 242/415/392 243/432/408 207/431/407
f 242/415/392 278/416/393 279/433/409 243/432/408
f 278/416/393 314/417/394 315/434/410 279/433/409
f 314/417/394 350/418/395 351/435/411 315/434/410
f 350/418/395 386/419/396 387/436/412 351/435/411
f 386/419/396 422/420/397 423/437/413 387/436/412
f 422/420/397 458/421/398 459/438/414 423/437/413
f 458/421/398 494/422/399 495/439/415 459/438/414
f 494/422/399 530/423/400 531/440/416 495/439/415
f 530/423/400 566/424/401 567/441/417 531/440/416
f 566/424/401 26/425/387 27/442/403 567/441/417
f 27/427/403 63/426/402 64/443/418 28/444/419
f 63/426/402 99/428/404 100/445/420 64/443/418
f 99/428/404 135/429/405 136/446/421 100/445/420
f 135/429/405 171/430/406 172/447/422 136/446/421
f 171/430/406 207/431/407 208/448/423 172/447/422
f 207/431/407 243/432/408 244/449/424 208/448/423
f 243/432/408 279/433/409 280/450/425 244/449/424
f 279/433/409 315/434/410 316/451/426 280/450/425
f 315/434/410 351/435/411 352/452/427 316/451/426
f 351/435/411 387/436/412 388/453/428 352/452/427
f 387/436/412 423/437/413 424/454/429 388/453/428
f 423/437/413 459/438/414 460/455/430 424/454/429
f 459/438/414 495/439/415 496/456/431 460/455/430
f 495/439/415 531/440/416 532/457/432 496/456/431
f 531/440/416 567/441/417 568/458/433 532/457/432
f 567/441/417 27/442/403 28/459/419 568/458/433
f 28/444/419 64/443/418 65/460/434 29/461/435
f 64/443/418 100/445/420 101/462/436 65/460/434
f 100/445/420 136/446/421 137/463/437 101/462/436
f 136/446/421 172/447/422 173/464/438 137/463/437
f 172/447/422 208/448/423 209/465/439 173/464/438
f 208/448/423 244/449/424 245/466/440 209/465/439
f 244/449/424 280/450/425 281/467/441 245/466/440
f 280/450/425 316/451/426 317/468/442 281/467/441
f 316/451/426 352/452/427 353/469/443 317/468/442
f 352/452/427 388/453/428 389/470/444 353/469/443
f 388/453/428 424/454/429 425/471/445 389/470/444
f 424/454/429 460/455/430 461/472/446 425/471/445
f 460/455/430 496/456/431 497/473/447 461/472/446
f 496/456/431 532/457/432 533/474/448 497/473/447
f 532/457/432 568/458/433 569/475/449 533/474/448
f 568/458/433 28/459/419 29/476/435 569/475/449
f 29/461/435 65/460/434 66/477/450 30/478/451
f 65/460/434 101/462/436 102/479/452 66/477/450
f 101/462/436 137/463/437 138/480/453 102/479/452
f 137/463/437 173/464/438 174/481/454 138/480/453
f 173/464/438 209/465/439 210/482/455 174/481/454
f 209/465/439 245/466/440 246/483/456 210/482/455
f 245/466/440 281/467/441 282/484/457 246/483/456
f 281/467/441 317/468/442 318/485/458 282/484/457
f 317/468/442 353/469/443 354/486/459 318/485/458
f 353/469/443 389/470/444 390/487/460 354/486/459
f 389/470/444 425/471/445 426/488/461 390/487/460
f 425/471/445 461/472/446 462/489/462 426/488/461
f 461/472/446 497/473/447 498/490/463 462/489/462
f 497/473/447 533/474/448 534/491/464 498/490/463
f 533/474/448 569/475/449 570/492/465 534/491/464
f 569/475/449 29/476/435 30/493/451 570/492/465
f 30/478/451 66/477/450 67/494/466 31/495/467
f 66/477/450 102/479/452 103/496/468 67/494/466
f 102/479/452 138/480/453 139/497/469 103/496/468
f 138/480/453 174/481/454 175/498/470 139/497/469
f 174/481/454 210/482/455 211/499/471 175/498/470
f 210/482/455 246/483/456 247/500/472 211/499/471
f 246/483/456 282/484/457 283/501/473 247/500/472
f 282/484/457 318/485/458 319/502/474 283/501/473
f 318/485/458 354/486/459 355/503/475 319/502/474
f 354/486/459 390/487/460 391/504/476 355/503/475
f 390/487/460 426/488/461 427/505/477 391/504/476
f 426/488/461 462/489/462 463/506/478 427/505/477
f 462/489/462 498/490/463 499/507/479 463/506/478
f 498/490/463 534/491/464 535/508/480 499/507/479
f 534/491/464 570/492/465 571/509/481 535/508/480
f 570/492/465 30/493/451 31/510/467 571/509/481
f 31/495/467 67/494/466 68/511/482 32/512/483
f 67/494/466 103/496/468 104/513/484 68/511/482
f 103/496/468 139/497/469 140/514/485 104/513/484
f 139/497/469 175/498/470 176/515/486 140/514/485
f 175/498/470 211/499/471 212/516/487 176/515/486
f 211/499/471 247/500/472 248/517/488 212/516/487
f 247/500/472 283/501/473 284/518/489 248/517/488
f 283/501/473 319/502/474 320/519/490 284/518/489
f 319/502/474 355/503/475 356/520/491 320/519/490
f 355/503/475 391/504/476 392/521/492 356/520/491
f 391/504/476 427/505/477 428/522/493 392/521/492
f 427/505/477 463/506/478 464/523/494 428/522/493
f 463/506/478 499/507/479 500/524/495 464/523/494
f 499/507/479 535/508/480 536/525/496 500/524/495
f 535/508/480 571/509/481 572/526/497 536/525/496
f 571/509/481 31/510/467 32/527/483 572/526/497
f 32/512/483 68/511/482 69/528/498 33/529/499
f 68/511/482 104/513/484 105/530/500 69/528/498
f 104/513/484 140/514/485 141/531/501 105/530/500
f 140/514/485 176/515/486 177/532/502 141/531/501
f 176/515/486 212/516/487 213/533/503 177/532/502
f 212/516/487 248/517/488 249/534/504 213/533/503
f 248/517/488 284/518/489 285/535/505 249/534/504
f 284/518/489 320/519/490 321/536/506 285/535/505
f 320/519/490 356/520/491 357/537/507 321/536/506
f 356/520/491 392/521/492 393/538/508 357/537/507
f 392/521/492 428/522/493 429/539/509 393/538/508
f 428/522/493 464/523/494 465/540/510 429/539/509
f 464/523/494 500/524/495 501/541/511 465/540/510
f 500/524/495 536/525/496 537/542/512 501/541/511
f 536/525/496 572/526/497 573/543/513 537/542/512
f 572/526/497 32/527/483 33/544/499 573/543/513
f 33/529/499 69/528/498 70/545/514 34/546/515
f 69/528/498 105/530/500 106/547/516 70/545/514
f 105/530/500 141/531/501 142/548/517 106/547/516
f 141/531/501 177/532/502 178/549/518 142/548/517
f 177/532/502 213/533/503 214/550/519 178/549/518
f 213/533/503 249/534/504 250/551/520 214/550/519
f 249/534/504 285/535/505 286/552/521 250/551/520
f 285/535/505 321/536/506 322/553/522 286/552/521
f 321/536/506 357/537/507 358/554/523 322/553/522
f 357/537/507 393/538/508 394/555/524 358/554/523
f 393/538/508 429/539/509 430/556/525 394/555/524
f 429/539/509 465/540/510 466/557/526 430/556/525
f 465/540/510 501/541/511 502/558/527 466/557/526
f 501/541/511 537/542/512 538/559/528 502/558/527
f 537/542/512 573/543/513 574/560/529 538/559/528
f 573/543/513 33/544/499 34/561/515 574/560/529
f 34/546/515 70/545/514 71/562/530 35/563/531
f 70/545/514 106/547/516 107/564/532 71/562/530
f 106/547/516 142/548/517 143/565/533 107/564/532
f 142/548/517 178/549/518 179/566/534 143/565/533
f 178/549/518 214/550/519 215/567/535 179/566/534
f 214/550/519 250/551/520 251/568/536 215/567/535
f 250/551/520 286/552/521 287/569/537 251/568/536
f 286/552/521 322/553/522 323/570/538 287/569/537
f 322/553/522 358/554/523 359/571/539 323/570/538
f 358/554/523 394/555/524 395/572/540 359/571/539
f 394/555/524 430/556/525 431/573/541 395/572/540
f 430/556/525 466/557/526 467/574/542 431/573/541
f 466/557/526 502/558/527 503/575/543 467/574/542
f 502/558/527 538/559/528 539/576/544 503/575/543
f 538/559/528 574/560/529 575/577/545 539/576/544
f 574/560/529 34/561/515 35/578/531 575/577/545
f 35/563/531 71/562/530 72/562/546 36/563/546
f 71/562/530 107/564/532 108/564/546 72/562/546
f 107/564/532 143/565/533 144/565/546 108/564/546
f 143/565/533 179/566/534 180/566/546 144/565/546
f 179/566/534 215/567/535 216/567/546 180/566/546
f 215/567/535 251/568/536 252/568/546 216/567/546
f 251/568/536 287/569/537 288/569/546 252/568/546
f 287/569/537 323/570/538 324/570/546 288/569/546
f 323/570/538 359/571/539 360/571/546 324/570/546
f 359/571/539 395/572/540 396/572/546 360/571/546
f 395/572/540 431/573/541 432/573/546 396/572/546
f 431/573/541 467/574/542 468/574/546 432/573/546
f 467/574/542 503/575/543 504/575/546 468/574/546
f 503/575/543 539/576/544 540/576/546 504/575/546
f 539/576/544 575/577/545 576/577/546 540/576/546
f 575/577/545 35/578/531 36/578/546 576/577/546
f 1/1/547 37/2/548 72/562/548 36/563/547
f 37/2/548 73/3/549 108/564/549 72/562/548
f 73/3/549 109/4/550 144/565/550 108/564/549
f 109/4/550 145/5/551 180/566/551 144/565/550
f 145/5/551 181/6/552 216/567/552 180/566/551
f 181/6/552 217/7/553 252/568/553 216/567/552
f 217/7/553 253/8/554 288/569/554 252/568/553
f 253/8/554 289/9/555 324/570/555 288/569/554
f 289/9/555 325/10/556 360/571/556 324/570/555
f 325/10/556 361/11/557 396/572/557 360/571/556
f 361/11/557 397/12/558 432/573/558 396/572/557
f 397/12/558 433/13/559 468/574/559 432/573/558
f 433/13/559 469/14/560 504/575/560 468/574/559
f 469/14/560 505/15/561 540/576/561 504/575/560
f 505/15/561 541/16/562 576/577/562 540/576/561
f 541/16/562 1/17/547 36/578/547 576/577/562
s 0
usemtl Kessel_Metall_gold
f 585/579/563 590/580/563 580/581/563 579/582/563
f 579/582/564 580/581/564 584/583/564 583/584/564
f 581/585/565 591/586/565 603/586/565 602/585/565
f 581/585/566 582/587/566 578/588/566 577/589/566
f 587/590/565 591/586/565 581/585/565 577/591/565
f 596/592/567 588/593/567 578/594/567 582/587/567
f 584/583/567 580/595/567 590/596/567 594/597/567
f 594/597/567 590/596/567 589/598/567 595/599/567
f 595/599/567 589/598/567 588/593/567 596/592/567
f 579/600/565 583/584/565 593/601/565 585/602/565
f 585/602/565 593/601/565 592/603/565 586/604/565
f 586/604/565 592/603/565 591/586/565 587/590/565
f 582/587/566 581/585/566 602/585/566 601/587/566
f 593/601/568 594/597/568 595/599/568 592/603/568
f 592/603/569 595/599/569 596/592/569 591/586/569
f 577/7/570 578/11/570 588/605/570 587/606/570
f 587/606/571 588/605/571 589/607/571 586/608/571
f 586/608/572 589/607/572 590/580/572 585/579/572
f 603/586/573 600/592/573 601/587/573 602/585/573
f 598/584/574 597/583/574 604/597/574 599/601/574
f 593/601/565 583/584/565 598/584/565 599/601/565
f 591/586/575 596/592/575 600/592/575 603/586/575
f 584/583/567 594/597/567 604/597/567 597/583/567
f 594/597/576 593/601/576 599/601/576 604/597/576
f 596/592/567 582/587/567 601/587/567 600/592/567
f 583/584/564 584/583/564 597/583/564 598/584/564
f 613/579/577 607/582/577 608/581/577 618/580/577
f 607/582/578 611/584/578 612/583/578 608/581/578
f 609/585/579 630/585/579 631/586/579 619/586/579
f 609/585/580 605/589/580 606/588/580 610/587/580
f 615/590/579 605/591/579 609/585/579 619/586/579
f 624/592/581 610/587/581 606/594/581 616/593/581
f 612/583/581 622/597/581 618/596/581 608/595/581
f 622/597/581 623/599/581 617/598/581 618/596/581
f 623/599/581 624/592/581 616/593/581 617/598/581
f 607/600/579 613/602/579 621/601/579 611/584/579
f 613/602/579 614/604/579 620/603/579 621/601/579
f 614/604/579 615/590/579 619/586/579 620/603/579
f 610/587/580 629/587/580 630/585/580 609/585/580
f 621/601/582 620/603/582 623/599/582 622/597/582
f 620/603/583 619/586/583 624/592/583 623/599/583
f 605/7/584 615/606/584 616/605/584 606/11/584
f 615/606/585 614/608/585 617/607/585 616/605/585
f 614/608/586 613/579/586 618/580/586 617/607/586
f 631/586/587 630/585/587 629/587/587 628/592/587
f 626/584/588 627/601/588 632/597/588 625/583/588
f 621/601/579 627/601/579 626/584/579 611/584/579
f 619/586/589 631/586/589 628/592/589 624/592/589
f 612/583/581 625/583/581 632/597/581 622/597/581
f 622/597/590 632/597/590 627/601/590 621/601/590
f 624/592/581 628/592/581 629/587/581 610/587/581
f 611/584/578 626/584/578 625/583/578 612/583/578
