# Blender 5.1.1
# www.blender.org
mtllib Sarg_3_L_Tür.mtl
o Sarg_3_L
v 3.257567 0.000002 -6.159541
v 2.814186 0.000002 -6.701262
v 2.204890 2.575934 -6.202550
v 2.648250 0.000000 -5.660856
v 2.204890 0.000000 -6.202550
v 2.204890 1.283422 -6.202550
v 2.648250 1.283422 -5.660856
v 2.437045 2.575934 -6.392561
v 2.725857 1.283422 -6.628944
v 2.447076 2.575934 -5.906649
v 2.648250 2.258310 -5.660856
v 2.679231 2.575934 -6.096660
v 2.806875 0.106218 -6.695279
v 3.250257 0.106218 -6.153556
v 2.204890 0.106217 -6.202550
v 2.648250 0.106217 -5.660856
v 2.691932 0.000000 -5.607485
v 2.161208 0.000000 -6.255921
v 2.161208 0.106217 -6.255921
v 2.691932 0.106217 -5.607485
v 2.753731 0.110042 -6.718657
v 2.858011 0.110417 -6.707335
v 2.869187 0.004444 -6.712922
v 2.764774 0.004054 -6.724416
v 3.270497 0.004054 -6.106526
v 3.279870 0.004444 -6.211151
v 3.272185 0.110417 -6.201300
v 3.262669 0.110042 -6.096839
v 2.920709 1.283422 -5.811826
v 2.557312 2.624352 -5.961190
v 2.320968 2.575934 -6.297556
v 2.604687 2.623693 -5.998510
v 2.544164 2.631673 -6.024856
v 2.776483 2.258310 -5.765810
v 2.823144 2.258310 -5.804002
v 2.802010 1.283422 -5.790085
v 2.990837 1.283422 -5.938870
v 2.842522 0.106217 -5.823243
v 3.031342 0.106217 -5.972021
v 2.586484 2.575934 -6.020750
v 2.539823 2.575934 -5.982559
v 2.544164 2.575934 -6.024856
v 2.967364 1.283422 -5.850012
v 3.007868 0.106217 -5.883163
v 2.961221 0.106217 -5.844985
v 2.808639 2.281314 -5.726521
v 2.856175 2.277988 -5.763646
v 2.601686 2.609473 -6.235687
v 2.555192 2.612199 -6.286766
v 2.410722 2.619655 -6.187895
v 2.454410 2.619655 -6.134517
v 2.410722 2.575934 -6.187895
v 2.454410 2.575934 -6.134517
v 2.536295 2.575934 -6.271299
v 2.579981 2.575934 -6.217923
v 2.969375 1.283422 -6.331414
v 2.925697 1.283422 -6.384780
v 3.050389 0.106217 -6.397727
v 3.006717 0.106217 -6.451086
v 3.002655 1.291299 -6.358652
v 2.958932 1.291609 -6.411982
v 3.040418 0.110090 -6.478668
v 3.084089 0.110090 -6.425310
v 3.179355 1.136096 -6.095549
v 3.054758 1.283422 -5.993570
v 3.137463 1.425523 -6.061262
v 3.075536 1.283422 -6.201708
v 2.977528 2.141279 -5.930359
v 2.857113 2.258310 -5.831804
v 2.879068 2.342703 -5.958829
v 3.255112 0.069953 -6.158751
v 2.812927 0.069953 -6.699011
v 2.236241 2.526437 -6.164247
v 2.671726 0.062637 -5.681483
v 2.229752 0.062637 -6.221486
v 2.249227 1.283422 -6.148381
v 2.603914 1.283422 -5.715025
v 2.437160 2.530913 -6.338960
v 2.717539 1.274059 -6.560073
v 2.430110 2.511262 -5.927379
v 2.607289 2.231522 -5.710902
v 2.638227 2.519675 -6.089339
v 2.804845 0.041283 -6.669185
v 3.224278 0.041283 -6.156725
v 2.261585 0.065421 -6.197910
v 2.654909 0.065421 -5.717348
v 2.695974 0.040184 -5.664660
v 2.218054 0.040184 -6.248581
v 2.218108 0.065812 -6.250455
v 2.697822 0.065812 -5.664343
v 2.769627 0.063972 -6.668408
v 2.835491 0.061700 -6.662395
v 2.808695 0.036695 -6.703245
v 2.840178 0.043671 -6.662724
v 2.778573 0.046057 -6.670145
v 2.812325 0.069487 -6.693005
v 3.220025 0.046057 -6.130781
v 3.224929 0.043671 -6.192638
v 3.249106 0.069487 -6.159349
v 3.223680 0.061701 -6.188107
v 3.216554 0.063973 -6.122355
v 3.258426 0.036695 -6.153766
v 2.926059 1.287822 -5.881483
v 2.587468 2.576406 -6.002322
v 2.352318 2.526437 -6.259252
v 2.561043 2.572903 -5.978124
v 2.576426 2.583933 -5.985106
v 2.792827 2.249509 -5.833304
v 2.757598 2.235203 -5.795652
v 2.892713 1.288055 -5.924424
v 2.862643 1.278862 -5.900922
v 2.934495 0.065883 -5.944684
v 2.916864 0.064083 -5.931008
v 2.551681 2.523643 -5.989857
v 2.574434 2.524570 -6.015176
v 2.558141 2.509531 -6.007673
v 2.897769 1.278649 -5.855822
v 2.950347 0.145802 -5.888103
v 2.966029 0.147434 -5.901358
v 2.810582 2.263165 -5.794100
v 2.791111 2.254531 -5.774436
v 2.548680 2.564873 -6.245749
v 2.554651 2.568329 -6.232221
v 2.467100 2.579008 -6.179568
v 2.461509 2.577290 -6.189787
v 2.438832 2.511957 -6.183789
v 2.458906 2.513253 -6.165353
v 2.553607 2.553243 -6.207382
v 2.530537 2.543442 -6.255333
v 2.901027 1.271554 -6.340779
v 2.921476 1.277652 -6.315146
v 2.996410 0.062381 -6.405773
v 3.003932 0.062389 -6.396575
v 2.934039 1.279491 -6.365892
v 2.948540 1.284280 -6.343146
v 3.032095 0.146759 -6.419625
v 3.024569 0.146764 -6.428812
v 3.111120 1.122360 -6.102988
v 2.999955 1.282337 -6.037107
v 3.067785 1.423471 -6.067644
v 3.014773 1.270328 -6.169514
v 2.910347 2.123845 -5.939462
v 2.811983 2.231192 -5.877933
v 2.822498 2.301473 -5.958708
vn -0.0000 -1.0000 -0.0000
vn -0.5771 -0.1011 -0.8104
vn -0.6334 -0.0000 -0.7738
vn -0.9849 0.1465 0.0920
vn 0.9840 0.1501 -0.0956
vn -0.5598 -0.0279 -0.8282
vn 0.6334 -0.0000 0.7738
vn -0.7738 -0.0000 0.6334
vn -0.0276 0.9746 0.2222
vn 0.0292 -0.9722 -0.2325
vn 0.2337 -0.9722 0.0173
vn -0.2233 0.9746 -0.0168
vn 0.1082 0.0644 -0.9920
vn 0.9939 0.0644 0.0900
vn 0.7688 0.1142 -0.6292
vn -0.6142 -0.0106 -0.7890
vn 0.0182 0.9995 0.0268
vn 0.0685 -0.9961 -0.0561
vn -0.0197 -0.9994 -0.0289
vn 0.6520 -0.0106 0.7581
vn 0.0245 -0.9994 0.0251
vn 0.4563 0.7041 0.5441
vn 0.6245 0.0027 0.7810
vn 0.0891 0.9914 0.0956
vn 0.1801 -0.0215 0.9834
vn -0.1059 -0.0625 0.9924
vn -0.7283 -0.0724 0.6814
vn 0.9665 0.0261 0.2553
vn 0.2914 0.1517 -0.9445
vn 0.7304 0.0753 -0.6789
vn 0.4479 0.7071 0.5472
vn 0.6389 -0.0012 0.7693
vn 0.6422 0.0003 0.7665
vn 0.7874 0.6115 0.0786
vn -0.0226 0.9995 -0.0231
vn 0.5823 0.1032 0.8064
vn 0.7302 0.2812 -0.6227
vn 0.7707 0.0888 -0.6310
vn 0.0492 0.9987 -0.0164
vn 0.5609 0.0327 0.8273
vn -0.0000 1.0000 -0.0000
vn 0.7435 0.2774 -0.6085
vn 0.7708 0.0886 -0.6309
vn -0.0686 0.9961 0.0561
vn 0.8785 -0.4695 0.0877
vn 0.6391 0.0010 0.7692
vn 0.7851 0.4447 0.4311
vn 0.6373 0.0016 0.7706
vn -0.0075 1.0000 0.0061
vn 0.8279 0.2017 0.5233
vn 0.6590 0.0145 0.7520
vn -0.6794 0.3496 -0.6451
vn 0.5585 -0.5502 0.6207
vn -0.6666 -0.1437 0.7314
vn 0.3350 0.1152 0.9352
vn 0.6570 -0.0221 0.7536
vn 0.6614 0.0097 0.7500
vn 0.5012 -0.5606 -0.6592
vn 0.7452 -0.5606 -0.3610
vn 0.0794 0.8262 -0.5578
vn 0.0529 -0.7354 -0.6756
vn 0.6727 -0.7354 0.0817
vn 0.5625 0.8262 0.0324
vn -0.1078 -0.0977 0.9894
vn -0.9911 -0.0977 -0.0899
vn -0.7569 -0.2081 0.6195
vn 0.5975 0.1245 0.7921
vn 0.4734 -0.2421 -0.8469
vn -0.1758 -0.9691 -0.1733
vn 0.7712 -0.0830 -0.6312
vn -0.5352 0.5043 -0.6777
vn -0.6584 0.1245 -0.7423
vn 0.5585 0.5043 0.6586
vn 0.4008 0.6846 0.6088
vn 0.6853 0.0150 0.7281
vn 0.6250 -0.4840 0.6125
vn 0.7813 0.0376 -0.6230
vn 0.8299 0.1420 -0.5395
vn 0.7583 0.1481 -0.6348
vn -0.7638 -0.0518 0.6434
vn -0.6867 0.3328 -0.6463
vn -0.6452 0.0368 0.7631
vn -0.3378 -0.6959 -0.6337
vn -0.5735 0.0119 -0.8191
vn -0.6091 -0.0158 -0.7929
vn -0.8285 -0.5584 -0.0421
vn 0.0563 -0.9926 0.1078
vn -0.2864 -0.0076 -0.9581
vn 0.7106 -0.3960 -0.5816
vn 0.8036 0.2904 -0.5195
vn 0.8123 0.0976 -0.5750
vn -0.0024 0.9773 -0.2118
vn -0.6785 0.0372 -0.7337
vn 0.6799 -0.0012 0.7333
vn -0.6133 -0.0056 -0.7898
vn -0.0400 -0.9992 -0.0029
vn 0.1255 -0.9854 -0.1154
vn 0.1617 -0.9793 -0.1214
vn -0.7246 -0.2679 0.6350
vn -0.7825 -0.1021 0.6142
vn 0.2458 -0.9482 -0.2012
vn -0.9040 0.4046 -0.1379
vn -0.7595 -0.1098 0.6412
vn -0.6165 -0.0227 -0.7871
vn -0.7673 -0.4309 -0.4749
vn -0.7709 -0.2724 0.5758
vn -0.5448 -0.6917 -0.4741
vn -0.6638 0.0030 -0.7479
vn 0.2361 -0.2708 0.9332
vn -0.6925 0.4462 0.5668
vn -0.8681 -0.2708 -0.4159
vn -0.7739 -0.0000 0.6334
vn -0.5091 -0.0204 0.8605
vn -0.9441 -0.0204 0.3290
vt 0.375000 0.875000
vt 0.375000 1.000000
vt 0.625000 1.000000
vt 0.625000 0.875000
vt 0.292894 0.500000
vt 0.350371 0.396139
vt 0.125000 0.500000
vt 0.125000 0.589572
vt 0.250000 0.589572
vt 0.250000 0.500000
vt 0.187500 0.500000
vt 0.511563 0.324786
vt 0.500855 0.312500
vt 0.817343 0.736723
vt 0.807657 0.736723
vt 0.804398 0.491588
vt 0.818097 0.589572
vt 0.425610 0.312500
vt 0.430964 0.250000
vt 0.125000 0.736723
vt 0.250000 0.736723
vt 0.806903 0.589572
vt 0.000000 0.000000
vt 0.375000 0.013277
vt 0.397847 0.013277
vt 0.398006 1.000000
vt 0.375000 0.994512
vt 0.625000 0.994512
vt 0.601994 1.000000
vt 0.602153 0.013277
vt 0.625000 0.013277
vt 0.398006 0.000000
vt 0.375000 0.001003
vt 0.625000 0.001003
vt 0.601994 0.000000
vt 0.136139 0.736723
vt 0.135975 0.750000
vt 0.250000 0.750000
vt 0.450245 0.312500
vt 0.750000 0.736723
vt 0.750000 0.750000
vt 0.864025 0.750000
vt 0.863861 0.736723
vt 0.511563 0.299938
vt 0.625000 0.322121
vt 0.625000 0.302879
vt 0.789885 0.499705
vt 0.511563 0.375000
vt 0.625000 0.375000
vt 0.750000 0.522012
vt 0.750000 0.589572
vt 0.625000 0.151220
vt 0.536960 0.220879
vt 0.633867 0.172917
vt 0.875000 0.736723
vt 0.399629 0.353861
vt 0.366795 0.500000
vt 0.487687 0.013277
vt 0.512313 0.013277
vt 0.487685 0.160428
vt 0.512315 0.160428
vt 0.455598 0.250000
vt 0.375000 0.312500
vt 0.375000 0.375000
vt 0.511563 0.250000
vt 0.375000 0.250000
vt 0.375000 0.160428
vt 0.656963 0.205447
vt 0.875000 0.607988
vt 0.847537 0.589572
vt 0.625000 0.250000
vt 0.594860 0.250000
vt 0.625000 0.288871
vt 0.534689 0.500000
vt 0.762023 0.477444
vt 0.832964 0.457964
vt 0.870522 0.572039
vt 0.814963 0.485680
s 0
usemtl Dunkles_Holz
f 54/5/2 49/5/2 61/6/2 57/6/2
f 41/12/4 30/12/4 33/13/4 42/13/4
f 39/14/1 44/14/1 45/15/1 38/15/1
f 35/16/5 47/16/5 43/17/5 37/17/5
f 52/18/6 50/18/6 49/19/6 54/19/6
f 43/17/7 29/22/7 45/15/7 44/14/7
f 15/23/8 19/23/8 18/23/8 5/23/8
f 53/39/8 51/39/8 50/18/8 52/18/8
f 32/44/22 30/12/22 46/45/22 47/46/22
f 47/16/23 46/47/23 29/22/23 43/17/23
f 32/44/24 33/13/24 30/12/24
f 38/15/25 45/15/25 29/22/25 36/22/25
f 36/22/26 29/22/26 46/47/26 34/47/26
f 34/45/27 46/45/27 30/12/27 41/12/27
f 37/17/28 43/17/28 44/14/28 39/14/28
f 42/13/29 33/13/29 32/44/29 40/44/29
f 40/44/30 32/44/30 47/46/30 35/46/30
f 56/56/36 60/56/36 48/57/36 55/57/36
f 59/58/18 62/58/18 63/59/18 58/59/18
f 49/5/37 48/57/37 60/56/37 61/6/37
f 61/60/38 60/61/38 63/59/38 62/58/38
f 50/18/39 51/39/39 48/62/39 49/19/39
f 55/62/40 48/62/40 51/39/40 53/39/40
f 57/60/3 61/60/3 62/58/3 59/58/3
f 58/59/7 63/59/7 60/61/7 56/61/7
f 128/5/50 131/6/50 135/6/50 123/5/50
f 115/12/52 116/13/52 107/13/52 104/12/52
f 113/14/53 112/15/53 119/15/53 118/14/53
f 109/16/54 111/17/54 117/17/54 121/16/54
f 126/18/55 128/19/55 123/19/55 124/18/55
f 117/17/57 118/14/57 119/15/57 103/22/57
f 74/23/58 86/23/58 90/23/58 87/23/58
f 85/23/59 75/23/59 88/23/59 89/23/59
f 91/24/60 92/25/60 93/24/60
f 94/26/61 95/27/61 96/2/61
f 97/28/62 98/29/62 99/3/62
f 100/30/63 101/31/63 102/31/63
f 91/24/64 95/33/64 94/32/64 92/25/64
f 97/34/65 101/31/65 100/30/65 98/35/65
f 94/32/66 98/35/66 100/30/66 92/25/66
f 91/36/67 89/21/67 88/38/67 95/37/67
f 127/39/68 126/18/68 124/18/68 125/39/68
f 83/20/69 85/21/69 89/21/69 91/36/69 93/20/69
f 72/2/70 71/3/70 99/3/70 98/29/70 94/26/70 96/2/70
f 75/1/71 72/2/71 96/2/71 95/27/71 88/1/71
f 90/40/72 101/43/72 97/42/72 87/41/72
f 71/3/73 74/4/73 87/4/73 97/28/73 99/3/73
f 106/44/74 121/46/74 120/45/74 104/12/74
f 121/16/75 117/17/75 103/22/75 120/47/75
f 106/44/76 104/12/76 107/13/76
f 112/15/77 110/22/77 103/22/77 119/15/77
f 110/22/78 108/47/78 120/47/78 103/22/78
f 108/45/79 115/12/79 104/12/79 120/45/79
f 111/17/80 113/14/80 118/14/80 117/17/80
f 116/13/81 114/44/81 106/44/81 107/13/81
f 114/44/82 109/46/82 121/46/82 106/44/82
f 86/40/87 112/15/87 113/14/87 84/55/87 102/55/87 101/43/87 90/40/87
f 130/56/88 129/57/88 122/57/88 134/56/88
f 133/58/89 132/59/89 137/59/89 136/58/89
f 123/5/90 135/6/90 134/56/90 122/57/90
f 135/60/91 136/58/91 137/59/91 134/61/91
f 124/18/92 123/19/92 122/62/92 125/39/92
f 129/62/93 127/39/93 125/39/93 122/62/93
f 131/60/94 133/58/94 136/58/94 135/60/94
f 132/59/95 130/61/95 134/61/95 137/59/95
f 84/31/101 132/59/101 133/58/101 83/24/101 93/24/101 92/25/101 100/30/101 102/31/101
f 6/9/8 76/9/8 73/10/8 3/10/8
f 5/23/109 75/23/109 85/23/109 15/23/109
f 16/23/111 86/23/111 74/23/111 4/23/111
f 15/21/113 85/21/113 76/9/113 6/9/113
usemtl Dunkles_Holz_Sarg
f 8/7/3 9/8/3 6/9/3 3/10/3 31/11/3
f 9/8/3 13/20/3 15/21/3 6/9/3
f 41/12/31 10/48/31 11/49/31 34/45/31
f 11/50/32 7/51/32 36/22/32 34/47/32
f 7/51/33 16/40/33 38/15/33 36/22/33
f 31/63/41 3/64/41 10/48/41 41/12/41 42/13/41 53/39/41 52/18/41
f 53/39/41 42/13/41 40/44/41 12/65/41 55/62/41
f 8/66/41 31/63/41 52/18/41 54/19/41
f 8/7/42 54/5/42 57/6/42 9/8/42
f 13/24/43 9/67/43 57/60/43 59/58/43
f 56/61/43 67/53/43 64/52/43 14/31/43 58/59/43
f 39/14/46 14/55/46 64/69/46 65/70/46 37/17/46
f 55/57/42 12/74/42 70/75/42 68/76/42 66/68/42 67/53/42 56/56/42
f 70/72/31 12/65/31 40/44/31 35/46/31 69/73/31
f 37/17/48 65/70/48 66/77/48 68/76/48 69/78/48 35/16/48
f 10/48/8 80/48/8 81/49/8 11/49/8
f 3/64/8 73/64/8 80/48/8 10/48/8
f 11/50/112 81/50/112 77/51/112 7/51/112
f 7/51/114 77/51/114 86/40/114 16/40/114
usemtl Helles_Holz
f 64/52/34 67/53/34 65/54/34
f 65/54/45 67/53/45 66/68/45
f 68/71/47 70/72/47 69/73/47
usemtl Helles_Metall
f 5/1/1 2/2/1 1/3/1 4/4/1
f 4/23/8 17/23/8 20/23/8 16/23/8
f 21/24/9 13/24/9 22/25/9
f 23/26/10 2/2/10 24/27/10
f 25/28/11 1/3/11 26/29/11
f 27/30/12 14/31/12 28/31/12
f 21/24/13 22/25/13 23/32/13 24/33/13
f 25/34/14 26/35/14 27/30/14 28/31/14
f 23/32/15 22/25/15 27/30/15 26/35/15
f 21/36/16 24/37/16 18/38/16 19/21/16
f 13/20/17 21/36/17 19/21/17 15/21/17
f 2/2/18 23/26/18 26/29/18 1/3/18
f 5/1/19 18/1/19 24/27/19 2/2/19
f 20/40/20 17/41/20 25/42/20 28/43/20
f 1/3/21 25/28/21 17/4/21 4/4/21
f 16/40/35 20/40/35 28/43/35 14/55/35 39/14/35 38/15/35
f 14/31/44 27/30/44 22/25/44 13/24/44 59/58/44 58/59/44
f 75/1/49 74/4/49 71/3/49 72/2/49
f 4/4/110 74/4/110 75/1/110 5/1/110
usemtl Sarg_innen_Samt
f 78/7/51 105/11/51 73/10/51 76/9/51 79/8/51
f 79/8/56 76/9/56 85/21/56 83/20/56
f 115/12/83 108/45/83 81/49/83 80/48/83
f 81/50/84 108/47/84 110/22/84 77/51/84
f 77/51/85 110/22/85 112/15/85 86/40/85
f 138/52/86 139/54/86 141/53/86
f 105/63/96 126/18/96 127/39/96 116/13/96 115/12/96 80/48/96 73/64/96
f 127/39/97 129/62/97 82/65/97 114/44/97 116/13/97
f 78/66/98 128/19/98 126/18/98 105/63/98
f 78/7/99 79/8/99 131/6/99 128/5/99
f 83/24/100 133/58/100 131/60/100 79/67/100
f 139/54/102 140/68/102 141/53/102
f 130/61/103 132/59/103 84/31/103 138/52/103 141/53/103
f 113/14/104 111/17/104 139/70/104 138/69/104 84/55/104
f 142/71/105 143/73/105 144/72/105
f 129/57/106 130/56/106 141/53/106 140/68/106 142/76/106 144/75/106 82/74/106
f 144/72/107 143/73/107 109/46/107 114/44/107 82/65/107
f 111/17/108 109/16/108 143/78/108 142/76/108 140/77/108 139/70/108
