# Blender 5.1.1
# www.blender.org
mtllib Sarg_3_R_Tür.mtl
o Sarg_3_R
v 1.556137 0.000002 -6.651190
v 2.203189 2.575934 -6.202550
v 1.804346 0.000000 -5.627290
v 2.203189 0.000000 -6.202550
v 2.203189 1.283422 -6.202550
v 1.804346 1.283422 -5.627290
v 1.956649 2.575934 -6.373483
v 1.649942 1.283422 -6.586131
v 1.985321 2.575934 -5.888313
v 1.804346 2.258310 -5.627290
v 1.738781 2.575934 -6.059246
v 1.165037 0.106218 -6.070518
v 2.203189 0.106217 -6.202550
v 1.804346 0.106217 -5.627290
v 1.765050 0.000000 -5.570612
v 2.242486 0.000000 -6.259228
v 2.242486 0.106217 -6.259228
v 1.765050 0.106217 -5.570612
v 1.615016 0.110042 -6.673341
v 1.511968 0.110417 -6.653757
v 1.563901 0.106218 -6.645808
v 1.500383 0.004444 -6.658435
v 1.603549 0.004054 -6.678203
v 1.148605 0.004054 -6.022026
v 1.130935 0.004444 -6.125573
v 1.157274 0.000002 -6.075901
v 1.139380 0.110417 -6.116364
v 1.157179 0.110042 -6.012993
v 1.520737 1.283422 -5.756098
v 1.871094 2.624352 -5.933908
v 2.079919 2.575934 -6.288017
v 1.820899 2.623693 -5.967340
v 1.879134 2.631673 -5.998419
v 1.668168 2.258310 -5.721706
v 1.618614 2.258310 -5.756063
v 1.625941 1.283422 -5.753632
v 1.425974 1.283422 -5.886850
v 1.582918 0.106217 -5.783460
v 1.382959 0.106217 -5.916673
v 1.837275 2.575934 -5.990958
v 1.886827 2.575934 -5.956602
v 1.879134 2.575934 -5.998419
v 1.471191 1.283422 -5.790450
v 1.428176 0.106217 -5.820272
v 1.477714 0.106217 -5.785927
v 1.639240 2.281314 -5.679983
v 1.588901 2.277988 -5.713206
v 1.805016 2.609473 -6.204003
v 1.847296 2.612199 -6.258620
v 1.999177 2.619655 -6.171560
v 1.959876 2.619655 -6.114875
v 1.999177 2.575934 -6.171560
v 1.959876 2.575934 -6.114875
v 1.867365 2.575934 -6.244706
v 1.828065 2.575934 -6.188023
v 1.430874 1.283422 -6.270164
v 1.470167 1.283422 -6.326838
v 1.344840 0.106217 -6.329821
v 1.384127 0.106217 -6.386485
v 1.395532 1.291299 -6.294668
v 1.434872 1.291609 -6.351308
v 1.348338 0.110090 -6.411298
v 1.309051 0.110090 -6.354634
v 1.240331 1.136096 -6.018336
v 1.372649 1.283422 -5.926597
v 1.284819 1.425523 -5.987492
v 1.335373 1.283422 -6.132421
v 1.454665 2.141279 -5.869734
v 1.582541 2.258310 -5.781074
v 1.550547 2.342703 -5.905949
v 1.159784 0.069953 -6.075310
v 1.557571 0.069953 -6.649046
v 2.174987 2.526437 -6.161873
v 1.779302 0.062637 -5.645983
v 2.176900 0.062637 -6.219448
v 2.163305 1.283422 -6.145024
v 1.844231 1.283422 -5.684816
v 1.960801 2.530913 -6.320043
v 1.663714 1.274059 -6.518141
v 2.000584 2.511262 -5.910328
v 1.841195 2.231522 -5.680437
v 1.780237 2.519675 -6.055212
v 1.568001 0.041283 -6.619958
v 1.190682 0.041283 -6.075744
v 2.147044 0.065421 -6.193413
v 1.793213 0.065421 -5.683073
v 1.756470 0.040184 -5.627284
v 2.186404 0.040184 -6.247387
v 2.186201 0.065812 -6.249251
v 1.754654 0.065812 -5.626821
v 1.603170 0.063972 -6.621987
v 1.537993 0.061700 -6.610752
v 1.561452 0.036695 -6.653604
v 1.533294 0.043671 -6.610706
v 1.594114 0.046057 -6.623006
v 1.558649 0.069487 -6.643107
v 1.196987 0.046057 -6.050220
v 1.187175 0.043671 -6.111491
v 1.165724 0.069487 -6.076383
v 1.188780 0.061701 -6.107074
v 1.201117 0.063973 -6.042097
v 1.156878 0.036695 -6.070076
v 1.509860 1.287822 -5.825108
v 1.837760 2.576406 -5.972510
v 2.051717 2.526437 -6.247340
v 1.866027 2.572903 -5.950492
v 1.850137 2.583933 -5.956228
v 1.646503 2.249509 -5.787685
v 1.684618 2.235203 -5.752956
v 1.539683 1.288055 -5.870566
v 1.571528 1.278862 -5.849533
v 1.496421 0.065883 -5.887437
v 1.515084 0.064083 -5.875207
v 1.874426 2.523643 -5.962933
v 1.849730 2.524570 -5.986361
v 1.866568 2.509531 -5.980178
v 1.540103 1.278649 -5.801780
v 1.485122 0.145802 -5.829774
v 1.468435 0.147434 -5.841739
v 1.631925 2.263165 -5.747192
v 1.652900 2.254531 -5.729140
v 1.857052 2.564873 -6.218252
v 1.852177 2.568329 -6.204292
v 1.943641 2.579008 -6.158773
v 1.948401 2.577290 -6.169405
v 1.971483 2.511957 -6.165230
v 1.952939 2.513253 -6.145256
v 1.855194 2.553243 -6.179614
v 1.874375 2.543442 -6.229249
v 1.498260 1.271554 -6.284940
v 1.479916 1.277652 -6.257760
v 1.398007 0.062381 -6.342137
v 1.391241 0.062389 -6.332369
v 1.463354 1.279491 -6.307346
v 1.450709 1.284280 -6.283518
v 1.361332 0.146759 -6.353105
v 1.368104 0.146764 -6.362861
v 1.307758 1.122360 -6.031183
v 1.423814 1.282337 -5.974357
v 1.353768 1.423471 -5.999399
v 1.398505 1.270328 -6.105165
v 1.520907 2.123845 -5.884153
v 1.623857 2.231192 -5.830647
v 1.606946 2.301473 -5.910330
v 1.682912 0.115867 -5.716931
v 1.682912 0.227387 -5.716931
v 1.817863 0.129309 -5.542843
v 1.817863 0.213944 -5.542843
v 1.849140 0.129309 -5.589625
v 1.849140 0.213944 -5.589625
v 1.686656 0.115867 -5.614394
v 1.670097 0.115867 -5.697763
v 1.670097 0.227387 -5.697763
v 1.686656 0.227387 -5.614394
v 1.856612 0.227387 -5.600801
v 1.856612 0.115867 -5.600801
v 1.810392 0.115867 -5.531668
v 1.810392 0.227387 -5.531668
v 1.973117 0.206563 -5.506739
v 1.973117 0.136691 -5.506739
v 1.947976 0.129309 -5.455853
v 1.947976 0.213944 -5.455853
v 1.920773 0.213944 -5.474041
v 1.958187 0.206563 -5.516720
v 1.958187 0.136691 -5.516720
v 1.920773 0.129309 -5.474041
v 1.979254 0.213944 -5.502636
v 1.979254 0.129309 -5.502636
v 1.952050 0.213944 -5.520823
v 1.952050 0.129309 -5.520823
v 2.016078 0.206563 -5.570997
v 2.016078 0.136691 -5.570997
v 2.001148 0.206563 -5.580978
v 2.001148 0.136691 -5.580978
v 1.645524 0.227387 -5.741928
v 1.645524 0.338907 -5.741928
v 1.780475 0.240830 -5.567840
v 1.780475 0.325464 -5.567840
v 1.811752 0.240830 -5.614622
v 1.811752 0.325464 -5.614622
v 1.649269 0.227387 -5.639390
v 1.632709 0.227387 -5.722760
v 1.632709 0.338907 -5.722760
v 1.649269 0.338907 -5.639390
v 1.819224 0.338907 -5.625797
v 1.819224 0.227387 -5.625797
v 1.773004 0.227387 -5.556664
v 1.773004 0.338907 -5.556664
v 1.935729 0.318083 -5.531735
v 1.935729 0.248212 -5.531735
v 1.910588 0.240830 -5.480850
v 1.910588 0.325464 -5.480850
v 1.883385 0.325464 -5.499037
v 1.920799 0.318083 -5.541717
v 1.920799 0.248212 -5.541717
v 1.883385 0.240830 -5.499037
v 1.941865 0.325464 -5.527632
v 1.941865 0.240830 -5.527632
v 1.914662 0.325464 -5.545819
v 1.914662 0.240830 -5.545819
v 1.978690 0.318083 -5.595994
v 1.978690 0.248212 -5.595994
v 1.963760 0.318083 -5.605975
v 1.963760 0.248212 -5.605975
v 1.672123 0.338907 -5.724145
v 1.672123 0.450428 -5.724145
v 1.807073 0.352350 -5.550057
v 1.807073 0.436985 -5.550057
v 1.838351 0.352350 -5.596839
v 1.838351 0.436985 -5.596839
v 1.675867 0.338907 -5.621607
v 1.659307 0.338907 -5.704977
v 1.659307 0.450428 -5.704977
v 1.675867 0.450428 -5.621607
v 1.845822 0.450428 -5.608015
v 1.845822 0.338907 -5.608015
v 1.799602 0.338907 -5.538881
v 1.799602 0.450428 -5.538881
v 1.962327 0.429603 -5.513952
v 1.962327 0.359732 -5.513952
v 1.937186 0.352350 -5.463067
v 1.937186 0.436985 -5.463067
v 1.909983 0.436985 -5.481254
v 1.947397 0.429603 -5.523934
v 1.947397 0.359732 -5.523934
v 1.909983 0.352350 -5.481254
v 1.968464 0.436985 -5.509850
v 1.968464 0.352350 -5.509850
v 1.941261 0.436985 -5.528037
v 1.941261 0.352350 -5.528037
v 2.005289 0.429603 -5.578211
v 2.005289 0.359732 -5.578211
v 1.990359 0.429603 -5.588192
v 1.990359 0.359732 -5.588192
v 1.681539 0.450428 -5.717849
v 1.681539 0.561948 -5.717849
v 1.816490 0.463870 -5.543761
v 1.816490 0.548505 -5.543761
v 1.847767 0.463870 -5.590544
v 1.847767 0.548505 -5.590544
v 1.685283 0.450428 -5.615312
v 1.668724 0.450428 -5.698681
v 1.668724 0.561948 -5.698681
v 1.685283 0.561948 -5.615312
v 1.855239 0.561948 -5.601719
v 1.855239 0.450428 -5.601719
v 1.809018 0.450428 -5.532586
v 1.809018 0.561948 -5.532586
v 1.971744 0.541123 -5.507657
v 1.971744 0.471252 -5.507657
v 1.946603 0.463870 -5.456771
v 1.946603 0.548505 -5.456771
v 1.919400 0.548505 -5.474958
v 1.956814 0.541123 -5.517638
v 1.956814 0.471252 -5.517638
v 1.919400 0.463870 -5.474958
v 1.977880 0.548505 -5.503554
v 1.977880 0.463870 -5.503554
v 1.950677 0.548505 -5.521741
v 1.950677 0.463870 -5.521741
v 2.014705 0.541123 -5.571915
v 2.014705 0.471252 -5.571915
v 1.999775 0.541123 -5.581897
v 1.999775 0.471252 -5.581897
v 1.714369 0.561948 -5.695900
v 1.714369 0.673468 -5.695900
v 1.849320 0.575390 -5.521812
v 1.849320 0.660025 -5.521812
v 1.880597 0.575390 -5.568594
v 1.880597 0.660025 -5.568594
v 1.718113 0.561948 -5.593362
v 1.701554 0.561948 -5.676732
v 1.701554 0.673468 -5.676732
v 1.718113 0.673468 -5.593362
v 1.888069 0.673468 -5.579770
v 1.888069 0.561948 -5.579770
v 1.841848 0.561948 -5.510637
v 1.841848 0.673468 -5.510637
v 2.004574 0.652643 -5.485707
v 2.004574 0.582772 -5.485707
v 1.979433 0.575390 -5.434822
v 1.979433 0.660025 -5.434822
v 1.952230 0.660025 -5.453009
v 1.989644 0.652643 -5.495689
v 1.989644 0.582772 -5.495689
v 1.952230 0.575390 -5.453009
v 2.010710 0.660025 -5.481605
v 2.010710 0.575390 -5.481605
v 1.983507 0.660025 -5.499792
v 1.983507 0.575390 -5.499792
v 2.047535 0.652643 -5.549966
v 2.047535 0.582772 -5.549966
v 2.032605 0.652643 -5.559947
v 2.032605 0.582772 -5.559947
v 1.654031 0.673468 -5.736240
v 1.654031 0.784988 -5.736240
v 1.788982 0.686911 -5.562152
v 1.788982 0.771546 -5.562152
v 1.820259 0.686911 -5.608934
v 1.820259 0.771546 -5.608934
v 1.657776 0.673468 -5.633703
v 1.641216 0.673468 -5.717072
v 1.641216 0.784988 -5.717072
v 1.657776 0.784988 -5.633703
v 1.827731 0.784988 -5.620110
v 1.827731 0.673468 -5.620110
v 1.781511 0.673468 -5.550977
v 1.781511 0.784988 -5.550977
v 1.944236 0.764164 -5.526048
v 1.944236 0.694293 -5.526048
v 1.919095 0.686911 -5.475163
v 1.919095 0.771546 -5.475163
v 1.891892 0.771546 -5.493350
v 1.929306 0.764164 -5.536029
v 1.929306 0.694293 -5.536029
v 1.891892 0.686911 -5.493350
v 1.950372 0.771546 -5.521945
v 1.950372 0.686911 -5.521945
v 1.923169 0.771546 -5.540132
v 1.923169 0.686911 -5.540132
v 1.987197 0.764164 -5.590306
v 1.987197 0.694293 -5.590306
v 1.972267 0.764164 -5.600287
v 1.972267 0.694293 -5.600287
v 1.717588 0.784988 -5.693748
v 1.717588 0.896508 -5.693748
v 1.852539 0.798431 -5.519660
v 1.852539 0.883066 -5.519660
v 1.883816 0.798431 -5.566442
v 1.883816 0.883066 -5.566442
v 1.721333 0.784988 -5.591210
v 1.704773 0.784988 -5.674580
v 1.704773 0.896508 -5.674580
v 1.721333 0.896508 -5.591210
v 1.891288 0.896508 -5.577617
v 1.891288 0.784988 -5.577617
v 1.845068 0.784988 -5.508484
v 1.845068 0.896508 -5.508484
v 2.007793 0.875684 -5.483555
v 2.007793 0.805813 -5.483555
v 1.982652 0.798431 -5.432670
v 1.982652 0.883066 -5.432670
v 1.955449 0.883066 -5.450857
v 1.992863 0.875684 -5.493536
v 1.992863 0.805813 -5.493536
v 1.955449 0.798431 -5.450857
v 2.013930 0.883066 -5.479452
v 2.013930 0.798431 -5.479452
v 1.986727 0.883066 -5.497640
v 1.986727 0.798431 -5.497640
v 2.050754 0.875684 -5.547813
v 2.050754 0.805813 -5.547813
v 2.035825 0.875684 -5.557795
v 2.035825 0.805813 -5.557795
v 1.682338 0.896508 -5.717316
v 1.682338 1.008029 -5.717316
v 1.817288 0.909951 -5.543228
v 1.817288 0.994586 -5.543228
v 1.848566 0.909951 -5.590010
v 1.848566 0.994586 -5.590010
v 1.686082 0.896508 -5.614778
v 1.669522 0.896508 -5.698147
v 1.669522 1.008029 -5.698147
v 1.686082 1.008029 -5.614778
v 1.856037 1.008029 -5.601185
v 1.856037 0.896508 -5.601185
v 1.809817 0.896508 -5.532053
v 1.809817 1.008029 -5.532053
v 1.972542 0.987204 -5.507123
v 1.972542 0.917333 -5.507123
v 1.947401 0.909951 -5.456238
v 1.947401 0.994586 -5.456238
v 1.920198 0.994586 -5.474425
v 1.957612 0.987204 -5.517104
v 1.957612 0.917333 -5.517104
v 1.920198 0.909951 -5.474425
v 1.978678 0.994586 -5.503020
v 1.978678 0.909951 -5.503020
v 1.951476 0.994586 -5.521207
v 1.951476 0.909951 -5.521207
v 2.015503 0.987204 -5.571381
v 2.015503 0.917333 -5.571381
v 2.000574 0.987204 -5.581363
v 2.000574 0.917333 -5.581363
v 1.692804 1.008029 -5.710318
v 1.692804 1.119549 -5.710318
v 1.827755 1.021471 -5.536230
v 1.827755 1.106106 -5.536230
v 1.859032 1.021471 -5.583012
v 1.859032 1.106106 -5.583012
v 1.696548 1.008029 -5.607780
v 1.679989 1.008029 -5.691150
v 1.679989 1.119549 -5.691150
v 1.696548 1.119549 -5.607780
v 1.866504 1.119549 -5.594187
v 1.866504 1.008029 -5.594187
v 1.820283 1.008029 -5.525054
v 1.820283 1.119549 -5.525054
v 1.983009 1.098724 -5.500125
v 1.983009 1.028853 -5.500125
v 1.957868 1.021471 -5.449240
v 1.957868 1.106106 -5.449240
v 1.930665 1.106106 -5.467427
v 1.968079 1.098724 -5.510107
v 1.968079 1.028853 -5.510107
v 1.930665 1.021471 -5.467427
v 1.989145 1.106106 -5.496022
v 1.989145 1.021471 -5.496022
v 1.961942 1.106106 -5.514209
v 1.961942 1.021471 -5.514209
v 2.025970 1.098724 -5.564384
v 2.025970 1.028853 -5.564384
v 2.011040 1.098724 -5.574365
v 2.011040 1.028853 -5.574365
v 1.645965 1.119549 -5.741633
v 1.645965 1.231069 -5.741633
v 1.780915 1.132992 -5.567545
v 1.780915 1.217626 -5.567545
v 1.812193 1.132992 -5.614327
v 1.812193 1.217626 -5.614327
v 1.649709 1.119549 -5.639096
v 1.633150 1.119549 -5.722465
v 1.633150 1.231069 -5.722465
v 1.649709 1.231069 -5.639096
v 1.819664 1.231069 -5.625503
v 1.819664 1.119549 -5.625503
v 1.773444 1.119549 -5.556370
v 1.773444 1.231069 -5.556370
v 1.936169 1.210245 -5.531441
v 1.936169 1.140373 -5.531441
v 1.911028 1.132992 -5.480556
v 1.911028 1.217626 -5.480556
v 1.883825 1.217626 -5.498743
v 1.921240 1.210245 -5.541422
v 1.921240 1.140373 -5.541422
v 1.883825 1.132992 -5.498743
v 1.942306 1.217626 -5.527338
v 1.942306 1.132992 -5.527338
v 1.915103 1.217626 -5.545525
v 1.915103 1.132992 -5.545525
v 1.979131 1.210245 -5.595699
v 1.979131 1.140373 -5.595699
v 1.964201 1.210245 -5.605681
v 1.964201 1.140373 -5.605681
v 1.644530 1.231069 -5.742592
v 1.644530 1.342589 -5.742592
v 1.779481 1.244512 -5.568505
v 1.779481 1.329147 -5.568505
v 1.810758 1.244512 -5.615287
v 1.810758 1.329147 -5.615287
v 1.648274 1.231069 -5.640055
v 1.631715 1.231069 -5.723424
v 1.631715 1.342589 -5.723424
v 1.648274 1.342589 -5.640055
v 1.818229 1.342589 -5.626462
v 1.818229 1.231069 -5.626462
v 1.772009 1.231069 -5.557329
v 1.772009 1.342589 -5.557329
v 1.934734 1.321765 -5.532400
v 1.934734 1.251894 -5.532400
v 1.909594 1.244512 -5.481514
v 1.909594 1.329147 -5.481514
v 1.882390 1.329147 -5.499702
v 1.919805 1.321765 -5.542381
v 1.919805 1.251894 -5.542381
v 1.882390 1.244512 -5.499702
v 1.940871 1.329147 -5.528297
v 1.940871 1.244512 -5.528297
v 1.913668 1.329147 -5.546484
v 1.913668 1.244512 -5.546484
v 1.977696 1.321765 -5.596658
v 1.977696 1.251894 -5.596658
v 1.962766 1.321765 -5.606640
v 1.962766 1.251894 -5.606640
v 1.683451 1.342589 -5.716571
v 1.683451 1.454110 -5.716571
v 1.818402 1.356032 -5.542483
v 1.818402 1.440667 -5.542483
v 1.849679 1.356032 -5.589265
v 1.849679 1.440667 -5.589265
v 1.687196 1.342589 -5.614033
v 1.670636 1.342589 -5.697402
v 1.670636 1.454110 -5.697402
v 1.687196 1.454110 -5.614033
v 1.857151 1.454110 -5.600441
v 1.857151 1.342589 -5.600441
v 1.810930 1.342589 -5.531307
v 1.810930 1.454110 -5.531307
v 1.973656 1.433285 -5.506378
v 1.973656 1.363414 -5.506378
v 1.948515 1.356032 -5.455493
v 1.948515 1.440667 -5.455493
v 1.921312 1.440667 -5.473680
v 1.958726 1.433285 -5.516360
v 1.958726 1.363414 -5.516360
v 1.921312 1.356032 -5.473680
v 1.979792 1.440667 -5.502275
v 1.979792 1.356032 -5.502275
v 1.952590 1.440667 -5.520463
v 1.952590 1.356032 -5.520463
v 2.016617 1.433285 -5.570637
v 2.016617 1.363414 -5.570637
v 2.001688 1.433285 -5.580618
v 2.001688 1.363414 -5.580618
v 1.687029 1.454110 -5.714179
v 1.687029 1.565630 -5.714179
v 1.821980 1.467552 -5.540091
v 1.821980 1.552187 -5.540091
v 1.853257 1.467552 -5.586874
v 1.853257 1.552187 -5.586874
v 1.690773 1.454110 -5.611641
v 1.674213 1.454110 -5.695011
v 1.674213 1.565630 -5.695011
v 1.690773 1.565630 -5.611641
v 1.860728 1.565630 -5.598049
v 1.860728 1.454110 -5.598049
v 1.814508 1.454110 -5.528916
v 1.814508 1.565630 -5.528916
v 1.977233 1.544805 -5.503986
v 1.977233 1.474934 -5.503986
v 1.952092 1.467552 -5.453101
v 1.952092 1.552187 -5.453101
v 1.924889 1.552187 -5.471288
v 1.962303 1.544805 -5.513968
v 1.962303 1.474934 -5.513968
v 1.924889 1.467552 -5.471288
v 1.983370 1.552187 -5.499884
v 1.983370 1.467552 -5.499884
v 1.956167 1.552187 -5.518071
v 1.956167 1.467552 -5.518071
v 2.020195 1.544805 -5.568245
v 2.020195 1.474934 -5.568245
v 2.005265 1.544805 -5.578227
v 2.005265 1.474934 -5.578227
v 1.671288 1.565630 -5.724702
v 1.671288 1.677150 -5.724702
v 1.806239 1.579073 -5.550615
v 1.806239 1.663707 -5.550615
v 1.837517 1.579073 -5.597397
v 1.837517 1.663707 -5.597397
v 1.675033 1.565630 -5.622165
v 1.658473 1.565630 -5.705534
v 1.658473 1.677150 -5.705534
v 1.675033 1.677150 -5.622165
v 1.844988 1.677150 -5.608572
v 1.844988 1.565630 -5.608572
v 1.798768 1.565630 -5.539439
v 1.798768 1.677150 -5.539439
v 1.961493 1.656326 -5.514510
v 1.961493 1.586454 -5.514510
v 1.936352 1.579073 -5.463624
v 1.936352 1.663707 -5.463624
v 1.909149 1.663707 -5.481812
v 1.946563 1.656326 -5.524491
v 1.946563 1.586454 -5.524491
v 1.909149 1.579073 -5.481812
v 1.967630 1.663707 -5.510407
v 1.967630 1.579073 -5.510407
v 1.940427 1.663707 -5.528594
v 1.940427 1.579073 -5.528594
v 2.004454 1.656326 -5.578768
v 2.004454 1.586454 -5.578768
v 1.989525 1.656326 -5.588750
v 1.989525 1.586454 -5.588750
v 1.674942 1.677150 -5.722260
v 1.674942 1.788670 -5.722260
v 1.809893 1.690593 -5.548172
v 1.809893 1.775228 -5.548172
v 1.841170 1.690593 -5.594954
v 1.841170 1.775228 -5.594954
v 1.678686 1.677150 -5.619722
v 1.662127 1.677150 -5.703092
v 1.662127 1.788670 -5.703092
v 1.678686 1.788670 -5.619722
v 1.848641 1.788670 -5.606130
v 1.848641 1.677150 -5.606130
v 1.802421 1.677150 -5.536997
v 1.802421 1.788670 -5.536997
v 1.965146 1.767846 -5.512067
v 1.965146 1.697975 -5.512067
v 1.940006 1.690593 -5.461182
v 1.940006 1.775228 -5.461182
v 1.912802 1.775228 -5.479369
v 1.950217 1.767846 -5.522049
v 1.950217 1.697975 -5.522049
v 1.912802 1.690593 -5.479369
v 1.971283 1.775228 -5.507965
v 1.971283 1.690593 -5.507965
v 1.944080 1.775228 -5.526152
v 1.944080 1.690593 -5.526152
v 2.008108 1.767846 -5.576326
v 2.008108 1.697975 -5.576326
v 1.993178 1.767846 -5.586308
v 1.993178 1.697975 -5.586308
v 1.685333 1.788670 -5.715312
v 1.685333 1.900191 -5.715312
v 1.820284 1.802113 -5.541224
v 1.820284 1.886748 -5.541224
v 1.851562 1.802113 -5.588007
v 1.851562 1.886748 -5.588007
v 1.689078 1.788670 -5.612775
v 1.672518 1.788670 -5.696144
v 1.672518 1.900191 -5.696144
v 1.689078 1.900191 -5.612775
v 1.859033 1.900191 -5.599182
v 1.859033 1.788670 -5.599182
v 1.812813 1.788670 -5.530049
v 1.812813 1.900191 -5.530049
v 1.975538 1.879366 -5.505120
v 1.975538 1.809495 -5.505120
v 1.950397 1.802113 -5.454235
v 1.950397 1.886748 -5.454235
v 1.923194 1.886748 -5.472422
v 1.960608 1.879366 -5.515101
v 1.960608 1.809495 -5.515101
v 1.923194 1.802113 -5.472422
v 1.981675 1.886748 -5.501017
v 1.981675 1.802113 -5.501017
v 1.954471 1.886748 -5.519204
v 1.954471 1.802113 -5.519204
v 2.018499 1.879366 -5.569378
v 2.018499 1.809495 -5.569378
v 2.003570 1.879366 -5.579360
v 2.003570 1.809495 -5.579360
v 1.702080 1.900191 -5.704117
v 1.702080 2.011711 -5.704117
v 1.837030 1.913633 -5.530029
v 1.837030 1.998268 -5.530029
v 1.868308 1.913633 -5.576811
v 1.868308 1.998268 -5.576811
v 1.705824 1.900191 -5.601579
v 1.689264 1.900191 -5.684948
v 1.689264 2.011711 -5.684948
v 1.705824 2.011711 -5.601579
v 1.875779 2.011711 -5.587986
v 1.875779 1.900191 -5.587986
v 1.829559 1.900191 -5.518854
v 1.829559 2.011711 -5.518854
v 1.992284 1.990886 -5.493924
v 1.992284 1.921015 -5.493924
v 1.967143 1.913633 -5.443039
v 1.967143 1.998268 -5.443039
v 1.939940 1.998268 -5.461226
v 1.977354 1.990886 -5.503905
v 1.977354 1.921015 -5.503905
v 1.939940 1.913633 -5.461226
v 1.998420 1.998268 -5.489821
v 1.998420 1.913633 -5.489821
v 1.971217 1.998268 -5.508008
v 1.971217 1.913633 -5.508008
v 2.035245 1.990886 -5.558182
v 2.035245 1.921015 -5.558182
v 2.020316 1.990886 -5.568164
v 2.020316 1.921015 -5.568164
v 1.644001 2.011711 -5.742946
v 1.644001 2.123231 -5.742946
v 1.778952 2.025154 -5.568858
v 1.778952 2.109788 -5.568858
v 1.810229 2.025154 -5.615640
v 1.810229 2.109788 -5.615640
v 1.647746 2.011711 -5.640409
v 1.631186 2.011711 -5.723778
v 1.631186 2.123231 -5.723778
v 1.647746 2.123231 -5.640409
v 1.817701 2.123231 -5.626815
v 1.817701 2.011711 -5.626815
v 1.771481 2.011711 -5.557683
v 1.771481 2.123231 -5.557683
v 1.934206 2.102407 -5.532753
v 1.934206 2.032535 -5.532753
v 1.909065 2.025154 -5.481868
v 1.909065 2.109788 -5.481868
v 1.881862 2.109788 -5.500055
v 1.919276 2.102407 -5.542735
v 1.919276 2.032535 -5.542735
v 1.881862 2.025154 -5.500055
v 1.940342 2.109788 -5.528650
v 1.940342 2.025154 -5.528650
v 1.913139 2.109788 -5.546838
v 1.913139 2.025154 -5.546838
v 1.977167 2.102407 -5.597012
v 1.977167 2.032535 -5.597012
v 1.962238 2.102407 -5.606994
v 1.962238 2.032535 -5.606994
v 1.654747 2.123231 -5.735762
v 1.654747 2.234751 -5.735762
v 1.789698 2.136674 -5.561674
v 1.789698 2.221308 -5.561674
v 1.820975 2.136674 -5.608456
v 1.820975 2.221308 -5.608456
v 1.658492 2.123231 -5.633224
v 1.641932 2.123231 -5.716593
v 1.641932 2.234751 -5.716593
v 1.658492 2.234751 -5.633224
v 1.828447 2.234751 -5.619631
v 1.828447 2.123231 -5.619631
v 1.782227 2.123231 -5.550498
v 1.782227 2.234751 -5.550498
v 1.944952 2.213927 -5.525569
v 1.944952 2.144056 -5.525569
v 1.919811 2.136674 -5.474684
v 1.919811 2.221308 -5.474684
v 1.892608 2.221308 -5.492871
v 1.930022 2.213927 -5.535551
v 1.930022 2.144056 -5.535551
v 1.892608 2.136674 -5.492871
v 1.951088 2.221308 -5.521466
v 1.951088 2.136674 -5.521466
v 1.923885 2.221308 -5.539653
v 1.923885 2.136674 -5.539653
v 1.987913 2.213927 -5.589828
v 1.987913 2.144056 -5.589828
v 1.972983 2.213927 -5.599809
v 1.972983 2.144056 -5.599809
vn -0.0000 -1.0000 -0.0000
vn 0.5107 -0.1011 -0.8538
vn 0.5698 -0.0000 -0.8218
vn 0.9891 0.1465 0.0133
vn -0.9853 0.1459 0.0891
vn 0.4921 -0.0279 -0.8701
vn -0.5698 -0.0000 0.8218
vn 0.8218 -0.0000 0.5698
vn 0.0452 0.9746 0.2193
vn -0.0476 -0.9722 -0.2294
vn -0.2316 -0.9722 0.0359
vn 0.2212 0.9746 -0.0346
vn -0.1868 0.0644 -0.9803
vn -0.9835 0.0644 0.1688
vn -0.8164 0.1142 -0.5660
vn 0.5495 -0.0106 -0.8354
vn -0.0160 0.9995 0.0282
vn -0.0728 -0.9961 -0.0505
vn 0.0174 -0.9994 -0.0304
vn -0.5896 -0.0106 0.8076
vn -0.0224 -0.9994 0.0269
vn -0.4116 0.7041 0.5787
vn -0.5604 0.0027 0.8282
vn -0.0812 0.9914 0.1024
vn -0.0234 -0.0245 0.9994
vn 0.2683 -0.0745 0.9604
vn 0.7803 -0.0724 0.6213
vn -0.9051 0.0223 0.4246
vn -0.3657 0.1517 -0.9183
vn -0.7821 0.0753 -0.6186
vn -0.4029 0.7071 0.5811
vn -0.5744 -0.0010 0.8186
vn -0.5771 0.0002 0.8167
vn -0.7786 0.6115 0.1410
vn 0.0208 0.9995 -0.0249
vn -0.5162 0.1032 0.8502
vn -0.7774 0.2812 -0.5626
vn -0.8184 0.0888 -0.5677
vn -0.0503 0.9987 -0.0124
vn -0.4932 0.0327 0.8693
vn -0.0000 1.0000 -0.0000
vn -0.7895 0.2774 -0.5474
vn -0.8186 0.0886 -0.5675
vn 0.0728 0.9961 0.0505
vn -0.8688 -0.4695 0.1573
vn -0.8186 0.0886 -0.5676
vn -0.5778 0.0013 0.8162
vn -0.7483 0.4447 0.4923
vn -0.5752 0.0020 0.8180
vn 0.0080 1.0000 0.0055
vn -0.7837 0.2017 0.5875
vn -0.5971 0.0145 0.8020
vn 0.6259 0.3496 -0.6971
vn -0.5074 -0.5502 0.6632
vn 0.7227 -0.1437 0.6760
vn -0.2595 0.1152 0.9588
vn -0.5950 -0.0221 0.8034
vn -0.5996 0.0097 0.8002
vn -0.5521 -0.5606 -0.6172
vn -0.7716 -0.5606 -0.3005
vn -0.1236 0.8262 -0.5497
vn -0.1065 -0.7354 -0.6692
vn -0.6641 -0.7354 0.1350
vn -0.5582 0.8262 0.0771
vn 0.1862 -0.0977 0.9776
vn 0.9808 -0.0977 -0.1685
vn 0.8038 -0.2081 0.5573
vn -0.5326 0.1245 0.8372
vn -0.5393 -0.2421 -0.8066
vn 0.1614 -0.9691 -0.1867
vn -0.8190 -0.0830 -0.5678
vn 0.4796 0.5043 -0.7181
vn 0.5972 0.1245 -0.7924
vn -0.5043 0.5043 0.7010
vn -0.3511 0.6846 0.6388
vn -0.6252 0.0150 0.7803
vn -0.5743 -0.4840 0.6603
vn -0.8284 0.0376 -0.5589
vn -0.8702 0.1420 -0.4717
vn -0.8064 0.1481 -0.5725
vn 0.8125 -0.0518 0.5806
vn 0.6331 0.3328 -0.6989
vn 0.7039 0.0368 0.7093
vn 0.2863 -0.6959 -0.6586
vn 0.5065 0.0119 -0.8621
vn 0.5441 -0.0158 -0.8389
vn 0.8225 -0.5584 -0.1079
vn -0.0476 -0.9926 0.1119
vn 0.2093 -0.0076 -0.9778
vn -0.7546 -0.3960 -0.5232
vn -0.8424 0.2904 -0.4539
vn -0.8555 0.0976 -0.5085
vn -0.0144 0.9773 -0.2113
vn 0.6179 0.0372 -0.7854
vn -0.6194 -0.0012 0.7851
vn 0.5485 -0.0056 -0.8361
vn 0.0397 -0.9992 -0.0061
vn -0.1342 -0.9854 -0.1051
vn -0.1708 -0.9793 -0.1081
vn 0.7728 -0.2679 0.5753
vn 0.8289 -0.1021 0.5500
vn -0.2610 -0.9482 -0.1810
vn 0.8902 0.4046 -0.2094
vn 0.8081 -0.1098 0.5787
vn 0.5519 -0.0227 -0.8336
vn 0.7271 -0.4310 -0.5344
vn 0.8142 -0.2724 0.5127
vn 0.5053 -0.6917 -0.5159
vn 0.6022 0.0030 -0.7984
vn -0.1611 -0.2708 0.9491
vn 0.7354 0.4462 0.5099
vn 0.8323 -0.2708 -0.4837
vn 0.5760 -0.0204 0.8172
vn 0.9673 -0.0204 0.2528
vn 0.5558 -0.0000 -0.8313
vn -0.9808 -0.0000 0.1948
vn -0.8313 -0.0000 -0.5558
vn -0.5558 -0.0000 0.8313
vn 0.8313 -0.0000 0.5558
vt 0.375000 0.875000
vt 0.625000 0.875000
vt 0.625000 1.000000
vt 0.375000 1.000000
vt 0.292894 0.500000
vt 0.350371 0.396139
vt 0.125000 0.500000
vt 0.187500 0.500000
vt 0.250000 0.500000
vt 0.250000 0.589572
vt 0.125000 0.589572
vt 0.511563 0.324786
vt 0.500855 0.312500
vt 0.817343 0.736723
vt 0.807657 0.736723
vt 0.804398 0.491588
vt 0.818097 0.589572
vt 0.425610 0.312500
vt 0.430964 0.250000
vt 0.250000 0.736723
vt 0.125000 0.736723
vt 0.806903 0.589572
vt 0.000000 0.000000
vt 0.375000 0.013277
vt 0.397847 0.013277
vt 0.398006 1.000000
vt 0.375000 0.994512
vt 0.625000 0.994512
vt 0.601994 1.000000
vt 0.602153 0.013277
vt 0.625000 0.013277
vt 0.375000 0.001003
vt 0.398006 0.000000
vt 0.625000 0.001003
vt 0.601994 0.000000
vt 0.136139 0.736723
vt 0.250000 0.750000
vt 0.135975 0.750000
vt 0.450245 0.312500
vt 0.750000 0.736723
vt 0.863861 0.736723
vt 0.864025 0.750000
vt 0.750000 0.750000
vt 0.511563 0.299938
vt 0.625000 0.302879
vt 0.625000 0.322121
vt 0.789885 0.499705
vt 0.625000 0.375000
vt 0.511563 0.375000
vt 0.750000 0.522012
vt 0.750000 0.589572
vt 0.625000 0.151220
vt 0.633867 0.172917
vt 0.536960 0.220879
vt 0.875000 0.736723
vt 0.399629 0.353861
vt 0.366795 0.500000
vt 0.487687 0.013277
vt 0.512313 0.013277
vt 0.487685 0.160428
vt 0.512315 0.160428
vt 0.455598 0.250000
vt 0.375000 0.312500
vt 0.375000 0.375000
vt 0.511563 0.250000
vt 0.375000 0.250000
vt 0.375000 0.160428
vt 0.656963 0.205447
vt 0.847537 0.589572
vt 0.875000 0.607988
vt 0.625000 0.250000
vt 0.625000 0.288871
vt 0.594860 0.250000
vt 0.832964 0.457964
vt 0.762023 0.477444
vt 0.534689 0.500000
vt 0.814963 0.485680
vt 0.870522 0.572039
vt 0.625000 0.500000
vt 0.375000 0.500000
vt 0.594865 0.540412
vt 0.594865 0.709588
vt 0.594865 0.709588
vt 0.594865 0.540412
vt 0.375000 0.000000
vt 0.625000 0.000000
vt 0.625000 0.180683
vt 0.375000 0.180683
vt 0.375000 0.750000
vt 0.196912 0.750000
vt 0.125000 0.569317
vt 0.625000 0.750000
vt 0.625000 0.928088
vt 0.375000 0.928088
vt 0.875000 0.500000
vt 0.875000 0.569317
vt 0.803088 0.750000
vt 0.405135 0.540412
vt 0.405135 0.709588
vt 0.421683 0.540412
vt 0.578317 0.540412
vt 0.405135 0.709588
vt 0.405135 0.540412
vt 0.421683 0.540412
s 0
usemtl Dunkles_Holz
f 54/5/2 57/6/2 61/6/2 49/5/2
f 41/12/4 42/13/4 33/13/4 30/12/4
f 35/16/5 37/17/5 43/17/5 47/16/5
f 52/18/6 54/19/6 49/19/6 50/18/6
f 43/17/7 44/14/7 45/15/7 29/22/7
f 13/23/8 4/23/8 16/23/8 17/23/8
f 53/39/8 52/18/8 50/18/8 51/39/8
f 32/44/22 47/45/22 46/46/22 30/12/22
f 47/16/23 43/17/23 29/22/23 46/47/23
f 32/44/24 30/12/24 33/13/24
f 38/15/25 36/22/25 29/22/25 45/15/25
f 36/22/26 34/47/26 46/47/26 29/22/26
f 34/46/27 41/12/27 30/12/27 46/46/27
f 37/17/28 39/14/28 44/14/28 43/17/28
f 42/13/29 40/44/29 32/44/29 33/13/29
f 40/44/30 35/45/30 47/45/30 32/44/30
f 56/56/36 55/57/36 48/57/36 60/56/36
f 49/5/37 61/6/37 60/56/37 48/57/37
f 61/60/38 62/58/38 63/59/38 60/61/38
f 50/18/39 49/19/39 48/62/39 51/39/39
f 55/62/40 53/39/40 51/39/40 48/62/40
f 57/60/3 59/58/3 62/58/3 61/60/3
f 58/59/7 56/61/7 60/61/7 63/59/7
f 128/5/51 123/5/51 135/6/51 131/6/51
f 115/12/53 104/12/53 107/13/53 116/13/53
f 113/14/54 118/14/54 119/15/54 112/15/54
f 109/16/55 121/16/55 117/17/55 111/17/55
f 117/17/58 103/22/58 119/15/58 118/14/58
f 74/23/59 87/23/59 90/23/59 86/23/59
f 85/23/60 89/23/60 88/23/60 75/23/60
f 91/24/61 93/24/61 92/25/61
f 94/26/62 96/4/62 95/27/62
f 97/28/63 99/3/63 98/29/63
f 100/30/64 102/31/64 101/31/64
f 91/24/65 92/25/65 94/33/65 95/32/65
f 97/34/66 98/35/66 100/30/66 101/31/66
f 94/33/67 92/25/67 100/30/67 98/35/67
f 91/36/68 95/38/68 88/37/68 89/20/68
f 127/39/69 125/39/69 124/18/69 126/18/69
f 83/21/70 93/21/70 91/36/70 89/20/70 85/20/70
f 72/4/71 96/4/71 94/26/71 98/29/71 99/3/71 71/3/71
f 75/1/72 88/1/72 95/27/72 96/4/72 72/4/72
f 90/40/73 87/43/73 97/42/73 101/41/73
f 71/3/74 99/3/74 97/28/74 87/2/74 74/2/74
f 106/44/75 104/12/75 120/46/75 121/45/75
f 121/16/76 120/47/76 103/22/76 117/17/76
f 106/44/77 107/13/77 104/12/77
f 112/15/78 119/15/78 103/22/78 110/22/78
f 110/22/79 103/22/79 120/47/79 108/47/79
f 108/46/80 120/46/80 104/12/80 115/12/80
f 111/17/81 117/17/81 118/14/81 113/14/81
f 116/13/82 107/13/82 106/44/82 114/44/82
f 114/44/83 106/44/83 121/45/83 109/45/83
f 86/40/88 90/40/88 101/41/88 102/55/88 84/55/88 113/14/88 112/15/88
f 130/56/89 134/56/89 122/57/89 129/57/89
f 133/58/90 136/58/90 137/59/90 132/59/90
f 123/5/91 122/57/91 134/56/91 135/6/91
f 135/60/92 134/61/92 137/59/92 136/58/92
f 124/18/93 125/39/93 122/62/93 123/19/93
f 129/62/94 122/62/94 125/39/94 127/39/94
f 131/60/95 135/60/95 136/58/95 133/58/95
f 132/59/96 137/59/96 134/61/96 130/61/96
f 84/31/102 102/31/102 100/30/102 92/25/102 93/24/102 83/24/102 133/58/102 132/59/102
f 5/10/8 2/9/8 73/9/8 76/10/8
f 4/23/110 13/23/110 85/23/110 75/23/110
f 14/23/112 3/23/112 74/23/112 86/23/112
f 13/20/113 5/10/113 76/10/113 85/20/113
usemtl Helles_Metall
f 4/1/1 3/2/1 26/3/1 1/4/1
f 3/23/8 14/23/8 18/23/8 15/23/8
f 19/24/9 20/25/9 21/24/9
f 22/26/10 23/27/10 1/4/10
f 24/28/11 25/29/11 26/3/11
f 27/30/12 28/31/12 12/31/12
f 19/24/13 23/32/13 22/33/13 20/25/13
f 24/34/14 28/31/14 27/30/14 25/35/14
f 22/33/15 25/35/15 27/30/15 20/25/15
f 19/36/16 17/20/16 16/37/16 23/38/16
f 21/21/17 13/20/17 17/20/17 19/36/17
f 1/4/18 26/3/18 25/29/18 22/26/18
f 4/1/19 1/4/19 23/27/19 16/1/19
f 18/40/20 28/41/20 24/42/20 15/43/20
f 26/3/21 3/2/21 15/2/21 24/28/21
f 14/40/35 38/15/35 39/14/35 12/55/35 28/41/35 18/40/35
f 12/31/44 58/59/44 59/58/44 21/24/44 20/25/44 27/30/44
f 75/1/50 72/4/50 71/3/50 74/2/50
f 3/2/111 4/1/111 75/1/111 74/2/111
f 145/66/115 146/71/115 155/79/115 156/80/115
f 145/7/1 156/80/1 157/89/1 151/90/1 152/91/1
f 152/88/117 153/87/117 146/71/117 145/66/117
f 157/89/118 158/92/118 154/93/118 151/94/118
f 155/79/41 146/95/41 153/96/41 154/97/41 158/92/41
f 150/84/119 149/98/119 156/80/119 155/79/119
f 149/98/119 147/99/119 157/89/119 156/80/119
f 148/83/119 150/84/119 155/79/119 158/92/119
f 147/99/119 148/83/119 158/92/119 157/89/119
f 165/100/117 164/101/117 173/101/117 174/100/117
f 160/104/115 159/101/115 167/84/115 168/98/115
f 164/101/115 165/100/115 170/103/115 169/81/115
f 175/66/115 176/71/115 185/79/115 186/80/115
f 175/7/1 186/80/1 187/89/1 181/90/1 182/91/1
f 182/88/117 183/87/117 176/71/117 175/66/117
f 187/89/118 188/92/118 184/93/118 181/94/118
f 185/79/41 176/95/41 183/96/41 184/97/41 188/92/41
f 180/84/119 179/98/119 186/80/119 185/79/119
f 179/98/119 177/99/119 187/89/119 186/80/119
f 178/83/119 180/84/119 185/79/119 188/92/119
f 177/99/119 178/83/119 188/92/119 187/89/119
f 195/100/117 194/101/117 203/101/117 204/100/117
f 190/104/115 189/101/115 197/84/115 198/98/115
f 194/101/115 195/100/115 200/103/115 199/81/115
f 205/66/115 206/71/115 215/79/115 216/80/115
f 205/7/1 216/80/1 217/89/1 211/90/1 212/91/1
f 212/88/117 213/87/117 206/71/117 205/66/117
f 217/89/118 218/92/118 214/93/118 211/94/118
f 215/79/41 206/95/41 213/96/41 214/97/41 218/92/41
f 210/84/119 209/98/119 216/80/119 215/79/119
f 209/98/119 207/99/119 217/89/119 216/80/119
f 208/83/119 210/84/119 215/79/119 218/92/119
f 207/99/119 208/83/119 218/92/119 217/89/119
f 225/100/117 224/101/117 233/101/117 234/100/117
f 220/104/115 219/101/115 227/84/115 228/98/115
f 224/101/115 225/100/115 230/103/115 229/81/115
f 235/66/115 236/71/115 245/79/115 246/80/115
f 235/7/1 246/80/1 247/89/1 241/90/1 242/91/1
f 242/88/117 243/87/117 236/71/117 235/66/117
f 247/89/118 248/92/118 244/93/118 241/94/118
f 245/79/41 236/95/41 243/96/41 244/97/41 248/92/41
f 240/84/119 239/98/119 246/80/119 245/79/119
f 239/98/119 237/99/119 247/89/119 246/80/119
f 238/83/119 240/84/119 245/79/119 248/92/119
f 237/99/119 238/83/119 248/92/119 247/89/119
f 255/100/117 254/101/117 263/101/117 264/100/117
f 250/104/115 249/101/115 257/84/115 258/98/115
f 254/101/115 255/100/115 260/103/115 259/81/115
f 265/66/115 266/71/115 275/79/115 276/80/115
f 265/7/1 276/80/1 277/89/1 271/90/1 272/91/1
f 272/88/117 273/87/117 266/71/117 265/66/117
f 277/89/118 278/92/118 274/93/118 271/94/118
f 275/79/41 266/95/41 273/96/41 274/97/41 278/92/41
f 270/84/119 269/98/119 276/80/119 275/79/119
f 269/98/119 267/99/119 277/89/119 276/80/119
f 268/83/119 270/84/119 275/79/119 278/92/119
f 267/99/119 268/83/119 278/92/119 277/89/119
f 285/100/117 284/101/117 293/101/117 294/100/117
f 280/104/115 279/101/115 287/84/115 288/98/115
f 284/101/115 285/100/115 290/103/115 289/81/115
f 295/66/115 296/71/115 305/79/115 306/80/115
f 295/7/1 306/80/1 307/89/1 301/90/1 302/91/1
f 302/88/117 303/87/117 296/71/117 295/66/117
f 307/89/118 308/92/118 304/93/118 301/94/118
f 305/79/41 296/95/41 303/96/41 304/97/41 308/92/41
f 300/84/119 299/98/119 306/80/119 305/79/119
f 299/98/119 297/99/119 307/89/119 306/80/119
f 298/83/119 300/84/119 305/79/119 308/92/119
f 297/99/119 298/83/119 308/92/119 307/89/119
f 315/100/117 314/101/117 323/101/117 324/100/117
f 310/104/115 309/101/115 317/84/115 318/98/115
f 314/101/115 315/100/115 320/103/115 319/81/115
f 325/66/115 326/71/115 335/79/115 336/80/115
f 325/7/1 336/80/1 337/89/1 331/90/1 332/91/1
f 332/88/117 333/87/117 326/71/117 325/66/117
f 337/89/118 338/92/118 334/93/118 331/94/118
f 335/79/41 326/95/41 333/96/41 334/97/41 338/92/41
f 330/84/119 329/98/119 336/80/119 335/79/119
f 329/98/119 327/99/119 337/89/119 336/80/119
f 328/83/119 330/84/119 335/79/119 338/92/119
f 327/99/119 328/83/119 338/92/119 337/89/119
f 345/100/117 344/101/117 353/101/117 354/100/117
f 340/104/115 339/101/115 347/84/115 348/98/115
f 344/101/115 345/100/115 350/103/115 349/81/115
f 355/66/115 356/71/115 365/79/115 366/80/115
f 355/7/1 366/80/1 367/89/1 361/90/1 362/91/1
f 362/88/117 363/87/117 356/71/117 355/66/117
f 367/89/118 368/92/118 364/93/118 361/94/118
f 365/79/41 356/95/41 363/96/41 364/97/41 368/92/41
f 360/84/119 359/98/119 366/80/119 365/79/119
f 359/98/119 357/99/119 367/89/119 366/80/119
f 358/83/119 360/84/119 365/79/119 368/92/119
f 357/99/119 358/83/119 368/92/119 367/89/119
f 375/100/117 374/101/117 383/101/117 384/100/117
f 370/104/115 369/101/115 377/84/115 378/98/115
f 374/101/115 375/100/115 380/103/115 379/81/115
f 385/66/115 386/71/115 395/79/115 396/80/115
f 385/7/1 396/80/1 397/89/1 391/90/1 392/91/1
f 392/88/117 393/87/117 386/71/117 385/66/117
f 397/89/118 398/92/118 394/93/118 391/94/118
f 395/79/41 386/95/41 393/96/41 394/97/41 398/92/41
f 390/84/119 389/98/119 396/80/119 395/79/119
f 389/98/119 387/99/119 397/89/119 396/80/119
f 388/83/119 390/84/119 395/79/119 398/92/119
f 387/99/119 388/83/119 398/92/119 397/89/119
f 405/100/117 404/101/117 413/101/117 414/100/117
f 400/104/115 399/101/115 407/84/115 408/98/115
f 404/101/115 405/100/115 410/103/115 409/81/115
f 415/66/115 416/71/115 425/79/115 426/80/115
f 415/7/1 426/80/1 427/89/1 421/90/1 422/91/1
f 422/88/117 423/87/117 416/71/117 415/66/117
f 427/89/118 428/92/118 424/93/118 421/94/118
f 425/79/41 416/95/41 423/96/41 424/97/41 428/92/41
f 420/84/119 419/98/119 426/80/119 425/79/119
f 419/98/119 417/99/119 427/89/119 426/80/119
f 418/83/119 420/84/119 425/79/119 428/92/119
f 417/99/119 418/83/119 428/92/119 427/89/119
f 435/100/117 434/101/117 443/101/117 444/100/117
f 430/104/115 429/101/115 437/84/115 438/98/115
f 434/101/115 435/100/115 440/103/115 439/81/115
f 445/66/115 446/71/115 455/79/115 456/80/115
f 445/7/1 456/80/1 457/89/1 451/90/1 452/91/1
f 452/88/117 453/87/117 446/71/117 445/66/117
f 457/89/118 458/92/118 454/93/118 451/94/118
f 455/79/41 446/95/41 453/96/41 454/97/41 458/92/41
f 450/84/119 449/98/119 456/80/119 455/79/119
f 449/98/119 447/99/119 457/89/119 456/80/119
f 448/83/119 450/84/119 455/79/119 458/92/119
f 447/99/119 448/83/119 458/92/119 457/89/119
f 465/100/117 464/101/117 473/101/117 474/100/117
f 460/104/115 459/101/115 467/84/115 468/98/115
f 464/101/115 465/100/115 470/103/115 469/81/115
f 475/66/115 476/71/115 485/79/115 486/80/115
f 475/7/1 486/80/1 487/89/1 481/90/1 482/91/1
f 482/88/117 483/87/117 476/71/117 475/66/117
f 487/89/118 488/92/118 484/93/118 481/94/118
f 485/79/41 476/95/41 483/96/41 484/97/41 488/92/41
f 480/84/119 479/98/119 486/80/119 485/79/119
f 479/98/119 477/99/119 487/89/119 486/80/119
f 478/83/119 480/84/119 485/79/119 488/92/119
f 477/99/119 478/83/119 488/92/119 487/89/119
f 495/100/117 494/101/117 503/101/117 504/100/117
f 490/104/115 489/101/115 497/84/115 498/98/115
f 494/101/115 495/100/115 500/103/115 499/81/115
f 505/66/115 506/71/115 515/79/115 516/80/115
f 505/7/1 516/80/1 517/89/1 511/90/1 512/91/1
f 512/88/117 513/87/117 506/71/117 505/66/117
f 517/89/118 518/92/118 514/93/118 511/94/118
f 515/79/41 506/95/41 513/96/41 514/97/41 518/92/41
f 510/84/119 509/98/119 516/80/119 515/79/119
f 509/98/119 507/99/119 517/89/119 516/80/119
f 508/83/119 510/84/119 515/79/119 518/92/119
f 507/99/119 508/83/119 518/92/119 517/89/119
f 525/100/117 524/101/117 533/101/117 534/100/117
f 520/104/115 519/101/115 527/84/115 528/98/115
f 524/101/115 525/100/115 530/103/115 529/81/115
f 535/66/115 536/71/115 545/79/115 546/80/115
f 535/7/1 546/80/1 547/89/1 541/90/1 542/91/1
f 542/88/117 543/87/117 536/71/117 535/66/117
f 547/89/118 548/92/118 544/93/118 541/94/118
f 545/79/41 536/95/41 543/96/41 544/97/41 548/92/41
f 540/84/119 539/98/119 546/80/119 545/79/119
f 539/98/119 537/99/119 547/89/119 546/80/119
f 538/83/119 540/84/119 545/79/119 548/92/119
f 537/99/119 538/83/119 548/92/119 547/89/119
f 555/100/117 554/101/117 563/101/117 564/100/117
f 550/104/115 549/101/115 557/84/115 558/98/115
f 554/101/115 555/100/115 560/103/115 559/81/115
f 565/66/115 566/71/115 575/79/115 576/80/115
f 565/7/1 576/80/1 577/89/1 571/90/1 572/91/1
f 572/88/117 573/87/117 566/71/117 565/66/117
f 577/89/118 578/92/118 574/93/118 571/94/118
f 575/79/41 566/95/41 573/96/41 574/97/41 578/92/41
f 570/84/119 569/98/119 576/80/119 575/79/119
f 569/98/119 567/99/119 577/89/119 576/80/119
f 568/83/119 570/84/119 575/79/119 578/92/119
f 567/99/119 568/83/119 578/92/119 577/89/119
f 585/100/117 584/101/117 593/101/117 594/100/117
f 580/104/115 579/101/115 587/84/115 588/98/115
f 584/101/115 585/100/115 590/103/115 589/81/115
f 595/66/115 596/71/115 605/79/115 606/80/115
f 595/7/1 606/80/1 607/89/1 601/90/1 602/91/1
f 602/88/117 603/87/117 596/71/117 595/66/117
f 607/89/118 608/92/118 604/93/118 601/94/118
f 605/79/41 596/95/41 603/96/41 604/97/41 608/92/41
f 600/84/119 599/98/119 606/80/119 605/79/119
f 599/98/119 597/99/119 607/89/119 606/80/119
f 598/83/119 600/84/119 605/79/119 608/92/119
f 597/99/119 598/83/119 608/92/119 607/89/119
f 615/100/117 614/101/117 623/101/117 624/100/117
f 610/104/115 609/101/115 617/84/115 618/98/115
f 614/101/115 615/100/115 620/103/115 619/81/115
f 625/66/115 626/71/115 635/79/115 636/80/115
f 625/7/1 636/80/1 637/89/1 631/90/1 632/91/1
f 632/88/117 633/87/117 626/71/117 625/66/117
f 637/89/118 638/92/118 634/93/118 631/94/118
f 635/79/41 626/95/41 633/96/41 634/97/41 638/92/41
f 630/84/119 629/98/119 636/80/119 635/79/119
f 629/98/119 627/99/119 637/89/119 636/80/119
f 628/83/119 630/84/119 635/79/119 638/92/119
f 627/99/119 628/83/119 638/92/119 637/89/119
f 645/100/117 644/101/117 653/101/117 654/100/117
f 640/104/115 639/101/115 647/84/115 648/98/115
f 644/101/115 645/100/115 650/103/115 649/81/115
f 655/66/115 656/71/115 665/79/115 666/80/115
f 655/7/1 666/80/1 667/89/1 661/90/1 662/91/1
f 662/88/117 663/87/117 656/71/117 655/66/117
f 667/89/118 668/92/118 664/93/118 661/94/118
f 665/79/41 656/95/41 663/96/41 664/97/41 668/92/41
f 660/84/119 659/98/119 666/80/119 665/79/119
f 659/98/119 657/99/119 667/89/119 666/80/119
f 658/83/119 660/84/119 665/79/119 668/92/119
f 657/99/119 658/83/119 668/92/119 667/89/119
f 675/100/117 674/101/117 683/101/117 684/100/117
f 670/104/115 669/101/115 677/84/115 678/98/115
f 674/101/115 675/100/115 680/103/115 679/81/115
f 684/100/115 683/101/115 681/101/115 682/104/115
f 685/66/115 686/71/115 695/79/115 696/80/115
f 685/7/1 696/80/1 697/89/1 691/90/1 692/91/1
f 692/88/117 693/87/117 686/71/117 685/66/117
f 697/89/118 698/92/118 694/93/118 691/94/118
f 695/79/41 686/95/41 693/96/41 694/97/41 698/92/41
f 690/84/119 689/98/119 696/80/119 695/79/119
f 689/98/119 687/99/119 697/89/119 696/80/119
f 688/83/119 690/84/119 695/79/119 698/92/119
f 687/99/119 688/83/119 698/92/119 697/89/119
f 705/100/117 704/101/117 713/101/117 714/100/117
f 700/104/115 699/101/115 707/84/115 708/98/115
f 704/101/115 705/100/115 710/103/115 709/81/115
usemtl Gotik_Symbol
f 169/81/41 163/82/41 162/83/41 167/84/41
f 168/98/119 167/84/119 162/83/119 161/99/119
f 163/82/118 166/102/118 161/99/118 162/83/118
f 166/102/1 170/103/1 168/98/1 161/99/1
f 147/99/1 149/98/1 170/103/1 166/102/1
f 148/83/118 147/99/118 166/102/118 163/82/118
f 149/98/115 150/84/115 169/81/115 170/103/115
f 150/84/41 148/83/41 163/82/41 169/81/41
f 159/101/115 164/101/115 169/81/115 167/84/115
f 165/100/115 160/104/115 168/98/115 170/103/115
f 174/100/115 173/101/115 171/101/115 172/104/115
f 164/101/41 159/101/41 171/101/41 173/101/41
f 160/104/1 165/100/1 174/100/1 172/104/1
f 159/101/119 160/104/119 172/104/119 171/101/119
f 199/81/41 193/82/41 192/83/41 197/84/41
f 198/98/119 197/84/119 192/83/119 191/99/119
f 193/82/118 196/102/118 191/99/118 192/83/118
f 196/102/1 200/103/1 198/98/1 191/99/1
f 177/99/1 179/98/1 200/103/1 196/102/1
f 178/83/118 177/99/118 196/102/118 193/82/118
f 179/98/115 180/84/115 199/81/115 200/103/115
f 180/84/41 178/83/41 193/82/41 199/81/41
f 189/101/115 194/101/115 199/81/115 197/84/115
f 195/100/115 190/104/115 198/98/115 200/103/115
f 204/100/115 203/101/115 201/101/115 202/104/115
f 194/101/41 189/101/41 201/101/41 203/101/41
f 190/104/1 195/100/1 204/100/1 202/104/1
f 189/101/119 190/104/119 202/104/119 201/101/119
f 229/81/41 223/82/41 222/83/41 227/84/41
f 228/98/119 227/84/119 222/83/119 221/99/119
f 223/82/118 226/102/118 221/99/118 222/83/118
f 226/102/1 230/103/1 228/98/1 221/99/1
f 207/99/1 209/98/1 230/103/1 226/102/1
f 208/83/118 207/99/118 226/102/118 223/82/118
f 209/98/115 210/84/115 229/81/115 230/103/115
f 210/84/41 208/83/41 223/82/41 229/81/41
f 219/101/115 224/101/115 229/81/115 227/84/115
f 225/100/115 220/104/115 228/98/115 230/103/115
f 234/100/115 233/101/115 231/101/115 232/104/115
f 224/101/41 219/101/41 231/101/41 233/101/41
f 220/104/1 225/100/1 234/100/1 232/104/1
f 219/101/119 220/104/119 232/104/119 231/101/119
f 259/81/41 253/82/41 252/83/41 257/84/41
f 258/98/119 257/84/119 252/83/119 251/99/119
f 253/82/118 256/102/118 251/99/118 252/83/118
f 256/102/1 260/103/1 258/98/1 251/99/1
f 237/99/1 239/98/1 260/103/1 256/102/1
f 238/83/118 237/99/118 256/102/118 253/82/118
f 239/98/115 240/84/115 259/81/115 260/103/115
f 240/84/41 238/83/41 253/82/41 259/81/41
f 249/101/115 254/101/115 259/81/115 257/84/115
f 255/100/115 250/104/115 258/98/115 260/103/115
f 264/100/115 263/101/115 261/101/115 262/104/115
f 254/101/41 249/101/41 261/101/41 263/101/41
f 250/104/1 255/100/1 264/100/1 262/104/1
f 249/101/119 250/104/119 262/104/119 261/101/119
f 289/81/41 283/82/41 282/83/41 287/84/41
f 288/98/119 287/84/119 282/83/119 281/99/119
f 283/82/118 286/102/118 281/99/118 282/83/118
f 286/102/1 290/103/1 288/98/1 281/99/1
f 267/99/1 269/98/1 290/103/1 286/102/1
f 268/83/118 267/99/118 286/102/118 283/82/118
f 269/98/115 270/84/115 289/81/115 290/103/115
f 270/84/41 268/83/41 283/82/41 289/81/41
f 279/101/115 284/101/115 289/81/115 287/84/115
f 285/100/115 280/104/115 288/98/115 290/103/115
f 294/100/115 293/101/115 291/101/115 292/104/115
f 284/101/41 279/101/41 291/101/41 293/101/41
f 280/104/1 285/100/1 294/100/1 292/104/1
f 279/101/119 280/104/119 292/104/119 291/101/119
f 319/81/41 313/82/41 312/83/41 317/84/41
f 318/98/119 317/84/119 312/83/119 311/99/119
f 313/82/118 316/102/118 311/99/118 312/83/118
f 316/102/1 320/103/1 318/98/1 311/99/1
f 297/99/1 299/98/1 320/103/1 316/102/1
f 298/83/118 297/99/118 316/102/118 313/82/118
f 299/98/115 300/84/115 319/81/115 320/103/115
f 300/84/41 298/83/41 313/82/41 319/81/41
f 309/101/115 314/101/115 319/81/115 317/84/115
f 315/100/115 310/104/115 318/98/115 320/103/115
f 324/100/115 323/101/115 321/101/115 322/104/115
f 314/101/41 309/101/41 321/101/41 323/101/41
f 310/104/1 315/100/1 324/100/1 322/104/1
f 309/101/119 310/104/119 322/104/119 321/101/119
f 349/81/41 343/82/41 342/83/41 347/84/41
f 348/98/119 347/84/119 342/83/119 341/99/119
f 343/82/118 346/102/118 341/99/118 342/83/118
f 346/102/1 350/103/1 348/98/1 341/99/1
f 327/99/1 329/98/1 350/103/1 346/102/1
f 328/83/118 327/99/118 346/102/118 343/82/118
f 329/98/115 330/84/115 349/81/115 350/103/115
f 330/84/41 328/83/41 343/82/41 349/81/41
f 339/101/115 344/101/115 349/81/115 347/84/115
f 345/100/115 340/104/115 348/98/115 350/103/115
f 354/100/115 353/101/115 351/101/115 352/104/115
f 344/101/41 339/101/41 351/101/41 353/101/41
f 340/104/1 345/100/1 354/100/1 352/104/1
f 339/101/119 340/104/119 352/104/119 351/101/119
f 379/81/41 373/82/41 372/83/41 377/84/41
f 378/98/119 377/84/119 372/83/119 371/99/119
f 373/82/118 376/102/118 371/99/118 372/83/118
f 376/102/1 380/103/1 378/98/1 371/99/1
f 357/99/1 359/98/1 380/103/1 376/102/1
f 358/83/118 357/99/118 376/102/118 373/82/118
f 359/98/115 360/84/115 379/81/115 380/103/115
f 360/84/41 358/83/41 373/82/41 379/81/41
f 369/101/115 374/101/115 379/81/115 377/84/115
f 375/100/115 370/104/115 378/98/115 380/103/115
f 384/100/115 383/101/115 381/101/115 382/104/115
f 374/101/41 369/101/41 381/101/41 383/101/41
f 370/104/1 375/100/1 384/100/1 382/104/1
f 369/101/119 370/104/119 382/104/119 381/101/119
f 409/81/41 403/82/41 402/83/41 407/84/41
f 408/98/119 407/84/119 402/83/119 401/99/119
f 403/82/118 406/102/118 401/99/118 402/83/118
f 406/102/1 410/103/1 408/98/1 401/99/1
f 387/99/1 389/98/1 410/103/1 406/102/1
f 388/83/118 387/99/118 406/102/118 403/82/118
f 389/98/115 390/84/115 409/81/115 410/103/115
f 390/84/41 388/83/41 403/82/41 409/81/41
f 399/101/115 404/101/115 409/81/115 407/84/115
f 405/100/115 400/104/115 408/98/115 410/103/115
f 414/100/115 413/101/115 411/101/115 412/104/115
f 404/101/41 399/101/41 411/101/41 413/101/41
f 400/104/1 405/100/1 414/100/1 412/104/1
f 399/101/119 400/104/119 412/104/119 411/101/119
f 439/81/41 433/82/41 432/83/41 437/84/41
f 438/98/119 437/84/119 432/83/119 431/99/119
f 433/82/118 436/102/118 431/99/118 432/83/118
f 436/102/1 440/103/1 438/98/1 431/99/1
f 417/99/1 419/98/1 440/103/1 436/102/1
f 418/83/118 417/99/118 436/102/118 433/82/118
f 419/98/115 420/84/115 439/81/115 440/103/115
f 420/84/41 418/83/41 433/82/41 439/81/41
f 429/101/115 434/101/115 439/81/115 437/84/115
f 435/100/115 430/104/115 438/98/115 440/103/115
f 444/100/115 443/101/115 441/101/115 442/104/115
f 434/101/41 429/101/41 441/101/41 443/101/41
f 430/104/1 435/100/1 444/100/1 442/104/1
f 429/101/119 430/104/119 442/104/119 441/101/119
f 469/81/41 463/82/41 462/83/41 467/84/41
f 468/98/119 467/84/119 462/83/119 461/99/119
f 463/82/118 466/102/118 461/99/118 462/83/118
f 466/102/1 470/103/1 468/98/1 461/99/1
f 447/99/1 449/98/1 470/103/1 466/102/1
f 448/83/118 447/99/118 466/102/118 463/82/118
f 449/98/115 450/84/115 469/81/115 470/103/115
f 450/84/41 448/83/41 463/82/41 469/81/41
f 459/101/115 464/101/115 469/81/115 467/84/115
f 465/100/115 460/104/115 468/98/115 470/103/115
f 474/100/115 473/101/115 471/101/115 472/104/115
f 464/101/41 459/101/41 471/101/41 473/101/41
f 460/104/1 465/100/1 474/100/1 472/104/1
f 459/101/119 460/104/119 472/104/119 471/101/119
f 499/81/41 493/82/41 492/83/41 497/84/41
f 498/98/119 497/84/119 492/83/119 491/99/119
f 493/82/118 496/102/118 491/99/118 492/83/118
f 496/102/1 500/103/1 498/98/1 491/99/1
f 477/99/1 479/98/1 500/103/1 496/102/1
f 478/83/118 477/99/118 496/102/118 493/82/118
f 479/98/115 480/84/115 499/81/115 500/103/115
f 480/84/41 478/83/41 493/82/41 499/81/41
f 489/101/115 494/101/115 499/81/115 497/84/115
f 495/100/115 490/104/115 498/98/115 500/103/115
f 504/100/115 503/101/115 501/101/115 502/104/115
f 494/101/41 489/101/41 501/101/41 503/101/41
f 490/104/1 495/100/1 504/100/1 502/104/1
f 489/101/119 490/104/119 502/104/119 501/101/119
f 529/81/41 523/82/41 522/83/41 527/84/41
f 528/98/119 527/84/119 522/83/119 521/99/119
f 523/82/118 526/102/118 521/99/118 522/83/118
f 526/102/1 530/103/1 528/98/1 521/99/1
f 507/99/1 509/98/1 530/103/1 526/102/1
f 508/83/118 507/99/118 526/102/118 523/82/118
f 509/98/115 510/84/115 529/81/115 530/103/115
f 510/84/41 508/83/41 523/82/41 529/81/41
f 519/101/115 524/101/115 529/81/115 527/84/115
f 525/100/115 520/104/115 528/98/115 530/103/115
f 534/100/115 533/101/115 531/101/115 532/104/115
f 524/101/41 519/101/41 531/101/41 533/101/41
f 520/104/1 525/100/1 534/100/1 532/104/1
f 519/101/119 520/104/119 532/104/119 531/101/119
f 559/81/41 553/82/41 552/83/41 557/84/41
f 558/98/119 557/84/119 552/83/119 551/99/119
f 553/82/118 556/102/118 551/99/118 552/83/118
f 556/102/1 560/103/1 558/98/1 551/99/1
f 537/99/1 539/98/1 560/103/1 556/102/1
f 538/83/118 537/99/118 556/102/118 553/82/118
f 539/98/115 540/84/115 559/81/115 560/103/115
f 540/84/41 538/83/41 553/82/41 559/81/41
f 549/101/115 554/101/115 559/81/115 557/84/115
f 555/100/115 550/104/115 558/98/115 560/103/115
f 564/100/115 563/101/115 561/101/115 562/104/115
f 554/101/41 549/101/41 561/101/41 563/101/41
f 550/104/1 555/100/1 564/100/1 562/104/1
f 549/101/119 550/104/119 562/104/119 561/101/119
f 589/81/41 583/82/41 582/83/41 587/84/41
f 588/98/119 587/84/119 582/83/119 581/99/119
f 583/82/118 586/102/118 581/99/118 582/83/118
f 586/102/1 590/103/1 588/98/1 581/99/1
f 567/99/1 569/98/1 590/103/1 586/102/1
f 568/83/118 567/99/118 586/102/118 583/82/118
f 569/98/115 570/84/115 589/81/115 590/103/115
f 570/84/41 568/83/41 583/82/41 589/81/41
f 579/101/115 584/101/115 589/81/115 587/84/115
f 585/100/115 580/104/115 588/98/115 590/103/115
f 594/100/115 593/101/115 591/101/115 592/104/115
f 584/101/41 579/101/41 591/101/41 593/101/41
f 580/104/1 585/100/1 594/100/1 592/104/1
f 579/101/119 580/104/119 592/104/119 591/101/119
f 619/81/41 613/82/41 612/83/41 617/84/41
f 618/98/119 617/84/119 612/83/119 611/99/119
f 613/82/118 616/102/118 611/99/118 612/83/118
f 616/102/1 620/103/1 618/98/1 611/99/1
f 597/99/1 599/98/1 620/103/1 616/102/1
f 598/83/118 597/99/118 616/102/118 613/82/118
f 599/98/115 600/84/115 619/81/115 620/103/115
f 600/84/41 598/83/41 613/82/41 619/81/41
f 609/101/115 614/101/115 619/81/115 617/84/115
f 615/100/115 610/104/115 618/98/115 620/103/115
f 624/100/115 623/101/115 621/101/115 622/104/115
f 614/101/41 609/101/41 621/101/41 623/101/41
f 610/104/1 615/100/1 624/100/1 622/104/1
f 609/101/119 610/104/119 622/104/119 621/101/119
f 649/81/41 643/82/41 642/83/41 647/84/41
f 648/98/119 647/84/119 642/83/119 641/99/119
f 643/82/118 646/102/118 641/99/118 642/83/118
f 646/102/1 650/103/1 648/98/1 641/99/1
f 627/99/1 629/98/1 650/103/1 646/102/1
f 628/83/118 627/99/118 646/102/118 643/82/118
f 629/98/115 630/84/115 649/81/115 650/103/115
f 630/84/41 628/83/41 643/82/41 649/81/41
f 639/101/115 644/101/115 649/81/115 647/84/115
f 645/100/115 640/104/115 648/98/115 650/103/115
f 654/100/115 653/101/115 651/101/115 652/104/115
f 644/101/41 639/101/41 651/101/41 653/101/41
f 640/104/1 645/100/1 654/100/1 652/104/1
f 639/101/119 640/104/119 652/104/119 651/101/119
f 679/81/41 673/82/41 672/83/41 677/84/41
f 678/98/119 677/84/119 672/83/119 671/99/119
f 673/82/118 676/102/118 671/99/118 672/83/118
f 676/102/1 680/103/1 678/98/1 671/99/1
f 657/99/1 659/98/1 680/103/1 676/102/1
f 658/83/118 657/99/118 676/102/118 673/82/118
f 659/98/115 660/84/115 679/81/115 680/103/115
f 660/84/41 658/83/41 673/82/41 679/81/41
f 669/101/115 674/101/115 679/81/115 677/84/115
f 675/100/115 670/104/115 678/98/115 680/103/115
f 674/101/41 669/101/41 681/101/41 683/101/41
f 670/104/1 675/100/1 684/100/1 682/104/1
f 669/101/119 670/104/119 682/104/119 681/101/119
f 709/81/41 703/82/41 702/83/41 707/84/41
f 708/98/119 707/84/119 702/83/119 701/99/119
f 703/82/118 706/102/118 701/99/118 702/83/118
f 706/102/1 710/103/1 708/98/1 701/99/1
f 687/99/1 689/98/1 710/103/1 706/102/1
f 688/83/118 687/99/118 706/102/118 703/82/118
f 689/98/115 690/84/115 709/81/115 710/103/115
f 690/84/41 688/83/41 703/82/41 709/81/41
f 699/101/115 704/101/115 709/81/115 707/84/115
f 705/100/115 700/104/115 708/98/115 710/103/115
f 714/100/115 713/101/115 711/101/115 712/104/115
f 704/101/41 699/101/41 711/101/41 713/101/41
f 700/104/1 705/100/1 714/100/1 712/104/1
f 699/101/119 700/104/119 712/104/119 711/101/119
usemtl Dunkles_Metall
f 151/85/116 154/86/116 153/87/116 152/88/116
f 181/85/116 184/86/116 183/87/116 182/88/116
f 211/85/116 214/86/116 213/87/116 212/88/116
f 241/85/116 244/86/116 243/87/116 242/88/116
f 271/85/116 274/86/116 273/87/116 272/88/116
f 301/85/116 304/86/116 303/87/116 302/88/116
f 331/85/116 334/86/116 333/87/116 332/88/116
f 361/85/116 364/86/116 363/87/116 362/88/116
f 391/85/116 394/86/116 393/87/116 392/88/116
f 421/85/116 424/86/116 423/87/116 422/88/116
f 451/85/116 454/86/116 453/87/116 452/88/116
f 481/85/116 484/86/116 483/87/116 482/88/116
f 511/85/116 514/86/116 513/87/116 512/88/116
f 541/85/116 544/86/116 543/87/116 542/88/116
f 571/85/116 574/86/116 573/87/116 572/88/116
f 601/85/116 604/86/116 603/87/116 602/88/116
f 631/85/116 634/86/116 633/87/116 632/88/116
f 661/85/116 664/86/116 663/87/116 662/88/116
f 691/85/116 694/86/116 693/87/116 692/88/116
usemtl Dunkles_Holz_Sarg
f 7/7/3 31/8/3 2/9/3 5/10/3 8/11/3
f 39/14/1 38/15/1 45/15/1 44/14/1
f 8/11/3 5/10/3 13/20/3 21/21/3
f 41/12/31 34/46/31 10/48/31 9/49/31
f 10/50/32 34/47/32 36/22/32 6/51/32
f 6/51/33 36/22/33 38/15/33 14/40/33
f 59/58/18 58/59/18 63/59/18 62/58/18
f 31/63/41 52/18/41 53/39/41 42/13/41 41/12/41 9/49/41 2/64/41
f 53/39/41 55/62/41 11/65/41 40/44/41 42/13/41
f 7/66/41 54/19/41 52/18/41 31/63/41
f 7/7/42 8/11/42 57/6/42 54/5/42
f 21/24/43 59/58/43 57/60/43 8/67/43
f 56/61/46 58/59/46 12/31/46 64/52/46 67/54/46
f 39/14/47 37/17/47 65/69/47 64/70/47 12/55/47
f 55/57/42 56/56/42 67/54/42 66/68/42 68/74/42 70/75/42 11/76/42
f 70/73/31 69/72/31 35/45/31 40/44/31 11/65/31
f 37/17/49 35/16/49 69/77/49 68/74/49 66/78/49 65/69/49
f 9/49/8 10/48/8 81/48/8 80/49/8
f 2/64/8 9/49/8 80/49/8 73/64/8
f 10/50/8 6/51/8 77/51/8 81/50/8
f 6/51/114 14/40/114 86/40/114 77/51/114
usemtl Helles_Holz
f 64/52/34 65/53/34 67/54/34
f 65/53/45 66/68/45 67/54/45
f 68/71/48 69/72/48 70/73/48
usemtl Sarg_innen_Samt
f 78/7/52 79/11/52 76/10/52 73/9/52 105/8/52
f 126/18/56 124/18/56 123/19/56 128/19/56
f 79/11/57 83/21/57 85/20/57 76/10/57
f 115/12/84 80/49/84 81/48/84 108/46/84
f 81/50/85 77/51/85 110/22/85 108/47/85
f 77/51/86 86/40/86 112/15/86 110/22/86
f 138/52/87 141/54/87 139/53/87
f 105/63/97 73/64/97 80/49/97 115/12/97 116/13/97 127/39/97 126/18/97
f 127/39/98 116/13/98 114/44/98 82/65/98 129/62/98
f 78/66/99 105/63/99 126/18/99 128/19/99
f 78/7/100 128/5/100 131/6/100 79/11/100
f 83/24/101 79/67/101 131/60/101 133/58/101
f 139/53/103 141/54/103 140/68/103
f 130/61/104 141/54/104 138/52/104 84/31/104 132/59/104
f 113/14/105 84/55/105 138/70/105 139/69/105 111/17/105
f 142/71/106 144/73/106 143/72/106
f 129/57/107 82/76/107 144/75/107 142/74/107 140/68/107 141/54/107 130/56/107
f 144/73/108 82/65/108 114/44/108 109/45/108 143/72/108
f 111/17/109 139/69/109 140/78/109 142/74/109 143/77/109 109/16/109
