# Blender 5.1.1
# www.blender.org
mtllib Sarg_3_Korpus.mtl
o Sarg_3_Body
v 2.148683 0.000169 -6.192772
v 2.148683 2.582097 -6.192772
v 2.205251 0.000169 -6.136204
v 2.205251 2.582097 -6.136204
v 2.205251 0.000169 -6.249341
v 2.261820 0.000169 -6.192772
v 2.261820 2.582097 -6.192772
v 2.116150 2.729381 -6.140061
v 2.205251 2.674697 -6.069715
v 2.294353 2.729381 -6.140061
v 2.121284 3.066938 -5.917048
v 2.277755 3.051950 -5.903746
v 2.290199 3.067310 -5.917723
v 2.158650 2.582097 -6.202740
v 2.251853 2.582097 -6.202740
v 2.205251 2.515246 -6.249341
v 2.156544 2.754173 -6.171953
v 2.253958 2.754173 -6.171953
v 2.253917 2.979618 -6.051898
v 2.156586 2.979618 -6.051898
v 2.150941 2.997629 -6.096135
v 2.202321 3.027188 -6.190288
v 2.146768 2.768931 -6.216981
v 2.181021 2.662121 -6.303456
v 2.051294 2.978856 -6.196776
v 2.097532 3.004802 -6.279421
v 2.027209 2.698260 -6.327923
v 2.044959 2.708220 -6.359648
v 1.992169 3.002854 -6.241147
v 2.025471 3.021541 -6.300670
v 1.913254 2.761028 -6.359834
v 1.946556 2.779715 -6.419357
v 1.837841 3.126400 -6.226297
v 1.848669 3.159474 -6.331644
v 1.746627 2.728140 -6.401606
v 1.750614 2.740319 -6.440398
v 1.806265 3.292199 -6.184028
v 1.816132 3.322336 -6.280025
v 1.564618 2.784493 -6.420163
v 1.566784 2.791109 -6.441237
v 1.688183 3.406996 -6.163229
v 1.663793 3.431625 -6.241677
v 1.450363 2.912933 -6.270857
v 1.435823 2.927616 -6.317625
v 1.639497 3.451054 -6.154607
v 1.624956 3.465737 -6.201374
v 1.260427 2.983674 -6.195734
v 1.245887 2.998357 -6.242501
v 1.480967 3.429836 -6.117103
v 1.466426 3.444519 -6.163870
v 1.215827 3.072154 -6.155530
v 1.201287 3.086837 -6.202298
v 1.337336 3.379294 -6.092956
v 1.322795 3.393977 -6.139723
v 1.135610 3.112078 -6.120648
v 1.121070 3.126760 -6.167416
v 1.272964 3.339380 -6.087553
v 1.258423 3.354062 -6.134320
v 1.150774 3.163912 -6.108599
v 1.136234 3.178594 -6.155367
v 1.156293 3.005340 -6.159920
v 1.141753 3.020023 -6.206688
v 1.099722 3.017894 -6.140219
v 1.085182 3.032577 -6.186986
v 1.127133 2.926879 -6.176429
v 1.112592 2.941562 -6.223197
v 1.079160 2.935437 -6.160377
v 1.064620 2.950120 -6.207145
v 1.114651 2.874337 -6.194297
v 1.102655 2.886450 -6.232881
v 1.078620 2.857546 -6.189530
v 1.066624 2.869660 -6.228114
v 1.116218 2.798766 -6.241323
v 1.285292 2.835351 -6.249226
v 1.365029 2.833692 -6.327389
v 1.379570 2.819009 -6.280622
v 1.270752 2.850034 -6.295994
v 1.311395 2.739497 -6.286592
v 1.273008 2.762629 -6.268635
v 1.296855 2.754180 -6.333359
v 1.258467 2.777312 -6.315403
v 1.287861 2.699781 -6.298944
v 1.267471 2.702092 -6.292538
v 1.276700 2.711051 -6.334844
v 1.256310 2.713363 -6.328437
v 1.273729 2.653880 -6.330691
v 1.617823 2.693481 -6.449401
v 1.751736 2.672703 -6.459547
v 1.741211 2.664180 -6.432399
v 1.620661 2.702149 -6.477009
v 1.739432 2.609114 -6.446901
v 1.683219 2.608882 -6.465375
v 1.751356 2.621789 -6.479430
v 1.686852 2.619980 -6.500724
v 1.745314 2.571235 -6.455751
v 1.714252 2.568577 -6.461089
v 1.748435 2.580766 -6.486111
v 1.717373 2.578108 -6.491448
v 1.784190 2.510134 -6.462169
v 2.068693 2.590941 -6.297844
v 2.130399 2.602507 -6.345895
v 2.121511 2.579278 -6.287063
v 2.076301 2.610823 -6.348201
v 2.103391 2.550156 -6.302280
v 2.071831 2.558304 -6.305283
v 2.109882 2.567122 -6.345250
v 2.078322 2.575270 -6.348253
v 2.044989 2.494802 -6.343184
v 1.698579 3.456035 -6.168282
v 1.683398 3.471365 -6.217111
v 1.683392 3.468663 -6.160086
v 1.668211 3.483993 -6.208915
v 1.727113 3.530359 -6.181832
v 2.259561 2.997629 -6.096135
v 2.226217 3.027293 -6.190622
v 2.263735 2.768931 -6.216980
v 2.229482 2.662121 -6.303455
v 2.359209 2.978856 -6.196776
v 2.312971 3.004802 -6.279420
v 2.383293 2.698260 -6.327923
v 2.365544 2.708220 -6.359647
v 2.418333 3.002854 -6.241147
v 2.385031 3.021541 -6.300669
v 2.497248 2.761028 -6.359834
v 2.463947 2.779715 -6.419356
v 2.572661 3.126401 -6.226297
v 2.561833 3.159474 -6.331644
v 2.663876 2.728140 -6.401606
v 2.659889 2.740319 -6.440398
v 2.604237 3.292199 -6.184028
v 2.594370 3.322337 -6.280025
v 2.845885 2.784493 -6.420163
v 2.843719 2.791109 -6.441237
v 2.722320 3.406996 -6.163229
v 2.746709 3.431625 -6.241676
v 2.960140 2.912934 -6.270857
v 2.974680 2.927616 -6.317625
v 2.771006 3.451055 -6.154607
v 2.785546 3.465737 -6.201374
v 3.150075 2.983674 -6.195734
v 3.164615 2.998357 -6.242501
v 2.929536 3.429837 -6.117103
v 2.944076 3.444519 -6.163870
v 3.194675 3.072155 -6.155530
v 3.209215 3.086837 -6.202298
v 3.073167 3.379295 -6.092956
v 3.087707 3.393977 -6.139723
v 3.274892 3.112078 -6.120648
v 3.289433 3.126761 -6.167416
v 3.137539 3.339380 -6.087553
v 3.152079 3.354063 -6.134321
v 3.259728 3.163912 -6.108600
v 3.274269 3.178595 -6.155367
v 3.254209 3.005341 -6.159921
v 3.268749 3.020023 -6.206688
v 3.310781 3.017895 -6.140219
v 3.325321 3.032577 -6.186986
v 3.283370 2.926879 -6.176429
v 3.297910 2.941562 -6.223197
v 3.331343 2.935438 -6.160378
v 3.345883 2.950120 -6.207145
v 3.295852 2.874337 -6.194297
v 3.307848 2.886450 -6.232881
v 3.331883 2.857547 -6.189530
v 3.343879 2.869660 -6.228114
v 3.294285 2.798766 -6.241323
v 3.125210 2.835351 -6.249227
v 3.045473 2.833692 -6.327390
v 3.030933 2.819010 -6.280622
v 3.139750 2.850034 -6.295994
v 3.099108 2.739497 -6.286592
v 3.137495 2.762629 -6.268635
v 3.113648 2.754180 -6.333359
v 3.152035 2.777312 -6.315403
v 3.122642 2.699781 -6.298944
v 3.143032 2.702093 -6.292538
v 3.133802 2.711052 -6.334844
v 3.154193 2.713363 -6.328437
v 3.136774 2.653881 -6.330691
v 2.792679 2.693482 -6.449401
v 2.658767 2.672703 -6.459547
v 2.669292 2.664180 -6.432398
v 2.789842 2.702149 -6.477009
v 2.671071 2.609114 -6.446901
v 2.727283 2.608882 -6.465375
v 2.659146 2.621789 -6.479430
v 2.723650 2.619980 -6.500724
v 2.665188 2.571235 -6.455751
v 2.696250 2.568577 -6.461089
v 2.662068 2.580766 -6.486110
v 2.693130 2.578108 -6.491447
v 2.626312 2.510134 -6.462169
v 2.341809 2.590941 -6.297844
v 2.280104 2.602507 -6.345895
v 2.288991 2.579278 -6.287062
v 2.334202 2.610823 -6.348201
v 2.307112 2.550156 -6.302279
v 2.338672 2.558304 -6.305283
v 2.300620 2.567122 -6.345249
v 2.332180 2.575270 -6.348252
v 2.365513 2.494802 -6.343184
v 2.711924 3.456035 -6.168282
v 2.727105 3.471365 -6.217111
v 2.727110 3.468663 -6.160086
v 2.742291 3.483993 -6.208915
v 2.683390 3.530359 -6.181832
v 2.006739 3.288163 -6.081425
v 1.980430 3.285208 -5.977932
v 2.139105 3.270284 -6.111974
v 2.271397 3.270284 -6.111974
v 2.265171 3.085182 -5.898926
v 2.086810 3.268337 -6.028850
v 2.323693 3.268337 -6.028850
v 1.956682 3.246985 -6.064480
v 2.403763 3.288163 -6.081425
v 2.430072 3.285208 -5.977932
v 2.453820 3.246985 -6.064480
v 1.922487 3.308836 -6.064404
v 1.935965 3.330528 -6.015285
v 2.488016 3.308836 -6.064404
v 2.459607 3.332206 -6.074021
v 1.950896 3.332206 -6.074021
v 2.474538 3.330528 -6.015285
v 1.905690 3.388967 -6.069230
v 1.909975 3.395864 -6.053613
v 2.500596 3.388967 -6.069230
v 2.491564 3.396397 -6.072288
v 1.914722 3.396397 -6.072288
v 2.496311 3.395864 -6.053613
v 2.131925 3.052896 -5.904397
v 2.337888 2.928082 -5.985600
v 2.143830 3.084676 -5.899868
v 2.369525 3.152488 -5.949051
v 2.072615 2.928082 -5.985600
v 2.205251 2.939093 -5.880882
v 2.040978 3.152488 -5.949051
v 2.205294 2.932897 -5.615038
v 2.266320 3.030169 -5.878188
v 2.144504 3.031071 -5.878086
v 2.205251 2.939093 -5.880882
v 2.205294 2.976228 -5.734818
v 2.240845 3.064236 -5.959862
v 2.205540 3.007048 -5.948269
v 2.169779 3.064614 -5.960158
v 2.205540 3.076910 -5.924908
v 2.297552 3.090191 -5.910337
v 2.322637 3.138195 -5.920483
v 2.311137 3.155181 -5.907845
v 2.284410 3.094279 -5.902081
v 2.128187 3.093668 -5.902364
v 2.100221 3.151651 -5.908036
v 2.088764 3.135588 -5.920419
v 2.114373 3.088676 -5.910363
v 2.376765 3.267974 -5.939614
v 2.296659 3.235565 -5.865823
v 2.201328 3.127616 -5.806633
v 2.201328 3.063400 -5.824645
v 2.113843 3.235565 -5.865823
v 2.028919 3.272346 -5.935152
v 2.275310 3.044403 -5.903887
v 2.293851 3.064855 -5.920484
v 2.260227 3.087221 -5.895466
v 2.117603 3.064532 -5.919750
v 2.134289 3.045152 -5.904475
v 2.148710 3.086456 -5.896560
v 2.284320 3.099311 -5.900936
v 2.302298 3.093724 -5.912470
v 2.109660 3.092050 -5.912564
v 2.128406 3.098833 -5.901223
v 2.256532 3.059398 -5.938383
v 2.268977 3.074758 -5.952361
v 2.243948 3.092629 -5.933563
v 2.142489 3.073727 -5.951831
v 2.153130 3.059685 -5.939181
v 2.165036 3.091464 -5.934651
v 2.263187 3.101727 -5.936719
v 2.276329 3.097639 -5.944975
v 2.135578 3.095465 -5.945147
v 2.149393 3.100457 -5.937148
vn -0.7071 -0.0000 0.7071
vn 0.7071 -0.0000 0.7071
vn -0.0000 -1.0000 -0.0000
vn -0.6831 -0.3972 0.6129
vn 0.6831 -0.3972 0.6129
vn 0.5912 -0.5154 0.6203
vn -0.5913 -0.5154 0.6203
vn -0.0000 0.5719 -0.8204
vn -0.0000 0.1761 -0.9844
vn 0.6687 0.1193 -0.7339
vn 0.7071 -0.0000 -0.7071
vn -0.7071 -0.0000 -0.7071
vn -0.6687 0.1193 -0.7339
vn 0.7019 0.3349 -0.6287
vn -0.7019 0.3349 -0.6287
vn 0.5210 0.1854 -0.8332
vn -0.3324 -0.8306 -0.4467
vn -0.3073 0.9432 0.1265
vn -0.5383 -0.1413 0.8308
vn -0.5799 -0.3352 0.7425
vn 0.2027 0.2697 -0.9414
vn -0.5039 -0.2898 0.8137
vn 0.4998 0.1901 -0.8450
vn 0.1114 0.9286 0.3539
vn 0.0325 0.2621 -0.9645
vn 0.5615 0.7346 0.3809
vn 0.2263 -0.9506 -0.2126
vn -0.1810 -0.3703 0.9111
vn -0.7637 -0.6425 -0.0624
vn 0.9779 0.1487 0.1472
vn -0.8708 -0.4363 -0.2265
vn -0.2390 -0.3274 0.9142
vn -0.3141 0.3046 -0.8992
vn 0.2200 -0.4092 0.8855
vn -0.2437 0.3219 -0.9149
vn 0.6507 0.7383 0.1776
vn -0.0526 0.9480 0.3140
vn -0.3056 0.8771 0.3704
vn 0.2569 -0.2895 0.9221
vn 0.1989 -0.2732 0.9412
vn 0.6963 -0.5940 -0.4030
vn -0.8649 -0.4885 0.1155
vn -0.2569 0.2895 -0.9221
vn -0.2550 0.8971 0.3609
vn -0.7753 0.4924 0.3956
vn -0.4605 0.7959 0.3930
vn -0.9194 0.1887 0.3451
vn -0.9299 0.1497 0.3361
vn -0.8939 0.2655 0.3613
vn 0.2575 -0.3503 0.9005
vn 0.8968 -0.2576 -0.3597
vn -0.1626 0.0696 -0.9842
vn 0.9384 -0.1118 -0.3269
vn -0.2552 0.2274 -0.9398
vn -0.9587 -0.0939 0.2686
vn -0.9462 -0.2378 0.2195
vn -0.8112 -0.5805 0.0700
vn 0.3358 -0.4926 0.8028
vn 0.9548 0.1711 -0.2431
vn 0.7097 -0.5783 -0.4022
vn 0.7518 -0.5252 -0.3986
vn 0.8424 -0.3806 -0.3814
vn -0.9453 0.0750 0.3174
vn -0.3048 -0.0532 -0.9509
vn -0.3046 0.1900 -0.9333
vn -0.9569 -0.0266 0.2891
vn 0.2062 -0.3851 0.8996
vn 0.9778 -0.1015 0.1833
vn -0.9376 -0.2823 0.2029
vn 0.1783 -0.5963 0.7827
vn 0.9458 -0.0722 -0.3167
vn -0.2320 -0.3071 0.9230
vn 0.1483 0.3733 -0.9158
vn -0.2182 -0.4103 0.8855
vn 0.9732 -0.0087 0.2297
vn 0.2324 0.4047 -0.8844
vn 0.9425 -0.1204 0.3118
vn -0.7875 -0.5602 -0.2568
vn -0.6158 -0.7315 -0.2929
vn 0.2655 0.0582 -0.9624
vn -0.7496 -0.6056 -0.2672
vn -0.2537 -0.1753 0.9513
vn -0.8369 -0.3780 -0.3960
vn -0.1496 -0.1970 0.9689
vn 0.8298 0.5024 0.2430
vn 0.1839 -0.2308 -0.9555
vn -0.9838 -0.0557 -0.1706
vn 0.7544 -0.4467 0.4809
vn 0.3284 0.1440 -0.9335
vn -0.9235 0.3833 0.0118
vn 0.0574 -0.0233 -0.9981
vn 0.8626 -0.5014 -0.0676
vn -0.2200 -0.2885 0.9319
vn -0.1969 -0.4398 0.8763
vn 0.7336 -0.6626 -0.1508
vn 0.0708 -0.0919 -0.9933
vn 0.8369 -0.3911 -0.3830
vn -0.2679 0.5271 -0.8065
vn 0.9069 -0.2287 -0.3538
vn 0.2279 -0.0319 0.9732
vn 0.4641 -0.0167 0.8856
vn -0.6733 0.6194 0.4038
vn -0.0223 0.5252 -0.8507
vn -0.5495 0.1909 -0.8134
vn 0.3324 -0.8306 -0.4467
vn 0.3446 0.9287 0.1368
vn 0.5383 -0.1413 0.8308
vn 0.5799 -0.3352 0.7425
vn -0.2027 0.2697 -0.9414
vn 0.5039 -0.2898 0.8137
vn -0.4998 0.1901 -0.8450
vn -0.1114 0.9286 0.3539
vn -0.0325 0.2621 -0.9645
vn -0.5615 0.7346 0.3809
vn -0.2263 -0.9506 -0.2126
vn 0.1810 -0.3703 0.9111
vn 0.7637 -0.6425 -0.0624
vn -0.9779 0.1487 0.1472
vn 0.8708 -0.4363 -0.2265
vn 0.2390 -0.3274 0.9142
vn 0.3141 0.3046 -0.8992
vn -0.2200 -0.4092 0.8855
vn 0.2437 0.3219 -0.9149
vn -0.6507 0.7383 0.1776
vn 0.0526 0.9480 0.3140
vn 0.3056 0.8771 0.3704
vn -0.2569 -0.2895 0.9221
vn -0.1989 -0.2732 0.9412
vn -0.6963 -0.5940 -0.4030
vn 0.8649 -0.4885 0.1155
vn 0.2569 0.2895 -0.9221
vn 0.2550 0.8971 0.3609
vn 0.7753 0.4924 0.3956
vn 0.4605 0.7959 0.3930
vn 0.9194 0.1887 0.3451
vn 0.9299 0.1497 0.3361
vn 0.8939 0.2655 0.3613
vn -0.2575 -0.3503 0.9005
vn -0.8968 -0.2576 -0.3597
vn 0.1626 0.0696 -0.9842
vn -0.9384 -0.1118 -0.3269
vn 0.2552 0.2274 -0.9398
vn 0.9587 -0.0939 0.2686
vn 0.9462 -0.2378 0.2195
vn 0.8112 -0.5805 0.0700
vn -0.3358 -0.4926 0.8029
vn -0.9548 0.1711 -0.2431
vn -0.7097 -0.5783 -0.4022
vn -0.7518 -0.5252 -0.3986
vn -0.8424 -0.3806 -0.3814
vn 0.9453 0.0750 0.3174
vn 0.3048 -0.0532 -0.9509
vn 0.3046 0.1900 -0.9333
vn 0.9569 -0.0266 0.2891
vn -0.2062 -0.3851 0.8996
vn -0.9778 -0.1015 0.1833
vn 0.9376 -0.2823 0.2029
vn -0.1783 -0.5963 0.7827
vn -0.9458 -0.0721 -0.3167
vn 0.2320 -0.3071 0.9230
vn -0.1483 0.3733 -0.9158
vn 0.2182 -0.4103 0.8855
vn -0.9732 -0.0087 0.2297
vn -0.2324 0.4047 -0.8844
vn -0.9425 -0.1204 0.3118
vn 0.7875 -0.5602 -0.2568
vn 0.6158 -0.7315 -0.2929
vn -0.2655 0.0582 -0.9624
vn 0.7496 -0.6056 -0.2672
vn 0.2537 -0.1753 0.9513
vn 0.8368 -0.3780 -0.3960
vn 0.1496 -0.1970 0.9689
vn -0.8298 0.5024 0.2430
vn -0.1839 -0.2308 -0.9555
vn 0.9838 -0.0557 -0.1706
vn -0.7544 -0.4467 0.4809
vn -0.3284 0.1440 -0.9335
vn 0.9235 0.3833 0.0118
vn -0.0574 -0.0233 -0.9981
vn -0.8626 -0.5014 -0.0676
vn 0.2200 -0.2885 0.9319
vn 0.1969 -0.4398 0.8763
vn -0.7336 -0.6626 -0.1508
vn -0.0708 -0.0919 -0.9933
vn -0.8369 -0.3911 -0.3830
vn 0.2679 0.5271 -0.8065
vn -0.9069 -0.2287 -0.3538
vn -0.2279 -0.0319 0.9732
vn -0.4641 -0.0167 0.8856
vn 0.6733 0.6194 0.4038
vn 0.0223 0.5252 -0.8507
vn -0.0048 0.2958 -0.9553
vn -0.0000 -0.6292 0.7772
vn -0.0000 0.9541 0.2995
vn 0.9870 -0.0680 0.1455
vn -0.0000 0.9262 0.3771
vn -0.9870 -0.0680 0.1455
vn -0.0000 -0.9503 -0.3115
vn 0.7967 -0.4410 0.4133
vn -0.0000 -0.2024 -0.9793
vn -0.2998 -0.6264 -0.7196
vn -0.6237 0.7606 0.1803
vn -0.7559 -0.0925 -0.6481
vn 0.7559 -0.0925 -0.6481
vn 0.2998 -0.6264 -0.7196
vn -0.9272 -0.1744 0.3314
vn -0.2379 -0.1080 -0.9653
vn 0.6237 0.7606 0.1803
vn -0.7967 -0.4410 0.4133
vn -0.2255 -0.1235 -0.9664
vn 0.2255 -0.1235 -0.9664
vn 0.6575 0.7392 -0.1460
vn -0.6575 0.7391 -0.1460
vn 0.8505 0.4731 0.2297
vn 0.9404 -0.1287 0.3149
vn 0.2468 -0.0968 -0.9642
vn -0.8728 0.4282 0.2341
vn 0.6209 -0.1987 0.7583
vn -0.6207 -0.1986 0.7585
vn 0.8204 -0.5542 0.1407
vn -0.8243 -0.5487 0.1397
vn -0.8337 -0.5515 0.0285
vn 0.8307 -0.5565 -0.0176
vn -0.6313 -0.5338 -0.5627
vn 0.0056 0.3171 -0.9484
vn 0.6385 -0.5324 -0.5557
vn 0.5604 -0.1420 0.8160
vn -0.5390 -0.1484 0.8291
vn 0.5625 -0.2160 0.7981
vn -0.8236 0.3698 -0.4299
vn -0.5617 -0.2155 0.7988
vn 0.3399 -0.8548 -0.3921
vn 0.6954 -0.2216 0.6836
vn -0.6782 -0.1738 0.7140
vn 0.0111 0.9004 0.4349
vn 0.7054 -0.3039 0.6403
vn -0.0000 0.4808 0.8768
vn 0.0047 1.0000 -0.0040
vn 0.8047 -0.2499 0.5386
vn -0.2024 0.9742 0.1002
vn 0.5690 -0.1173 0.8139
vn -0.7737 0.1523 0.6149
vn 0.6123 0.6763 0.4095
vn -0.6574 0.6340 0.4072
vn 0.3895 0.9132 0.1195
vn 0.7401 0.1310 0.6596
vn -0.3818 0.9191 0.0971
vn -0.7498 -0.3719 0.5473
vn 0.1919 0.9784 0.0767
vn -0.5635 -0.1592 0.8106
vn -0.8194 -0.2630 0.5093
vn 0.7539 -0.0976 0.6497
vn 0.4144 -0.0077 0.9101
vn -0.7581 -0.0790 0.6473
vn -0.4119 -0.0068 0.9112
vn 0.4911 -0.1684 0.8546
vn -0.4684 -0.1382 0.8726
vn 0.3379 -0.3327 0.8804
vn 0.5012 -0.3838 0.7756
vn -0.4999 -0.3711 0.7825
vn -0.3567 -0.3040 0.8834
vn 0.5139 -0.1803 0.8387
vn -0.5134 -0.1644 0.8422
vn -0.4542 0.7722 0.4443
vn -0.8392 0.0970 0.5351
vn -0.3066 -0.9517 -0.0168
vn 0.8245 0.3738 -0.4248
vn 0.8402 0.1034 0.5324
vn 0.3308 -0.9435 0.0175
vn 0.4789 0.7595 0.4402
vn -0.4056 -0.8185 -0.4070
vt 0.375000 0.000000
vt 0.375000 0.250000
vt 0.625000 0.250000
vt 0.625000 0.000000
vt 0.375000 0.500000
vt 0.625000 0.500000
vt 0.125000 0.500000
vt 0.125000 0.750000
vt 0.375000 0.750000
vt 0.625000 0.955950
vt 0.625000 0.593264
vt 0.618527 0.750000
vt 0.625000 0.613338
vt 0.625000 0.886662
vt 0.375000 1.000000
vt 0.625000 1.000000
vt 0.625000 0.658274
vt 0.655576 0.811151
vt 0.414006 0.234419
vt 0.414006 0.176009
vt 0.585994 0.176009
vt 0.585994 0.234419
vt 0.639354 0.402421
vt 0.625000 0.557169
vt 0.641566 0.897680
vt 0.625000 0.043061
vt 0.875000 0.706939
vt 0.756114 0.783132
vt 0.625000 0.425790
vt 0.625000 0.318360
vt 0.625000 0.174835
vt 0.625000 0.076569
vt 0.000000 0.000000
vt 0.625000 0.401971
vt 0.625000 0.422509
vt 0.625000 0.382191
vt 0.625000 0.341475
vt 0.625000 0.137775
vt 0.625000 0.068532
vt 0.625000 0.051585
vt 0.625000 0.074850
vt 0.625000 0.159706
vt 0.625000 0.169493
vt 0.625000 0.347668
vt 0.625000 0.315080
vt 0.625000 0.008542
vt 0.625000 0.247450
vt 0.625000 0.237447
vt 0.625000 0.110706
vt 0.625000 0.393961
vt 0.625000 0.300818
vt 0.625000 0.304535
vt 0.631121 0.412614
vt 0.871242 0.733387
vt 0.625000 0.181164
vt 0.625000 0.174835
vt 0.625000 0.250000
vt 0.625000 0.405077
vt 0.625000 0.332209
vt 0.625000 0.094139
vt 0.625000 0.391344
vt 0.625000 0.089173
vt 0.625000 0.134398
s 0
usemtl Dunkles_Holz_Sarg
f 1/1/1 3/2/1 4/3/1 2/4/1
f 3/2/2 6/5/2 7/6/2 4/3/2
f 3/7/3 1/8/3 5/9/3 6/5/3
f 4/3/4 9/3/4 8/4/4 2/4/4
f 7/6/5 10/6/5 9/3/5 4/3/5
f 10/6/6 231/6/6 235/3/6 9/3/6
f 9/3/7 235/3/7 234/4/7 8/4/7
f 14/10/8 15/11/8 16/12/8
f 18/13/9 15/11/9 14/10/9 17/14/9
f 15/11/10 18/13/10 10/6/10 7/6/10
f 6/5/11 5/9/11 16/12/11 15/11/11 7/6/11
f 5/9/12 1/15/12 2/16/12 14/10/12 16/12/12
f 2/16/13 8/16/13 17/14/13 14/10/13
f 18/13/14 19/17/14 231/6/14 10/6/14
f 8/16/15 234/16/15 20/18/15 17/14/15
f 22/19/16 24/20/16 28/20/16 26/19/16
f 28/20/17 27/21/17 31/21/17 32/20/17
f 21/22/18 22/19/18 26/19/18 25/22/18
f 23/21/19 27/21/19 100/21/19 102/21/19
f 30/19/21 32/20/21 36/20/21 34/19/21
f 26/19/23 28/20/23 32/20/23 30/19/23
f 25/22/24 26/19/24 30/19/24 29/22/24
f 34/19/25 36/20/25 40/20/25 38/19/25
f 29/22/26 30/19/26 34/19/26 33/22/26
f 32/20/27 31/21/27 35/21/27 36/20/27
f 40/20/29 39/21/29 43/21/29 44/20/29
f 33/22/30 34/19/30 38/19/30 37/22/30
f 39/21/31 40/20/31 90/20/31 87/21/31
f 42/19/33 44/20/33 48/20/33 46/19/33
f 38/19/35 40/20/35 44/20/35 42/19/35
f 37/22/36 38/19/36 42/19/36 41/22/36
f 45/22/37 46/19/37 50/19/37 49/22/37
f 46/19/38 45/22/38 111/22/38 112/19/38
f 43/21/39 47/21/39 74/21/39 76/21/39
f 52/20/41 51/21/41 61/21/41 62/20/41
f 48/20/42 47/21/42 51/21/42 52/20/42
f 46/19/43 48/20/43 52/20/43 50/19/43
f 54/19/43 56/20/43 60/20/43 58/19/43
f 50/19/43 52/20/43 56/20/43 54/19/43
f 49/22/44 50/19/44 54/19/44 53/22/44
f 60/20/45 59/21/45 57/22/45 58/19/45
f 53/22/46 54/19/46 58/19/46 57/22/46
f 56/20/47 55/21/47 59/21/47 60/20/47
f 63/21/48 64/20/48 68/20/48 67/21/48
f 51/21/39 55/21/39 63/21/39 61/21/39
f 56/20/43 52/20/43 62/20/43 64/20/43
f 55/21/49 56/20/49 64/20/49 63/21/49
f 65/21/50 67/21/50 71/21/50 69/21/50
f 61/21/39 63/21/39 67/21/39 65/21/39
f 62/20/51 61/21/51 65/21/51 66/20/51
f 64/20/43 62/20/43 66/20/43 68/20/43
f 66/20/53 65/21/53 69/21/53 70/20/53
f 68/20/54 66/20/54 70/20/54 72/20/54
f 67/21/55 68/20/55 72/20/55 71/21/55
f 47/21/56 48/20/56 77/20/56 74/21/56
f 75/20/60 76/21/60 78/21/60 80/20/60
f 44/20/61 43/21/61 76/21/61 75/20/61
f 48/20/43 44/20/43 75/20/43 77/20/43
f 80/20/62 78/21/62 82/21/62 84/20/62
f 74/21/63 77/20/63 81/20/63 79/21/63
f 76/21/39 74/21/39 79/21/39 78/21/39
f 77/20/43 75/20/43 80/20/43 81/20/43
f 81/20/65 80/20/65 84/20/65 85/20/65
f 79/21/66 81/20/66 85/20/66 83/21/66
f 78/21/67 79/21/67 83/21/67 82/21/67
f 36/20/68 35/21/68 89/21/68 88/20/68
f 89/21/72 87/21/72 92/21/72 91/21/72
f 40/20/73 36/20/73 88/20/73 90/20/73
f 35/21/74 39/21/74 87/21/74 89/21/74
f 93/20/75 91/21/75 95/21/75 97/20/75
f 90/20/76 88/20/76 93/20/76 94/20/76
f 88/20/77 89/21/77 91/21/77 93/20/77
f 87/21/78 90/20/78 94/20/78 92/21/78
f 94/20/80 93/20/80 97/20/80 98/20/80
f 92/21/81 94/20/81 98/20/81 96/21/81
f 91/21/82 92/21/82 96/21/82 95/21/82
f 27/21/83 28/20/83 103/20/83 100/21/83
f 100/21/87 103/20/87 107/20/87 105/21/87
f 24/20/88 23/21/88 102/21/88 101/20/88
f 28/20/89 24/20/89 101/20/89 103/20/89
f 103/20/91 101/20/91 106/20/91 107/20/91
f 101/20/92 102/21/92 104/21/92 106/20/92
f 102/21/93 100/21/93 105/21/93 104/21/93
f 42/19/98 46/19/98 112/19/98 110/19/98
f 41/22/99 42/19/99 110/19/99 109/22/99
f 45/22/100 41/22/100 109/22/100 111/22/100
f 115/19/104 119/19/104 121/20/104 117/20/104
f 121/20/105 125/20/105 124/21/105 120/21/105
f 114/22/106 118/22/106 119/19/106 115/19/106
f 116/21/107 195/21/107 193/21/107 120/21/107
f 123/19/109 127/19/109 129/20/109 125/20/109
f 119/19/111 123/19/111 125/20/111 121/20/111
f 118/22/112 122/22/112 123/19/112 119/19/112
f 127/19/113 131/19/113 133/20/113 129/20/113
f 122/22/114 126/22/114 127/19/114 123/19/114
f 125/20/115 129/20/115 128/21/115 124/21/115
f 133/20/117 137/20/117 136/21/117 132/21/117
f 126/22/118 130/22/118 131/19/118 127/19/118
f 132/21/119 180/21/119 183/20/119 133/20/119
f 135/19/121 139/19/121 141/20/121 137/20/121
f 131/19/123 135/19/123 137/20/123 133/20/123
f 130/22/124 134/22/124 135/19/124 131/19/124
f 138/22/125 142/22/125 143/19/125 139/19/125
f 139/19/126 205/19/126 204/22/126 138/22/126
f 136/21/127 169/21/127 167/21/127 140/21/127
f 145/20/129 155/20/129 154/21/129 144/21/129
f 141/20/130 145/20/130 144/21/130 140/21/130
f 139/19/131 143/19/131 145/20/131 141/20/131
f 147/19/131 151/19/131 153/20/131 149/20/131
f 143/19/131 147/19/131 149/20/131 145/20/131
f 142/22/132 146/22/132 147/19/132 143/19/132
f 153/20/133 151/19/133 150/22/133 152/21/133
f 146/22/134 150/22/134 151/19/134 147/19/134
f 149/20/135 153/20/135 152/21/135 148/21/135
f 156/21/136 160/21/136 161/20/136 157/20/136
f 144/21/127 154/21/127 156/21/127 148/21/127
f 149/20/131 157/20/131 155/20/131 145/20/131
f 148/21/137 156/21/137 157/20/137 149/20/137
f 158/21/138 162/21/138 164/21/138 160/21/138
f 154/21/127 158/21/127 160/21/127 156/21/127
f 155/20/139 159/20/139 158/21/139 154/21/139
f 157/20/131 161/20/131 159/20/131 155/20/131
f 159/20/141 163/20/141 162/21/141 158/21/141
f 161/20/142 165/20/142 163/20/142 159/20/142
f 160/21/143 164/21/143 165/20/143 161/20/143
f 140/21/144 167/21/144 170/20/144 141/20/144
f 168/20/148 173/20/148 171/21/148 169/21/148
f 137/20/149 168/20/149 169/21/149 136/21/149
f 141/20/131 170/20/131 168/20/131 137/20/131
f 173/20/150 177/20/150 175/21/150 171/21/150
f 167/21/151 172/21/151 174/20/151 170/20/151
f 169/21/127 171/21/127 172/21/127 167/21/127
f 170/20/131 174/20/131 173/20/131 168/20/131
f 174/20/153 178/20/153 177/20/153 173/20/153
f 172/21/154 176/21/154 178/20/154 174/20/154
f 171/21/155 175/21/155 176/21/155 172/21/155
f 129/20/156 181/20/156 182/21/156 128/21/156
f 182/21/160 184/21/160 185/21/160 180/21/160
f 133/20/161 183/20/161 181/20/161 129/20/161
f 128/21/162 182/21/162 180/21/162 132/21/162
f 186/20/163 190/20/163 188/21/163 184/21/163
f 183/20/164 187/20/164 186/20/164 181/20/164
f 181/20/165 186/20/165 184/21/165 182/21/165
f 180/21/166 185/21/166 187/20/166 183/20/166
f 187/20/168 191/20/168 190/20/168 186/20/168
f 185/21/169 189/21/169 191/20/169 187/20/169
f 184/21/170 188/21/170 189/21/170 185/21/170
f 120/21/171 193/21/171 196/20/171 121/20/171
f 193/21/175 198/21/175 200/20/175 196/20/175
f 117/20/176 194/20/176 195/21/176 116/21/176
f 121/20/177 196/20/177 194/20/177 117/20/177
f 196/20/179 200/20/179 199/20/179 194/20/179
f 195/21/181 197/21/181 198/21/181 193/21/181
f 135/19/186 203/19/186 205/19/186 139/19/186
f 134/22/187 202/22/187 203/19/187 135/19/187
f 138/22/188 204/22/188 202/22/188 134/22/188
f 116/21/195 114/22/195 19/17/195 18/13/195
f 114/22/196 21/22/196 20/18/196 19/17/196
f 21/22/197 23/21/197 17/14/197 20/18/197
f 23/21/198 116/21/198 18/13/198 17/14/198
f 19/17/200 20/18/200 209/18/200 210/17/200
f 20/18/203 234/16/203 236/16/203 212/25/203 209/18/203
f 231/6/204 19/17/204 210/17/204 213/24/204 233/6/204
f 261/29/218 260/30/218 235/3/218 231/6/218
f 264/31/219 263/32/219 234/4/219 235/3/219
f 240/3/220 238/30/220 241/3/220
f 239/31/221 240/3/221 241/3/221
f 264/31/222 235/3/222 240/3/222 239/31/222
f 235/3/223 260/30/223 238/30/223 240/3/223
f 235/3/224 264/31/224 244/31/224 243/3/224
f 245/33/225 242/33/225 243/33/225 244/33/225
f 260/30/226 235/3/226 243/3/226 242/30/226
f 247/35/229 267/34/229 261/29/229 231/6/229 233/6/229
f 263/32/231 268/41/231 252/40/231 236/4/231 234/4/231
f 257/33/233 254/33/233 255/33/233 256/33/233
f 259/46/234 257/47/234 256/48/234 258/49/234
f 254/50/235 259/46/235 258/49/235 255/51/235
f 262/52/236 266/37/236 248/36/236 254/50/236 257/47/236
f 256/48/237 255/51/237 258/49/237
f 254/53/238 213/24/238 210/17/238 209/18/238 212/28/238 259/54/238
f 265/55/242 264/31/242 257/47/242
f 260/30/243 257/47/243 237/3/243
f 257/47/244 264/56/244 237/3/244
f 257/47/245 260/30/245 242/30/245 245/57/245
f 257/47/246 260/30/246 262/52/246
f 264/31/247 257/47/247 245/3/247 244/31/247
f 251/39/248 269/38/248 265/55/248 257/47/248 259/46/248
usemtl Dunkles_Holz
f 23/21/20 21/22/20 25/22/20 27/21/20
f 27/21/22 25/22/22 29/22/22 31/21/22
f 31/21/28 29/22/28 33/22/28 35/21/28
f 35/21/32 33/22/32 37/22/32 39/21/32
f 39/21/34 37/22/34 41/22/34 43/21/34
f 43/21/40 41/22/40 45/22/40 47/21/40
f 47/21/39 45/22/39 49/22/39 51/21/39
f 51/21/39 49/22/39 53/22/39 55/21/39
f 55/21/39 53/22/39 57/22/39 59/21/39
f 116/21/108 120/21/108 118/22/108 114/22/108
f 120/21/110 124/21/110 122/22/110 118/22/110
f 124/21/116 128/21/116 126/22/116 122/22/116
f 128/21/120 132/21/120 130/22/120 126/22/120
f 132/21/122 136/21/122 134/22/122 130/22/122
f 136/21/128 140/21/128 138/22/128 134/22/128
f 140/21/127 144/21/127 142/22/127 138/22/127
f 144/21/127 148/21/127 146/22/127 142/22/127
f 148/21/127 152/21/127 150/22/127 146/22/127
f 194/20/180 199/20/180 197/21/180 195/21/180
f 115/19/192 117/20/192 24/20/192 22/19/192
f 117/20/193 116/21/193 23/21/193 24/20/193
f 114/22/194 115/19/194 22/19/194 21/22/194
usemtl Sarg_Gem
f 230/42/230 232/43/230 275/43/230 274/42/230
f 249/44/232 211/45/232 272/45/232 276/44/232
f 270/59/262 271/58/262 277/61/262 276/44/262 272/45/262
f 273/60/263 274/42/263 275/43/263 279/63/263 278/62/263
f 12/59/264 13/58/264 271/58/264 270/59/264
f 13/58/265 246/61/265 277/61/265 271/58/265
f 246/61/266 249/44/266 276/44/266 277/61/266
f 211/45/267 12/59/267 270/59/267 272/45/267
f 253/62/268 11/60/268 273/60/268 278/62/268
f 250/63/269 253/62/269 278/62/269 279/63/269
f 11/60/270 230/42/270 274/42/270 273/60/270
f 232/43/271 250/63/271 279/63/271 275/43/271
usemtl Gotik_Symbol
f 267/34/227 247/35/227 248/36/227 266/37/227
f 269/38/228 251/39/228 252/40/228 268/41/228
f 248/36/241 247/35/241 233/6/241 254/50/241
f 252/40/250 251/39/250 259/46/250 236/4/250
f 13/58/252 12/59/252 260/30/252 261/29/252
f 12/59/253 211/45/253 262/52/253 260/30/253
f 230/42/254 11/60/254 263/32/254 264/31/254
f 232/43/255 230/42/255 264/31/255 265/55/255
f 249/44/256 246/61/256 267/34/256 266/37/256
f 253/62/257 250/63/257 269/38/257 268/41/257
f 211/45/258 249/44/258 266/37/258 262/52/258
f 246/61/259 13/58/259 261/29/259 267/34/259
f 11/60/260 253/62/260 268/41/260 263/32/260
f 250/63/261 232/43/261 265/55/261 269/38/261
usemtl Gotik_Symbol
f 72/20/52 70/20/52 73/20/52
f 71/21/57 72/20/57 73/21/57
f 69/21/58 71/21/58 73/21/58
f 70/20/59 69/21/59 73/20/59
f 85/20/64 84/20/64 86/20/64
f 83/21/69 85/20/69 86/21/69
f 82/21/70 83/21/70 86/21/70
f 84/20/71 82/21/71 86/20/71
f 96/21/79 98/20/79 99/21/79
f 95/21/84 96/21/84 99/21/84
f 97/20/85 95/21/85 99/20/85
f 98/20/86 97/20/86 99/20/86
f 105/21/90 107/20/90 108/21/90
f 104/21/94 105/21/94 108/21/94
f 106/20/95 104/21/95 108/20/95
f 107/20/96 106/20/96 108/20/96
f 109/22/97 110/19/97 113/22/97
f 111/22/101 109/22/101 113/22/101
f 112/19/102 111/22/102 113/19/102
f 110/19/103 112/19/103 113/19/103
f 165/20/140 166/20/140 163/20/140
f 164/21/145 166/21/145 165/20/145
f 162/21/146 166/21/146 164/21/146
f 163/20/147 166/20/147 162/21/147
f 178/20/152 179/20/152 177/20/152
f 176/21/157 179/21/157 178/20/157
f 175/21/158 179/21/158 176/21/158
f 177/20/159 179/20/159 175/21/159
f 189/21/167 192/21/167 191/20/167
f 188/21/172 192/21/172 189/21/172
f 190/20/173 192/20/173 188/21/173
f 191/20/174 192/20/174 190/20/174
f 198/21/178 201/21/178 200/20/178
f 197/21/182 201/21/182 198/21/182
f 199/20/183 201/20/183 197/21/183
f 200/20/184 201/20/184 199/20/184
f 202/22/185 206/22/185 203/19/185
f 204/22/189 206/22/189 202/22/189
f 205/19/190 206/19/190 204/22/190
f 203/19/191 206/19/191 205/19/191
f 216/23/199 217/6/199 220/6/199 223/23/199
f 233/6/201 213/24/201 215/24/201 217/6/201
f 215/24/202 216/23/202 223/23/202 221/24/202
f 212/25/205 236/16/205 214/16/205 207/25/205
f 218/4/206 219/26/206 225/26/206 224/4/206
f 222/25/207 218/16/207 224/16/207 228/25/207
f 208/27/208 207/28/208 222/28/208 219/27/208
f 214/4/209 208/26/209 219/26/209 218/4/209
f 207/25/210 214/16/210 218/16/210 222/25/210
f 217/6/211 215/24/211 221/24/211 220/6/211
f 229/23/212 226/6/212 227/24/212
f 228/4/213 224/4/213 225/26/213
f 219/27/214 222/28/214 228/28/214 225/27/214
f 223/23/215 220/6/215 226/6/215 229/23/215
f 220/6/216 221/24/216 227/24/216 226/6/216
f 221/24/217 223/23/217 229/23/217 227/24/217
f 254/53/239 233/6/239 217/6/239 216/23/239
f 213/24/240 254/53/240 216/23/240 215/24/240
f 259/54/249 212/28/249 207/28/249 208/27/249
f 236/4/251 259/46/251 208/26/251 214/4/251
