# Blender 5.1.1
# www.blender.org
mtllib Statue_var2.mtl
o Statue_var1
v 5.072078 1.192989 -2.307714
v 5.043779 1.370399 -2.081480
v 5.091210 1.253155 -2.388061
v 5.073765 1.473692 -2.199544
v 5.136520 1.184878 -2.298443
v 5.143111 1.357896 -2.067190
v 5.155652 1.245044 -2.378791
v 5.173097 1.461190 -2.185255
v 5.078285 1.150315 -2.437562
v 5.041834 1.161751 -2.292219
v 5.174680 1.150315 -2.419136
v 5.154955 1.161751 -2.270596
v 5.087647 1.111927 -2.435772
v 5.057473 1.111927 -2.314456
v 5.165318 1.111927 -2.420926
v 5.148622 1.111927 -2.297033
v 5.037423 1.148409 -2.169631
v 5.113842 1.148409 -2.155023
v 5.041982 1.111927 -2.153236
v 5.103558 1.111927 -2.141466
v 5.030328 1.485816 -2.030268
v 5.054247 1.495719 -2.187868
v 5.193347 1.478212 -2.167857
v 5.169428 1.468308 -2.010257
v 5.058338 1.610144 -2.116196
v 5.119686 1.604378 -2.230718
v 5.278236 1.586870 -2.210707
v 5.197438 1.592637 -2.096185
v 5.122750 1.293091 -2.432690
v 5.271685 1.268882 -2.405019
v 5.144305 1.458940 -2.577091
v 5.158073 1.296566 -2.496802
v 5.270684 1.250708 -2.466115
v 5.224949 1.416355 -2.600462
v 5.265551 1.407962 -2.609650
v 5.142908 1.685023 -2.193319
v 5.278236 1.667515 -2.173308
v 5.144305 1.776695 -2.362734
v 5.278236 1.787500 -2.380805
v 5.484393 1.192988 -2.307714
v 5.512693 1.370399 -2.081480
v 5.465261 1.253154 -2.388061
v 5.482707 1.473692 -2.199544
v 5.419950 1.184878 -2.298443
v 5.413360 1.357896 -2.067190
v 5.400819 1.245044 -2.378791
v 5.383374 1.461190 -2.185255
v 5.478187 1.150315 -2.437562
v 5.514637 1.161750 -2.292219
v 5.381792 1.150315 -2.419136
v 5.401516 1.161750 -2.270596
v 5.468825 1.111927 -2.435772
v 5.498999 1.111927 -2.314456
v 5.391152 1.111927 -2.420926
v 5.407850 1.111927 -2.297033
v 5.519048 1.148409 -2.169631
v 5.442629 1.148409 -2.155023
v 5.514489 1.111927 -2.153236
v 5.452913 1.111927 -2.141466
v 5.526143 1.485815 -2.030268
v 5.502224 1.495719 -2.187868
v 5.363124 1.478212 -2.167857
v 5.387043 1.468308 -2.010257
v 5.498133 1.610144 -2.116196
v 5.436786 1.604378 -2.230718
v 5.359033 1.592636 -2.096185
v 5.433721 1.293091 -2.432690
v 5.284787 1.268882 -2.405019
v 5.412166 1.458940 -2.577092
v 5.398399 1.296566 -2.496802
v 5.281706 1.250707 -2.466115
v 5.331522 1.416355 -2.600462
v 5.297879 1.407962 -2.609650
v 5.417722 1.685023 -2.193319
v 5.412166 1.776695 -2.362734
v 5.142734 1.752133 -2.152100
v 5.278073 1.734625 -2.132090
v 5.144131 1.843804 -2.257871
v 5.278088 1.854609 -2.275942
v 5.417548 1.752132 -2.152100
v 5.411993 1.843804 -2.257871
v 5.077101 1.726314 -2.209186
v 5.077804 1.772382 -2.262338
v 5.090841 1.802273 -2.240050
v 5.478921 1.733575 -2.214873
v 5.476160 1.779128 -2.267432
v 5.089444 1.738511 -2.193034
v 5.470742 1.748643 -2.202034
v 5.465187 1.812406 -2.249051
v 5.121795 1.646543 -2.257470
v 5.123192 1.680225 -2.330618
v 5.437890 1.648499 -2.246003
v 5.432334 1.681428 -2.333675
v 5.085956 1.677857 -2.242348
v 5.086658 1.693130 -2.311007
v 5.474264 1.682944 -2.250032
v 5.471503 1.698047 -2.317924
v 5.068020 1.481899 -2.256294
v 5.063872 1.392525 -2.301343
v 5.486408 1.494241 -2.252326
v 5.487784 1.394442 -2.302820
v 5.037727 1.486139 -2.275578
v 5.027338 1.410227 -2.316763
v 5.518622 1.480273 -2.274649
v 5.526953 1.407820 -2.321403
v 5.018534 1.578076 -2.143600
v 5.015404 1.516341 -2.139557
v 5.527170 1.555441 -2.166777
v 5.533104 1.486805 -2.148688
v 4.995676 1.577275 -2.158478
v 4.987837 1.526108 -2.154335
v 5.556373 1.542563 -2.164290
v 5.562659 1.492791 -2.164895
v 5.029441 1.594587 -2.126130
v 5.003277 1.536101 -2.089866
v 5.517028 1.560126 -2.153649
v 5.522749 1.499332 -2.154393
v 5.001203 1.609403 -2.120240
v 4.976896 1.564439 -2.085650
v 5.546325 1.562442 -2.142392
v 5.561301 1.517598 -2.129193
v 5.055999 1.595514 -2.130441
v 5.042849 1.545968 -2.058764
v 5.043922 1.619841 -2.112421
v 5.035057 1.582915 -2.048527
v 5.098267 1.594496 -2.099093
v 5.085116 1.563357 -2.066167
v 5.086190 1.620073 -2.083704
v 5.077325 1.598890 -2.052953
v 5.040864 1.589433 -2.154913
v 5.035426 1.591948 -2.170145
v 5.042514 1.598056 -2.141734
v 5.029949 1.611560 -2.147918
v 5.056439 1.598882 -2.154055
v 5.054013 1.600004 -2.160850
v 5.057175 1.602729 -2.148175
v 5.051569 1.608753 -2.150934
v 5.507161 1.571759 -2.147747
v 5.512119 1.543266 -2.079450
v 5.531034 1.582544 -2.130409
v 5.546982 1.568353 -2.073785
v 5.487109 1.586510 -2.140739
v 5.487101 1.560312 -2.071352
v 5.487070 1.608343 -2.118154
v 5.487044 1.601534 -2.058024
v 5.522749 1.514858 -2.144068
v 5.458090 1.587672 -2.121146
v 5.458085 1.573238 -2.082916
v 5.458068 1.599702 -2.108702
v 5.458054 1.595950 -2.075572
v 5.515304 1.582918 -2.160234
v 5.504725 1.577039 -2.154683
v 5.512139 1.589369 -2.150839
v 5.502318 1.580557 -2.149230
v 5.499900 1.587489 -2.161313
v 5.498140 1.582477 -2.154994
v 5.500808 1.591314 -2.155123
v 5.498444 1.584463 -2.151203
v 5.096595 2.148272 -2.424449
v 5.278303 2.168192 -2.439189
v 5.096421 2.194746 -2.360867
v 5.459876 2.148396 -2.424279
v 5.277996 2.214667 -2.375607
v 5.459702 2.194870 -2.360697
v 5.094823 2.091061 -2.341645
v 5.094997 2.040861 -2.401190
v 5.458546 2.093189 -2.339734
v 5.278027 2.149662 -2.357613
v 5.278283 2.099462 -2.417158
v 5.458719 2.042989 -2.399279
v 4.923681 2.068075 -2.327615
v 4.915067 2.133744 -2.346210
v 4.915241 2.087270 -2.409793
v 5.641191 2.087656 -2.408806
v 5.641017 2.134131 -2.345223
v 5.632403 2.068440 -2.326659
v 5.632577 2.036266 -2.386204
v 4.923854 2.035901 -2.387160
v 4.651029 1.845831 -2.326724
v 4.741229 1.526302 -2.338868
v 5.009346 2.094719 -2.335259
v 5.823121 1.525850 -2.336834
v 5.535031 2.047394 -2.394171
v 5.905133 1.847322 -2.324463
v 5.905280 1.797122 -2.384008
v 4.651175 1.795631 -2.386269
v 4.678360 1.895607 -2.352228
v 4.737401 1.873931 -2.333633
v 4.737535 1.823732 -2.393178
v 4.678506 1.849132 -2.415811
v 5.881593 1.893936 -2.349302
v 5.881739 1.847461 -2.412884
v 5.822247 1.872238 -2.330737
v 5.822381 1.822038 -2.390283
v 5.877027 1.623214 -2.346422
v 5.876853 1.622831 -2.318317
v 4.679123 1.621691 -2.320035
v 4.679296 1.622074 -2.348139
v 5.840359 1.626517 -2.324591
v 5.840532 1.626899 -2.352697
v 4.720106 1.628561 -2.326943
v 4.720280 1.628944 -2.355048
v 4.659816 1.880547 -2.348526
v 4.648782 1.852526 -2.332468
v 4.648168 1.806137 -2.395631
v 4.659963 1.834073 -2.412108
v 5.896478 1.835543 -2.409883
v 5.908287 1.807637 -2.393355
v 5.907379 1.854024 -2.330196
v 5.896332 1.882018 -2.346301
v 5.550056 2.118186 -2.416583
v 5.005744 2.164245 -2.353539
v 5.005918 2.117771 -2.417121
v 5.009520 2.053532 -2.394804
v 5.534858 2.088628 -2.334625
v 5.549882 2.164660 -2.353000
v 5.618661 1.872747 -2.383984
v 5.618540 1.872561 -2.342481
v 4.937361 1.872195 -2.343369
v 4.937482 1.872381 -2.384872
v 4.981286 1.872066 -2.389979
v 4.981165 1.878162 -2.348476
v 5.577022 1.883263 -2.347901
v 5.577144 1.877134 -2.389404
v 5.585303 1.698086 -2.371577
v 5.585182 1.697900 -2.330073
v 4.975334 1.694866 -2.330705
v 4.975454 1.695052 -2.372209
v 5.007456 1.715891 -2.377316
v 5.007336 1.721987 -2.335813
v 5.557394 1.729756 -2.335493
v 5.557515 1.723627 -2.376997
v 5.512529 1.656116 -2.349681
v 5.040646 1.642235 -2.349259
v 5.209207 1.838241 -2.111784
v 5.278336 1.828483 -2.097602
v 5.209921 1.888999 -2.186579
v 5.278344 1.893098 -2.198420
v 5.349577 1.838241 -2.111784
v 5.346739 1.888999 -2.186579
v 5.222682 1.881210 -2.086495
v 5.278394 1.876615 -2.069905
v 5.223258 1.904778 -2.173761
v 5.278400 1.904786 -2.186291
v 5.335808 1.881210 -2.086495
v 5.333521 1.904778 -2.173760
v 5.177969 1.925410 -2.039010
v 5.278236 1.917140 -2.009151
v 5.179004 1.967825 -2.196066
v 5.278248 1.967841 -2.218618
v 5.381568 1.925410 -2.039010
v 5.377451 1.967825 -2.196065
v 5.149030 2.015651 -1.992592
v 5.150363 2.070272 -2.194841
v 5.278164 2.070292 -2.223884
v 5.411216 2.015651 -1.992592
v 5.405914 2.070271 -2.194840
v 5.168429 2.154097 -1.973083
v 5.278256 2.145039 -1.940377
v 5.169564 2.200557 -2.145113
v 5.278269 2.200574 -2.169816
v 5.391440 2.154097 -1.973083
v 5.386930 2.200556 -2.145112
v 5.211519 2.200175 -1.996279
v 5.278430 2.208953 -1.976354
v 5.212210 2.228480 -2.101087
v 5.278438 2.242788 -2.116138
v 5.347386 2.200175 -1.996279
v 5.344638 2.228480 -2.101087
v 5.243347 2.007872 -1.964505
v 5.278177 1.944942 -1.971944
v 5.307436 2.007345 -1.962603
v 5.278204 2.050354 -1.947125
v 5.243270 2.001924 -1.947079
v 5.135658 2.200372 -2.043236
v 5.307359 2.001397 -1.945178
v 5.278100 1.953075 -1.951630
v 5.278127 2.030758 -1.908090
v 5.251706 1.952975 -1.903273
v 5.277708 1.950104 -1.892909
v 5.299590 1.952448 -1.901371
v 5.277729 1.930815 -1.910231
v 5.278040 1.993083 -1.890226
v 5.136792 2.224581 -2.083521
v 5.179438 2.257237 -2.077590
v 5.424075 2.200642 -2.043802
v 5.419565 2.224851 -2.084087
v 5.178747 2.242488 -2.013902
v 5.380021 2.242758 -2.014468
v 5.377273 2.257507 -2.078156
v 5.135334 2.276946 -2.032474
v 5.136160 2.294569 -2.061799
v 5.163972 2.274525 -2.057482
v 5.425695 2.279633 -2.034774
v 5.422412 2.297255 -2.064098
v 5.163469 2.263789 -2.026337
v 5.393214 2.268098 -2.013421
v 5.391213 2.278834 -2.059781
v 5.148287 2.324471 -2.009816
v 5.148902 2.337600 -2.031663
v 5.169623 2.322667 -2.028447
v 5.407486 2.336721 -2.015408
v 5.405180 2.349097 -2.036001
v 5.169249 2.314668 -2.005243
v 5.384675 2.328620 -2.000413
v 5.383270 2.336160 -2.032970
v 5.360029 2.393767 -2.002005
v 5.189786 2.356967 -2.006354
v 5.388796 2.129334 -1.974738
v 5.361357 2.105747 -1.968916
v 5.325253 2.094194 -1.959337
v 5.384462 2.104303 -1.975917
v 5.354136 2.089862 -1.968337
v 5.229459 2.096120 -1.960100
v 5.191911 2.114412 -1.969792
v 5.175064 2.134148 -1.973011
v 5.182284 2.102378 -1.973917
v 5.226089 2.089862 -1.961745
v 5.278175 2.048343 -1.928032
v 5.229431 2.094110 -1.941007
v 5.354107 2.087852 -1.949244
v 5.384433 2.102293 -1.956823
v 5.388767 2.127324 -1.955644
v 5.361328 2.103737 -1.949823
v 5.325224 2.092184 -1.940243
v 5.191883 2.112402 -1.950698
v 5.175035 2.132138 -1.953917
v 5.182255 2.100368 -1.954823
v 5.226060 2.087852 -1.942652
v 5.409395 2.034406 -2.062040
v 5.407529 2.053633 -2.133231
v 5.401690 2.027241 -2.118742
v 5.404949 2.021419 -2.070496
v 5.406579 2.052196 -2.036391
v 5.402707 2.081310 -2.056355
v 5.401244 2.094619 -2.091292
v 5.398010 2.120405 -2.125397
v 5.391349 2.169482 -2.147855
v 5.399901 2.108760 -2.146192
v 5.405371 2.069664 -2.142033
v 5.432806 2.034182 -2.064312
v 5.462583 2.055060 -2.128513
v 5.449897 2.024386 -2.114347
v 5.436293 2.020101 -2.081511
v 5.423171 2.059589 -2.052298
v 5.426857 2.079619 -2.065808
v 5.440482 2.092368 -2.096406
v 5.453810 2.120360 -2.131121
v 5.454444 2.130130 -2.135813
v 5.456357 2.115195 -2.134403
v 5.459297 2.077595 -2.128477
v 5.458983 2.057822 -2.120369
v 5.450896 2.016148 -2.121865
v 5.432360 2.010325 -2.077202
v 5.435810 2.039850 -2.071276
v 5.417788 2.058039 -2.041291
v 5.423198 2.087153 -2.060894
v 5.437425 2.100462 -2.092837
v 5.449695 2.126248 -2.124822
v 5.453716 2.175325 -2.147899
v 5.460636 2.114603 -2.142606
v 5.463686 2.075507 -2.136449
v 5.440482 2.023788 -2.118908
v 5.426878 2.019503 -2.086072
v 5.413755 2.058992 -2.056859
v 5.417441 2.079022 -2.070369
v 5.431067 2.091770 -2.100967
v 5.444395 2.119763 -2.135682
v 5.445029 2.129532 -2.140374
v 5.446942 2.114597 -2.138963
v 5.449882 2.076998 -2.133038
v 5.449568 2.057224 -2.124930
v 5.426394 2.039252 -2.075836
v 5.149551 2.056779 -2.061153
v 5.150163 2.062076 -2.164496
v 5.155788 2.034854 -2.062722
v 5.163735 2.018487 -2.104120
v 5.162254 2.020861 -2.171927
v 5.159715 2.126764 -2.139193
v 5.154625 2.106098 -2.115191
v 5.152102 2.081547 -2.088235
v 5.155669 2.105102 -2.175779
v 5.163066 2.155165 -2.156042
v 5.167475 2.179715 -2.120420
v 5.138554 2.062698 -2.054253
v 5.099188 2.068173 -2.146941
v 5.139159 2.044876 -2.063481
v 5.125286 2.030748 -2.097119
v 5.107663 2.030593 -2.153195
v 5.117369 2.132944 -2.136317
v 5.124548 2.108818 -2.111229
v 5.122957 2.083025 -2.081339
v 5.101227 2.110800 -2.154120
v 5.117043 2.157336 -2.142555
v 5.129163 2.170143 -2.128282
v 5.134864 2.060261 -2.059443
v 5.142908 2.040773 -2.058986
v 5.126835 2.024406 -2.097956
v 5.105218 2.026958 -2.159788
v 5.102710 2.068366 -2.141773
v 5.121057 2.132861 -2.131029
v 5.127968 2.112195 -2.107144
v 5.125826 2.087466 -2.078293
v 5.097600 2.111198 -2.159395
v 5.114614 2.161262 -2.146955
v 5.137846 2.185812 -2.119593
v 5.150892 2.041492 -2.065922
v 5.149989 2.027364 -2.102297
v 5.138017 2.027032 -2.161672
v 5.141033 2.129382 -2.142437
v 5.138749 2.105257 -2.116442
v 5.142161 2.079641 -2.088400
v 5.132340 2.107238 -2.164840
v 5.142963 2.153775 -2.148378
v 5.149166 2.166581 -2.130711
v 5.145436 2.056877 -2.063691
v 5.129301 2.064805 -2.152783
v 5.283198 0.049504 -2.541952
v 5.283198 0.200870 -2.477132
v 5.563478 0.049504 -2.380132
v 5.507342 0.200870 -2.347722
v 5.563478 0.049504 -2.056493
v 5.507342 0.200870 -2.088903
v 5.283198 0.049504 -1.894673
v 5.283198 0.200870 -1.959493
v 5.002918 0.049504 -2.056493
v 5.059054 0.200870 -2.088903
v 5.002918 0.049504 -2.380132
v 5.059054 0.200870 -2.347722
v 5.563478 0.088638 -2.380132
v 5.283198 0.088638 -2.541952
v 5.563478 0.088638 -2.056493
v 5.283198 0.088638 -1.894673
v 5.002918 0.088638 -2.056493
v 5.002918 0.088638 -2.380132
v 5.507342 0.764980 -2.347722
v 5.283198 0.764980 -2.477132
v 5.507342 0.764980 -2.088903
v 5.283198 0.764980 -1.959493
v 5.059054 0.764980 -2.088903
v 5.059054 0.764980 -2.347722
v 5.720917 0.866399 -2.471030
v 5.283198 0.866399 -2.723747
v 5.720917 0.866399 -1.965595
v 5.283198 0.866399 -1.712878
v 4.845479 0.866399 -1.965595
v 4.845479 0.866399 -2.471030
v 5.617877 1.036288 -2.411539
v 5.283198 1.036288 -2.604766
v 5.617877 1.036288 -2.025086
v 5.283198 1.036288 -1.831859
v 4.948519 1.036288 -2.025086
v 4.948519 1.036288 -2.411539
v 5.720917 0.929547 -2.471030
v 5.283198 0.929547 -2.723747
v 5.720917 0.929547 -1.965595
v 5.283198 0.929547 -1.712878
v 4.845479 0.929547 -1.965595
v 4.845479 0.929547 -2.471030
v 5.541757 0.898354 -2.367591
v 5.283198 0.898354 -2.516870
v 5.541757 0.898354 -2.069034
v 5.283198 0.898354 -1.919755
v 5.024639 0.898354 -2.069034
v 5.024639 0.898354 -2.367591
v 5.720917 0.796391 -2.471030
v 5.283198 0.796391 -2.723747
v 5.720917 0.796391 -1.965595
v 5.283198 0.796391 -1.712878
v 4.845479 0.796391 -1.965595
v 4.845479 0.796391 -2.471030
v 5.720917 0.999555 -2.471030
v 5.283198 0.999555 -2.723747
v 5.720917 0.999555 -1.965595
v 5.283198 0.999555 -1.712878
v 4.845479 0.999555 -1.965595
v 4.845479 0.999555 -2.471030
v 5.283198 0.866399 -2.668370
v 5.283198 0.929547 -2.668370
v 5.672959 0.929547 -2.443341
v 5.672959 0.866399 -2.443341
v 4.893437 0.866399 -2.443341
v 4.893437 0.929547 -2.443341
v 5.283198 0.866399 -1.768255
v 5.283198 0.929547 -1.768255
v 4.893437 0.929547 -1.993284
v 4.893437 0.866399 -1.993284
v 5.672959 0.929547 -1.993284
v 5.672959 0.866399 -1.993284
v 5.283198 0.000000 -2.541952
v 5.563478 0.000000 -2.380132
v 5.563478 0.138142 -2.380132
v 5.283198 0.138142 -2.541952
v 5.563478 0.000000 -2.056493
v 5.563478 0.138142 -2.056493
v 5.283198 0.000000 -1.894673
v 5.283198 0.138142 -1.894673
v 5.002918 0.000000 -2.056493
v 5.002918 0.138142 -2.056493
v 5.002918 0.000000 -2.380132
v 5.002918 0.138142 -2.380132
v 5.283198 0.049504 -2.478389
v 5.283198 0.088638 -2.478389
v 5.508431 0.088638 -2.348351
v 5.508431 0.049504 -2.348351
v 5.508431 0.088638 -2.088274
v 5.508431 0.049504 -2.088274
v 5.283198 0.088638 -1.958236
v 5.283198 0.049504 -1.958236
v 5.057965 0.088638 -2.088274
v 5.057965 0.049504 -2.088274
v 5.057965 0.088638 -2.348351
v 5.057965 0.049504 -2.348351
v 5.541757 1.129715 -2.367591
v 5.283198 1.129715 -2.516870
v 5.541757 1.129715 -2.069034
v 5.283198 1.129715 -1.919755
v 5.024639 1.129715 -2.069034
v 5.024639 1.129715 -2.367591
vn -0.9083 0.2026 0.3660
vn -0.7608 -0.4684 0.4492
vn -0.4962 0.4577 -0.7378
vn -0.4809 0.5175 -0.7078
vn 0.7772 0.2974 -0.5546
vn 0.7416 0.4222 -0.5214
vn 0.4687 -0.6232 0.6261
vn 0.7230 0.1000 0.6835
vn -0.5563 0.1535 -0.8167
vn -0.9126 0.4020 0.0743
vn -0.7526 0.1167 0.6480
vn -0.9727 -0.0217 -0.2310
vn 0.8149 0.1414 -0.5620
vn 0.8243 0.3842 0.4158
vn 0.6298 -0.7664 0.1262
vn 0.5923 -0.6297 -0.5026
vn -0.3652 -0.6297 -0.6857
vn -0.6320 -0.7664 -0.1150
vn -0.5931 -0.5134 0.6203
vn -0.7257 0.5597 0.4002
vn 0.5269 0.5597 0.6396
vn 0.3225 -0.5134 0.7953
vn 0.4829 -0.1024 0.8697
vn 0.8111 -0.4623 0.3583
vn -0.0007 -0.0693 0.9976
vn 0.5506 0.6341 0.5429
vn -0.9168 0.3904 0.0845
vn -0.5871 0.7820 0.2093
vn -0.6712 0.1851 -0.7178
vn -0.7247 -0.6882 0.0345
vn 0.0708 -0.1302 -0.9890
vn 0.1090 -0.9514 -0.2879
vn -0.1144 -0.9507 -0.2882
vn -0.0639 -0.1234 -0.9903
vn -0.0659 -0.8610 0.5043
vn -0.4316 -0.7210 -0.5421
vn -0.2722 -0.0560 -0.9606
vn 0.9090 -0.1681 0.3814
vn 0.4607 -0.4827 0.7448
vn -0.5593 -0.4310 0.7081
vn 0.9187 -0.1447 0.3675
vn -0.0018 -0.4621 0.8868
vn -0.4059 -0.5212 0.7507
vn -0.6585 0.1828 -0.7300
vn 0.9083 0.2026 0.3660
vn 0.4809 0.5175 -0.7078
vn 0.4962 0.4577 -0.7378
vn 0.7608 -0.4684 0.4492
vn -0.7416 0.4222 -0.5214
vn -0.7772 0.2974 -0.5546
vn -0.7230 0.1000 0.6835
vn -0.4687 -0.6232 0.6261
vn 0.9126 0.4020 0.0743
vn 0.5563 0.1535 -0.8167
vn 0.9727 -0.0217 -0.2310
vn 0.7526 0.1167 0.6480
vn -0.8149 0.1414 -0.5620
vn -0.5923 -0.6297 -0.5026
vn -0.6298 -0.7664 0.1262
vn -0.8243 0.3842 0.4158
vn 0.3652 -0.6297 -0.6857
vn 0.6320 -0.7664 -0.1150
vn 0.7257 0.5597 0.4002
vn 0.5931 -0.5134 0.6203
vn -0.5269 0.5597 0.6396
vn -0.3225 -0.5134 0.7953
vn -0.4829 -0.1024 0.8697
vn -0.5506 0.6341 0.5429
vn -0.8111 -0.4623 0.3583
vn 0.5871 0.7820 0.2093
vn 0.8794 0.4751 0.0303
vn 0.7237 -0.6894 0.0322
vn 0.6709 0.1841 -0.7183
vn 0.0676 -0.8629 0.5008
vn 0.2780 -0.0493 -0.9593
vn 0.4309 -0.7220 -0.5414
vn -0.0031 0.2502 0.9682
vn 0.1646 -0.0517 0.9850
vn 0.1680 0.9240 0.3436
vn -0.0021 0.9553 0.2958
vn 0.6506 0.1691 -0.7404
vn 0.0023 0.2040 -0.9790
vn -0.0039 0.8855 0.4647
vn -0.7573 0.5693 0.3198
vn -0.6316 0.7623 -0.1412
vn -0.0000 0.8209 -0.5711
vn 0.7422 0.5915 0.3151
vn 0.6258 0.7651 -0.1514
vn 0.5416 -0.0419 0.8396
vn -0.0031 -0.4276 0.9039
vn -0.9301 0.3048 -0.2051
vn -0.7421 0.6445 0.1844
vn -0.5196 -0.0362 0.8536
vn -0.0440 -0.5136 -0.8569
vn 0.4024 -0.5858 -0.7035
vn 0.6256 -0.0307 -0.7795
vn -0.7419 -0.1313 -0.6575
vn 0.9130 0.3235 -0.2487
vn 0.7282 0.6767 0.1088
vn 0.7729 0.1394 0.6190
vn -0.8870 -0.1981 0.4171
vn -0.6984 0.0531 0.7137
vn 0.8023 0.0946 -0.5893
vn -0.8191 0.0750 -0.5687
vn 0.5375 -0.2060 -0.8177
vn 0.1518 -0.9391 -0.3084
vn -0.7473 -0.4115 -0.5217
vn -0.8400 0.1486 0.5218
vn 0.9197 0.3638 -0.1476
vn -0.5958 -0.2006 -0.7777
vn -0.8582 -0.2651 0.4395
vn 0.7083 -0.4211 0.5666
vn -0.2956 -0.9092 -0.2933
vn -0.3073 -0.7302 0.6103
vn -0.2474 0.6734 -0.6967
vn 0.6881 -0.4492 -0.5699
vn 0.7510 0.5693 -0.3346
vn 0.9052 -0.3665 0.2153
vn -0.8834 0.4551 -0.1115
vn 0.9159 0.0223 0.4008
vn 0.8198 -0.3119 0.4802
vn -0.6232 -0.7400 -0.2530
vn 0.9189 0.0155 -0.3942
vn 0.9051 -0.4239 -0.0322
vn 0.4825 -0.8759 -0.0055
vn 0.6100 -0.1293 0.7818
vn 0.3240 -0.7696 0.5502
vn -0.9497 -0.3126 -0.0218
vn -0.6053 0.4992 -0.6200
vn 0.7235 0.1291 0.6782
vn -0.3076 -0.7782 0.5476
vn -0.8801 0.0210 0.4744
vn -0.0680 -0.9349 0.3483
vn 0.1086 -0.8910 0.4409
vn -0.2727 0.2500 0.9290
vn 0.7743 0.5556 -0.3029
vn -0.5371 -0.0724 -0.8404
vn -0.5766 0.8151 -0.0565
vn 0.4024 -0.0840 -0.9116
vn -0.0829 0.9560 -0.2814
vn 0.5103 0.8471 0.1488
vn 0.9077 -0.0813 -0.4117
vn 0.7020 -0.6534 0.2834
vn 0.3625 0.4250 0.8294
vn 0.0820 -0.1463 -0.9858
vn -0.0205 0.9948 -0.0995
vn 0.3945 0.9167 0.0633
vn 0.6446 0.0645 -0.7618
vn 0.9240 -0.3764 -0.0667
vn 0.8624 0.0937 0.4975
vn -0.9611 -0.2237 -0.1618
vn -0.3825 -0.7354 0.5594
vn -0.3750 0.0358 -0.9263
vn 0.6065 0.7800 -0.1540
vn 0.1288 0.9612 0.2438
vn -0.7265 -0.1391 0.6729
vn 0.0359 0.9501 -0.3100
vn -0.7688 -0.1782 -0.6142
vn -0.7518 0.6361 -0.1738
vn -0.0170 0.5657 0.8244
vn -0.7586 -0.6123 0.2226
vn -0.7615 0.4095 0.5024
vn 0.3876 0.2901 -0.8750
vn -0.4991 -0.6576 -0.5643
vn -0.8625 -0.4335 -0.2609
vn -0.4525 0.2920 -0.8426
vn -0.8018 0.0804 0.5921
vn -0.3931 0.9129 0.1098
vn 0.0015 0.3585 -0.9335
vn -0.1633 0.3560 -0.9201
vn -0.1656 0.9226 0.3483
vn 0.1622 0.3518 -0.9219
vn 0.0031 -0.2068 -0.9784
vn -0.5095 -0.5147 -0.6896
vn -0.1875 -0.0732 0.9795
vn -0.2008 0.2899 -0.9357
vn -0.2841 0.3127 -0.9064
vn 0.4865 -0.5276 -0.6964
vn -0.2502 0.8964 0.3660
vn 0.1882 -0.0998 0.9771
vn -0.4226 -0.6023 -0.6773
vn 0.2007 0.2896 -0.9359
vn 0.2920 0.3158 -0.9028
vn 0.0515 -0.5159 -0.8551
vn -0.4465 0.8238 0.3494
vn -0.0933 -0.0201 0.9954
vn -0.6929 -0.1045 0.7134
vn 0.7191 0.0018 0.6949
vn 0.2533 0.8955 0.3660
vn -0.2077 -0.1350 0.9688
vn 0.0889 -0.0181 0.9959
vn 0.4398 0.8254 0.3539
vn 0.6265 -0.2476 0.7390
vn -0.7088 0.0063 0.7053
vn -0.3294 -0.9441 -0.0111
vn 0.7456 -0.3320 -0.5778
vn 0.7502 -0.3680 -0.5493
vn 0.5847 0.1098 0.8038
vn -0.6485 -0.1264 -0.7507
vn 0.7025 0.0230 0.7113
vn -0.6271 -0.2710 0.7302
vn 0.3768 -0.9262 -0.0106
vn 0.6533 -0.1174 -0.7479
vn 0.3618 -0.1019 0.9266
vn -0.5863 0.1053 0.8032
vn -0.7368 -0.3551 -0.5753
vn -0.2689 0.1161 -0.9561
vn -0.5845 0.7602 0.2838
vn 0.6883 -0.3997 -0.6053
vn 0.2759 0.1134 -0.9545
vn -0.6842 -0.4030 -0.6079
vn -0.3652 -0.1028 0.9252
vn 0.5785 0.7645 0.2845
vn -0.7461 -0.3669 -0.5556
vn -0.6992 -0.3456 -0.6259
vn -0.8120 0.3361 0.4772
vn -0.6806 0.6882 0.2512
vn -0.5459 -0.0197 -0.8376
vn 0.5521 -0.0225 -0.8335
vn 0.6754 0.6932 0.2517
vn 0.8084 0.3421 0.4790
vn 0.7038 -0.3470 -0.6200
vn 0.6888 -0.0937 0.7189
vn -0.7090 -0.0460 0.7038
vn -0.6743 0.2163 0.7061
vn 0.5503 -0.4521 0.7020
vn -0.6206 -0.0668 -0.7813
vn 0.7438 -0.1245 -0.6567
vn 0.6034 -0.5232 -0.6018
vn -0.5741 0.0626 -0.8164
vn -0.6246 -0.4815 -0.6148
vn 0.6126 0.0324 -0.7897
vn 0.6041 -0.7950 0.0549
vn -0.7216 -0.6910 0.0431
vn 0.6970 0.1863 0.6924
vn -0.5735 -0.4084 0.7102
vn -0.7840 -0.0240 -0.6203
vn 0.0005 0.1752 -0.9845
vn 0.7766 -0.0188 -0.6297
vn 0.6660 0.0182 0.7458
vn -0.0032 -0.3951 0.9186
vn -0.6651 0.0097 0.7467
vn -0.6709 -0.5857 0.4547
vn -0.7178 -0.6055 0.3437
vn -0.6792 -0.3466 -0.6470
vn -0.0034 -0.6880 0.7257
vn 0.6707 -0.5892 0.4506
vn 0.7097 -0.6172 0.3395
vn -0.0045 -0.6910 0.7228
vn 0.6699 -0.3587 -0.6501
vn 0.7691 0.0819 -0.6338
vn 0.6384 -0.3483 -0.6864
vn 0.4521 -0.7045 -0.5471
vn 0.4704 -0.8251 0.3130
vn 0.6662 -0.5189 0.5357
vn 0.8174 -0.2266 0.5297
vn -0.0000 -0.2524 -0.9676
vn -0.7754 0.0974 -0.6239
vn -0.0001 0.1652 -0.9863
vn -0.8159 -0.2328 0.5292
vn -0.6573 -0.2038 0.7255
vn -0.0723 -0.5080 0.8583
vn -0.4677 -0.7052 0.5329
vn -0.7093 -0.5020 0.4949
vn -0.3640 0.0081 0.9314
vn -0.6968 0.1759 0.6954
vn -0.7171 -0.0497 -0.6952
vn -0.7661 0.1276 -0.6299
vn -0.6662 0.4989 -0.5543
vn -0.3773 0.7714 0.5125
vn -0.4956 0.2968 0.8163
vn -0.4893 0.6868 0.5375
vn -0.4788 0.6934 0.5384
vn -0.5695 0.3101 0.7613
vn -0.6352 0.4627 -0.6184
vn 0.6776 -0.1995 0.7079
vn -0.0000 -0.6929 0.7210
vn -0.5644 -0.7104 0.4204
vn -0.6615 -0.7486 0.0447
vn -0.6900 -0.5562 -0.4631
vn 0.6287 0.4563 -0.6297
vn 0.0181 0.9674 -0.2528
vn -0.4574 0.7751 -0.4358
vn 0.8099 0.0064 -0.5866
vn -0.0000 0.6269 -0.7791
vn -0.0198 0.9668 -0.2547
vn -0.0004 0.9805 -0.1966
vn 0.7199 -0.0593 0.6916
vn 0.5899 0.6423 0.4893
vn 0.5750 0.7367 0.3559
vn 0.5853 0.5550 0.5911
vn 0.5097 0.8429 -0.1725
vn 0.7222 0.0356 -0.6908
vn 0.7157 -0.1012 -0.6911
vn 0.7029 0.1737 0.6897
vn 0.0545 -0.9502 -0.3069
vn -0.9805 0.0307 0.1942
vn -0.1617 0.7408 0.6520
vn -0.0022 0.7939 0.6081
vn 0.1566 0.7394 0.6548
vn -0.0041 0.2161 0.9764
vn -0.9191 -0.3076 0.2463
vn -0.8373 0.0222 -0.5463
vn 0.9842 0.0289 0.1749
vn 0.8432 -0.3496 0.4084
vn 0.0301 -0.9985 0.0449
vn 0.0317 0.7208 0.6924
vn 0.3898 0.0458 0.9198
vn 0.7380 -0.4464 0.5061
vn 0.4768 -0.6697 0.5693
vn -0.8504 -0.3664 0.3775
vn 0.0328 0.3458 0.9377
vn -0.0059 -0.3784 0.9256
vn 0.2053 0.6127 0.7632
vn 0.4203 0.1367 0.8970
vn -0.8632 -0.0540 0.5020
vn -0.5926 0.4596 -0.6615
vn -0.2465 0.5552 0.7944
vn 0.4161 0.8114 -0.4104
vn 0.9243 -0.3168 0.2128
vn -0.7185 0.4024 -0.5673
vn -0.3008 0.0205 0.9535
vn -0.3844 -0.1811 0.9052
vn -0.8060 0.0907 -0.5849
vn 0.9104 0.0048 0.4136
vn 0.8047 0.2512 0.5379
vn 0.6096 0.4032 -0.6825
vn 0.6940 0.4986 -0.5194
vn -0.4937 0.8236 0.2791
vn 0.8136 0.1047 -0.5720
vn -0.4714 0.7654 -0.4381
vn 0.6505 0.7068 0.2781
vn 0.5045 0.6655 -0.5501
vn -0.6905 0.2007 0.6950
vn 0.4844 -0.3117 0.8174
vn 0.4831 -0.6607 0.5746
vn 0.7163 -0.5197 0.4657
vn 0.4465 0.7109 0.5434
vn -0.1491 0.6591 0.7371
vn -0.2115 0.6283 0.7487
vn -0.6131 -0.4961 0.6149
vn -0.1560 0.6505 0.7433
vn -0.1868 0.6249 0.7580
vn -0.0004 0.8012 0.5984
vn 0.2862 0.5716 0.7690
vn 0.2020 0.6131 0.7637
vn -0.4082 0.7304 0.5476
vn 0.2577 0.6087 0.7504
vn 0.2385 0.5901 0.7713
vn -0.6610 -0.6015 0.4487
vn -0.5077 -0.6759 0.5343
vn 0.5844 -0.5378 0.6076
vn 0.8905 -0.3953 -0.2254
vn 0.8204 -0.5719 0.0015
vn 0.8196 -0.5730 -0.0022
vn 0.8891 -0.3896 -0.2401
vn 0.3462 -0.8584 0.3785
vn 0.6726 -0.3143 0.6699
vn 0.4237 0.6673 0.6126
vn 0.5215 0.5971 0.6095
vn 0.3569 0.2579 0.8978
vn 0.3188 0.1476 0.9362
vn 0.2930 0.1452 0.9450
vn 0.2747 0.2554 0.9270
vn 0.8619 0.0488 -0.5047
vn 0.8624 -0.1202 -0.4917
vn 0.5589 0.4040 0.7241
vn 0.4611 0.0531 0.8858
vn 0.8644 -0.3214 -0.3867
vn 0.5311 -0.7510 -0.3924
vn 0.5058 0.8412 -0.1911
vn 0.3815 0.1973 0.9031
vn 0.6471 0.2663 0.7144
vn 0.9525 0.3032 0.0300
vn 0.8726 0.4232 -0.2437
vn 0.9822 0.1875 -0.0050
vn 0.9166 -0.3998 0.0069
vn 0.8775 0.0298 0.4787
vn 0.8800 0.4266 -0.2088
vn 0.7409 0.6646 -0.0966
vn 0.3800 0.5617 0.7349
vn 0.2968 0.2601 0.9188
vn 0.4792 -0.7569 0.4443
vn 0.8426 -0.5265 -0.1136
vn 0.8702 0.1584 -0.4665
vn -0.7027 0.0306 0.7109
vn -0.7593 0.6169 0.2070
vn -0.7532 0.6562 -0.0452
vn -0.4545 0.4833 0.7482
vn -0.7445 0.6019 -0.2889
vn -0.2175 0.8283 0.5164
vn -0.5981 -0.7347 0.3202
vn -0.7073 -0.5371 -0.4595
vn -0.9479 -0.3079 -0.0818
vn -0.9352 -0.3014 -0.1860
vn -0.8515 -0.4153 -0.3201
vn -0.8781 -0.3914 -0.2750
vn -0.3648 0.6249 0.6902
vn -0.1921 0.2925 0.9368
vn -0.9739 -0.1048 -0.2014
vn -0.5216 0.2794 0.8061
vn -0.2331 -0.4765 0.8477
vn -0.8975 0.1485 -0.4153
vn -0.2774 0.6980 0.6602
vn -0.9320 -0.3588 0.0508
vn -0.9800 0.1354 -0.1458
vn -0.3008 -0.0063 0.9537
vn -0.8844 -0.0737 -0.4609
vn -0.4114 0.0749 0.9084
vn -0.5011 -0.1989 0.8422
vn -0.8614 -0.0453 0.5058
vn -0.4996 -0.0634 0.8639
vn -0.7548 0.4415 -0.4851
vn -0.7430 -0.2881 -0.6041
vn -0.7897 -0.0993 -0.6054
vn -0.7332 -0.5610 -0.3843
vn -0.5564 -0.3827 0.7375
vn -0.4335 0.0351 0.9005
vn -0.0000 1.0000 -0.0000
vn -0.0000 -1.0000 -0.0000
vn 0.5000 -0.0000 0.8660
vn 0.3726 0.6669 -0.6453
vn 0.7452 0.6669 -0.0000
vn 0.3726 0.6669 0.6453
vn -0.3726 0.6669 0.6453
vn -0.7452 0.6669 -0.0000
vn -0.3726 0.6669 -0.6453
vn 0.1455 -0.9894 -0.0000
vn 0.5000 -0.0000 -0.8660
vn -0.5000 -0.0000 -0.8660
vn -0.5000 -0.0000 0.8660
vn 1.0000 -0.0000 -0.0000
vn -1.0000 -0.0000 -0.0000
vn -0.1455 -0.9894 -0.0000
vn 0.0728 -0.9894 0.1260
vn 0.0728 -0.9894 -0.1260
vn -0.0728 -0.9894 -0.1260
vn -0.0728 -0.9894 0.1260
vn -0.4378 0.4832 -0.7582
vn 0.1679 0.9419 -0.2908
vn 0.3358 0.9419 -0.0000
vn 0.1679 0.9419 0.2908
vn -0.1679 0.9419 0.2908
vn -0.3358 0.9419 -0.0000
vn -0.1679 0.9419 -0.2908
vn -0.4378 0.4832 0.7582
vn 0.4378 0.4832 0.7582
vn 0.4378 0.4832 -0.7582
vn -0.8755 0.4832 -0.0000
vn 0.8755 0.4832 -0.0000
vt 0.375000 0.000000
vt 0.625000 0.000000
vt 0.625000 0.250000
vt 0.375000 0.250000
vt 0.625000 0.500000
vt 0.375000 0.500000
vt 0.625000 0.750000
vt 0.375000 0.750000
vt 0.625000 1.000000
vt 0.375000 1.000000
vt 0.125000 0.500000
vt 0.125000 0.750000
vt 0.875000 0.500000
vt 0.875000 0.750000
vt 0.875000 0.500000
vt 0.875000 0.500000
vt 0.875000 0.500000
vt 0.625000 0.250000
vt 0.875000 0.500000
vt 0.625000 0.500000
vt 0.875000 0.500000
vt 0.875000 0.500000
vt 0.875000 0.500000
vt 0.875000 0.500000
vt 0.875000 0.500000
vt 0.875000 0.500000
vt 0.875000 0.500000
vt 0.875000 0.500000
vt 0.875000 0.500000
vt 0.875000 0.500000
vt 0.692383 0.500000
vt 0.734734 0.500000
vt 0.830512 0.500000
vt 0.854689 0.500000
vt 0.875000 0.500000
vt 0.875000 0.500000
vt 0.680023 0.500000
vt 0.875000 0.500000
vt 0.875000 0.500000
vt 0.862195 0.500000
vt 0.846241 0.500000
vt 0.780592 0.500000
vt 0.798776 0.500000
vt 0.721608 0.500000
vt 0.812868 0.500000
vt 0.728376 0.500000
vt 0.875000 0.500000
vt 0.875000 0.500000
vt 0.500000 0.679177
vt 0.666667 0.679177
vt 0.500000 0.820823
vt 0.333333 0.820823
vt 0.833333 0.679177
vt 1.000000 0.679177
vt -0.000000 0.679177
vt 0.166667 0.679177
vt 0.250000 0.058069
vt 0.416217 0.154034
vt 0.833333 0.820823
vt 0.666667 0.820823
vt 0.333333 0.679177
vt 0.750000 0.490000
vt 0.957846 0.370000
vt 0.957846 0.130000
vt 0.750000 0.010000
vt 0.542154 0.130000
vt 0.542154 0.370000
vt 0.250000 0.441931
vt 0.416217 0.345966
vt 0.457846 0.370000
vt 0.250000 0.490000
vt 0.457846 0.130000
vt 0.250000 0.010000
vt 0.083783 0.154034
vt 0.042154 0.130000
vt 0.083783 0.345966
vt 0.042154 0.370000
vt 0.250000 0.103250
vt 0.377089 0.176625
vt 0.250000 0.396750
vt 0.377089 0.323375
vt 0.122911 0.176625
vt 0.122911 0.323375
vt 0.833333 0.500000
vt 1.000000 0.500000
vt 1.000000 0.820823
vt 1.000000 1.000000
vt 0.833333 1.000000
vt 0.666667 0.500000
vt 0.666667 1.000000
vt 0.500000 0.500000
vt 0.500000 1.000000
vt 0.333333 0.500000
vt 0.333333 1.000000
vt 0.166667 0.500000
vt 0.166667 0.820823
vt 0.166667 1.000000
vt -0.000000 0.500000
vt -0.000000 0.820823
vt -0.000000 1.000000
s 1
usemtl Statuen_grau
f 1/1/1 2/2/2 4/3/3 3/4/4
f 3/4/4 4/3/3 8/5/5 7/6/6
f 7/6/6 8/5/5 6/7/7 5/8/8
f 5/8/8 6/7/7 2/9/2 1/10/1
f 1/1/1 3/4/4 9/4/9 10/1/10
f 4/3/3 2/2/2 21/2/11 22/3/12
f 11/6/13 12/8/14 16/8/15 15/6/16
f 7/6/6 5/8/8 12/8/14 11/6/13
f 5/8/8 1/10/1 10/10/10 12/8/14
f 3/4/4 7/6/6 11/6/13 9/4/9
f 13/11/17 15/6/16 16/8/15 14/12/18
f 10/1/10 9/4/9 13/4/17 14/1/18
f 10/1/10 14/1/18 19/1/19 17/1/20
f 9/4/9 11/6/13 15/6/16 13/4/17
f 18/8/21 17/10/20 19/10/19 20/8/22
f 14/12/18 16/8/15 20/8/22 19/12/19
f 12/8/14 10/10/10 17/10/20 18/8/21
f 16/8/15 12/8/14 18/8/21 20/8/22
f 24/7/23 23/5/24 27/5/25 28/7/26
f 2/9/2 6/7/7 24/7/23 21/9/11
f 8/5/5 4/3/3 22/3/12 23/5/24
f 6/7/7 8/5/5 23/5/24 24/7/23
f 27/5/25 26/13/27 25/14/28 28/7/26
f 22/3/12 21/2/11 25/2/28 26/3/27
f 21/9/11 24/7/23 28/7/26 25/9/28
f 22/3/12 26/3/27 31/3/29 29/3/30
f 73/5/31 71/5/32 33/5/33 35/5/34
f 23/5/24 22/3/12 29/3/30 30/5/35
f 33/5/33 32/3/36 34/3/37 35/5/34
f 30/5/35 29/3/30 32/3/36 33/5/33
f 29/3/30 31/3/29 34/3/37 32/3/36
f 85/15/38 74/13/39 92/13/40 96/15/41
f 26/13/27 27/5/25 37/5/42 36/13/43
f 31/3/29 26/3/27 36/3/43 38/3/44
f 40/1/45 42/4/46 43/3/47 41/2/48
f 42/4/46 46/6/49 47/5/50 43/3/47
f 46/6/49 44/8/51 45/7/52 47/5/50
f 44/8/51 40/10/45 41/9/48 45/7/52
f 40/1/45 49/1/53 48/4/54 42/4/46
f 43/3/47 61/3/55 60/2/56 41/2/48
f 50/6/57 54/6/58 55/8/59 51/8/60
f 46/6/49 50/6/57 51/8/60 44/8/51
f 44/8/51 51/8/60 49/10/53 40/10/45
f 42/4/46 48/4/54 50/6/57 46/6/49
f 52/11/61 53/12/62 55/8/59 54/6/58
f 49/1/53 53/1/62 52/4/61 48/4/54
f 49/1/53 56/1/63 58/1/64 53/1/62
f 48/4/54 52/4/61 54/6/58 50/6/57
f 57/8/65 59/8/66 58/10/64 56/10/63
f 53/12/62 58/12/64 59/8/66 55/8/59
f 51/8/60 57/8/65 56/10/63 49/10/53
f 55/8/59 59/8/66 57/8/65 51/8/60
f 63/7/67 66/7/68 27/5/25 62/5/69
f 41/9/48 60/9/56 63/7/67 45/7/52
f 47/5/50 62/5/69 61/3/55 43/3/47
f 45/7/52 63/7/67 62/5/69 47/5/50
f 27/5/25 66/7/68 64/14/70 65/13/71
f 61/3/55 65/3/71 64/2/70 60/2/56
f 60/9/56 64/9/70 66/7/68 63/7/67
f 61/3/55 67/3/72 69/3/73 65/3/71
f 33/5/33 71/5/32 68/5/74 30/5/35
f 62/5/69 68/5/74 67/3/72 61/3/55
f 71/5/32 73/5/31 72/3/75 70/3/76
f 68/5/74 71/5/32 70/3/76 67/3/72
f 67/3/72 70/3/76 72/3/75 69/3/73
f 168/5/77 167/16/78 164/13/79 163/5/80
f 65/13/71 74/13/39 37/5/42 27/5/25
f 69/3/73 75/3/81 74/3/39
f 23/5/24 30/5/35 27/5/25
f 62/5/69 27/5/25 68/5/74
f 30/5/35 68/5/74 27/5/25
f 72/3/75 39/5/82 75/13/81 69/3/73
f 34/3/37 31/3/29 38/13/44 39/5/82
f 35/5/34 34/3/37 39/5/82
f 73/5/31 39/5/82 72/3/75
f 73/5/31 35/5/34 39/5/82
f 65/3/71 69/3/73 74/3/39
f 79/5/83 78/13/84 237/13/85 238/5/86
f 81/13/87 79/5/83 238/5/86 240/13/88
f 37/5/42 74/13/39 80/13/89 77/5/90
f 78/13/84 38/13/44 83/17/91 84/13/92
f 36/13/43 37/5/42 77/5/90 76/13/93
f 178/13/94 214/13/95 221/13/96 220/13/97
f 85/3/38 86/3/98 89/3/99 88/3/100
f 83/18/91 82/18/101 87/3/102 84/3/92
f 75/13/81 81/13/87 89/13/99 86/19/98
f 81/13/87 80/13/89 88/13/100 89/13/99
f 86/3/98 85/3/38 96/3/41 97/3/103
f 76/13/93 78/13/84 84/13/92 87/13/102
f 36/13/43 76/13/93 87/13/102 82/16/101
f 80/13/89 74/13/39 85/15/38 88/13/100
f 95/17/104 91/13/105 99/13/106 103/17/107
f 96/15/41 92/13/40 100/13/108 104/15/109
f 74/3/39 75/3/81 93/3/110 92/3/40
f 82/18/101 83/18/91 95/18/104 94/18/111
f 38/3/44 36/3/43 90/3/112 91/3/105
f 36/13/43 82/16/101 94/16/111 90/13/112
f 75/13/81 86/19/98 97/19/103 93/13/110
f 83/17/91 38/13/44 91/13/105 95/17/104
f 100/3/108 101/3/113 109/3/114 108/3/115
f 105/3/116 104/3/109 112/3/117 113/3/118
f 94/18/111 95/18/104 103/18/107 102/18/119
f 91/3/105 90/3/112 98/3/120 99/3/106
f 90/13/112 94/16/111 102/16/119 98/13/120
f 93/13/110 97/19/103 105/19/116 101/13/113
f 97/3/103 96/3/41 104/3/109 105/3/116
f 92/3/40 93/3/110 101/3/113 100/3/108
f 109/13/114 113/19/118 121/19/121 117/13/122
f 114/3/123 106/3/124 130/3/125 132/3/126
f 104/15/109 100/13/108 108/13/115 112/15/117
f 103/17/107 99/13/106 107/13/127 111/17/128
f 102/18/119 103/18/107 111/18/128 110/18/129
f 99/3/106 98/3/120 106/3/124 107/3/127
f 98/13/120 102/16/119 110/16/129 106/13/124
f 101/13/113 105/19/116 113/19/118 109/13/114
f 117/13/122 121/19/121 141/19/130 139/13/131
f 119/17/132 115/13/133 123/13/134 125/17/135
f 113/3/118 112/3/117 120/3/136 121/3/121
f 108/3/115 109/3/114 117/3/122 116/3/137
f 112/15/117 108/13/115 116/13/137 120/15/136
f 111/17/128 107/13/127 115/13/133 119/17/132
f 110/18/129 111/18/128 119/18/132 118/18/138
f 107/3/127 106/3/124 114/3/123 115/3/133
f 122/13/139 124/16/140 128/16/141 126/13/142
f 118/18/138 119/18/132 125/18/135 124/18/140
f 115/3/133 114/3/123 122/3/139 123/3/134
f 114/13/123 118/16/138 124/16/140 122/13/139
f 127/3/143 126/3/142 128/18/141 129/18/144
f 124/18/140 125/18/135 129/18/144 128/18/141
f 125/17/135 123/13/134 127/13/143 129/17/144
f 123/3/134 122/3/139 126/3/142 127/3/143
f 131/18/145 133/18/146 137/18/147 135/18/148
f 118/16/138 114/13/123 132/13/126 133/16/146
f 110/18/129 118/18/138 133/18/146 131/18/145
f 106/13/124 110/16/129 131/16/145 130/13/125
f 134/13/149 135/16/148 137/16/147 136/13/150
f 130/13/125 131/16/145 135/16/148 134/13/149
f 132/3/126 130/3/125 134/3/149 136/3/150
f 133/16/146 132/13/126 136/13/150 137/16/147
f 138/3/151 139/3/131 143/3/152 142/3/153
f 121/3/121 120/3/136 140/3/154 141/3/130
f 116/3/137 117/3/122 139/3/131 138/3/151
f 138/13/151 140/15/154 153/15/155 154/13/156
f 144/15/157 142/13/153 147/13/158 149/15/159
f 140/15/154 138/13/151 142/13/153 144/15/157
f 141/3/130 140/3/154 144/3/157 145/3/160
f 139/13/131 141/19/130 145/19/160 143/13/152
f 147/3/158 148/3/161 150/3/162 149/3/159
f 145/3/160 144/3/157 149/3/159 150/3/162
f 143/13/152 145/19/160 150/19/162 148/13/161
f 142/3/153 143/3/152 148/3/161 147/3/158
f 151/15/163 152/13/164 156/13/165 155/15/166
f 140/3/154 120/3/136 151/3/163 153/3/155
f 120/15/136 116/13/137 152/13/164 151/15/163
f 116/3/137 138/3/151 154/3/156 152/3/164
f 155/15/166 156/13/165 158/13/167 157/15/168
f 152/3/164 154/3/156 158/3/167 156/3/165
f 154/13/156 153/15/155 157/15/168 158/13/167
f 153/3/155 151/3/163 155/3/166 157/3/168
f 160/5/169 159/13/170 161/13/171 163/5/80
f 162/13/172 160/5/169 163/5/80 164/13/79
f 169/20/173 166/13/174 159/13/170 160/5/169
f 165/21/175 168/5/77 163/5/80 161/13/171
f 213/13/176 214/13/95 178/13/94 173/13/177
f 170/22/178 169/20/173 160/5/169 162/13/172
f 75/13/81 39/5/82 169/20/173 170/22/178
f 81/13/87 75/13/81 170/22/178 167/16/78
f 78/13/84 79/5/83 168/5/77 165/21/175
f 39/5/82 38/13/44 166/13/174 169/20/173
f 38/13/44 78/13/84 165/21/175 166/13/174
f 79/5/83 81/13/87 167/16/78 168/5/77
f 159/13/170 166/13/174 214/13/95 213/13/176
f 165/21/175 161/13/171 212/23/179 181/24/180
f 183/25/181 211/13/182 174/13/183 177/22/184
f 181/24/180 212/23/179 172/13/185 171/21/186
f 212/23/179 213/13/176 173/13/177 172/13/185
f 181/24/180 171/21/186 219/21/187 222/24/188
f 216/26/189 215/16/190 176/16/191 175/13/192
f 211/13/182 216/26/189 175/13/192 174/13/183
f 196/16/193 199/23/194 182/16/195
f 195/22/196 196/16/193 182/22/195
f 185/22/197 184/16/198 196/16/193 195/22/196
f 199/23/194 200/27/199 182/23/195
f 201/24/200 197/21/201 180/24/202
f 202/13/203 201/24/200 180/13/202
f 188/24/204 179/21/205 197/21/201 201/24/200
f 198/13/206 202/13/203 180/13/202
f 172/13/185 173/13/177 190/13/207 187/13/208
f 173/13/177 178/13/94 189/13/209 190/13/207
f 178/13/94 171/21/186 188/24/204 189/13/209
f 171/21/186 172/13/185 187/13/208 188/24/204
f 177/22/184 174/13/183 192/13/210 194/27/211
f 176/16/191 177/22/184 194/27/211 193/23/212
f 175/13/192 176/16/191 193/23/212 191/13/213
f 174/13/183 175/13/192 191/13/213 192/13/210
f 197/21/201 198/13/206 180/21/202
f 200/27/199 195/22/196 182/27/195
f 194/27/211 185/22/197 195/22/196 200/27/199
f 189/13/209 188/24/204 201/24/200 202/13/203
f 193/23/212 194/27/211 200/27/199 199/23/194
f 186/13/214 189/13/209 202/13/203 198/13/206
f 179/21/205 186/13/214 198/13/206 197/21/201
f 184/16/198 193/23/212 199/23/194 196/16/193
f 205/13/215 204/28/216 203/13/217 206/13/218
f 207/29/219 210/13/220 209/16/221 208/30/222
f 186/13/214 179/21/205 204/28/216 205/13/215
f 187/13/208 190/13/207 206/13/218 203/13/217
f 188/24/204 187/13/208 203/13/217 204/28/216 179/21/205
f 190/13/207 189/13/209 186/13/214 205/13/215 206/13/218
f 184/16/198 185/22/197 208/30/222 209/16/221
f 194/27/211 192/13/210 207/29/219 208/30/222 185/22/197
f 192/13/210 191/13/213 210/13/220 207/29/219
f 191/13/213 193/23/212 184/16/198 209/16/221 210/13/220
f 161/13/171 159/13/170 213/13/176 212/23/179
f 166/13/174 165/21/175 181/24/180 214/13/95
f 162/13/172 164/13/79 216/26/189 211/13/182
f 164/13/79 167/16/78 215/16/190 216/26/189
f 167/16/78 170/22/178 183/25/181 215/16/190
f 170/22/178 162/13/172 211/13/182 183/25/181
f 218/16/223 223/16/224 231/16/225 226/16/226
f 224/25/227 217/22/228 225/22/229 232/25/230
f 176/16/191 215/16/190 223/16/224 218/16/223
f 177/22/184 176/16/191 218/16/223 217/22/228
f 215/16/190 183/25/181 224/25/227 223/16/224
f 183/25/181 177/22/184 217/22/228 224/25/227
f 214/13/95 181/24/180 222/24/188 221/13/96
f 171/21/186 178/13/94 220/13/97 219/21/187
f 228/13/231 229/13/232 234/13/233
f 226/16/226 231/16/225 233/16/234
f 220/13/97 221/13/96 229/13/232 228/13/231
f 217/22/228 218/16/223 226/16/226 225/22/229
f 223/16/224 224/25/227 232/25/230 231/16/225
f 221/13/96 222/24/188 230/24/235 229/13/232
f 222/24/188 219/21/187 227/21/236 230/24/235
f 219/21/187 220/13/97 228/13/231 227/21/236
f 225/22/229 226/16/226 233/22/234
f 231/16/225 232/25/230 233/16/234
f 229/13/232 230/24/235 234/13/233
f 230/24/235 227/21/236 234/24/233
f 227/21/236 228/13/231 234/21/233
f 232/25/230 225/22/229 233/25/234
f 238/5/86 237/13/85 243/13/237 244/5/238
f 240/13/88 238/5/86 244/5/238 246/13/239
f 80/13/89 81/13/87 240/13/88 239/13/240
f 77/5/90 80/13/89 239/13/240 236/5/241
f 78/13/84 76/13/93 235/13/242 237/13/85
f 76/13/93 77/5/90 236/5/241 235/13/242
f 243/13/237 241/13/243 247/13/244 249/13/245
f 242/5/246 245/13/247 251/13/248 248/5/249
f 239/13/240 240/13/88 246/13/239 245/13/247
f 236/5/241 239/13/240 245/13/247 242/5/246
f 237/13/85 235/13/242 241/13/243 243/13/237
f 235/13/242 236/5/241 242/5/246 241/13/243
f 251/13/248 252/13/250 257/13/251 331/13/252 332/19/253 333/23/254 330/13/255 256/13/256
f 250/5/257 249/13/245 254/13/258 255/5/259
f 241/13/243 242/5/246 248/5/249 247/13/244
f 246/13/239 244/5/238 250/5/257 252/13/250
f 244/5/238 243/13/237 249/13/245 250/5/257
f 245/13/247 246/13/239 252/13/250 251/13/248
f 253/13/260 270/31/261 273/5/262 318/32/263 317/33/264 316/34/265 258/13/266
f 254/13/258 375/13/267 382/13/268 383/35/269 384/13/270 379/13/271 380/36/272 381/35/273 374/13/274 253/13/260 258/13/266 260/13/275
f 248/5/249 251/13/248 256/13/256 272/37/276 271/5/277
f 249/13/245 247/13/244 253/13/260 374/13/274 376/38/278 377/13/279 378/13/280 375/13/267 254/13/258
f 247/13/244 248/5/249 271/5/277 270/31/261 253/13/260
f 252/13/250 250/5/257 255/5/259 257/13/251
f 261/5/285 260/13/275 266/13/286 267/5/287
f 257/13/251 255/5/259 261/5/285 263/13/281
f 255/5/259 254/13/258 260/13/275 261/5/285
f 256/13/256 330/13/255 334/23/288 335/13/289 336/13/290 337/39/291 338/13/292 339/35/293 340/38/294 331/13/252 257/13/251 263/13/281 262/13/295
f 270/31/261 271/5/277 277/5/296 274/31/297
f 264/13/298 265/5/299 267/5/287 266/13/286
f 268/13/300 269/13/282 267/5/287 265/5/299
f 259/5/301 262/13/295 268/13/300 265/5/299
f 258/13/266 259/5/301 265/5/299 264/13/298
f 263/13/281 261/5/285 267/5/287 269/13/282
f 277/5/296 276/37/304 281/37/305 282/5/306
f 273/5/262 270/31/261 274/31/297 278/5/307
f 273/5/262 272/37/276 256/13/256 262/13/295 309/40/308 312/41/309 313/42/310
f 272/37/276 273/5/262 278/5/307 276/37/304
f 271/5/277 272/37/276 276/37/304 277/5/296
f 274/31/297 277/5/296 282/5/306 279/31/311
f 278/5/307 274/31/297 279/31/311 283/5/312
f 276/37/304 278/5/307 283/5/312 281/37/305
f 280/5/313 281/37/305 283/5/312
f 279/31/311 282/5/306 280/5/313
f 283/5/312 279/31/311 280/5/313
f 282/5/306 281/37/305 280/5/313
f 311/44/342 310/43/343 309/40/308 262/13/295 259/5/301 273/5/344
f 258/13/266 316/34/265 315/45/345 314/46/346 273/5/344 259/5/301
f 348/13/353 347/19/354 367/19/355 368/13/356
f 330/13/255 333/23/254 354/23/357 341/13/358
f 336/13/290 335/13/289 357/13/359 358/13/360
f 351/29/361 350/19/362 370/19/363 371/29/364
f 340/38/294 339/35/293 361/35/365 362/38/366
f 337/39/291 336/13/290 358/13/360 359/39/367
f 334/23/288 330/13/255 341/13/358 356/23/368
f 331/13/252 340/38/294 362/38/366 342/13/369
f 332/19/253 331/13/252 342/13/369 353/19/370
f 338/13/292 337/39/291 359/39/367 360/13/371
f 335/13/289 334/23/288 356/23/368 357/13/359
f 333/23/254 332/19/253 353/19/370 354/23/357
f 339/35/293 338/13/292 360/13/371 361/35/365
f 352/26/372 343/19/373 353/19/370 342/13/369
f 343/19/373 344/36/374 354/23/357 353/19/370
f 344/36/374 355/13/375 341/13/358 354/23/357
f 355/13/375 345/35/376 356/23/368 341/13/358
f 345/35/376 346/16/377 357/13/359 356/23/368
f 346/16/377 347/19/354 358/13/360 357/13/359
f 347/19/354 348/13/353 359/39/367 358/13/360
f 348/13/353 349/47/378 360/13/371 359/39/367
f 349/47/378 350/19/362 361/35/365 360/13/371
f 350/19/362 351/29/361 362/38/366 361/35/365
f 351/29/361 352/26/372 342/13/369 362/38/366
f 373/13/379 364/36/380 363/19/381 372/26/382
f 372/26/382 371/29/364 370/19/363 369/47/383 368/13/356 367/19/355 366/16/384 365/35/385 373/13/379
f 345/35/376 355/13/375 373/13/379 365/35/385
f 352/26/372 351/29/361 371/29/364 372/26/382
f 343/19/373 352/26/372 372/26/382 363/19/381
f 349/47/378 348/13/353 368/13/356 369/47/383
f 346/16/377 345/35/376 365/35/385 366/16/384
f 344/36/374 343/19/373 363/19/381 364/36/380
f 350/19/362 349/47/378 369/47/383 370/19/363
f 347/19/354 346/16/377 366/16/384 367/19/355
f 355/13/375 344/36/374 364/36/380 373/13/379
f 389/23/386 388/13/387 408/13/388 409/23/389
f 384/13/270 383/35/269 405/35/390 406/13/391
f 378/13/280 377/13/279 398/13/392 399/13/393
f 392/48/394 391/36/395 411/36/396 412/48/397
f 374/13/274 381/35/273 403/35/398 385/13/399
f 375/13/267 378/13/280 399/13/393 386/13/400
f 379/13/271 384/13/270 406/13/391 401/13/401
f 376/38/278 374/13/274 385/13/399 397/38/402
f 382/13/268 375/13/267 386/13/400 404/13/403
f 380/36/272 379/13/271 401/13/401 402/36/404
f 377/13/279 376/38/278 397/38/402 398/13/392
f 383/35/269 382/13/268 404/13/403 405/35/390
f 381/35/273 380/36/272 402/36/404 403/35/398
f 396/15/405 387/38/406 397/38/402 385/13/399
f 387/38/406 388/13/387 398/13/392 397/38/402
f 388/13/387 389/23/386 399/13/393 398/13/392
f 389/23/386 400/23/407 386/13/400 399/13/393
f 390/23/408 391/36/395 402/36/404 401/13/401
f 391/36/395 392/48/394 403/35/398 402/36/404
f 392/48/394 396/15/405 385/13/399 403/35/398
f 400/23/407 393/13/409 404/13/403 386/13/400
f 393/13/409 394/16/410 405/35/390 404/13/403
f 394/16/410 395/13/411 406/13/391 405/35/390
f 395/13/411 390/23/408 401/13/401 406/13/391
f 417/23/412 409/23/389 408/13/388 407/38/413 416/15/414
f 416/15/414 412/48/397 411/36/396 410/23/415 415/13/416 414/16/417 413/13/418 417/23/412
f 395/13/411 394/16/410 414/16/417 415/13/416
f 396/15/405 392/48/394 412/48/397 416/15/414
f 400/23/407 389/23/386 409/23/389 417/23/412
f 390/23/408 395/13/411 415/13/416 410/23/415
f 387/38/406 396/15/405 416/15/414 407/38/413
f 393/13/409 400/23/407 417/23/412 413/13/418
f 391/36/395 390/23/408 410/23/415 411/36/396
f 388/13/387 387/38/406 407/38/413 408/13/388
f 394/16/410 393/13/409 413/13/418 414/16/417
s 0
f 424/49/419 422/50/419 507/50/419 509/49/419
f 433/51/420 434/52/420 510/52/420 508/51/420
f 420/53/419 418/54/419 502/54/419 505/53/419
f 418/55/419 428/56/419 513/56/419 502/55/419
f 425/57/421 423/58/421 438/58/421 439/57/421
f 430/59/420 432/60/420 506/60/420 504/59/420
f 426/61/419 424/49/419 509/49/419 511/61/419
f 490/62/420 491/63/420 494/64/420 496/65/420 498/66/420 500/67/420
f 419/68/422 421/69/422 492/70/422 493/71/422
f 421/69/423 423/58/423 495/72/423 492/70/423
f 423/58/424 425/57/424 497/73/424 495/72/424
f 425/57/425 427/74/425 499/75/425 497/73/425
f 427/74/426 429/76/426 501/77/426 499/75/426
f 429/76/427 419/68/427 493/71/427 501/77/427
f 438/58/428 436/69/428 466/69/428 468/58/428
f 421/69/429 419/68/429 437/68/429 436/69/429
f 419/68/430 429/76/430 441/76/430 437/68/430
f 427/74/431 425/57/431 439/57/431 440/74/431
f 423/58/432 421/69/432 436/69/432 438/58/432
f 429/76/433 427/74/433 440/74/433 441/76/433
f 459/76/420 455/68/420 479/68/420 483/76/420
f 441/76/434 440/74/434 470/74/434 471/76/434
f 439/57/435 438/58/435 468/58/435 469/57/435
f 436/69/436 437/68/436 467/68/436 466/69/436
f 437/68/437 441/76/437 471/76/437 467/68/437
f 440/74/438 439/57/438 469/57/438 470/74/438
f 451/78/439 450/79/439 462/79/439 463/78/439
f 447/76/419 446/74/419 487/74/419 482/76/419
f 454/69/420 456/58/420 488/58/420 480/69/420
f 442/69/419 443/68/419 478/68/419 481/69/419
f 458/74/420 459/76/420 483/76/420 486/74/420
f 446/74/419 445/57/419 484/57/419 487/74/419
f 449/80/440 448/81/440 472/69/440 473/68/440
f 448/81/441 450/79/441 474/58/441 472/69/441
f 450/79/442 451/78/442 475/57/442 474/58/442
f 451/78/443 452/82/443 476/74/443 475/57/443
f 452/82/444 453/83/444 477/76/444 476/74/444
f 453/83/445 449/80/445 473/68/445 477/76/445
f 448/81/446 449/80/446 461/80/446 460/81/446
f 449/80/447 453/83/447 465/83/447 461/80/447
f 452/82/448 451/78/448 463/78/448 464/82/448
f 450/79/449 448/81/449 460/81/449 462/79/449
f 453/83/450 452/82/450 464/82/450 465/83/450
f 443/68/429 442/69/429 466/69/429 467/68/429
f 442/69/432 444/58/432 468/58/432 466/69/432
f 444/58/421 445/57/421 469/57/421 468/58/421
f 445/57/431 446/74/431 470/74/431 469/57/431
f 446/74/433 447/76/433 471/76/433 470/74/433
f 447/76/430 443/68/430 467/68/430 471/76/430
f 454/69/429 455/68/429 473/68/429 472/69/429
f 456/58/432 454/69/432 472/69/432 474/58/432
f 457/57/421 456/58/421 474/58/421 475/57/421
f 458/74/431 457/57/431 475/57/431 476/74/431
f 459/76/433 458/74/433 476/74/433 477/76/433
f 455/68/430 459/76/430 477/76/430 473/68/430
f 444/58/419 442/69/419 481/69/419 489/58/419
f 456/58/420 457/57/420 485/57/420 488/58/420
f 443/68/419 447/76/419 482/76/419 478/68/419
f 445/57/419 444/58/419 489/58/419 484/57/419
f 457/57/420 458/74/420 486/74/420 485/57/420
f 455/68/420 454/69/420 480/69/420 479/68/420
f 418/54/429 420/53/429 491/84/429 490/85/429
f 430/59/429 431/86/429 493/87/429 492/88/429
f 420/53/432 422/50/432 494/89/432 491/84/432
f 432/60/432 430/59/432 492/88/432 495/90/432
f 422/50/421 424/49/421 496/91/421 494/89/421
f 433/51/421 432/60/421 495/90/421 497/92/421
f 424/49/431 426/61/431 498/93/431 496/91/431
f 434/52/431 433/51/431 497/92/431 499/94/431
f 426/61/433 428/56/433 500/95/433 498/93/433
f 435/96/433 434/52/433 499/94/433 501/97/433
f 428/56/430 418/55/430 490/98/430 500/95/430
f 431/99/430 435/96/430 501/97/430 493/100/430
f 435/96/420 431/99/420 503/99/420 512/96/420
f 431/86/420 430/59/420 504/59/420 503/86/420
f 428/56/419 426/61/419 511/61/419 513/56/419
f 432/60/420 433/51/420 508/51/420 506/60/420
f 422/50/419 420/53/419 505/53/419 507/50/419
f 434/52/420 435/96/420 512/96/420 510/52/420
f 464/82/431 463/78/431 517/78/431 518/82/431
f 514/81/419 515/80/419 519/83/419 518/82/419 517/78/419 516/79/419
f 462/79/432 460/81/432 514/81/432 516/79/432
f 465/83/433 464/82/433 518/82/433 519/83/433
f 463/78/421 462/79/421 516/79/421 517/78/421
f 460/81/429 461/80/429 515/80/429 514/81/429
f 461/80/430 465/83/430 519/83/430 515/80/430
s 1
usemtl Sarg_Gem
f 263/13/281 269/13/282 290/13/283 287/13/284
f 260/13/275 258/13/266 275/13/302 284/13/303
f 275/13/302 288/13/314 296/13/315 291/13/316
f 284/13/303 275/13/302 291/13/316 292/13/317
f 269/13/282 268/13/300 289/13/318 290/13/283
f 266/13/286 260/13/275 284/13/303 285/13/319
f 264/13/298 266/13/286 285/13/319 288/13/314
f 258/13/266 264/13/298 288/13/314 275/13/302
f 268/13/300 262/13/295 286/13/320 289/13/318
f 262/13/295 263/13/281 287/13/284 286/13/320
f 298/13/321 297/13/322 305/13/323 306/13/324
f 297/13/322 294/13/325 302/13/326 305/13/323
f 287/13/284 290/13/283 298/13/321 295/13/327
f 288/13/314 285/13/319 293/13/328 296/13/315
f 285/13/319 284/13/303 292/13/317 293/13/328
f 289/13/318 286/13/320 294/13/325 297/13/322
f 290/13/283 289/13/318 297/13/322 298/13/321
f 286/13/320 287/13/284 295/13/327 294/13/325
f 305/13/323 302/13/326 307/13/329
f 301/13/330 300/13/331 308/13/332
f 294/13/325 295/13/327 303/13/333 302/13/326
f 292/13/317 291/13/316 299/13/334 300/13/331
f 291/13/316 296/13/315 304/13/335 299/13/334
f 295/13/327 298/13/321 306/13/324 303/13/333
f 296/13/315 293/13/328 301/13/330 304/13/335
f 293/13/328 292/13/317 300/13/331 301/13/330
f 300/13/331 299/13/334 308/13/332
f 306/13/324 305/13/323 307/13/329
f 302/13/326 303/13/333 307/13/329
f 303/13/333 306/13/324 307/13/329
f 299/13/334 304/13/335 308/13/332
f 304/13/335 301/13/330 308/13/332
f 321/42/336 322/41/337 323/40/338 324/43/339 325/44/340 319/5/341
f 315/45/345 316/34/265 327/34/347 326/45/348
f 320/46/349 326/45/348 327/34/347 328/33/350 329/32/351 319/5/352
f 273/5/262 313/42/310 321/42/336 319/5/341
f 316/34/265 317/33/264 328/33/350 327/34/347
f 317/33/264 318/32/263 329/32/351 328/33/350
f 311/44/342 273/5/344 319/5/341 325/44/340
f 313/42/310 312/41/309 322/41/337 321/42/336
f 318/32/263 273/5/262 319/5/352 329/32/351
f 312/41/309 309/40/308 323/40/338 322/41/337
f 309/40/308 310/43/343 324/43/339 323/40/338
f 273/5/344 314/46/346 320/46/349 319/5/352
f 310/43/343 311/44/342 325/44/340 324/43/339
f 314/46/346 315/45/345 326/45/348 320/46/349
s 0
usemtl Gotik_Symbol
f 481/69/429 478/68/429 479/68/429 480/69/429
f 478/68/430 482/76/430 483/76/430 479/68/430
f 487/74/431 484/57/431 485/57/431 486/74/431
f 489/58/432 481/69/432 480/69/432 488/58/432
f 482/76/433 487/74/433 486/74/433 483/76/433
f 484/57/421 489/58/421 488/58/421 485/57/421
f 502/54/429 503/86/429 504/59/429 505/53/429
f 505/53/432 504/59/432 506/60/432 507/50/432
f 507/50/421 506/60/421 508/51/421 509/49/421
f 509/49/431 508/51/431 510/52/431 511/61/431
f 511/61/433 510/52/433 512/96/433 513/56/433
f 513/56/430 512/96/430 503/99/430 502/55/430
l 117 146
