# Blender 5.1.1
# www.blender.org
mtllib Statue_var1.mtl
o Statue_var2
v 6.904696 0.049504 -2.541953
v 6.904696 0.200870 -2.477132
v 7.184976 0.049504 -2.380133
v 7.128839 0.200870 -2.347722
v 7.184976 0.049504 -2.056493
v 7.128839 0.200870 -2.088903
v 6.904696 0.049504 -1.894673
v 6.904696 0.200870 -1.959493
v 6.624415 0.049504 -2.056493
v 6.680552 0.200870 -2.088903
v 6.624415 0.049504 -2.380133
v 6.680552 0.200870 -2.347722
v 7.184976 0.088638 -2.380133
v 6.904696 0.088638 -2.541953
v 7.184976 0.088638 -2.056493
v 6.904696 0.088638 -1.894673
v 6.624415 0.088638 -2.056493
v 6.624415 0.088638 -2.380133
v 7.128839 0.764980 -2.347722
v 6.904696 0.764980 -2.477132
v 7.128839 0.764980 -2.088903
v 6.904696 0.764980 -1.959493
v 6.680552 0.764980 -2.088903
v 6.680552 0.764980 -2.347722
v 7.342415 0.866399 -2.471030
v 6.904696 0.866399 -2.723748
v 7.342415 0.866399 -1.965595
v 6.904696 0.866399 -1.712878
v 6.466976 0.866399 -1.965595
v 6.466976 0.866399 -2.471030
v 7.239374 1.036288 -2.411540
v 6.904696 1.036288 -2.604766
v 7.239374 1.036288 -2.025086
v 6.904696 1.036288 -1.831859
v 6.570017 1.036288 -2.025086
v 6.570017 1.036288 -2.411540
v 7.342415 0.929547 -2.471030
v 6.904696 0.929547 -2.723748
v 7.342415 0.929547 -1.965595
v 6.904696 0.929547 -1.712878
v 6.466976 0.929547 -1.965595
v 6.466976 0.929547 -2.471030
v 7.163254 0.898354 -2.367592
v 6.904696 0.898354 -2.516870
v 7.163254 0.898354 -2.069034
v 6.904696 0.898354 -1.919755
v 6.646137 0.898354 -2.069034
v 6.646137 0.898354 -2.367592
v 7.342415 0.796391 -2.471030
v 6.904696 0.796391 -2.723748
v 7.342415 0.796391 -1.965595
v 6.904696 0.796391 -1.712878
v 6.466976 0.796391 -1.965595
v 6.466976 0.796391 -2.471030
v 7.342415 0.999555 -2.471030
v 6.904696 0.999555 -2.723748
v 7.342415 0.999555 -1.965595
v 6.904696 0.999555 -1.712878
v 6.466976 0.999555 -1.965595
v 6.466976 0.999555 -2.471030
v 6.904696 0.866399 -2.668370
v 6.904696 0.929547 -2.668370
v 7.294456 0.929547 -2.443341
v 7.294456 0.866399 -2.443341
v 6.514935 0.866399 -2.443341
v 6.514935 0.929547 -2.443341
v 6.904696 0.866399 -1.768255
v 6.904696 0.929547 -1.768255
v 6.514935 0.929547 -1.993284
v 6.514935 0.866399 -1.993284
v 7.294456 0.929547 -1.993284
v 7.294456 0.866399 -1.993284
v 6.904696 0.000000 -2.541953
v 7.184976 0.000000 -2.380133
v 7.184976 0.138142 -2.380133
v 6.904696 0.138142 -2.541953
v 7.184976 0.000000 -2.056493
v 7.184976 0.138142 -2.056493
v 6.904696 0.000000 -1.894673
v 6.904696 0.138142 -1.894673
v 6.624415 0.000000 -2.056493
v 6.624415 0.138142 -2.056493
v 6.624415 0.000000 -2.380133
v 6.624415 0.138142 -2.380133
v 6.904696 0.049504 -2.478389
v 6.904696 0.088638 -2.478389
v 7.129929 0.088638 -2.348351
v 7.129929 0.049504 -2.348351
v 7.129929 0.088638 -2.088274
v 7.129929 0.049504 -2.088274
v 6.904696 0.088638 -1.958236
v 6.904696 0.049504 -1.958236
v 6.679462 0.088638 -2.088274
v 6.679462 0.049504 -2.088274
v 6.679462 0.088638 -2.348351
v 6.679462 0.049504 -2.348351
v 6.904696 1.129715 -2.516870
v 7.163254 1.129715 -2.069034
v 6.646137 1.129715 -2.069034
v 7.144994 1.296351 -2.316881
v 6.974268 1.296351 -2.415449
v 6.974268 1.296351 -2.021176
v 6.803543 1.296351 -2.119745
v 6.803543 1.296351 -2.316881
v 7.093472 1.391007 -2.305408
v 7.093472 1.362881 -2.131218
v 6.940666 1.348818 -2.044123
v 6.787859 1.391007 -2.305408
v 7.155118 1.203960 -2.344997
v 7.163254 1.129715 -2.289559
v 7.163254 1.051682 -2.367592
v 7.095676 1.129715 -2.406608
v 6.930909 1.192499 -1.957968
v 6.837117 1.129715 -1.958771
v 6.904696 1.051682 -1.919755
v 6.972274 1.129715 -1.958771
v 6.698456 1.185102 -2.350736
v 6.713715 1.129715 -2.406608
v 6.646137 1.051682 -2.367592
v 6.646137 1.129715 -2.289559
v 7.097654 1.357481 -2.130287
v 7.077415 1.296351 -2.080728
v 7.153130 1.222106 -2.097150
v 7.144994 1.296351 -2.197777
v 6.963253 1.331989 -2.407927
v 6.873087 1.398851 -2.353985
v 7.008244 1.398851 -2.353985
v 6.855437 1.356661 -2.092700
v 6.787859 1.375320 -2.208253
v 6.803535 1.296384 -2.119750
vn -0.0000 1.0000 -0.0000
vn -0.0000 -1.0000 -0.0000
vn 0.5000 -0.0000 0.8660
vn 0.3726 0.6669 -0.6453
vn 0.7452 0.6669 -0.0000
vn 0.3726 0.6669 0.6453
vn -0.3726 0.6669 0.6453
vn -0.7452 0.6669 -0.0000
vn -0.3726 0.6669 -0.6453
vn 0.1455 -0.9894 -0.0000
vn 0.5000 -0.0000 -0.8660
vn -0.5000 -0.0000 -0.8660
vn -0.5000 -0.0000 0.8660
vn 1.0000 -0.0000 -0.0000
vn -1.0000 -0.0000 -0.0000
vn -0.1455 -0.9894 -0.0000
vn 0.0728 -0.9894 0.1260
vn 0.0728 -0.9894 -0.1260
vn -0.0728 -0.9894 -0.1260
vn -0.0728 -0.9894 0.1260
vn -0.4378 0.4832 -0.7582
vn 0.1679 0.9419 -0.2908
vn 0.3358 0.9419 -0.0000
vn 0.1679 0.9419 0.2908
vn -0.1679 0.9419 0.2908
vn -0.3358 0.9419 -0.0000
vn -0.1679 0.9419 -0.2908
vn -0.4378 0.4832 0.7582
vn 0.4378 0.4832 0.7582
vn 0.4378 0.4832 -0.7582
vn -0.8755 0.4832 -0.0000
vn 0.8755 0.4832 -0.0000
vn 0.8598 0.1196 -0.4964
vn -0.0000 0.2619 0.9651
vn -0.8033 0.3736 -0.4638
vn 0.7816 0.4307 0.4512
vn -0.0000 0.6279 -0.7783
vn -0.7523 0.4199 0.5077
vn 0.9940 0.1089 -0.0000
vn 0.4764 0.3033 -0.8252
vn 0.4764 0.3033 0.8252
vn -0.4027 0.5927 0.6975
vn -0.7270 0.6867 -0.0000
vn -0.4027 0.5927 -0.6975
vn 0.8513 0.5224 0.0490
vn 0.4028 0.5220 0.7519
vn 0.4775 0.3404 -0.8100
vn -0.0000 0.9872 0.1594
vn -0.4987 0.0252 -0.8664
vn -0.4967 0.0491 0.8666
vn -0.9833 -0.1820 -0.0097
vt 0.500000 0.679177
vt 0.666667 0.679177
vt 0.500000 0.820823
vt 0.333333 0.820823
vt 0.833333 0.679177
vt 1.000000 0.679177
vt -0.000000 0.679177
vt 0.166667 0.679177
vt 0.250000 0.058069
vt 0.416217 0.154034
vt 0.833333 0.820823
vt 0.666667 0.820823
vt 0.333333 0.679177
vt 0.750000 0.490000
vt 0.957846 0.370000
vt 0.957846 0.130000
vt 0.750000 0.010000
vt 0.542154 0.130000
vt 0.542154 0.370000
vt 0.250000 0.441931
vt 0.416217 0.345966
vt 0.457846 0.370000
vt 0.250000 0.490000
vt 0.457846 0.130000
vt 0.250000 0.010000
vt 0.083783 0.154034
vt 0.042154 0.130000
vt 0.083783 0.345966
vt 0.042154 0.370000
vt 0.250000 0.103250
vt 0.377089 0.176625
vt 0.250000 0.396750
vt 0.377089 0.323375
vt 0.122911 0.176625
vt 0.122911 0.323375
vt 0.833333 0.500000
vt 1.000000 0.500000
vt 1.000000 0.820823
vt 1.000000 1.000000
vt 0.833333 1.000000
vt 0.666667 0.500000
vt 0.666667 1.000000
vt 0.500000 0.500000
vt 0.500000 1.000000
vt 0.333333 0.500000
vt 0.333333 1.000000
vt 0.166667 0.500000
vt 0.166667 0.820823
vt 0.166667 1.000000
vt -0.000000 0.500000
vt -0.000000 0.820823
vt -0.000000 1.000000
vt 0.377089 0.323375
vt 0.377089 0.285020
vt 0.377089 0.323375
vt 0.343872 0.342553
vt 0.216783 0.122428
vt 0.283217 0.122428
vt 0.122911 0.323375
vt 0.156128 0.342553
vt 0.122911 0.323375
vt 0.122911 0.285020
vt 0.326783 0.147581
vt 0.377089 0.234713
vt 0.250000 0.396750
vt 0.193795 0.364300
vt 0.306205 0.364300
vt 0.179116 0.144175
vt 0.122911 0.241525
s 0
usemtl Statuen_grau
f 7/1/1 5/2/1 90/2/1 92/1/1
f 16/3/2 17/4/2 93/4/2 91/3/2
f 3/5/1 1/6/1 85/6/1 88/5/1
f 1/7/1 11/8/1 96/8/1 85/7/1
f 8/9/3 6/10/3 21/10/3 22/9/3
f 13/11/2 15/12/2 89/12/2 87/11/2
f 9/13/1 7/1/1 92/1/1 94/13/1
f 73/14/2 74/15/2 77/16/2 79/17/2 81/18/2 83/19/2
f 2/20/4 4/21/4 75/22/4 76/23/4
f 4/21/5 6/10/5 78/24/5 75/22/5
f 6/10/6 8/9/6 80/25/6 78/24/6
f 8/9/7 10/26/7 82/27/7 80/25/7
f 10/26/8 12/28/8 84/29/8 82/27/8
f 12/28/9 2/20/9 76/23/9 84/29/9
f 21/10/10 19/21/10 49/21/10 51/10/10
f 4/21/11 2/20/11 20/20/11 19/21/11
f 2/20/12 12/28/12 24/28/12 20/20/12
f 10/26/13 8/9/13 22/9/13 23/26/13
f 6/10/14 4/21/14 19/21/14 21/10/14
f 12/28/15 10/26/15 23/26/15 24/28/15
f 42/28/2 38/20/2 62/20/2 66/28/2
f 24/28/16 23/26/16 53/26/16 54/28/16
f 22/9/17 21/10/17 51/10/17 52/9/17
f 19/21/18 20/20/18 50/20/18 49/21/18
f 20/20/19 24/28/19 54/28/19 50/20/19
f 23/26/20 22/9/20 52/9/20 53/26/20
f 34/30/21 33/31/21 45/31/21 46/30/21
f 30/28/1 29/26/1 70/26/1 65/28/1
f 37/21/2 39/10/2 71/10/2 63/21/2
f 25/21/1 26/20/1 61/20/1 64/21/1
f 41/26/2 42/28/2 66/28/2 69/26/2
f 29/26/1 28/9/1 67/9/1 70/26/1
f 32/32/22 31/33/22 55/21/22 56/20/22
f 31/33/23 33/31/23 57/10/23 55/21/23
f 33/31/24 34/30/24 58/9/24 57/10/24
f 34/30/25 35/34/25 59/26/25 58/9/25
f 35/34/26 36/35/26 60/28/26 59/26/26
f 36/35/27 32/32/27 56/20/27 60/28/27
f 31/33/28 32/32/28 44/32/28 43/33/28
f 32/32/29 36/35/29 48/35/29 44/32/29
f 35/34/30 34/30/30 46/30/30 47/34/30
f 33/31/31 31/33/31 43/33/31 45/31/31
f 36/35/32 35/34/32 47/34/32 48/35/32
f 26/20/11 25/21/11 49/21/11 50/20/11
f 25/21/14 27/10/14 51/10/14 49/21/14
f 27/10/3 28/9/3 52/9/3 51/10/3
f 28/9/13 29/26/13 53/26/13 52/9/13
f 29/26/15 30/28/15 54/28/15 53/26/15
f 30/28/12 26/20/12 50/20/12 54/28/12
f 37/21/11 38/20/11 56/20/11 55/21/11
f 39/10/14 37/21/14 55/21/14 57/10/14
f 40/9/3 39/10/3 57/10/3 58/9/3
f 41/26/13 40/9/13 58/9/13 59/26/13
f 42/28/15 41/26/15 59/26/15 60/28/15
f 38/20/12 42/28/12 60/28/12 56/20/12
f 27/10/1 25/21/1 64/21/1 72/10/1
f 39/10/2 40/9/2 68/9/2 71/10/2
f 26/20/1 30/28/1 65/28/1 61/20/1
f 28/9/1 27/10/1 72/10/1 67/9/1
f 40/9/2 41/26/2 69/26/2 68/9/2
f 38/20/2 37/21/2 63/21/2 62/20/2
f 1/6/11 3/5/11 74/36/11 73/37/11
f 13/11/11 14/38/11 76/39/11 75/40/11
f 3/5/14 5/2/14 77/41/14 74/36/14
f 15/12/14 13/11/14 75/40/14 78/42/14
f 5/2/3 7/1/3 79/43/3 77/41/3
f 16/3/3 15/12/3 78/42/3 80/44/3
f 7/1/13 9/13/13 81/45/13 79/43/13
f 17/4/13 16/3/13 80/44/13 82/46/13
f 9/13/15 11/8/15 83/47/15 81/45/15
f 18/48/15 17/4/15 82/46/15 84/49/15
f 11/8/12 1/7/12 73/50/12 83/47/12
f 14/51/12 18/48/12 84/49/12 76/52/12
f 18/48/2 14/51/2 86/51/2 95/48/2
f 14/38/2 13/11/2 87/11/2 86/38/2
f 11/8/1 9/13/1 94/13/1 96/8/1
f 15/12/2 16/3/2 91/3/2 89/12/2
f 5/2/1 3/5/1 88/5/1 90/2/1
f 17/4/2 18/48/2 95/48/2 93/4/2
f 109/53/33 110/54/33 111/55/33 112/56/33
f 113/30/34 114/57/34 115/30/34 116/58/34
f 117/59/35 118/60/35 119/61/35 120/62/35
f 121/31/36 122/63/36 123/31/36 124/64/36
f 125/65/37 126/66/37 127/67/37
f 128/68/38 129/69/38 130/34/38
f 43/33/11 44/32/11 97/32/11 112/56/11 111/55/11
f 98/31/39 110/54/39 109/53/39 100/33/39 124/64/39 123/31/39
f 109/53/40 112/56/40 97/32/40 101/32/40 100/33/40
f 45/31/14 43/33/14 111/55/14 110/54/14 98/31/14
f 113/30/41 116/58/41 98/31/41 123/31/41 122/63/41 102/30/41
f 47/34/13 46/30/13 115/30/13 114/57/13 99/34/13
f 46/30/3 45/31/3 98/31/3 116/58/3 115/30/3
f 99/34/42 114/57/42 113/30/42 102/30/42 103/34/42
f 117/59/43 120/62/43 99/34/43 103/34/43 104/35/43
f 44/32/12 48/35/12 119/61/12 118/60/12 97/32/12
f 48/35/15 47/34/15 99/34/15 120/62/15 119/61/15
f 97/32/44 118/60/44 117/59/44 104/35/44 101/32/44
f 121/31/45 124/64/45 100/33/45 105/33/45 106/31/45
f 102/30/46 122/63/46 121/31/46 106/31/46 107/30/46
f 100/33/47 101/32/47 125/65/47 127/67/47 105/33/47
f 105/33/48 127/67/48 126/66/48 108/35/48 129/69/48 128/68/48 107/30/48 106/31/48
f 101/32/49 104/35/49 108/35/49 126/66/49 125/65/49
f 103/34/50 102/30/50 107/30/50 128/68/50 130/34/50
f 104/35/51 103/34/51 130/34/51 129/69/51 108/35/51
usemtl Gotik_Symbol
f 64/21/11 61/20/11 62/20/11 63/21/11
f 61/20/12 65/28/12 66/28/12 62/20/12
f 70/26/13 67/9/13 68/9/13 69/26/13
f 72/10/14 64/21/14 63/21/14 71/10/14
f 65/28/15 70/26/15 69/26/15 66/28/15
f 67/9/3 72/10/3 71/10/3 68/9/3
f 85/6/11 86/38/11 87/11/11 88/5/11
f 88/5/14 87/11/14 89/12/14 90/2/14
f 90/2/3 89/12/3 91/3/3 92/1/3
f 92/1/13 91/3/13 93/4/13 94/13/13
f 94/13/15 93/4/15 95/48/15 96/8/15
f 96/8/12 95/48/12 86/51/12 85/7/12
