# Blender 5.1.1
# www.blender.org
mtllib Teppich_Symbol_var3.mtl
o Teppich_Var5
v 10.467744 0.000001 -0.852097
v 12.467744 0.000001 -0.852097
v 10.467744 0.000001 -1.525005
v 12.467744 0.000001 -1.525005
v 10.512188 0.000000 -0.852097
v 10.556633 0.000000 -0.852097
v 10.601077 0.000000 -0.852097
v 10.645521 0.000000 -0.852097
v 10.689966 0.000000 -0.852097
v 10.734410 0.000000 -0.852097
v 10.778855 0.000000 -0.852097
v 10.823299 0.000000 -0.852097
v 10.867743 0.000000 -0.852097
v 10.912189 0.000000 -0.852097
v 10.956633 0.000000 -0.852097
v 11.001077 0.000000 -0.852097
v 11.045522 0.000000 -0.852097
v 11.089966 0.000000 -0.852097
v 11.134411 0.000000 -0.852097
v 11.178855 0.000000 -0.852097
v 11.223299 0.000000 -0.852097
v 11.267744 0.000000 -0.852097
v 11.312188 0.000000 -0.852097
v 11.356632 0.000000 -0.852097
v 11.401077 0.000000 -0.852097
v 11.445521 0.000000 -0.852097
v 11.489966 0.000000 -0.852097
v 11.534410 0.000000 -0.852097
v 11.578855 0.000000 -0.852097
v 11.623300 0.000000 -0.852097
v 11.667744 0.000000 -0.852097
v 11.712189 0.000000 -0.852097
v 11.756633 0.000000 -0.852097
v 11.801077 0.000000 -0.852097
v 11.845522 0.000000 -0.852097
v 11.889966 0.000000 -0.852097
v 11.934410 0.000000 -0.852097
v 11.978855 0.000000 -0.852097
v 12.023299 0.000000 -0.852097
v 12.067744 0.000000 -0.852097
v 12.112188 0.000000 -0.852097
v 12.156632 0.000000 -0.852097
v 12.201077 0.000000 -0.852097
v 12.245522 0.000000 -0.852097
v 12.289966 0.000000 -0.852097
v 12.334411 0.000000 -0.852097
v 12.378855 0.000000 -0.852097
v 12.423300 0.000000 -0.852097
v 12.423300 0.000000 -1.525005
v 12.378855 0.000000 -1.525005
v 12.334411 0.000000 -1.525005
v 12.289967 0.000000 -1.525005
v 12.245522 0.000000 -1.525005
v 12.201077 0.000000 -1.525005
v 12.156632 0.000000 -1.525005
v 12.112188 0.000000 -1.525005
v 12.067744 0.000000 -1.525005
v 12.023299 0.000000 -1.525005
v 11.978855 0.000000 -1.525005
v 11.934410 0.000000 -1.525005
v 11.889966 0.000000 -1.525005
v 11.845522 0.000000 -1.525005
v 11.801077 0.000000 -1.525005
v 11.756633 0.000000 -1.525005
v 11.712189 0.000000 -1.525005
v 11.667744 0.000000 -1.525005
v 11.623300 0.000000 -1.525005
v 11.578855 0.000000 -1.525005
v 11.534410 0.000000 -1.525005
v 11.489966 0.000000 -1.525005
v 11.445521 0.000000 -1.525005
v 11.401077 0.000000 -1.525005
v 11.356633 0.000000 -1.525005
v 11.312188 0.000000 -1.525005
v 11.267744 0.000000 -1.525005
v 11.223299 0.000000 -1.525005
v 11.178855 0.000000 -1.525005
v 11.134411 0.000000 -1.525005
v 11.089966 0.000000 -1.525005
v 11.045522 0.000000 -1.525005
v 11.001078 0.000000 -1.525005
v 10.956633 0.000000 -1.525005
v 10.912189 0.000000 -1.525005
v 10.867743 0.000000 -1.525005
v 10.823299 0.000000 -1.525005
v 10.778855 0.000000 -1.525005
v 10.734410 0.000000 -1.525005
v 10.689966 0.000000 -1.525005
v 10.645522 0.000000 -1.525005
v 10.601077 0.000000 -1.525005
v 10.556633 0.000000 -1.525005
v 10.512188 0.000000 -1.525005
v 10.467744 0.000001 -1.485422
v 10.467744 0.000001 -1.445839
v 10.467744 0.000001 -1.406257
v 10.467744 0.000001 -1.366673
v 10.467744 0.000001 -1.327091
v 10.467744 0.000001 -1.287508
v 10.467744 0.000001 -1.247925
v 10.467744 0.000001 -1.208342
v 10.467744 0.000001 -1.168759
v 10.467744 0.000001 -1.129176
v 10.467744 0.000001 -1.089594
v 10.467744 0.000001 -1.050011
v 10.467744 0.000001 -1.010428
v 10.467744 0.000001 -0.970845
v 10.467744 0.000001 -0.931262
v 10.467744 0.000001 -0.891679
v 12.467744 0.000001 -0.891679
v 12.467744 0.000001 -0.931262
v 12.467744 0.000001 -0.970845
v 12.467744 0.000001 -1.010428
v 12.467744 0.000001 -1.050011
v 12.467744 0.000001 -1.089594
v 12.467744 0.000001 -1.129176
v 12.467744 0.000001 -1.168759
v 12.467744 0.000001 -1.208342
v 12.467744 0.000001 -1.247925
v 12.467744 0.000001 -1.287508
v 12.467744 0.000001 -1.327091
v 12.467744 0.000001 -1.366673
v 12.467744 0.000001 -1.406257
v 12.467744 0.000001 -1.445839
v 12.467744 0.000001 -1.485422
v 10.512188 0.000000 -0.891679
v 10.512188 0.000000 -0.931262
v 10.512188 0.000000 -0.970845
v 10.512188 0.000000 -1.010428
v 10.512188 0.000000 -1.050011
v 10.512188 0.000000 -1.089594
v 10.512188 0.000000 -1.129176
v 10.512188 0.000000 -1.168759
v 10.512188 0.000000 -1.208342
v 10.512188 0.000000 -1.247925
v 10.512188 0.000000 -1.287508
v 10.512188 0.000000 -1.327091
v 10.512188 0.000000 -1.366673
v 10.512188 0.000000 -1.406257
v 10.512188 0.000000 -1.445839
v 10.512188 0.000000 -1.485422
v 10.556633 0.000000 -0.891679
v 10.556633 0.000000 -0.931262
v 10.556633 0.000000 -0.970845
v 10.556633 0.000000 -1.010428
v 10.556633 0.000000 -1.050011
v 10.556633 0.000000 -1.089594
v 10.556633 0.000000 -1.129176
v 10.556633 0.000000 -1.168759
v 10.556633 0.000000 -1.208342
v 10.556633 0.000000 -1.247925
v 10.556633 0.000000 -1.287508
v 10.556633 0.000000 -1.327091
v 10.556633 0.000000 -1.366673
v 10.556633 0.000000 -1.406257
v 10.556633 0.000000 -1.445839
v 10.556633 0.000000 -1.485422
v 10.601077 0.000000 -0.891679
v 10.601077 0.000000 -0.931262
v 10.601077 0.000000 -0.970845
v 10.601077 0.000000 -1.010428
v 10.601077 0.000000 -1.050011
v 10.601077 0.000000 -1.089594
v 10.601077 0.000000 -1.129176
v 10.601077 0.000000 -1.168759
v 10.601077 0.000000 -1.208342
v 10.601077 0.000000 -1.247925
v 10.601077 0.000000 -1.287508
v 10.601077 0.000000 -1.327091
v 10.601077 0.000000 -1.366673
v 10.601077 0.000000 -1.406257
v 10.601077 0.000000 -1.445839
v 10.601077 0.000000 -1.485422
v 10.645521 0.000000 -0.891679
v 10.645521 0.000000 -0.931262
v 10.645521 0.000000 -0.970845
v 10.645521 0.000000 -1.010428
v 10.645521 0.000000 -1.050011
v 10.645521 0.000000 -1.089594
v 10.645521 0.000000 -1.129176
v 10.645521 0.000000 -1.168759
v 10.645521 0.000000 -1.208342
v 10.645521 0.000000 -1.247925
v 10.645521 0.000000 -1.287508
v 10.645521 0.000000 -1.327091
v 10.645521 0.000000 -1.366673
v 10.645521 0.000000 -1.406257
v 10.645521 0.000000 -1.445839
v 10.645521 0.000000 -1.485422
v 10.689966 0.000000 -0.891679
v 10.689966 0.000000 -0.931262
v 10.689966 0.000000 -0.970845
v 10.689966 0.000000 -1.010428
v 10.689966 0.000000 -1.050011
v 10.689966 0.000000 -1.089594
v 10.689966 0.000000 -1.129176
v 10.689966 0.000000 -1.168759
v 10.689966 0.000000 -1.208342
v 10.689966 0.000000 -1.247925
v 10.689966 0.000000 -1.287508
v 10.689966 0.000000 -1.327091
v 10.689966 0.000000 -1.366673
v 10.689966 0.000000 -1.406257
v 10.689966 0.000000 -1.445839
v 10.689966 0.000000 -1.485422
v 10.734410 0.000000 -0.891679
v 10.734410 0.000000 -0.931262
v 10.734410 0.000000 -0.970845
v 10.734410 0.000000 -1.010428
v 10.734410 0.000000 -1.050011
v 10.734410 0.000000 -1.089594
v 10.734410 0.000000 -1.129176
v 10.734410 0.000000 -1.168759
v 10.734410 0.000000 -1.208342
v 10.734410 0.000000 -1.247925
v 10.734410 0.000000 -1.287508
v 10.734410 0.000000 -1.327091
v 10.734410 0.000000 -1.366673
v 10.734410 0.000000 -1.406257
v 10.734410 0.000000 -1.445839
v 10.734410 0.000000 -1.485422
v 10.778855 0.000000 -0.891679
v 10.778855 0.000000 -0.931262
v 10.778855 0.000000 -0.970845
v 10.778855 0.000000 -1.010428
v 10.778855 0.000000 -1.050011
v 10.778855 0.000000 -1.089594
v 10.778855 0.000000 -1.129176
v 10.778855 0.000000 -1.168759
v 10.778855 0.000000 -1.208342
v 10.778855 0.000000 -1.247925
v 10.778855 0.000000 -1.287508
v 10.778855 0.000000 -1.327091
v 10.778855 0.000000 -1.366673
v 10.778855 0.000000 -1.406257
v 10.778855 0.000000 -1.445839
v 10.778855 0.000000 -1.485422
v 10.823299 0.000000 -0.891679
v 10.823299 0.000000 -0.931262
v 10.823299 0.000000 -0.970845
v 10.823299 0.000000 -1.010428
v 10.823299 0.000000 -1.050011
v 10.823299 0.000000 -1.089594
v 10.823299 0.000000 -1.129176
v 10.823299 0.000000 -1.168759
v 10.823299 0.000000 -1.208342
v 10.823299 0.000000 -1.247925
v 10.823299 0.000000 -1.287508
v 10.823299 0.000000 -1.327091
v 10.823299 0.000000 -1.366673
v 10.823299 0.000000 -1.406257
v 10.823299 0.000000 -1.445839
v 10.823299 0.000000 -1.485422
v 10.867743 0.000000 -0.891679
v 10.867743 0.000000 -0.931262
v 10.867743 0.000000 -0.970845
v 10.867743 0.000000 -1.010428
v 10.867743 0.000000 -1.050011
v 10.867743 0.000000 -1.089594
v 10.867743 0.000000 -1.129176
v 10.867743 0.000000 -1.168759
v 10.867743 0.000000 -1.208342
v 10.867743 0.000000 -1.247925
v 10.867743 0.000000 -1.287508
v 10.867743 0.000000 -1.327091
v 10.867743 0.000000 -1.366673
v 10.867743 0.000000 -1.406257
v 10.867743 0.000000 -1.445839
v 10.867743 0.000000 -1.485422
v 10.912189 0.000000 -0.891679
v 10.912189 0.000000 -0.931262
v 10.912189 0.000000 -0.970845
v 10.912189 0.000000 -1.010428
v 10.912189 0.000000 -1.050011
v 10.912189 0.000000 -1.089594
v 10.912189 0.000000 -1.129176
v 10.912189 0.000000 -1.168759
v 10.912189 0.000000 -1.208342
v 10.912189 0.000000 -1.247925
v 10.912189 0.000000 -1.287508
v 10.912189 0.000000 -1.327091
v 10.912189 0.000000 -1.366673
v 10.912189 0.000000 -1.406257
v 10.912189 0.000000 -1.445839
v 10.912189 0.000000 -1.485422
v 10.956633 0.000000 -0.891679
v 10.956633 0.000000 -0.931262
v 10.956633 0.000000 -0.970845
v 10.956633 0.000000 -1.010428
v 10.956633 0.000000 -1.050011
v 10.956633 0.000000 -1.089594
v 10.956633 0.000000 -1.129176
v 10.956633 0.000000 -1.168759
v 10.956633 0.000000 -1.208342
v 10.956633 0.000000 -1.247925
v 10.956633 0.000000 -1.287508
v 10.956633 0.000000 -1.327091
v 10.956633 0.000000 -1.366673
v 10.956633 0.000000 -1.406257
v 10.956633 0.000000 -1.445839
v 10.956633 0.000000 -1.485422
v 11.001077 0.000000 -0.891679
v 11.001077 0.000000 -0.931262
v 11.001077 0.000000 -0.970845
v 11.001077 0.000000 -1.010428
v 11.001077 0.000000 -1.050011
v 11.001077 0.000000 -1.089594
v 11.001077 0.000000 -1.129176
v 11.001077 0.000000 -1.168759
v 11.001077 0.000000 -1.208342
v 11.001077 0.000000 -1.247925
v 11.001077 0.000000 -1.287508
v 11.001077 0.000000 -1.327091
v 11.001077 0.000000 -1.366673
v 11.001077 0.000000 -1.406257
v 11.001078 0.000000 -1.445839
v 11.001078 0.000000 -1.485422
v 11.045522 0.000000 -0.891679
v 11.045522 0.000000 -0.931262
v 11.045522 0.000000 -0.970845
v 11.045522 0.000000 -1.010428
v 11.045522 0.000000 -1.050011
v 11.045522 0.000000 -1.089594
v 11.045522 0.000000 -1.129176
v 11.045522 0.000000 -1.168759
v 11.045522 0.000000 -1.208342
v 11.045522 0.000000 -1.247925
v 11.045522 0.000000 -1.287508
v 11.045522 0.000000 -1.327091
v 11.045522 0.000000 -1.366673
v 11.045522 0.000000 -1.406257
v 11.045522 0.000000 -1.445839
v 11.045522 0.000000 -1.485422
v 11.089966 0.000000 -0.891679
v 11.089966 0.000000 -0.931262
v 11.089966 0.000000 -0.970845
v 11.089966 0.000000 -1.010428
v 11.089966 0.000000 -1.050011
v 11.089966 0.000000 -1.089594
v 11.089966 0.000000 -1.129176
v 11.089966 0.000000 -1.168759
v 11.089966 0.000000 -1.208342
v 11.089966 0.000000 -1.247925
v 11.089966 0.000000 -1.287508
v 11.089966 0.000000 -1.327091
v 11.089966 0.000000 -1.366673
v 11.089966 0.000000 -1.406257
v 11.089966 0.000000 -1.445839
v 11.089966 0.000000 -1.485422
v 11.134411 0.000000 -0.891679
v 11.134411 0.000000 -0.931262
v 11.134411 0.000000 -0.970845
v 11.134411 0.000000 -1.010428
v 11.134411 0.000000 -1.050011
v 11.134411 0.000000 -1.089594
v 11.134411 0.000000 -1.129176
v 11.134411 0.000000 -1.168759
v 11.134411 0.000000 -1.208342
v 11.134411 0.000000 -1.247925
v 11.134411 0.000000 -1.287508
v 11.134411 0.000000 -1.327091
v 11.134411 0.000000 -1.366673
v 11.134411 0.000000 -1.406257
v 11.134411 0.000000 -1.445839
v 11.134411 0.000000 -1.485422
v 11.178855 0.000000 -0.891679
v 11.178855 0.000000 -0.931262
v 11.178855 0.000000 -0.970845
v 11.178855 0.000000 -1.010428
v 11.178855 0.000000 -1.050011
v 11.178855 0.000000 -1.089594
v 11.178855 0.000000 -1.129176
v 11.178855 0.000000 -1.168759
v 11.178855 0.000000 -1.208342
v 11.178855 0.000000 -1.247925
v 11.178855 0.000000 -1.287508
v 11.178855 0.000000 -1.327091
v 11.178855 0.000000 -1.366673
v 11.178855 0.000000 -1.406257
v 11.178855 0.000000 -1.445839
v 11.178855 0.000000 -1.485422
v 11.223299 0.000000 -0.891679
v 11.223299 0.000000 -0.931262
v 11.223299 0.000000 -0.970845
v 11.223299 0.000000 -1.010428
v 11.223299 0.000000 -1.050011
v 11.223299 0.000000 -1.089594
v 11.223299 0.000000 -1.129176
v 11.223299 0.000000 -1.168759
v 11.223299 0.000000 -1.208342
v 11.223299 0.000000 -1.247925
v 11.223299 0.000000 -1.287508
v 11.223299 0.000000 -1.327091
v 11.223299 0.000000 -1.366673
v 11.223299 0.000000 -1.406257
v 11.223299 0.000000 -1.445839
v 11.223299 0.000000 -1.485422
v 11.267744 0.000000 -0.891679
v 11.267744 0.000000 -0.931262
v 11.267744 0.000000 -0.970845
v 11.267744 0.000000 -1.010428
v 11.267744 0.000000 -1.050011
v 11.267744 0.000000 -1.089594
v 11.267744 0.000000 -1.129176
v 11.267744 0.000000 -1.168759
v 11.267744 0.000000 -1.208342
v 11.267744 0.000000 -1.247925
v 11.267744 0.000000 -1.287508
v 11.267744 0.000000 -1.327091
v 11.267744 0.000000 -1.366673
v 11.267744 0.000000 -1.406257
v 11.267744 0.000000 -1.445839
v 11.267744 0.000000 -1.485422
v 11.312188 0.000000 -0.891679
v 11.312188 0.000000 -0.931262
v 11.312188 0.000000 -0.970845
v 11.312188 0.000000 -1.010428
v 11.312188 0.000000 -1.050011
v 11.312188 0.000000 -1.089594
v 11.312188 0.000000 -1.129176
v 11.312188 0.000000 -1.168759
v 11.312188 0.000000 -1.208342
v 11.312188 0.000000 -1.247925
v 11.312188 0.000000 -1.287508
v 11.312188 0.000000 -1.327091
v 11.312188 0.000000 -1.366673
v 11.312188 0.000000 -1.406257
v 11.312188 0.000000 -1.445839
v 11.312188 0.000000 -1.485422
v 11.356632 0.000000 -0.891679
v 11.356632 0.000000 -0.931262
v 11.356633 0.000000 -0.970845
v 11.356633 0.000000 -1.010428
v 11.356633 0.000000 -1.050011
v 11.356633 0.000000 -1.089594
v 11.356633 0.000000 -1.129176
v 11.356633 0.000000 -1.168759
v 11.356633 0.000000 -1.208342
v 11.356633 0.000000 -1.247925
v 11.356633 0.000000 -1.287508
v 11.356633 0.000000 -1.327091
v 11.356633 0.000000 -1.366673
v 11.356633 0.000000 -1.406257
v 11.356633 0.000000 -1.445839
v 11.356633 0.000000 -1.485422
v 11.401077 0.000000 -0.891679
v 11.401077 0.000000 -0.931262
v 11.401077 0.000000 -0.970845
v 11.401077 0.000000 -1.010428
v 11.401077 0.000000 -1.050011
v 11.401077 0.000000 -1.089594
v 11.401077 0.000000 -1.129176
v 11.401077 0.000000 -1.168759
v 11.401077 0.000000 -1.208342
v 11.401077 0.000000 -1.247925
v 11.401077 0.000000 -1.287508
v 11.401077 0.000000 -1.327091
v 11.401077 0.000000 -1.366673
v 11.401077 0.000000 -1.406257
v 11.401077 0.000000 -1.445839
v 11.401077 0.000000 -1.485422
v 11.445521 0.000000 -0.891679
v 11.445521 0.000000 -0.931262
v 11.445521 0.000000 -0.970845
v 11.445521 0.000000 -1.010428
v 11.445521 0.000000 -1.050011
v 11.445521 0.000000 -1.089594
v 11.445521 0.000000 -1.129176
v 11.445521 0.000000 -1.168759
v 11.445521 0.000000 -1.208342
v 11.445521 0.000000 -1.247925
v 11.445521 0.000000 -1.287508
v 11.445521 0.000000 -1.327091
v 11.445521 0.000000 -1.366673
v 11.445521 0.000000 -1.406257
v 11.445521 0.000000 -1.445839
v 11.445521 0.000000 -1.485422
v 11.489966 0.000000 -0.891679
v 11.489966 0.000000 -0.931262
v 11.489966 0.000000 -0.970845
v 11.489966 0.000000 -1.010428
v 11.489966 0.000000 -1.050011
v 11.489966 0.000000 -1.089594
v 11.489966 0.000000 -1.129176
v 11.489966 0.000000 -1.168759
v 11.489966 0.000000 -1.208342
v 11.489966 0.000000 -1.247925
v 11.489966 0.000000 -1.287508
v 11.489966 0.000000 -1.327091
v 11.489966 0.000000 -1.366673
v 11.489966 0.000000 -1.406257
v 11.489966 0.000000 -1.445839
v 11.489966 0.000000 -1.485422
v 11.534410 0.000000 -0.891679
v 11.534410 0.000000 -0.931262
v 11.534410 0.000000 -0.970845
v 11.534410 0.000000 -1.010428
v 11.534410 0.000000 -1.050011
v 11.534410 0.000000 -1.089594
v 11.534410 0.000000 -1.129176
v 11.534410 0.000000 -1.168759
v 11.534410 0.000000 -1.208342
v 11.534410 0.000000 -1.247925
v 11.534410 0.000000 -1.287508
v 11.534410 0.000000 -1.327091
v 11.534410 0.000000 -1.366673
v 11.534410 0.000000 -1.406257
v 11.534410 0.000000 -1.445839
v 11.534410 0.000000 -1.485422
v 11.578855 0.000000 -0.891679
v 11.578855 0.000000 -0.931262
v 11.578855 0.000000 -0.970845
v 11.578855 0.000000 -1.010428
v 11.578855 0.000000 -1.050011
v 11.578855 0.000000 -1.089594
v 11.578855 0.000000 -1.129176
v 11.578855 0.000000 -1.168759
v 11.578855 0.000000 -1.208342
v 11.578855 0.000000 -1.247925
v 11.578855 0.000000 -1.287508
v 11.578855 0.000000 -1.327091
v 11.578855 0.000000 -1.366673
v 11.578855 0.000000 -1.406257
v 11.578855 0.000000 -1.445839
v 11.578855 0.000000 -1.485422
v 11.623300 0.000000 -0.891679
v 11.623300 0.000000 -0.931262
v 11.623300 0.000000 -0.970845
v 11.623300 0.000000 -1.010428
v 11.623300 0.000000 -1.050011
v 11.623300 0.000000 -1.089594
v 11.623300 0.000000 -1.129176
v 11.623300 0.000000 -1.168759
v 11.623300 0.000000 -1.208342
v 11.623300 0.000000 -1.247925
v 11.623300 0.000000 -1.287508
v 11.623300 0.000000 -1.327091
v 11.623300 0.000000 -1.366673
v 11.623300 0.000000 -1.406257
v 11.623300 0.000000 -1.445839
v 11.623300 0.000000 -1.485422
v 11.667744 0.000000 -0.891679
v 11.667744 0.000000 -0.931262
v 11.667744 0.000000 -0.970845
v 11.667744 0.000000 -1.010428
v 11.667744 0.000000 -1.050011
v 11.667744 0.000000 -1.089594
v 11.667744 0.000000 -1.129176
v 11.667744 0.000000 -1.168759
v 11.667744 0.000000 -1.208342
v 11.667744 0.000000 -1.247925
v 11.667744 0.000000 -1.287508
v 11.667744 0.000000 -1.327091
v 11.667744 0.000000 -1.366673
v 11.667744 0.000000 -1.406257
v 11.667744 0.000000 -1.445839
v 11.667744 0.000000 -1.485422
v 11.712189 0.000000 -0.891679
v 11.712189 0.000000 -0.931262
v 11.712189 0.000000 -0.970845
v 11.712189 0.000000 -1.010428
v 11.712189 0.000000 -1.050011
v 11.712189 0.000000 -1.089594
v 11.712189 0.000000 -1.129176
v 11.712189 0.000000 -1.168759
v 11.712189 0.000000 -1.208342
v 11.712189 0.000000 -1.247925
v 11.712189 0.000000 -1.287508
v 11.712189 0.000000 -1.327091
v 11.712189 0.000000 -1.366673
v 11.712189 0.000000 -1.406257
v 11.712189 0.000000 -1.445839
v 11.712189 0.000000 -1.485422
v 11.756633 0.000000 -0.891679
v 11.756633 0.000000 -0.931262
v 11.756633 0.000000 -0.970845
v 11.756633 0.000000 -1.010428
v 11.756633 0.000000 -1.050011
v 11.756633 0.000000 -1.089594
v 11.756633 0.000000 -1.129176
v 11.756633 0.000000 -1.168759
v 11.756633 0.000000 -1.208342
v 11.756633 0.000000 -1.247925
v 11.756633 0.000000 -1.287508
v 11.756633 0.000000 -1.327091
v 11.756633 0.000000 -1.366673
v 11.756633 0.000000 -1.406257
v 11.756633 0.000000 -1.445839
v 11.756633 0.000000 -1.485422
v 11.801077 0.000000 -0.891679
v 11.801077 0.000000 -0.931262
v 11.801077 0.000000 -0.970845
v 11.801077 0.000000 -1.010428
v 11.801077 0.000000 -1.050011
v 11.801077 0.000000 -1.089594
v 11.801077 0.000000 -1.129176
v 11.801077 0.000000 -1.168759
v 11.801077 0.000000 -1.208342
v 11.801077 0.000000 -1.247925
v 11.801077 0.000000 -1.287508
v 11.801077 0.000000 -1.327091
v 11.801077 0.000000 -1.366673
v 11.801077 0.000000 -1.406257
v 11.801077 0.000000 -1.445839
v 11.801077 0.000000 -1.485422
v 11.845522 0.000000 -0.891679
v 11.845522 0.000000 -0.931262
v 11.845522 0.000000 -0.970845
v 11.845522 0.000000 -1.010428
v 11.845522 0.000000 -1.050011
v 11.845522 0.000000 -1.089594
v 11.845522 0.000000 -1.129176
v 11.845522 0.000000 -1.168759
v 11.845522 0.000000 -1.208342
v 11.845522 0.000000 -1.247925
v 11.845522 0.000000 -1.287508
v 11.845522 0.000000 -1.327091
v 11.845522 0.000000 -1.366673
v 11.845522 0.000000 -1.406257
v 11.845522 0.000000 -1.445839
v 11.845522 0.000000 -1.485422
v 11.889966 0.000000 -0.891679
v 11.889966 0.000000 -0.931262
v 11.889966 0.000000 -0.970845
v 11.889966 0.000000 -1.010428
v 11.889966 0.000000 -1.050011
v 11.889966 0.000000 -1.089594
v 11.889966 0.000000 -1.129176
v 11.889966 0.000000 -1.168759
v 11.889966 0.000000 -1.208342
v 11.889966 0.000000 -1.247925
v 11.889966 0.000000 -1.287508
v 11.889966 0.000000 -1.327091
v 11.889966 0.000000 -1.366673
v 11.889966 0.000000 -1.406257
v 11.889966 0.000000 -1.445839
v 11.889966 0.000000 -1.485422
v 11.934410 0.000000 -0.891679
v 11.934410 0.000000 -0.931262
v 11.934410 0.000000 -0.970845
v 11.934410 0.000000 -1.010428
v 11.934410 0.000000 -1.050011
v 11.934410 0.000000 -1.089594
v 11.934410 0.000000 -1.129176
v 11.934410 0.000000 -1.168759
v 11.934410 0.000000 -1.208342
v 11.934410 0.000000 -1.247925
v 11.934410 0.000000 -1.287508
v 11.934410 0.000000 -1.327091
v 11.934410 0.000000 -1.366673
v 11.934410 0.000000 -1.406257
v 11.934410 0.000000 -1.445839
v 11.934410 0.000000 -1.485422
v 11.978855 0.000000 -0.891679
v 11.978855 0.000000 -0.931262
v 11.978855 0.000000 -0.970845
v 11.978855 0.000000 -1.010428
v 11.978855 0.000000 -1.050011
v 11.978855 0.000000 -1.089594
v 11.978855 0.000000 -1.129176
v 11.978855 0.000000 -1.168759
v 11.978855 0.000000 -1.208342
v 11.978855 0.000000 -1.247925
v 11.978855 0.000000 -1.287508
v 11.978855 0.000000 -1.327091
v 11.978855 0.000000 -1.366673
v 11.978855 0.000000 -1.406257
v 11.978855 0.000000 -1.445839
v 11.978855 0.000000 -1.485422
v 12.023299 0.000000 -0.891679
v 12.023299 0.000000 -0.931262
v 12.023299 0.000000 -0.970845
v 12.023299 0.000000 -1.010428
v 12.023299 0.000000 -1.050011
v 12.023299 0.000000 -1.089594
v 12.023299 0.000000 -1.129176
v 12.023299 0.000000 -1.168759
v 12.023299 0.000000 -1.208342
v 12.023299 0.000000 -1.247925
v 12.023299 0.000000 -1.287508
v 12.023299 0.000000 -1.327091
v 12.023299 0.000000 -1.366673
v 12.023299 0.000000 -1.406257
v 12.023299 0.000000 -1.445839
v 12.023299 0.000000 -1.485422
v 12.067744 0.000000 -0.891679
v 12.067744 0.000000 -0.931262
v 12.067744 0.000000 -0.970845
v 12.067744 0.000000 -1.010428
v 12.067744 0.000000 -1.050011
v 12.067744 0.000000 -1.089594
v 12.067744 0.000000 -1.129176
v 12.067744 0.000000 -1.168759
v 12.067744 0.000000 -1.208342
v 12.067744 0.000000 -1.247925
v 12.067744 0.000000 -1.287508
v 12.067744 0.000000 -1.327091
v 12.067744 0.000000 -1.366673
v 12.067744 0.000000 -1.406257
v 12.067744 0.000000 -1.445839
v 12.067744 0.000000 -1.485422
v 12.112188 0.000000 -0.891679
v 12.112188 0.000000 -0.931262
v 12.112188 0.000000 -0.970845
v 12.112188 0.000000 -1.010428
v 12.112188 0.000000 -1.050011
v 12.112188 0.000000 -1.089594
v 12.112188 0.000000 -1.129176
v 12.112188 0.000000 -1.168759
v 12.112188 0.000000 -1.208342
v 12.112188 0.000000 -1.247925
v 12.112188 0.000000 -1.287508
v 12.112188 0.000000 -1.327091
v 12.112188 0.000000 -1.366673
v 12.112188 0.000000 -1.406257
v 12.112188 0.000000 -1.445839
v 12.112188 0.000000 -1.485422
v 12.156632 0.000000 -0.891679
v 12.156632 0.000000 -0.931262
v 12.156632 0.000000 -0.970845
v 12.156632 0.000000 -1.010428
v 12.156632 0.000000 -1.050011
v 12.156632 0.000000 -1.089594
v 12.156632 0.000000 -1.129176
v 12.156632 0.000000 -1.168759
v 12.156632 0.000000 -1.208342
v 12.156632 0.000000 -1.247925
v 12.156632 0.000000 -1.287508
v 12.156632 0.000000 -1.327091
v 12.156632 0.000000 -1.366673
v 12.156632 0.000000 -1.406257
v 12.156632 0.000000 -1.445839
v 12.156632 0.000000 -1.485422
v 12.201077 0.000000 -0.891679
v 12.201077 0.000000 -0.931262
v 12.201077 0.000000 -0.970845
v 12.201077 0.000000 -1.010428
v 12.201077 0.000000 -1.050011
v 12.201077 0.000000 -1.089594
v 12.201077 0.000000 -1.129176
v 12.201077 0.000000 -1.168759
v 12.201077 0.000000 -1.208342
v 12.201077 0.000000 -1.247925
v 12.201077 0.000000 -1.287508
v 12.201077 0.000000 -1.327091
v 12.201077 0.000000 -1.366673
v 12.201077 0.000000 -1.406257
v 12.201077 0.000000 -1.445839
v 12.201077 0.000000 -1.485422
v 12.245522 0.000000 -0.891679
v 12.245522 0.000000 -0.931262
v 12.245522 0.000000 -0.970845
v 12.245522 0.000000 -1.010428
v 12.245522 0.000000 -1.050011
v 12.245522 0.000000 -1.089594
v 12.245522 0.000000 -1.129176
v 12.245522 0.000000 -1.168759
v 12.245522 0.000000 -1.208342
v 12.245522 0.000000 -1.247925
v 12.245522 0.000000 -1.287508
v 12.245522 0.000000 -1.327091
v 12.245522 0.000000 -1.366673
v 12.245522 0.000000 -1.406257
v 12.245522 0.000000 -1.445839
v 12.245522 0.000000 -1.485422
v 12.289966 0.000000 -0.891679
v 12.289966 0.000000 -0.931262
v 12.289966 0.000000 -0.970845
v 12.289966 0.000000 -1.010428
v 12.289966 0.000000 -1.050011
v 12.289966 0.000000 -1.089594
v 12.289966 0.000000 -1.129176
v 12.289966 0.000000 -1.168759
v 12.289966 0.000000 -1.208342
v 12.289966 0.000000 -1.247925
v 12.289966 0.000000 -1.287508
v 12.289966 0.000000 -1.327091
v 12.289966 0.000000 -1.366673
v 12.289966 0.000000 -1.406257
v 12.289966 0.000000 -1.445839
v 12.289967 0.000000 -1.485422
v 12.334411 0.000000 -0.891679
v 12.334411 0.000000 -0.931262
v 12.334411 0.000000 -0.970845
v 12.334411 0.000000 -1.010428
v 12.334411 0.000000 -1.050011
v 12.334411 0.000000 -1.089594
v 12.334411 0.000000 -1.129176
v 12.334411 0.000000 -1.168759
v 12.334411 0.000000 -1.208342
v 12.334411 0.000000 -1.247925
v 12.334411 0.000000 -1.287508
v 12.334411 0.000000 -1.327091
v 12.334411 0.000000 -1.366673
v 12.334411 0.000000 -1.406257
v 12.334411 0.000000 -1.445839
v 12.334411 0.000000 -1.485422
v 12.378855 0.000000 -0.891679
v 12.378855 0.000000 -0.931262
v 12.378855 0.000000 -0.970845
v 12.378855 0.000000 -1.010428
v 12.378855 0.000000 -1.050011
v 12.378855 0.000000 -1.089594
v 12.378855 0.000000 -1.129176
v 12.378855 0.000000 -1.168759
v 12.378855 0.000000 -1.208342
v 12.378855 0.000000 -1.247925
v 12.378855 0.000000 -1.287508
v 12.378855 0.000000 -1.327091
v 12.378855 0.000000 -1.366673
v 12.378855 0.000000 -1.406257
v 12.378855 0.000000 -1.445839
v 12.378855 0.000000 -1.485422
v 12.423300 0.000000 -0.891679
v 12.423300 0.000000 -0.931262
v 12.423300 0.000000 -0.970845
v 12.423300 0.000000 -1.010428
v 12.423300 0.000000 -1.050011
v 12.423300 0.000000 -1.089594
v 12.423300 0.000000 -1.129176
v 12.423300 0.000000 -1.168759
v 12.423300 0.000000 -1.208342
v 12.423300 0.000000 -1.247925
v 12.423300 0.000000 -1.287508
v 12.423300 0.000000 -1.327091
v 12.423300 0.000000 -1.366673
v 12.423300 0.000000 -1.406257
v 12.423300 0.000000 -1.445839
v 12.423300 0.000000 -1.485422
v 10.365434 0.000000 -0.852097
v 10.365434 0.000000 -1.525005
v 10.365434 0.000000 -1.485422
v 10.365434 0.000000 -1.445839
v 10.365433 0.000000 -1.406257
v 10.365434 0.000000 -1.366673
v 10.365434 0.000000 -1.327091
v 10.365434 0.000000 -1.287508
v 10.365434 0.000000 -1.247925
v 10.365434 0.000000 -1.208342
v 10.365434 0.000000 -1.168759
v 10.365434 0.000000 -1.129176
v 10.365434 0.000000 -1.089594
v 10.365434 0.000000 -1.050011
v 10.365434 0.000000 -1.010428
v 10.365433 0.000000 -0.970845
v 10.365434 0.000000 -0.931262
v 10.365434 0.000000 -0.891679
v 12.584007 0.000000 -0.852097
v 12.584007 0.000000 -1.525005
v 12.584007 0.000000 -0.891679
v 12.584007 0.000000 -0.931262
v 12.584007 0.000000 -0.970845
v 12.584007 0.000000 -1.010428
v 12.584007 0.000000 -1.050011
v 12.584007 0.000000 -1.089594
v 12.584007 0.000000 -1.129176
v 12.584007 0.000000 -1.168759
v 12.584007 0.000000 -1.208342
v 12.584007 0.000000 -1.247925
v 12.584007 0.000000 -1.287508
v 12.584007 0.000000 -1.327091
v 12.584007 0.000000 -1.366673
v 12.584007 0.000000 -1.406257
v 12.584007 0.000000 -1.445839
v 12.584007 0.000000 -1.485422
vn -0.0000 1.0000 -0.0000
vt 0.977778 0.941176
vt 1.000000 0.941176
vt 1.000000 1.000000
vt 0.977778 1.000000
vt 0.000000 0.941176
vt 0.022222 0.941176
vt 0.022222 1.000000
vt 0.000000 1.000000
vt 0.044444 0.941176
vt 0.044444 1.000000
vt 0.066667 0.941176
vt 0.066667 1.000000
vt 0.088889 0.941176
vt 0.088889 1.000000
vt 0.111111 0.941176
vt 0.111111 1.000000
vt 0.133333 0.941176
vt 0.133333 1.000000
vt 0.155556 0.941176
vt 0.155556 1.000000
vt 0.177778 0.941176
vt 0.177778 1.000000
vt 0.200000 0.941176
vt 0.200000 1.000000
vt 0.222222 0.941176
vt 0.222222 1.000000
vt 0.244444 0.941176
vt 0.244444 1.000000
vt 0.266667 0.941177
vt 0.266667 1.000000
vt 0.288889 0.941177
vt 0.288889 1.000000
vt 0.311111 0.941177
vt 0.311111 1.000000
vt 0.333333 0.941177
vt 0.333333 1.000000
vt 0.355556 0.941177
vt 0.355556 1.000000
vt 0.377778 0.941176
vt 0.377778 1.000000
vt 0.400000 0.941176
vt 0.400000 1.000000
vt 0.422222 0.941176
vt 0.422222 1.000000
vt 0.444444 0.941176
vt 0.444444 1.000000
vt 0.466667 0.941176
vt 0.466667 1.000000
vt 0.488889 0.941177
vt 0.488889 1.000000
vt 0.511111 0.941177
vt 0.511111 1.000000
vt 0.533333 0.941176
vt 0.533333 1.000000
vt 0.555556 0.941176
vt 0.555556 1.000000
vt 0.577778 0.941177
vt 0.577778 1.000000
vt 0.600000 0.941177
vt 0.600000 1.000000
vt 0.622222 0.941177
vt 0.622222 1.000000
vt 0.644445 0.941177
vt 0.644444 1.000000
vt 0.666667 0.941177
vt 0.666667 1.000000
vt 0.688889 0.941177
vt 0.688889 1.000000
vt 0.711111 0.941177
vt 0.711111 1.000000
vt 0.733333 0.941177
vt 0.733333 1.000000
vt 0.755556 0.941177
vt 0.755556 1.000000
vt 0.777778 0.941177
vt 0.777778 1.000000
vt 0.800000 0.941177
vt 0.800000 1.000000
vt 0.822222 0.941177
vt 0.822222 1.000000
vt 0.844445 0.941177
vt 0.844445 1.000000
vt 0.866667 0.941177
vt 0.866667 1.000000
vt 0.888889 0.941177
vt 0.888889 1.000000
vt 0.911111 0.941177
vt 0.911111 1.000000
vt 0.933333 0.941177
vt 0.933333 1.000000
vt 0.955556 0.941177
vt 0.955556 1.000000
vt 0.955555 0.000000
vt 0.977778 0.000000
vt 0.977778 0.058824
vt 0.955555 0.058824
vt 0.977778 0.117647
vt 0.955555 0.117647
vt 0.977778 0.176471
vt 0.955555 0.176471
vt 0.977778 0.235294
vt 0.955555 0.235294
vt 0.977778 0.294118
vt 0.955555 0.294118
vt 0.977778 0.352941
vt 0.955556 0.352941
vt 0.977778 0.411765
vt 0.955556 0.411765
vt 0.977778 0.470588
vt 0.955555 0.470588
vt 0.977778 0.529412
vt 0.955556 0.529412
vt 0.977778 0.588235
vt 0.955556 0.588235
vt 0.977778 0.647059
vt 0.955556 0.647059
vt 0.977778 0.705882
vt 0.955556 0.705882
vt 0.977778 0.764706
vt 0.955556 0.764706
vt 0.977778 0.823529
vt 0.955556 0.823529
vt 0.977778 0.882353
vt 0.955556 0.882353
vt 0.933333 0.000000
vt 0.933333 0.058824
vt 0.933333 0.117647
vt 0.933333 0.176471
vt 0.933333 0.235294
vt 0.933333 0.294118
vt 0.933333 0.352941
vt 0.933333 0.411765
vt 0.933333 0.470588
vt 0.933333 0.529412
vt 0.933333 0.588235
vt 0.933333 0.647059
vt 0.933333 0.705882
vt 0.933333 0.764706
vt 0.933333 0.823529
vt 0.933333 0.882353
vt 0.911111 0.000000
vt 0.911111 0.058824
vt 0.911111 0.117647
vt 0.911111 0.176471
vt 0.911111 0.235294
vt 0.911111 0.294118
vt 0.911111 0.352941
vt 0.911111 0.411765
vt 0.911111 0.470588
vt 0.911111 0.529412
vt 0.911111 0.588235
vt 0.911111 0.647059
vt 0.911111 0.705882
vt 0.911111 0.764706
vt 0.911111 0.823529
vt 0.911111 0.882353
vt 0.888889 0.000000
vt 0.888889 0.058824
vt 0.888889 0.117647
vt 0.888889 0.176471
vt 0.888889 0.235294
vt 0.888889 0.294118
vt 0.888889 0.352941
vt 0.888889 0.411765
vt 0.888889 0.470588
vt 0.888889 0.529412
vt 0.888889 0.588235
vt 0.888889 0.647059
vt 0.888889 0.705882
vt 0.888889 0.764706
vt 0.888889 0.823529
vt 0.888889 0.882353
vt 0.866667 0.000000
vt 0.866667 0.058824
vt 0.866667 0.117647
vt 0.866667 0.176471
vt 0.866667 0.235294
vt 0.866667 0.294118
vt 0.866667 0.352941
vt 0.866667 0.411765
vt 0.866666 0.470588
vt 0.866667 0.529412
vt 0.866667 0.588235
vt 0.866667 0.647059
vt 0.866667 0.705882
vt 0.866667 0.764706
vt 0.866667 0.823529
vt 0.866667 0.882353
vt 0.844444 0.000000
vt 0.844444 0.058824
vt 0.844444 0.117647
vt 0.844444 0.176471
vt 0.844444 0.235294
vt 0.844444 0.294118
vt 0.844444 0.352941
vt 0.844444 0.411765
vt 0.844444 0.470588
vt 0.844444 0.529412
vt 0.844445 0.588235
vt 0.844445 0.647059
vt 0.844445 0.705882
vt 0.844445 0.764706
vt 0.844445 0.823529
vt 0.844445 0.882353
vt 0.822222 0.000000
vt 0.822222 0.058824
vt 0.822222 0.117647
vt 0.822222 0.176471
vt 0.822222 0.235294
vt 0.822222 0.294118
vt 0.822222 0.352941
vt 0.822222 0.411765
vt 0.822222 0.470588
vt 0.822222 0.529412
vt 0.822222 0.588235
vt 0.822222 0.647059
vt 0.822222 0.705882
vt 0.822222 0.764706
vt 0.822222 0.823529
vt 0.822222 0.882353
vt 0.800000 0.000000
vt 0.800000 0.058824
vt 0.800000 0.117647
vt 0.800000 0.176471
vt 0.800000 0.235294
vt 0.800000 0.294118
vt 0.800000 0.352941
vt 0.800000 0.411765
vt 0.800000 0.470588
vt 0.800000 0.529412
vt 0.800000 0.588235
vt 0.800000 0.647059
vt 0.800000 0.705882
vt 0.800000 0.764706
vt 0.800000 0.823529
vt 0.800000 0.882353
vt 0.777778 0.000000
vt 0.777778 0.058824
vt 0.777778 0.117647
vt 0.777778 0.176471
vt 0.777778 0.235294
vt 0.777778 0.294118
vt 0.777778 0.352941
vt 0.777778 0.411765
vt 0.777778 0.470588
vt 0.777778 0.529412
vt 0.777778 0.588235
vt 0.777778 0.647059
vt 0.777778 0.705882
vt 0.777778 0.764706
vt 0.777778 0.823529
vt 0.777778 0.882353
vt 0.755556 0.000000
vt 0.755556 0.058824
vt 0.755556 0.117647
vt 0.755556 0.176471
vt 0.755556 0.235294
vt 0.755556 0.294118
vt 0.755556 0.352941
vt 0.755556 0.411765
vt 0.755556 0.470588
vt 0.755556 0.529412
vt 0.755556 0.588235
vt 0.755556 0.647059
vt 0.755556 0.705882
vt 0.755556 0.764706
vt 0.755556 0.823529
vt 0.755556 0.882353
vt 0.733333 0.000000
vt 0.733333 0.058824
vt 0.733333 0.117647
vt 0.733333 0.176471
vt 0.733333 0.235294
vt 0.733333 0.294118
vt 0.733333 0.352941
vt 0.733333 0.411765
vt 0.733333 0.470588
vt 0.733333 0.529412
vt 0.733333 0.588235
vt 0.733333 0.647059
vt 0.733333 0.705882
vt 0.733333 0.764706
vt 0.733333 0.823529
vt 0.733333 0.882353
vt 0.711111 0.000000
vt 0.711111 0.058824
vt 0.711111 0.117647
vt 0.711111 0.176471
vt 0.711111 0.235294
vt 0.711111 0.294118
vt 0.711111 0.352941
vt 0.711111 0.411765
vt 0.711111 0.470588
vt 0.711111 0.529412
vt 0.711111 0.588235
vt 0.711111 0.647059
vt 0.711111 0.705882
vt 0.711111 0.764706
vt 0.711111 0.823529
vt 0.711111 0.882353
vt 0.688889 0.000000
vt 0.688889 0.058824
vt 0.688889 0.117647
vt 0.688889 0.176471
vt 0.688889 0.235294
vt 0.688889 0.294118
vt 0.688889 0.352941
vt 0.688889 0.411765
vt 0.688889 0.470588
vt 0.688889 0.529412
vt 0.688889 0.588235
vt 0.688889 0.647059
vt 0.688889 0.705882
vt 0.688889 0.764706
vt 0.688889 0.823529
vt 0.688889 0.882353
vt 0.666667 0.000000
vt 0.666667 0.058824
vt 0.666667 0.117647
vt 0.666667 0.176471
vt 0.666667 0.235294
vt 0.666667 0.294118
vt 0.666667 0.352941
vt 0.666667 0.411765
vt 0.666667 0.470588
vt 0.666667 0.529412
vt 0.666667 0.588235
vt 0.666667 0.647059
vt 0.666667 0.705882
vt 0.666667 0.764706
vt 0.666667 0.823529
vt 0.666667 0.882353
vt 0.644444 0.000000
vt 0.644444 0.058824
vt 0.644444 0.117647
vt 0.644444 0.176471
vt 0.644444 0.235294
vt 0.644444 0.294118
vt 0.644444 0.352941
vt 0.644444 0.411765
vt 0.644444 0.470588
vt 0.644444 0.529412
vt 0.644444 0.588235
vt 0.644444 0.647059
vt 0.644444 0.705882
vt 0.644444 0.764706
vt 0.644445 0.823529
vt 0.644444 0.882353
vt 0.622222 0.000000
vt 0.622222 0.058824
vt 0.622222 0.117647
vt 0.622222 0.176471
vt 0.622222 0.235294
vt 0.622222 0.294118
vt 0.622222 0.352941
vt 0.622222 0.411765
vt 0.622222 0.470588
vt 0.622222 0.529412
vt 0.622222 0.588235
vt 0.622222 0.647059
vt 0.622222 0.705882
vt 0.622222 0.764706
vt 0.622222 0.823529
vt 0.622222 0.882353
vt 0.600000 0.000000
vt 0.600000 0.058824
vt 0.600000 0.117647
vt 0.600000 0.176471
vt 0.600000 0.235294
vt 0.600000 0.294118
vt 0.600000 0.352941
vt 0.600000 0.411765
vt 0.600000 0.470588
vt 0.600000 0.529412
vt 0.600000 0.588235
vt 0.600000 0.647059
vt 0.600000 0.705882
vt 0.600000 0.764706
vt 0.600000 0.823529
vt 0.600000 0.882353
vt 0.577778 0.000000
vt 0.577778 0.058824
vt 0.577778 0.117647
vt 0.577778 0.176471
vt 0.577778 0.235294
vt 0.577778 0.294118
vt 0.577778 0.352941
vt 0.577778 0.411765
vt 0.577778 0.470588
vt 0.577778 0.529412
vt 0.577778 0.588235
vt 0.577778 0.647059
vt 0.577778 0.705882
vt 0.577778 0.764706
vt 0.577778 0.823529
vt 0.577778 0.882353
vt 0.555556 0.000000
vt 0.555556 0.058824
vt 0.555555 0.117647
vt 0.555556 0.176471
vt 0.555556 0.235294
vt 0.555556 0.294118
vt 0.555555 0.352941
vt 0.555556 0.411765
vt 0.555556 0.470588
vt 0.555555 0.529412
vt 0.555555 0.588235
vt 0.555556 0.647059
vt 0.555556 0.705882
vt 0.555556 0.764706
vt 0.555555 0.823529
vt 0.555556 0.882353
vt 0.533333 0.000000
vt 0.533333 0.058824
vt 0.533333 0.117647
vt 0.533333 0.176471
vt 0.533333 0.235294
vt 0.533333 0.294118
vt 0.533333 0.352941
vt 0.533333 0.411765
vt 0.533333 0.470588
vt 0.533333 0.529412
vt 0.533333 0.588235
vt 0.533333 0.647059
vt 0.533333 0.705882
vt 0.533333 0.764706
vt 0.533333 0.823529
vt 0.533333 0.882353
vt 0.511111 0.000000
vt 0.511111 0.058824
vt 0.511111 0.117647
vt 0.511111 0.176471
vt 0.511111 0.235294
vt 0.511111 0.294118
vt 0.511111 0.352941
vt 0.511111 0.411765
vt 0.511111 0.470588
vt 0.511111 0.529412
vt 0.511111 0.588235
vt 0.511111 0.647059
vt 0.511111 0.705882
vt 0.511111 0.764706
vt 0.511111 0.823529
vt 0.511111 0.882353
vt 0.488889 0.000000
vt 0.488889 0.058824
vt 0.488889 0.117647
vt 0.488889 0.176471
vt 0.488889 0.235294
vt 0.488889 0.294118
vt 0.488889 0.352941
vt 0.488889 0.411765
vt 0.488889 0.470588
vt 0.488889 0.529412
vt 0.488889 0.588235
vt 0.488889 0.647059
vt 0.488889 0.705882
vt 0.488889 0.764706
vt 0.488889 0.823529
vt 0.488889 0.882353
vt 0.466667 0.000000
vt 0.466667 0.058824
vt 0.466667 0.117647
vt 0.466667 0.176471
vt 0.466667 0.235294
vt 0.466667 0.294118
vt 0.466667 0.352941
vt 0.466667 0.411765
vt 0.466667 0.470588
vt 0.466667 0.529412
vt 0.466667 0.588235
vt 0.466667 0.647059
vt 0.466667 0.705882
vt 0.466667 0.764706
vt 0.466667 0.823529
vt 0.466667 0.882353
vt 0.444444 0.000000
vt 0.444444 0.058824
vt 0.444444 0.117647
vt 0.444444 0.176471
vt 0.444444 0.235294
vt 0.444444 0.294118
vt 0.444444 0.352941
vt 0.444444 0.411765
vt 0.444444 0.470588
vt 0.444444 0.529412
vt 0.444444 0.588235
vt 0.444444 0.647059
vt 0.444444 0.705882
vt 0.444444 0.764706
vt 0.444444 0.823529
vt 0.444444 0.882353
vt 0.422222 0.000000
vt 0.422222 0.058824
vt 0.422222 0.117647
vt 0.422222 0.176471
vt 0.422222 0.235294
vt 0.422222 0.294118
vt 0.422222 0.352941
vt 0.422222 0.411765
vt 0.422222 0.470588
vt 0.422222 0.529412
vt 0.422222 0.588235
vt 0.422222 0.647059
vt 0.422222 0.705882
vt 0.422222 0.764706
vt 0.422222 0.823529
vt 0.422222 0.882353
vt 0.400000 0.000000
vt 0.400000 0.058824
vt 0.400000 0.117647
vt 0.400000 0.176471
vt 0.400000 0.235294
vt 0.400000 0.294118
vt 0.400000 0.352941
vt 0.400000 0.411765
vt 0.400000 0.470588
vt 0.400000 0.529412
vt 0.400000 0.588235
vt 0.400000 0.647059
vt 0.400000 0.705882
vt 0.400000 0.764706
vt 0.400000 0.823529
vt 0.400000 0.882353
vt 0.377778 0.000000
vt 0.377778 0.058824
vt 0.377778 0.117647
vt 0.377778 0.176471
vt 0.377778 0.235294
vt 0.377778 0.294118
vt 0.377778 0.352941
vt 0.377778 0.411765
vt 0.377778 0.470588
vt 0.377778 0.529412
vt 0.377778 0.588235
vt 0.377778 0.647059
vt 0.377778 0.705882
vt 0.377778 0.764706
vt 0.377778 0.823529
vt 0.377778 0.882353
vt 0.355556 0.000000
vt 0.355556 0.058824
vt 0.355556 0.117647
vt 0.355556 0.176471
vt 0.355556 0.235294
vt 0.355556 0.294118
vt 0.355556 0.352941
vt 0.355556 0.411765
vt 0.355556 0.470588
vt 0.355556 0.529412
vt 0.355556 0.588235
vt 0.355556 0.647059
vt 0.355556 0.705882
vt 0.355556 0.764706
vt 0.355556 0.823529
vt 0.355556 0.882353
vt 0.333333 0.000000
vt 0.333333 0.058824
vt 0.333333 0.117647
vt 0.333333 0.176471
vt 0.333333 0.235294
vt 0.333333 0.294118
vt 0.333333 0.352941
vt 0.333333 0.411765
vt 0.333333 0.470588
vt 0.333333 0.529412
vt 0.333333 0.588235
vt 0.333333 0.647059
vt 0.333333 0.705882
vt 0.333333 0.764706
vt 0.333333 0.823529
vt 0.333333 0.882353
vt 0.311111 0.000000
vt 0.311111 0.058824
vt 0.311111 0.117647
vt 0.311111 0.176471
vt 0.311111 0.235294
vt 0.311111 0.294118
vt 0.311111 0.352941
vt 0.311111 0.411765
vt 0.311111 0.470588
vt 0.311111 0.529412
vt 0.311111 0.588235
vt 0.311111 0.647059
vt 0.311111 0.705882
vt 0.311111 0.764706
vt 0.311111 0.823529
vt 0.311111 0.882353
vt 0.288889 0.000000
vt 0.288889 0.058824
vt 0.288889 0.117647
vt 0.288889 0.176471
vt 0.288889 0.235294
vt 0.288889 0.294118
vt 0.288889 0.352941
vt 0.288889 0.411765
vt 0.288889 0.470588
vt 0.288889 0.529412
vt 0.288889 0.588235
vt 0.288889 0.647059
vt 0.288889 0.705882
vt 0.288889 0.764706
vt 0.288889 0.823529
vt 0.288889 0.882353
vt 0.266667 0.000000
vt 0.266667 0.058824
vt 0.266667 0.117647
vt 0.266667 0.176471
vt 0.266667 0.235294
vt 0.266667 0.294118
vt 0.266667 0.352941
vt 0.266667 0.411765
vt 0.266667 0.470588
vt 0.266667 0.529412
vt 0.266667 0.588235
vt 0.266667 0.647059
vt 0.266667 0.705882
vt 0.266667 0.764706
vt 0.266667 0.823529
vt 0.266667 0.882353
vt 0.244444 0.000000
vt 0.244444 0.058824
vt 0.244444 0.117647
vt 0.244444 0.176471
vt 0.244444 0.235294
vt 0.244444 0.294118
vt 0.244444 0.352941
vt 0.244444 0.411765
vt 0.244444 0.470588
vt 0.244444 0.529412
vt 0.244444 0.588235
vt 0.244444 0.647059
vt 0.244444 0.705882
vt 0.244444 0.764706
vt 0.244444 0.823529
vt 0.244444 0.882353
vt 0.222222 0.000000
vt 0.222222 0.058824
vt 0.222222 0.117647
vt 0.222222 0.176471
vt 0.222222 0.235294
vt 0.222222 0.294118
vt 0.222222 0.352941
vt 0.222222 0.411765
vt 0.222222 0.470588
vt 0.222222 0.529412
vt 0.222222 0.588235
vt 0.222222 0.647059
vt 0.222222 0.705882
vt 0.222222 0.764706
vt 0.222222 0.823529
vt 0.222222 0.882353
vt 0.200000 0.000000
vt 0.200000 0.058824
vt 0.200000 0.117647
vt 0.200000 0.176471
vt 0.200000 0.235294
vt 0.200000 0.294118
vt 0.200000 0.352941
vt 0.200000 0.411765
vt 0.200000 0.470588
vt 0.200000 0.529412
vt 0.200000 0.588235
vt 0.200000 0.647059
vt 0.200000 0.705882
vt 0.200000 0.764706
vt 0.200000 0.823529
vt 0.200000 0.882353
vt 0.177778 0.000000
vt 0.177778 0.058824
vt 0.177778 0.117647
vt 0.177778 0.176471
vt 0.177778 0.235294
vt 0.177778 0.294118
vt 0.177778 0.352941
vt 0.177778 0.411765
vt 0.177778 0.470588
vt 0.177778 0.529412
vt 0.177778 0.588235
vt 0.177778 0.647059
vt 0.177778 0.705882
vt 0.177778 0.764706
vt 0.177778 0.823529
vt 0.177778 0.882353
vt 0.155556 0.000000
vt 0.155556 0.058824
vt 0.155556 0.117647
vt 0.155556 0.176471
vt 0.155556 0.235294
vt 0.155556 0.294118
vt 0.155556 0.352941
vt 0.155556 0.411765
vt 0.155556 0.470588
vt 0.155556 0.529412
vt 0.155556 0.588235
vt 0.155556 0.647059
vt 0.155556 0.705882
vt 0.155556 0.764706
vt 0.155556 0.823529
vt 0.155556 0.882353
vt 0.133333 0.000000
vt 0.133333 0.058824
vt 0.133333 0.117647
vt 0.133333 0.176471
vt 0.133333 0.235294
vt 0.133333 0.294118
vt 0.133333 0.352941
vt 0.133333 0.411765
vt 0.133333 0.470588
vt 0.133333 0.529412
vt 0.133333 0.588235
vt 0.133333 0.647059
vt 0.133333 0.705882
vt 0.133333 0.764706
vt 0.133333 0.823529
vt 0.133333 0.882353
vt 0.111111 0.000000
vt 0.111111 0.058824
vt 0.111111 0.117647
vt 0.111111 0.176471
vt 0.111111 0.235294
vt 0.111111 0.294118
vt 0.111111 0.352941
vt 0.111111 0.411765
vt 0.111111 0.470588
vt 0.111111 0.529412
vt 0.111111 0.588235
vt 0.111111 0.647059
vt 0.111111 0.705882
vt 0.111111 0.764706
vt 0.111111 0.823529
vt 0.111111 0.882353
vt 0.088889 0.000000
vt 0.088889 0.058824
vt 0.088889 0.117647
vt 0.088889 0.176471
vt 0.088889 0.235294
vt 0.088889 0.294118
vt 0.088889 0.352941
vt 0.088889 0.411765
vt 0.088889 0.470588
vt 0.088889 0.529412
vt 0.088889 0.588235
vt 0.088889 0.647059
vt 0.088889 0.705882
vt 0.088889 0.764706
vt 0.088889 0.823529
vt 0.088889 0.882353
vt 0.066667 0.000000
vt 0.066667 0.058824
vt 0.066667 0.117647
vt 0.066667 0.176471
vt 0.066667 0.235294
vt 0.066667 0.294118
vt 0.066667 0.352941
vt 0.066667 0.411765
vt 0.066667 0.470588
vt 0.066667 0.529412
vt 0.066667 0.588235
vt 0.066667 0.647059
vt 0.066667 0.705882
vt 0.066667 0.764706
vt 0.066667 0.823529
vt 0.066667 0.882353
vt 0.044444 0.000000
vt 0.044444 0.058824
vt 0.044444 0.117647
vt 0.044444 0.176471
vt 0.044444 0.235294
vt 0.044444 0.294118
vt 0.044444 0.352941
vt 0.044444 0.411765
vt 0.044444 0.470588
vt 0.044444 0.529412
vt 0.044444 0.588235
vt 0.044444 0.647059
vt 0.044444 0.705882
vt 0.044444 0.764706
vt 0.044444 0.823529
vt 0.044444 0.882353
vt 0.022222 0.000000
vt 0.022222 0.058824
vt 0.022222 0.117647
vt 0.022222 0.176471
vt 0.022222 0.235294
vt 0.022222 0.294118
vt 0.022222 0.352941
vt 0.022222 0.411765
vt 0.022222 0.470588
vt 0.022222 0.529412
vt 0.022222 0.588235
vt 0.022222 0.647059
vt 0.022222 0.705882
vt 0.022222 0.764706
vt 0.022222 0.823529
vt 0.022222 0.882353
vt 0.000000 0.000000
vt 0.000000 0.058824
vt 0.000000 0.117647
vt 0.000000 0.176471
vt 0.000000 0.235294
vt 0.000000 0.294118
vt 0.000000 0.352941
vt 0.000000 0.411765
vt 0.000000 0.470588
vt 0.000000 0.529412
vt 0.000000 0.588235
vt 0.000000 0.647059
vt 0.000000 0.705882
vt 0.000000 0.764706
vt 0.000000 0.823529
vt 0.000000 0.882353
vt 1.000000 0.000000
vt 1.000000 0.058824
vt 1.000000 0.117647
vt 1.000000 0.176471
vt 1.000000 0.235294
vt 1.000000 0.294118
vt 1.000000 0.352941
vt 1.000000 0.411765
vt 1.000000 0.470588
vt 1.000000 0.529412
vt 1.000000 0.588235
vt 1.000000 0.647059
vt 1.000000 0.705882
vt 1.000000 0.764706
vt 1.000000 0.823529
vt 1.000000 0.882353
s 1
usemtl Sarg_Fenster_dunkelblau
f 828/1/1 124/2/1 4/3/1 49/4/1
f 93/5/1 140/6/1 92/7/1 3/8/1
f 140/6/1 156/9/1 91/10/1 92/7/1
f 156/9/1 172/11/1 90/12/1 91/10/1
f 172/11/1 188/13/1 89/14/1 90/12/1
f 188/13/1 204/15/1 88/16/1 89/14/1
f 204/15/1 220/17/1 87/18/1 88/16/1
f 220/17/1 236/19/1 86/20/1 87/18/1
f 236/19/1 252/21/1 85/22/1 86/20/1
f 252/21/1 268/23/1 84/24/1 85/22/1
f 268/23/1 284/25/1 83/26/1 84/24/1
f 284/25/1 300/27/1 82/28/1 83/26/1
f 300/27/1 316/29/1 81/30/1 82/28/1
f 316/29/1 332/31/1 80/32/1 81/30/1
f 332/31/1 348/33/1 79/34/1 80/32/1
f 348/33/1 364/35/1 78/36/1 79/34/1
f 364/35/1 380/37/1 77/38/1 78/36/1
f 380/37/1 396/39/1 76/40/1 77/38/1
f 396/39/1 412/41/1 75/42/1 76/40/1
f 412/41/1 428/43/1 74/44/1 75/42/1
f 428/43/1 444/45/1 73/46/1 74/44/1
f 444/45/1 460/47/1 72/48/1 73/46/1
f 460/47/1 476/49/1 71/50/1 72/48/1
f 476/49/1 492/51/1 70/52/1 71/50/1
f 492/51/1 508/53/1 69/54/1 70/52/1
f 508/53/1 524/55/1 68/56/1 69/54/1
f 524/55/1 540/57/1 67/58/1 68/56/1
f 540/57/1 556/59/1 66/60/1 67/58/1
f 556/59/1 572/61/1 65/62/1 66/60/1
f 572/61/1 588/63/1 64/64/1 65/62/1
f 588/63/1 604/65/1 63/66/1 64/64/1
f 604/65/1 620/67/1 62/68/1 63/66/1
f 620/67/1 636/69/1 61/70/1 62/68/1
f 636/69/1 652/71/1 60/72/1 61/70/1
f 652/71/1 668/73/1 59/74/1 60/72/1
f 668/73/1 684/75/1 58/76/1 59/74/1
f 684/75/1 700/77/1 57/78/1 58/76/1
f 700/77/1 716/79/1 56/80/1 57/78/1
f 716/79/1 732/81/1 55/82/1 56/80/1
f 732/81/1 748/83/1 54/84/1 55/82/1
f 748/83/1 764/85/1 53/86/1 54/84/1
f 764/85/1 780/87/1 52/88/1 53/86/1
f 780/87/1 796/89/1 51/90/1 52/88/1
f 796/89/1 812/91/1 50/92/1 51/90/1
f 812/91/1 828/1/1 49/4/1 50/92/1
f 47/93/1 48/94/1 813/95/1 797/96/1
f 797/96/1 813/95/1 814/97/1 798/98/1
f 798/98/1 814/97/1 815/99/1 799/100/1
f 799/100/1 815/99/1 816/101/1 800/102/1
f 800/102/1 816/101/1 817/103/1 801/104/1
f 801/104/1 817/103/1 818/105/1 802/106/1
f 802/106/1 818/105/1 819/107/1 803/108/1
f 803/108/1 819/107/1 820/109/1 804/110/1
f 805/112/1 821/111/1 822/113/1 806/114/1
f 806/114/1 822/113/1 823/115/1 807/116/1
f 807/116/1 823/115/1 824/117/1 808/118/1
f 808/118/1 824/117/1 825/119/1 809/120/1
f 809/120/1 825/119/1 826/121/1 810/122/1
f 810/122/1 826/121/1 827/123/1 811/124/1
f 811/124/1 827/123/1 828/1/1 812/91/1
f 46/125/1 47/93/1 797/96/1 781/126/1
f 781/126/1 797/96/1 798/98/1 782/127/1
f 782/127/1 798/98/1 799/100/1 783/128/1
f 783/128/1 799/100/1 800/102/1 784/129/1
f 784/129/1 800/102/1 801/104/1 785/130/1
f 785/130/1 801/104/1 802/106/1 786/131/1
f 786/131/1 802/106/1 803/108/1 787/132/1
f 788/133/1 804/110/1 805/112/1 789/134/1
f 790/135/1 806/114/1 807/116/1 791/136/1
f 791/136/1 807/116/1 808/118/1 792/137/1
f 792/137/1 808/118/1 809/120/1 793/138/1
f 793/138/1 809/120/1 810/122/1 794/139/1
f 794/139/1 810/122/1 811/124/1 795/140/1
f 795/140/1 811/124/1 812/91/1 796/89/1
f 45/141/1 46/125/1 781/126/1 765/142/1
f 765/142/1 781/126/1 782/127/1 766/143/1
f 766/143/1 782/127/1 783/128/1 767/144/1
f 767/144/1 783/128/1 784/129/1 768/145/1
f 768/145/1 784/129/1 785/130/1 769/146/1
f 769/146/1 785/130/1 786/131/1 770/147/1
f 771/148/1 787/132/1 788/133/1 772/149/1
f 772/149/1 788/133/1 789/134/1 773/150/1
f 773/150/1 789/134/1 790/135/1 774/151/1
f 775/152/1 791/136/1 792/137/1 776/153/1
f 776/153/1 792/137/1 793/138/1 777/154/1
f 777/154/1 793/138/1 794/139/1 778/155/1
f 778/155/1 794/139/1 795/140/1 779/156/1
f 779/156/1 795/140/1 796/89/1 780/87/1
f 44/157/1 45/141/1 765/142/1 749/158/1
f 749/158/1 765/142/1 766/143/1 750/159/1
f 750/159/1 766/143/1 767/144/1 751/160/1
f 751/160/1 767/144/1 768/145/1 752/161/1
f 752/161/1 768/145/1 769/146/1 753/162/1
f 754/163/1 770/147/1 771/148/1 755/164/1
f 755/164/1 771/148/1 772/149/1 756/165/1
f 756/165/1 772/149/1 773/150/1 757/166/1
f 757/166/1 773/150/1 774/151/1 758/167/1
f 758/167/1 774/151/1 775/152/1 759/168/1
f 760/169/1 776/153/1 777/154/1 761/170/1
f 761/170/1 777/154/1 778/155/1 762/171/1
f 762/171/1 778/155/1 779/156/1 763/172/1
f 763/172/1 779/156/1 780/87/1 764/85/1
f 43/173/1 44/157/1 749/158/1 733/174/1
f 733/174/1 749/158/1 750/159/1 734/175/1
f 734/175/1 750/159/1 751/160/1 735/176/1
f 735/176/1 751/160/1 752/161/1 736/177/1
f 737/178/1 753/162/1 754/163/1 738/179/1
f 738/179/1 754/163/1 755/164/1 739/180/1
f 739/180/1 755/164/1 756/165/1 740/181/1
f 740/181/1 756/165/1 757/166/1 741/182/1
f 741/182/1 757/166/1 758/167/1 742/183/1
f 742/183/1 758/167/1 759/168/1 743/184/1
f 743/184/1 759/168/1 760/169/1 744/185/1
f 745/186/1 761/170/1 762/171/1 746/187/1
f 746/187/1 762/171/1 763/172/1 747/188/1
f 747/188/1 763/172/1 764/85/1 748/83/1
f 42/189/1 43/173/1 733/174/1 717/190/1
f 717/190/1 733/174/1 734/175/1 718/191/1
f 718/191/1 734/175/1 735/176/1 719/192/1
f 720/193/1 736/177/1 737/178/1 721/194/1
f 721/194/1 737/178/1 738/179/1 722/195/1
f 722/195/1 738/179/1 739/180/1 723/196/1
f 723/196/1 739/180/1 740/181/1 724/197/1
f 724/197/1 740/181/1 741/182/1 725/198/1
f 725/198/1 741/182/1 742/183/1 726/199/1
f 726/199/1 742/183/1 743/184/1 727/200/1
f 727/200/1 743/184/1 744/185/1 728/201/1
f 728/201/1 744/185/1 745/186/1 729/202/1
f 730/203/1 746/187/1 747/188/1 731/204/1
f 731/204/1 747/188/1 748/83/1 732/81/1
f 41/205/1 42/189/1 717/190/1 701/206/1
f 701/206/1 717/190/1 718/191/1 702/207/1
f 703/208/1 719/192/1 720/193/1 704/209/1
f 704/209/1 720/193/1 721/194/1 705/210/1
f 705/210/1 721/194/1 722/195/1 706/211/1
f 706/211/1 722/195/1 723/196/1 707/212/1
f 707/212/1 723/196/1 724/197/1 708/213/1
f 708/213/1 724/197/1 725/198/1 709/214/1
f 709/214/1 725/198/1 726/199/1 710/215/1
f 710/215/1 726/199/1 727/200/1 711/216/1
f 711/216/1 727/200/1 728/201/1 712/217/1
f 712/217/1 728/201/1 729/202/1 713/218/1
f 713/218/1 729/202/1 730/203/1 714/219/1
f 715/220/1 731/204/1 732/81/1 716/79/1
f 40/221/1 41/205/1 701/206/1 685/222/1
f 686/223/1 702/207/1 703/208/1 687/224/1
f 687/224/1 703/208/1 704/209/1 688/225/1
f 688/225/1 704/209/1 705/210/1 689/226/1
f 689/226/1 705/210/1 706/211/1 690/227/1
f 690/227/1 706/211/1 707/212/1 691/228/1
f 691/228/1 707/212/1 708/213/1 692/229/1
f 692/229/1 708/213/1 709/214/1 693/230/1
f 693/230/1 709/214/1 710/215/1 694/231/1
f 694/231/1 710/215/1 711/216/1 695/232/1
f 695/232/1 711/216/1 712/217/1 696/233/1
f 696/233/1 712/217/1 713/218/1 697/234/1
f 697/234/1 713/218/1 714/219/1 698/235/1
f 698/235/1 714/219/1 715/220/1 699/236/1
f 39/237/1 40/221/1 685/222/1 669/238/1
f 669/238/1 685/222/1 686/223/1 670/239/1
f 670/239/1 686/223/1 687/224/1 671/240/1
f 671/240/1 687/224/1 688/225/1 672/241/1
f 672/241/1 688/225/1 689/226/1 673/242/1
f 673/242/1 689/226/1 690/227/1 674/243/1
f 674/243/1 690/227/1 691/228/1 675/244/1
f 675/244/1 691/228/1 692/229/1 676/245/1
f 676/245/1 692/229/1 693/230/1 677/246/1
f 677/246/1 693/230/1 694/231/1 678/247/1
f 678/247/1 694/231/1 695/232/1 679/248/1
f 679/248/1 695/232/1 696/233/1 680/249/1
f 680/249/1 696/233/1 697/234/1 681/250/1
f 681/250/1 697/234/1 698/235/1 682/251/1
f 682/251/1 698/235/1 699/236/1 683/252/1
f 683/252/1 699/236/1 700/77/1 684/75/1
f 38/253/1 39/237/1 669/238/1 653/254/1
f 653/254/1 669/238/1 670/239/1 654/255/1
f 654/255/1 670/239/1 671/240/1 655/256/1
f 655/256/1 671/240/1 672/241/1 656/257/1
f 656/257/1 672/241/1 673/242/1 657/258/1
f 657/258/1 673/242/1 674/243/1 658/259/1
f 658/259/1 674/243/1 675/244/1 659/260/1
f 659/260/1 675/244/1 676/245/1 660/261/1
f 660/261/1 676/245/1 677/246/1 661/262/1
f 661/262/1 677/246/1 678/247/1 662/263/1
f 662/263/1 678/247/1 679/248/1 663/264/1
f 663/264/1 679/248/1 680/249/1 664/265/1
f 664/265/1 680/249/1 681/250/1 665/266/1
f 665/266/1 681/250/1 682/251/1 666/267/1
f 666/267/1 682/251/1 683/252/1 667/268/1
f 667/268/1 683/252/1 684/75/1 668/73/1
f 37/269/1 38/253/1 653/254/1 637/270/1
f 637/270/1 653/254/1 654/255/1 638/271/1
f 638/271/1 654/255/1 655/256/1 639/272/1
f 639/272/1 655/256/1 656/257/1 640/273/1
f 640/273/1 656/257/1 657/258/1 641/274/1
f 641/274/1 657/258/1 658/259/1 642/275/1
f 642/275/1 658/259/1 659/260/1 643/276/1
f 643/276/1 659/260/1 660/261/1 644/277/1
f 644/277/1 660/261/1 661/262/1 645/278/1
f 645/278/1 661/262/1 662/263/1 646/279/1
f 646/279/1 662/263/1 663/264/1 647/280/1
f 647/280/1 663/264/1 664/265/1 648/281/1
f 648/281/1 664/265/1 665/266/1 649/282/1
f 649/282/1 665/266/1 666/267/1 650/283/1
f 650/283/1 666/267/1 667/268/1 651/284/1
f 651/284/1 667/268/1 668/73/1 652/71/1
f 36/285/1 37/269/1 637/270/1 621/286/1
f 621/286/1 637/270/1 638/271/1 622/287/1
f 622/287/1 638/271/1 639/272/1 623/288/1
f 623/288/1 639/272/1 640/273/1 624/289/1
f 624/289/1 640/273/1 641/274/1 625/290/1
f 625/290/1 641/274/1 642/275/1 626/291/1
f 626/291/1 642/275/1 643/276/1 627/292/1
f 627/292/1 643/276/1 644/277/1 628/293/1
f 628/293/1 644/277/1 645/278/1 629/294/1
f 629/294/1 645/278/1 646/279/1 630/295/1
f 630/295/1 646/279/1 647/280/1 631/296/1
f 631/296/1 647/280/1 648/281/1 632/297/1
f 632/297/1 648/281/1 649/282/1 633/298/1
f 633/298/1 649/282/1 650/283/1 634/299/1
f 634/299/1 650/283/1 651/284/1 635/300/1
f 635/300/1 651/284/1 652/71/1 636/69/1
f 35/301/1 36/285/1 621/286/1 605/302/1
f 605/302/1 621/286/1 622/287/1 606/303/1
f 606/303/1 622/287/1 623/288/1 607/304/1
f 608/305/1 624/289/1 625/290/1 609/306/1
f 609/306/1 625/290/1 626/291/1 610/307/1
f 610/307/1 626/291/1 627/292/1 611/308/1
f 612/309/1 628/293/1 629/294/1 613/310/1
f 613/310/1 629/294/1 630/295/1 614/311/1
f 614/311/1 630/295/1 631/296/1 615/312/1
f 615/312/1 631/296/1 632/297/1 616/313/1
f 616/313/1 632/297/1 633/298/1 617/314/1
f 617/314/1 633/298/1 634/299/1 618/315/1
f 618/315/1 634/299/1 635/300/1 619/316/1
f 619/316/1 635/300/1 636/69/1 620/67/1
f 34/317/1 35/301/1 605/302/1 589/318/1
f 589/318/1 605/302/1 606/303/1 590/319/1
f 590/319/1 606/303/1 607/304/1 591/320/1
f 591/320/1 607/304/1 608/305/1 592/321/1
f 593/322/1 609/306/1 610/307/1 594/323/1
f 595/324/1 611/308/1 612/309/1 596/325/1
f 596/325/1 612/309/1 613/310/1 597/326/1
f 597/326/1 613/310/1 614/311/1 598/327/1
f 598/327/1 614/311/1 615/312/1 599/328/1
f 599/328/1 615/312/1 616/313/1 600/329/1
f 600/329/1 616/313/1 617/314/1 601/330/1
f 601/330/1 617/314/1 618/315/1 602/331/1
f 602/331/1 618/315/1 619/316/1 603/332/1
f 603/332/1 619/316/1 620/67/1 604/65/1
f 33/333/1 34/317/1 589/318/1 573/334/1
f 573/334/1 589/318/1 590/319/1 574/335/1
f 574/335/1 590/319/1 591/320/1 575/336/1
f 575/336/1 591/320/1 592/321/1 576/337/1
f 576/337/1 592/321/1 593/322/1 577/338/1
f 578/339/1 594/323/1 595/324/1 579/340/1
f 579/340/1 595/324/1 596/325/1 580/341/1
f 580/341/1 596/325/1 597/326/1 581/342/1
f 581/342/1 597/326/1 598/327/1 582/343/1
f 585/346/1 601/330/1 602/331/1 586/347/1
f 586/347/1 602/331/1 603/332/1 587/348/1
f 587/348/1 603/332/1 604/65/1 588/63/1
f 32/349/1 33/333/1 573/334/1 557/350/1
f 557/350/1 573/334/1 574/335/1 558/351/1
f 558/351/1 574/335/1 575/336/1 559/352/1
f 559/352/1 575/336/1 576/337/1 560/353/1
f 560/353/1 576/337/1 577/338/1 561/354/1
f 562/355/1 578/339/1 579/340/1 563/356/1
f 563/356/1 579/340/1 580/341/1 564/357/1
f 564/357/1 580/341/1 581/342/1 565/358/1
f 566/359/1 582/343/1 583/344/1 567/360/1
f 567/360/1 583/344/1 584/345/1 568/361/1
f 568/361/1 584/345/1 585/346/1 569/362/1
f 570/363/1 586/347/1 587/348/1 571/364/1
f 571/364/1 587/348/1 588/63/1 572/61/1
f 31/365/1 32/349/1 557/350/1 541/366/1
f 544/369/1 560/353/1 561/354/1 545/370/1
f 545/370/1 561/354/1 562/355/1 546/371/1
f 546/371/1 562/355/1 563/356/1 547/372/1
f 547/372/1 563/356/1 564/357/1 548/373/1
f 549/374/1 565/358/1 566/359/1 550/375/1
f 550/375/1 566/359/1 567/360/1 551/376/1
f 551/376/1 567/360/1 568/361/1 552/377/1
f 552/377/1 568/361/1 569/362/1 553/378/1
f 553/378/1 569/362/1 570/363/1 554/379/1
f 555/380/1 571/364/1 572/61/1 556/59/1
f 30/381/1 31/365/1 541/366/1 525/382/1
f 526/383/1 542/367/1 543/368/1 527/384/1
f 527/384/1 543/368/1 544/369/1 528/385/1
f 529/386/1 545/370/1 546/371/1 530/387/1
f 530/387/1 546/371/1 547/372/1 531/388/1
f 532/389/1 548/373/1 549/374/1 533/390/1
f 533/390/1 549/374/1 550/375/1 534/391/1
f 534/391/1 550/375/1 551/376/1 535/392/1
f 535/392/1 551/376/1 552/377/1 536/393/1
f 536/393/1 552/377/1 553/378/1 537/394/1
f 537/394/1 553/378/1 554/379/1 538/395/1
f 538/395/1 554/379/1 555/380/1 539/396/1
f 29/397/1 30/381/1 525/382/1 509/398/1
f 509/398/1 525/382/1 526/383/1 510/399/1
f 510/399/1 526/383/1 527/384/1 511/400/1
f 511/400/1 527/384/1 528/385/1 512/401/1
f 512/401/1 528/385/1 529/386/1 513/402/1
f 513/402/1 529/386/1 530/387/1 514/403/1
f 514/403/1 530/387/1 531/388/1 515/404/1
f 515/404/1 531/388/1 532/389/1 516/405/1
f 516/405/1 532/389/1 533/390/1 517/406/1
f 517/406/1 533/390/1 534/391/1 518/407/1
f 521/410/1 537/394/1 538/395/1 522/411/1
f 522/411/1 538/395/1 539/396/1 523/412/1
f 523/412/1 539/396/1 540/57/1 524/55/1
f 28/413/1 29/397/1 509/398/1 493/414/1
f 493/414/1 509/398/1 510/399/1 494/415/1
f 494/415/1 510/399/1 511/400/1 495/416/1
f 495/416/1 511/400/1 512/401/1 496/417/1
f 496/417/1 512/401/1 513/402/1 497/418/1
f 499/420/1 515/404/1 516/405/1 500/421/1
f 500/421/1 516/405/1 517/406/1 501/422/1
f 502/423/1 518/407/1 519/408/1 503/424/1
f 503/424/1 519/408/1 520/409/1 504/425/1
f 504/425/1 520/409/1 521/410/1 505/426/1
f 506/427/1 522/411/1 523/412/1 507/428/1
f 507/428/1 523/412/1 524/55/1 508/53/1
f 27/429/1 28/413/1 493/414/1 477/430/1
f 477/430/1 493/414/1 494/415/1 478/431/1
f 478/431/1 494/415/1 495/416/1 479/432/1
f 485/438/1 501/422/1 502/423/1 486/439/1
f 486/439/1 502/423/1 503/424/1 487/440/1
f 487/440/1 503/424/1 504/425/1 488/441/1
f 488/441/1 504/425/1 505/426/1 489/442/1
f 489/442/1 505/426/1 506/427/1 490/443/1
f 490/443/1 506/427/1 507/428/1 491/444/1
f 491/444/1 507/428/1 508/53/1 492/51/1
f 26/445/1 27/429/1 477/430/1 461/446/1
f 461/446/1 477/430/1 478/431/1 462/447/1
f 469/454/1 485/438/1 486/439/1 470/455/1
f 470/455/1 486/439/1 487/440/1 471/456/1
f 471/456/1 487/440/1 488/441/1 472/457/1
f 472/457/1 488/441/1 489/442/1 473/458/1
f 473/458/1 489/442/1 490/443/1 474/459/1
f 474/459/1 490/443/1 491/444/1 475/460/1
f 475/460/1 491/444/1 492/51/1 476/49/1
f 25/461/1 26/445/1 461/446/1 445/462/1
f 445/462/1 461/446/1 462/447/1 446/463/1
f 446/463/1 462/447/1 463/448/1 447/464/1
f 453/470/1 469/454/1 470/455/1 454/471/1
f 454/471/1 470/455/1 471/456/1 455/472/1
f 455/472/1 471/456/1 472/457/1 456/473/1
f 456/473/1 472/457/1 473/458/1 457/474/1
f 457/474/1 473/458/1 474/459/1 458/475/1
f 458/475/1 474/459/1 475/460/1 459/476/1
f 459/476/1 475/460/1 476/49/1 460/47/1
f 24/477/1 25/461/1 445/462/1 429/478/1
f 429/478/1 445/462/1 446/463/1 430/479/1
f 430/479/1 446/463/1 447/464/1 431/480/1
f 431/480/1 447/464/1 448/465/1 432/481/1
f 432/481/1 448/465/1 449/466/1 433/482/1
f 435/484/1 451/468/1 452/469/1 436/485/1
f 436/485/1 452/469/1 453/470/1 437/486/1
f 438/487/1 454/471/1 455/472/1 439/488/1
f 439/488/1 455/472/1 456/473/1 440/489/1
f 440/489/1 456/473/1 457/474/1 441/490/1
f 442/491/1 458/475/1 459/476/1 443/492/1
f 443/492/1 459/476/1 460/47/1 444/45/1
f 23/493/1 24/477/1 429/478/1 413/494/1
f 413/494/1 429/478/1 430/479/1 414/495/1
f 414/495/1 430/479/1 431/480/1 415/496/1
f 415/496/1 431/480/1 432/481/1 416/497/1
f 416/497/1 432/481/1 433/482/1 417/498/1
f 417/498/1 433/482/1 434/483/1 418/499/1
f 418/499/1 434/483/1 435/484/1 419/500/1
f 419/500/1 435/484/1 436/485/1 420/501/1
f 420/501/1 436/485/1 437/486/1 421/502/1
f 421/502/1 437/486/1 438/487/1 422/503/1
f 425/506/1 441/490/1 442/491/1 426/507/1
f 426/507/1 442/491/1 443/492/1 427/508/1
f 427/508/1 443/492/1 444/45/1 428/43/1
f 22/509/1 23/493/1 413/494/1 397/510/1
f 398/511/1 414/495/1 415/496/1 399/512/1
f 399/512/1 415/496/1 416/497/1 400/513/1
f 401/514/1 417/498/1 418/499/1 402/515/1
f 402/515/1 418/499/1 419/500/1 403/516/1
f 404/517/1 420/501/1 421/502/1 405/518/1
f 405/518/1 421/502/1 422/503/1 406/519/1
f 406/519/1 422/503/1 423/504/1 407/520/1
f 407/520/1 423/504/1 424/505/1 408/521/1
f 408/521/1 424/505/1 425/506/1 409/522/1
f 409/522/1 425/506/1 426/507/1 410/523/1
f 410/523/1 426/507/1 427/508/1 411/524/1
f 21/525/1 22/509/1 397/510/1 381/526/1
f 384/529/1 400/513/1 401/514/1 385/530/1
f 385/530/1 401/514/1 402/515/1 386/531/1
f 386/531/1 402/515/1 403/516/1 387/532/1
f 387/532/1 403/516/1 404/517/1 388/533/1
f 389/534/1 405/518/1 406/519/1 390/535/1
f 390/535/1 406/519/1 407/520/1 391/536/1
f 391/536/1 407/520/1 408/521/1 392/537/1
f 392/537/1 408/521/1 409/522/1 393/538/1
f 393/538/1 409/522/1 410/523/1 394/539/1
f 395/540/1 411/524/1 412/41/1 396/39/1
f 20/541/1 21/525/1 381/526/1 365/542/1
f 365/542/1 381/526/1 382/527/1 366/543/1
f 366/543/1 382/527/1 383/528/1 367/544/1
f 367/544/1 383/528/1 384/529/1 368/545/1
f 368/545/1 384/529/1 385/530/1 369/546/1
f 370/547/1 386/531/1 387/532/1 371/548/1
f 371/548/1 387/532/1 388/533/1 372/549/1
f 372/549/1 388/533/1 389/534/1 373/550/1
f 374/551/1 390/535/1 391/536/1 375/552/1
f 375/552/1 391/536/1 392/537/1 376/553/1
f 376/553/1 392/537/1 393/538/1 377/554/1
f 378/555/1 394/539/1 395/540/1 379/556/1
f 379/556/1 395/540/1 396/39/1 380/37/1
f 19/557/1 20/541/1 365/542/1 349/558/1
f 349/558/1 365/542/1 366/543/1 350/559/1
f 350/559/1 366/543/1 367/544/1 351/560/1
f 351/560/1 367/544/1 368/545/1 352/561/1
f 352/561/1 368/545/1 369/546/1 353/562/1
f 354/563/1 370/547/1 371/548/1 355/564/1
f 355/564/1 371/548/1 372/549/1 356/565/1
f 356/565/1 372/549/1 373/550/1 357/566/1
f 357/566/1 373/550/1 374/551/1 358/567/1
f 361/570/1 377/554/1 378/555/1 362/571/1
f 362/571/1 378/555/1 379/556/1 363/572/1
f 363/572/1 379/556/1 380/37/1 364/35/1
f 18/573/1 19/557/1 349/558/1 333/574/1
f 333/574/1 349/558/1 350/559/1 334/575/1
f 334/575/1 350/559/1 351/560/1 335/576/1
f 335/576/1 351/560/1 352/561/1 336/577/1
f 337/578/1 353/562/1 354/563/1 338/579/1
f 339/580/1 355/564/1 356/565/1 340/581/1
f 340/581/1 356/565/1 357/566/1 341/582/1
f 341/582/1 357/566/1 358/567/1 342/583/1
f 342/583/1 358/567/1 359/568/1 343/584/1
f 343/584/1 359/568/1 360/569/1 344/585/1
f 344/585/1 360/569/1 361/570/1 345/586/1
f 345/586/1 361/570/1 362/571/1 346/587/1
f 346/587/1 362/571/1 363/572/1 347/588/1
f 347/588/1 363/572/1 364/35/1 348/33/1
f 17/589/1 18/573/1 333/574/1 317/590/1
f 317/590/1 333/574/1 334/575/1 318/591/1
f 318/591/1 334/575/1 335/576/1 319/592/1
f 320/593/1 336/577/1 337/578/1 321/594/1
f 321/594/1 337/578/1 338/579/1 322/595/1
f 322/595/1 338/579/1 339/580/1 323/596/1
f 324/597/1 340/581/1 341/582/1 325/598/1
f 325/598/1 341/582/1 342/583/1 326/599/1
f 326/599/1 342/583/1 343/584/1 327/600/1
f 327/600/1 343/584/1 344/585/1 328/601/1
f 328/601/1 344/585/1 345/586/1 329/602/1
f 329/602/1 345/586/1 346/587/1 330/603/1
f 330/603/1 346/587/1 347/588/1 331/604/1
f 331/604/1 347/588/1 348/33/1 332/31/1
f 16/605/1 17/589/1 317/590/1 301/606/1
f 301/606/1 317/590/1 318/591/1 302/607/1
f 302/607/1 318/591/1 319/592/1 303/608/1
f 303/608/1 319/592/1 320/593/1 304/609/1
f 304/609/1 320/593/1 321/594/1 305/610/1
f 305/610/1 321/594/1 322/595/1 306/611/1
f 306/611/1 322/595/1 323/596/1 307/612/1
f 307/612/1 323/596/1 324/597/1 308/613/1
f 308/613/1 324/597/1 325/598/1 309/614/1
f 309/614/1 325/598/1 326/599/1 310/615/1
f 310/615/1 326/599/1 327/600/1 311/616/1
f 311/616/1 327/600/1 328/601/1 312/617/1
f 312/617/1 328/601/1 329/602/1 313/618/1
f 313/618/1 329/602/1 330/603/1 314/619/1
f 314/619/1 330/603/1 331/604/1 315/620/1
f 315/620/1 331/604/1 332/31/1 316/29/1
f 15/621/1 16/605/1 301/606/1 285/622/1
f 285/622/1 301/606/1 302/607/1 286/623/1
f 286/623/1 302/607/1 303/608/1 287/624/1
f 287/624/1 303/608/1 304/609/1 288/625/1
f 288/625/1 304/609/1 305/610/1 289/626/1
f 289/626/1 305/610/1 306/611/1 290/627/1
f 290/627/1 306/611/1 307/612/1 291/628/1
f 291/628/1 307/612/1 308/613/1 292/629/1
f 292/629/1 308/613/1 309/614/1 293/630/1
f 293/630/1 309/614/1 310/615/1 294/631/1
f 294/631/1 310/615/1 311/616/1 295/632/1
f 295/632/1 311/616/1 312/617/1 296/633/1
f 296/633/1 312/617/1 313/618/1 297/634/1
f 297/634/1 313/618/1 314/619/1 298/635/1
f 298/635/1 314/619/1 315/620/1 299/636/1
f 299/636/1 315/620/1 316/29/1 300/27/1
f 14/637/1 15/621/1 285/622/1 269/638/1
f 269/638/1 285/622/1 286/623/1 270/639/1
f 270/639/1 286/623/1 287/624/1 271/640/1
f 271/640/1 287/624/1 288/625/1 272/641/1
f 272/641/1 288/625/1 289/626/1 273/642/1
f 273/642/1 289/626/1 290/627/1 274/643/1
f 274/643/1 290/627/1 291/628/1 275/644/1
f 275/644/1 291/628/1 292/629/1 276/645/1
f 276/645/1 292/629/1 293/630/1 277/646/1
f 277/646/1 293/630/1 294/631/1 278/647/1
f 278/647/1 294/631/1 295/632/1 279/648/1
f 279/648/1 295/632/1 296/633/1 280/649/1
f 280/649/1 296/633/1 297/634/1 281/650/1
f 281/650/1 297/634/1 298/635/1 282/651/1
f 282/651/1 298/635/1 299/636/1 283/652/1
f 283/652/1 299/636/1 300/27/1 284/25/1
f 13/653/1 14/637/1 269/638/1 253/654/1
f 253/654/1 269/638/1 270/639/1 254/655/1
f 254/655/1 270/639/1 271/640/1 255/656/1
f 255/656/1 271/640/1 272/641/1 256/657/1
f 256/657/1 272/641/1 273/642/1 257/658/1
f 257/658/1 273/642/1 274/643/1 258/659/1
f 258/659/1 274/643/1 275/644/1 259/660/1
f 259/660/1 275/644/1 276/645/1 260/661/1
f 260/661/1 276/645/1 277/646/1 261/662/1
f 261/662/1 277/646/1 278/647/1 262/663/1
f 262/663/1 278/647/1 279/648/1 263/664/1
f 263/664/1 279/648/1 280/649/1 264/665/1
f 264/665/1 280/649/1 281/650/1 265/666/1
f 265/666/1 281/650/1 282/651/1 266/667/1
f 266/667/1 282/651/1 283/652/1 267/668/1
f 267/668/1 283/652/1 284/25/1 268/23/1
f 12/669/1 13/653/1 253/654/1 237/670/1
f 238/671/1 254/655/1 255/656/1 239/672/1
f 239/672/1 255/656/1 256/657/1 240/673/1
f 240/673/1 256/657/1 257/658/1 241/674/1
f 241/674/1 257/658/1 258/659/1 242/675/1
f 242/675/1 258/659/1 259/660/1 243/676/1
f 243/676/1 259/660/1 260/661/1 244/677/1
f 244/677/1 260/661/1 261/662/1 245/678/1
f 245/678/1 261/662/1 262/663/1 246/679/1
f 246/679/1 262/663/1 263/664/1 247/680/1
f 247/680/1 263/664/1 264/665/1 248/681/1
f 248/681/1 264/665/1 265/666/1 249/682/1
f 249/682/1 265/666/1 266/667/1 250/683/1
f 250/683/1 266/667/1 267/668/1 251/684/1
f 11/685/1 12/669/1 237/670/1 221/686/1
f 221/686/1 237/670/1 238/671/1 222/687/1
f 223/688/1 239/672/1 240/673/1 224/689/1
f 224/689/1 240/673/1 241/674/1 225/690/1
f 225/690/1 241/674/1 242/675/1 226/691/1
f 226/691/1 242/675/1 243/676/1 227/692/1
f 227/692/1 243/676/1 244/677/1 228/693/1
f 228/693/1 244/677/1 245/678/1 229/694/1
f 229/694/1 245/678/1 246/679/1 230/695/1
f 230/695/1 246/679/1 247/680/1 231/696/1
f 231/696/1 247/680/1 248/681/1 232/697/1
f 232/697/1 248/681/1 249/682/1 233/698/1
f 233/698/1 249/682/1 250/683/1 234/699/1
f 235/700/1 251/684/1 252/21/1 236/19/1
f 10/701/1 11/685/1 221/686/1 205/702/1
f 205/702/1 221/686/1 222/687/1 206/703/1
f 206/703/1 222/687/1 223/688/1 207/704/1
f 208/705/1 224/689/1 225/690/1 209/706/1
f 209/706/1 225/690/1 226/691/1 210/707/1
f 210/707/1 226/691/1 227/692/1 211/708/1
f 211/708/1 227/692/1 228/693/1 212/709/1
f 212/709/1 228/693/1 229/694/1 213/710/1
f 213/710/1 229/694/1 230/695/1 214/711/1
f 214/711/1 230/695/1 231/696/1 215/712/1
f 215/712/1 231/696/1 232/697/1 216/713/1
f 216/713/1 232/697/1 233/698/1 217/714/1
f 218/715/1 234/699/1 235/700/1 219/716/1
f 219/716/1 235/700/1 236/19/1 220/17/1
f 9/717/1 10/701/1 205/702/1 189/718/1
f 189/718/1 205/702/1 206/703/1 190/719/1
f 190/719/1 206/703/1 207/704/1 191/720/1
f 191/720/1 207/704/1 208/705/1 192/721/1
f 193/722/1 209/706/1 210/707/1 194/723/1
f 194/723/1 210/707/1 211/708/1 195/724/1
f 195/724/1 211/708/1 212/709/1 196/725/1
f 196/725/1 212/709/1 213/710/1 197/726/1
f 197/726/1 213/710/1 214/711/1 198/727/1
f 198/727/1 214/711/1 215/712/1 199/728/1
f 199/728/1 215/712/1 216/713/1 200/729/1
f 201/730/1 217/714/1 218/715/1 202/731/1
f 202/731/1 218/715/1 219/716/1 203/732/1
f 203/732/1 219/716/1 220/17/1 204/15/1
f 8/733/1 9/717/1 189/718/1 173/734/1
f 173/734/1 189/718/1 190/719/1 174/735/1
f 174/735/1 190/719/1 191/720/1 175/736/1
f 175/736/1 191/720/1 192/721/1 176/737/1
f 176/737/1 192/721/1 193/722/1 177/738/1
f 178/739/1 194/723/1 195/724/1 179/740/1
f 179/740/1 195/724/1 196/725/1 180/741/1
f 180/741/1 196/725/1 197/726/1 181/742/1
f 181/742/1 197/726/1 198/727/1 182/743/1
f 182/743/1 198/727/1 199/728/1 183/744/1
f 184/745/1 200/729/1 201/730/1 185/746/1
f 185/746/1 201/730/1 202/731/1 186/747/1
f 186/747/1 202/731/1 203/732/1 187/748/1
f 187/748/1 203/732/1 204/15/1 188/13/1
f 7/749/1 8/733/1 173/734/1 157/750/1
f 157/750/1 173/734/1 174/735/1 158/751/1
f 158/751/1 174/735/1 175/736/1 159/752/1
f 159/752/1 175/736/1 176/737/1 160/753/1
f 160/753/1 176/737/1 177/738/1 161/754/1
f 161/754/1 177/738/1 178/739/1 162/755/1
f 163/756/1 179/740/1 180/741/1 164/757/1
f 164/757/1 180/741/1 181/742/1 165/758/1
f 165/758/1 181/742/1 182/743/1 166/759/1
f 167/760/1 183/744/1 184/745/1 168/761/1
f 168/761/1 184/745/1 185/746/1 169/762/1
f 169/762/1 185/746/1 186/747/1 170/763/1
f 170/763/1 186/747/1 187/748/1 171/764/1
f 171/764/1 187/748/1 188/13/1 172/11/1
f 6/765/1 7/749/1 157/750/1 141/766/1
f 141/766/1 157/750/1 158/751/1 142/767/1
f 142/767/1 158/751/1 159/752/1 143/768/1
f 143/768/1 159/752/1 160/753/1 144/769/1
f 144/769/1 160/753/1 161/754/1 145/770/1
f 145/770/1 161/754/1 162/755/1 146/771/1
f 146/771/1 162/755/1 163/756/1 147/772/1
f 148/773/1 164/757/1 165/758/1 149/774/1
f 150/775/1 166/759/1 167/760/1 151/776/1
f 151/776/1 167/760/1 168/761/1 152/777/1
f 152/777/1 168/761/1 169/762/1 153/778/1
f 153/778/1 169/762/1 170/763/1 154/779/1
f 154/779/1 170/763/1 171/764/1 155/780/1
f 155/780/1 171/764/1 172/11/1 156/9/1
f 5/781/1 6/765/1 141/766/1 125/782/1
f 125/782/1 141/766/1 142/767/1 126/783/1
f 126/783/1 142/767/1 143/768/1 127/784/1
f 127/784/1 143/768/1 144/769/1 128/785/1
f 128/785/1 144/769/1 145/770/1 129/786/1
f 129/786/1 145/770/1 146/771/1 130/787/1
f 130/787/1 146/771/1 147/772/1 131/788/1
f 131/788/1 147/772/1 148/773/1 132/789/1
f 133/790/1 149/774/1 150/775/1 134/791/1
f 134/791/1 150/775/1 151/776/1 135/792/1
f 135/792/1 151/776/1 152/777/1 136/793/1
f 136/793/1 152/777/1 153/778/1 137/794/1
f 137/794/1 153/778/1 154/779/1 138/795/1
f 138/795/1 154/779/1 155/780/1 139/796/1
f 139/796/1 155/780/1 156/9/1 140/6/1
f 1/797/1 5/781/1 125/782/1 108/798/1
f 108/798/1 125/782/1 126/783/1 107/799/1
f 107/799/1 126/783/1 127/784/1 106/800/1
f 106/800/1 127/784/1 128/785/1 105/801/1
f 105/801/1 128/785/1 129/786/1 104/802/1
f 104/802/1 129/786/1 130/787/1 103/803/1
f 103/803/1 130/787/1 131/788/1 102/804/1
f 102/804/1 131/788/1 132/789/1 101/805/1
f 101/805/1 132/789/1 133/790/1 100/806/1
f 100/806/1 133/790/1 134/791/1 99/807/1
f 99/807/1 134/791/1 135/792/1 98/808/1
f 98/808/1 135/792/1 136/793/1 97/809/1
f 97/809/1 136/793/1 137/794/1 96/810/1
f 96/810/1 137/794/1 138/795/1 95/811/1
f 95/811/1 138/795/1 139/796/1 94/812/1
f 94/812/1 139/796/1 140/6/1 93/5/1
f 48/94/1 2/813/1 109/814/1 813/95/1
f 813/95/1 109/814/1 110/815/1 814/97/1
f 814/97/1 110/815/1 111/816/1 815/99/1
f 815/99/1 111/816/1 112/817/1 816/101/1
f 816/101/1 112/817/1 113/818/1 817/103/1
f 817/103/1 113/818/1 114/819/1 818/105/1
f 818/105/1 114/819/1 115/820/1 819/107/1
f 819/107/1 115/820/1 116/821/1 820/109/1
f 820/109/1 116/821/1 117/822/1 821/111/1
f 821/111/1 117/822/1 118/823/1 822/113/1
f 822/113/1 118/823/1 119/824/1 823/115/1
f 823/115/1 119/824/1 120/825/1 824/117/1
f 824/117/1 120/825/1 121/826/1 825/119/1
f 825/119/1 121/826/1 122/827/1 826/121/1
f 826/121/1 122/827/1 123/828/1 827/123/1
f 827/123/1 123/828/1 124/2/1 828/1/1
usemtl Gotik_Symbol
f 804/110/1 820/109/1 821/111/1 805/112/1
f 787/132/1 803/108/1 804/110/1 788/133/1
f 789/134/1 805/112/1 806/114/1 790/135/1
f 770/147/1 786/131/1 787/132/1 771/148/1
f 774/151/1 790/135/1 791/136/1 775/152/1
f 753/162/1 769/146/1 770/147/1 754/163/1
f 759/168/1 775/152/1 776/153/1 760/169/1
f 736/177/1 752/161/1 753/162/1 737/178/1
f 744/185/1 760/169/1 761/170/1 745/186/1
f 719/192/1 735/176/1 736/177/1 720/193/1
f 729/202/1 745/186/1 746/187/1 730/203/1
f 702/207/1 718/191/1 719/192/1 703/208/1
f 714/219/1 730/203/1 731/204/1 715/220/1
f 685/222/1 701/206/1 702/207/1 686/223/1
f 699/236/1 715/220/1 716/79/1 700/77/1
f 607/304/1 623/288/1 624/289/1 608/305/1
f 611/308/1 627/292/1 628/293/1 612/309/1
f 592/321/1 608/305/1 609/306/1 593/322/1
f 594/323/1 610/307/1 611/308/1 595/324/1
f 577/338/1 593/322/1 594/323/1 578/339/1
f 582/343/1 598/327/1 599/328/1 583/344/1
f 583/344/1 599/328/1 600/329/1 584/345/1
f 584/345/1 600/329/1 601/330/1 585/346/1
f 561/354/1 577/338/1 578/339/1 562/355/1
f 565/358/1 581/342/1 582/343/1 566/359/1
f 569/362/1 585/346/1 586/347/1 570/363/1
f 541/366/1 557/350/1 558/351/1 542/367/1
f 542/367/1 558/351/1 559/352/1 543/368/1
f 543/368/1 559/352/1 560/353/1 544/369/1
f 548/373/1 564/357/1 565/358/1 549/374/1
f 554/379/1 570/363/1 571/364/1 555/380/1
f 525/382/1 541/366/1 542/367/1 526/383/1
f 528/385/1 544/369/1 545/370/1 529/386/1
f 531/388/1 547/372/1 548/373/1 532/389/1
f 539/396/1 555/380/1 556/59/1 540/57/1
f 518/407/1 534/391/1 535/392/1 519/408/1
f 519/408/1 535/392/1 536/393/1 520/409/1
f 520/409/1 536/393/1 537/394/1 521/410/1
f 497/418/1 513/402/1 514/403/1 498/419/1
f 498/419/1 514/403/1 515/404/1 499/420/1
f 501/422/1 517/406/1 518/407/1 502/423/1
f 505/426/1 521/410/1 522/411/1 506/427/1
f 479/432/1 495/416/1 496/417/1 480/433/1
f 480/433/1 496/417/1 497/418/1 481/434/1
f 481/434/1 497/418/1 498/419/1 482/435/1
f 482/435/1 498/419/1 499/420/1 483/436/1
f 483/436/1 499/420/1 500/421/1 484/437/1
f 484/437/1 500/421/1 501/422/1 485/438/1
f 462/447/1 478/431/1 479/432/1 463/448/1
f 463/448/1 479/432/1 480/433/1 464/449/1
f 464/449/1 480/433/1 481/434/1 465/450/1
f 465/450/1 481/434/1 482/435/1 466/451/1
f 466/451/1 482/435/1 483/436/1 467/452/1
f 467/452/1 483/436/1 484/437/1 468/453/1
f 468/453/1 484/437/1 485/438/1 469/454/1
f 447/464/1 463/448/1 464/449/1 448/465/1
f 448/465/1 464/449/1 465/450/1 449/466/1
f 449/466/1 465/450/1 466/451/1 450/467/1
f 450/467/1 466/451/1 467/452/1 451/468/1
f 451/468/1 467/452/1 468/453/1 452/469/1
f 452/469/1 468/453/1 469/454/1 453/470/1
f 433/482/1 449/466/1 450/467/1 434/483/1
f 434/483/1 450/467/1 451/468/1 435/484/1
f 437/486/1 453/470/1 454/471/1 438/487/1
f 441/490/1 457/474/1 458/475/1 442/491/1
f 422/503/1 438/487/1 439/488/1 423/504/1
f 423/504/1 439/488/1 440/489/1 424/505/1
f 424/505/1 440/489/1 441/490/1 425/506/1
f 397/510/1 413/494/1 414/495/1 398/511/1
f 400/513/1 416/497/1 417/498/1 401/514/1
f 403/516/1 419/500/1 420/501/1 404/517/1
f 411/524/1 427/508/1 428/43/1 412/41/1
f 381/526/1 397/510/1 398/511/1 382/527/1
f 382/527/1 398/511/1 399/512/1 383/528/1
f 383/528/1 399/512/1 400/513/1 384/529/1
f 388/533/1 404/517/1 405/518/1 389/534/1
f 394/539/1 410/523/1 411/524/1 395/540/1
f 369/546/1 385/530/1 386/531/1 370/547/1
f 373/550/1 389/534/1 390/535/1 374/551/1
f 377/554/1 393/538/1 394/539/1 378/555/1
f 353/562/1 369/546/1 370/547/1 354/563/1
f 358/567/1 374/551/1 375/552/1 359/568/1
f 359/568/1 375/552/1 376/553/1 360/569/1
f 360/569/1 376/553/1 377/554/1 361/570/1
f 336/577/1 352/561/1 353/562/1 337/578/1
f 338/579/1 354/563/1 355/564/1 339/580/1
f 319/592/1 335/576/1 336/577/1 320/593/1
f 323/596/1 339/580/1 340/581/1 324/597/1
f 237/670/1 253/654/1 254/655/1 238/671/1
f 251/684/1 267/668/1 268/23/1 252/21/1
f 222/687/1 238/671/1 239/672/1 223/688/1
f 234/699/1 250/683/1 251/684/1 235/700/1
f 207/704/1 223/688/1 224/689/1 208/705/1
f 217/714/1 233/698/1 234/699/1 218/715/1
f 192/721/1 208/705/1 209/706/1 193/722/1
f 200/729/1 216/713/1 217/714/1 201/730/1
f 177/738/1 193/722/1 194/723/1 178/739/1
f 183/744/1 199/728/1 200/729/1 184/745/1
f 162/755/1 178/739/1 179/740/1 163/756/1
f 166/759/1 182/743/1 183/744/1 167/760/1
f 147/772/1 163/756/1 164/757/1 148/773/1
f 149/774/1 165/758/1 166/759/1 150/775/1
f 132/789/1 148/773/1 149/774/1 133/790/1
f 101/805/1 100/806/1 838/806/1 839/805/1
f 105/801/1 104/802/1 842/802/1 843/801/1
f 95/811/1 94/812/1 832/812/1 833/811/1
f 99/807/1 98/808/1 836/808/1 837/807/1
f 103/803/1 102/804/1 840/804/1 841/803/1
f 1/797/1 108/798/1 846/798/1 829/797/1
f 93/5/1 3/8/1 830/8/1 831/5/1
f 107/799/1 106/800/1 844/800/1 845/799/1
f 97/809/1 96/810/1 834/810/1 835/809/1
f 111/816/1 110/815/1 850/815/1 851/816/1
f 115/820/1 114/819/1 854/819/1 855/820/1
f 4/3/1 124/2/1 864/2/1 848/3/1
f 119/824/1 118/823/1 858/823/1 859/824/1
f 109/814/1 2/813/1 847/813/1 849/814/1
f 123/828/1 122/827/1 862/827/1 863/828/1
f 113/818/1 112/817/1 852/817/1 853/818/1
f 117/822/1 116/821/1 856/821/1 857/822/1
f 121/826/1 120/825/1 860/825/1 861/826/1
